<svg width="237" height="87" viewBox="0 0 237 87" fill="none" xmlns="http://www.w3.org/2000/svg">
<g filter="url(#filter0_b_120_27518)">
<rect width="237" height="87" rx="3" fill="#787878" fill-opacity="0.1"/>
<g clip-path="url(#clip0_120_27518)">
<path d="M40.7506 40.1275L47.6756 33.1365L54.6042 40.1312L58.6336 36.0632L47.6756 25L36.7212 36.0595L40.7506 40.1275Z" fill="#403D54"/>
<path d="M37.9048 42.9996L33.8755 38.9316L29.8459 42.9998L33.8753 47.0677L37.9048 42.9996Z" fill="#403D54"/>
<path d="M40.7507 45.8726L47.6756 52.8635L54.6039 45.8691L58.6356 49.9349L58.6336 49.9371L47.6756 61.0001L36.721 49.9408L36.7153 49.9351L40.7507 45.8726Z" fill="#403D54"/>
<path d="M61.4758 47.0691L65.5054 43.001L61.476 38.9331L57.4465 43.0012L61.4758 47.0691Z" fill="#403D54"/>
<path d="M51.7624 42.9981H51.7641L47.6753 38.8701L44.6536 41.9208H44.6533L44.3063 42.2713L43.5901 42.9944L43.5845 43.0001L43.5901 43.0061L47.6753 47.1303L51.7641 43.0024L51.7661 43.0001L51.7624 42.9981Z" fill="#403D54"/>
<path d="M71.7866 33.7227H80.5504C82.7255 33.7227 84.3703 34.2862 85.485 35.4133C86.3477 36.2862 86.7788 37.3681 86.7788 38.6587V38.7133C86.7788 39.2587 86.7121 39.7406 86.5778 40.1586C86.4437 40.5771 86.2646 40.9539 86.0407 41.2902C85.8173 41.6269 85.5577 41.9223 85.2625 42.1765C84.9671 42.4313 84.6497 42.6497 84.3097 42.8311C85.403 43.2496 86.2637 43.8174 86.8912 44.5357C87.5184 45.2542 87.8325 46.2496 87.8325 47.522V47.5763C87.8325 48.4492 87.6663 49.2127 87.3337 49.8675C87.0011 50.5218 86.5245 51.0674 85.9041 51.5039C85.2836 51.9403 84.5376 52.2673 83.6656 52.4857C82.7937 52.7038 81.8273 52.8127 80.767 52.8127H71.7866V33.7227ZM79.6742 41.4404C80.5929 41.4404 81.3224 41.2817 81.8623 40.9633C82.4025 40.6451 82.6725 40.1313 82.6725 39.4224V39.3679C82.6725 38.7318 82.4382 38.2456 81.9701 37.9089C81.5018 37.5726 80.8264 37.4042 79.9443 37.4042H75.8383V41.4404H79.6742ZM80.7819 49.1314C81.7003 49.1314 82.4202 48.9636 82.9429 48.627C83.4651 48.2906 83.7264 47.7677 83.7264 47.0586V47.0043C83.7264 46.3679 83.4831 45.8635 82.997 45.4904C82.5106 45.1183 81.7274 44.9317 80.6467 44.9317H75.8383V49.1316L80.7819 49.1314Z" fill="#403D54"/>
<path d="M93.0522 33.7227H97.2126V52.8132H93.0522V33.7227Z" fill="#403D54"/>
<path d="M103.514 33.7227H107.349L116.21 45.4771V33.7227H120.316V52.8132H116.777L107.619 40.6772V52.8132H103.514V33.7227Z" fill="#403D54"/>
<path d="M132.91 33.5869H136.746L144.85 52.8137H140.501L138.772 48.5322H130.776L129.047 52.8137H124.806L132.91 33.5869ZM137.287 44.8227L134.774 38.6322L132.262 44.8227H137.287Z" fill="#403D54"/>
<path d="M149.341 33.7227H153.178L162.038 45.4771V33.7227H166.144V52.8132H162.605L153.447 40.6772V52.8132H149.341V33.7227Z" fill="#403D54"/>
<path d="M181.115 53.1403C179.728 53.1403 178.441 52.8856 177.252 52.3769C176.063 51.8682 175.037 51.1724 174.173 50.2904C173.308 49.4087 172.632 48.3678 172.147 47.1679C171.661 45.9677 171.417 44.6859 171.417 43.3222V43.2679C171.417 41.9042 171.661 40.6273 172.147 39.4362C172.633 38.2454 173.308 37.1999 174.173 36.3C175.037 35.4001 176.073 34.6907 177.279 34.1726C178.485 33.6545 179.819 33.3955 181.277 33.3955C182.159 33.3955 182.965 33.4686 183.694 33.6136C184.424 33.7595 185.085 33.9591 185.68 34.2135C186.275 34.4683 186.823 34.7774 187.328 35.1408C187.832 35.5047 188.3 35.9045 188.733 36.3409L186.086 39.4226C185.347 38.7501 184.595 38.2224 183.83 37.8408C183.064 37.4592 182.205 37.2682 181.25 37.2682C180.458 37.2682 179.724 37.4228 179.049 37.7319C178.373 38.041 177.792 38.4681 177.306 39.0134C176.82 39.5588 176.442 40.1908 176.171 40.9088C175.902 41.6273 175.767 42.3953 175.767 43.2133V43.2676C175.767 44.0857 175.902 44.8588 176.171 45.5855C176.442 46.3132 176.815 46.9492 177.293 47.4946C177.77 48.0399 178.346 48.4721 179.021 48.7903C179.697 49.1087 180.44 49.2674 181.25 49.2674C182.331 49.2674 183.244 49.0675 183.992 48.6675C184.739 48.268 185.482 47.7223 186.22 47.0311L188.868 49.7312C188.381 50.2586 187.876 50.7314 187.355 51.1491C186.833 51.5677 186.261 51.9265 185.639 52.2268C185.018 52.5265 184.338 52.7542 183.6 52.9083C182.861 53.0627 182.033 53.1403 181.115 53.1403Z" fill="#403D54"/>
<path d="M193.764 33.7227H208V37.4591H197.87V41.3318H206.785V45.0679H197.87V49.0771H208.136V52.8132H193.764V33.7227Z" fill="#403D54"/>
</g>
<rect x="0.5" y="0.5" width="236" height="86" rx="2.5" stroke="url(#paint0_linear_120_27518)" stroke-opacity="0.8"/>
</g>
<defs>
<filter id="filter0_b_120_27518" x="-26" y="-26" width="289" height="139" filterUnits="userSpaceOnUse" color-interpolation-filters="sRGB">
<feFlood flood-opacity="0" result="BackgroundImageFix"/>
<feGaussianBlur in="BackgroundImageFix" stdDeviation="13"/>
<feComposite in2="SourceAlpha" operator="in" result="effect1_backgroundBlur_120_27518"/>
<feBlend mode="normal" in="SourceGraphic" in2="effect1_backgroundBlur_120_27518" result="shape"/>
</filter>
<linearGradient id="paint0_linear_120_27518" x1="52.0931" y1="-32.613" x2="96.8562" y2="34.8272" gradientUnits="userSpaceOnUse">
<stop stop-color="#858585"/>
<stop offset="0.880208" stop-color="#7B7B7B" stop-opacity="0"/>
</linearGradient>
<clipPath id="clip0_120_27518">
<rect width="178" height="36" fill="white" transform="translate(30 25)"/>
</clipPath>
</defs>
</svg>
