<svg width="237" height="87" viewBox="0 0 237 87" fill="none" xmlns="http://www.w3.org/2000/svg">
<g filter="url(#filter0_b_120_27514)">
<rect width="237" height="87" rx="3" fill="#787878" fill-opacity="0.1"/>
<g clip-path="url(#clip0_120_27514)">
<path d="M177.437 52.6617C177.559 52.789 177.469 52.9998 177.293 52.9998H172.907C172.852 52.9998 172.799 52.9771 172.762 52.9372L166.932 46.7704L161.038 52.9379C161.001 52.9774 160.948 52.9998 160.894 52.9998H156.507C156.331 52.9998 156.241 52.789 156.363 52.6617L164.399 44.2404L156.635 36.0574C156.514 35.93 156.604 35.7197 156.78 35.7197H161.167C161.222 35.7197 161.275 35.7425 161.313 35.7827L166.889 41.7104L172.487 35.7824C172.525 35.7424 172.578 35.7197 172.633 35.7197H177.02C177.196 35.7197 177.286 35.93 177.165 36.0574L169.401 44.2404L177.437 52.6617Z" fill="#403D54"/>
<path d="M135.856 52.9998C135.703 52.9998 135.579 52.8755 135.579 52.7222V35.9983C135.579 35.845 135.703 35.7207 135.856 35.7207H152.427C152.58 35.7207 152.704 35.845 152.704 35.9983V38.3899C152.704 38.5432 152.58 38.6675 152.427 38.6675H139.597V42.5185H147.289C147.442 42.5185 147.567 42.6428 147.567 42.7961V45.1877C147.567 45.341 147.442 45.4653 147.289 45.4653H139.597V49.7516H152.594C152.747 49.7516 152.872 49.8759 152.872 50.0292V52.7222C152.872 52.8755 152.747 52.9998 152.594 52.9998H135.856Z" fill="#403D54"/>
<path d="M106.514 52.9998C106.361 52.9998 106.237 52.8755 106.237 52.7222V35.9983C106.237 35.845 106.361 35.7207 106.514 35.7207H109.978C110.131 35.7207 110.255 35.845 110.255 35.9983V52.7222C110.255 52.8755 110.131 52.9998 109.978 52.9998H106.514Z" fill="#403D54"/>
<path d="M86.8132 52.9998C86.6599 52.9998 86.5356 52.8755 86.5356 52.7222V35.9983C86.5356 35.845 86.6599 35.7207 86.8132 35.7207H103.183C103.336 35.7207 103.46 35.845 103.46 35.9983V38.4569C103.46 38.6102 103.336 38.7345 103.183 38.7345H90.554V43.2887H97.543C97.6963 43.2887 97.8206 43.413 97.8206 43.5663V46.1588C97.8206 46.3121 97.6963 46.4364 97.543 46.4364H90.554V52.7222C90.554 52.8755 90.4297 52.9998 90.2764 52.9998H86.8132Z" fill="#403D54"/>
<path d="M76.0671 38.8015V52.7222C76.0671 52.8755 75.9429 52.9998 75.7895 52.9998H72.3264C72.1731 52.9998 72.0488 52.8755 72.0488 52.7222V38.8015H64.6677C64.5143 38.8015 64.3901 38.6772 64.3901 38.5239V35.9983C64.3901 35.845 64.5143 35.7207 64.6677 35.7207H83.4817C83.635 35.7207 83.7593 35.845 83.7593 35.9983V38.5239C83.7593 38.6772 83.635 38.8015 83.4817 38.8015H76.0671Z" fill="#403D54"/>
<path d="M57.8733 52.9998C57.72 52.9998 57.5957 52.8755 57.5957 52.7222V35.9983C57.5957 35.845 57.72 35.7207 57.8733 35.7207H61.3365C61.4898 35.7207 61.6141 35.845 61.6141 35.9983V52.7222C61.6141 52.8755 61.4898 52.9998 61.3365 52.9998H57.8733Z" fill="#403D54"/>
<path fill-rule="evenodd" clip-rule="evenodd" d="M36 35.9983C36 35.845 36.1243 35.7207 36.2776 35.7207H51.0755C53.0687 35.7207 54.6845 37.3365 54.6845 39.3297V40.4832C54.6845 42.4764 53.0687 44.0922 51.0755 44.0922H51.2104C53.2036 44.0922 54.8194 45.708 54.8194 47.7012V49.391C54.8194 51.3843 53.2036 53.0001 51.2104 53.0001H36.2776C36.1243 53.0001 36 52.8758 36 52.7225V35.9983ZM39.9489 38.5342H49.302C50.2219 38.5342 50.9677 39.28 50.9677 40.1999V40.9868C50.9677 41.9068 50.2219 42.6525 49.302 42.6525H39.9489V38.5342ZM39.9489 45.4974H49.4024C50.3223 45.4974 51.0681 46.2432 51.0681 47.1631V48.2198C51.0681 49.1397 50.3223 49.8855 49.4024 49.8855H39.9489V45.4974Z" fill="#403D54"/>
<path d="M113.031 52.7222V35.9983C113.031 35.845 113.156 35.7207 113.309 35.7207H115.672C115.74 35.7207 115.805 35.7455 115.856 35.7904L129.186 47.5889V35.9983C129.186 35.845 129.31 35.7207 129.463 35.7207H132.525C132.678 35.7207 132.802 35.845 132.802 35.9983V52.7222C132.802 52.8755 132.678 52.9998 132.525 52.9998H130.162C130.094 52.9998 130.028 52.9749 129.978 52.9298L116.648 41.1006V52.7222C116.648 52.8755 116.524 52.9998 116.37 52.9998H113.309C113.156 52.9998 113.031 52.8755 113.031 52.7222Z" fill="#403D54"/>
<path d="M180.777 46.0418C180.602 43.2103 181.792 40.0628 184.241 37.6134C189.567 32.2872 200.659 33.0338 200.722 33.038C200.692 33.082 192.583 44.8386 182.974 45.9382C182.232 46.0232 181.498 46.0567 180.777 46.0418Z" fill="#403D54"/>
<path d="M181.902 49.6621C182.177 50.0996 182.501 50.5092 182.876 50.8843C186.164 54.1721 192.106 53.5611 196.147 49.5195C201.489 44.1782 200.722 33.0381 200.722 33.0381C200.693 33.1041 194.88 46.1333 185.642 48.9753C184.388 49.3611 183.131 49.5858 181.902 49.6621Z" fill="#403D54"/>
</g>
<rect x="0.5" y="0.5" width="236" height="86" rx="2.5" stroke="url(#paint0_linear_120_27514)" stroke-opacity="0.8"/>
</g>
<defs>
<filter id="filter0_b_120_27514" x="-26" y="-26" width="289" height="139" filterUnits="userSpaceOnUse" color-interpolation-filters="sRGB">
<feFlood flood-opacity="0" result="BackgroundImageFix"/>
<feGaussianBlur in="BackgroundImageFix" stdDeviation="13"/>
<feComposite in2="SourceAlpha" operator="in" result="effect1_backgroundBlur_120_27514"/>
<feBlend mode="normal" in="SourceGraphic" in2="effect1_backgroundBlur_120_27514" result="shape"/>
</filter>
<linearGradient id="paint0_linear_120_27514" x1="52.0931" y1="-32.613" x2="96.8562" y2="34.8272" gradientUnits="userSpaceOnUse">
<stop stop-color="#858585"/>
<stop offset="0.880208" stop-color="#7B7B7B" stop-opacity="0"/>
</linearGradient>
<clipPath id="clip0_120_27514">
<rect width="165" height="20" fill="white" transform="translate(36 33)"/>
</clipPath>
</defs>
</svg>
