<svg width="237" height="87" viewBox="0 0 237 87" fill="none" xmlns="http://www.w3.org/2000/svg">
<g id="Frame 121" filter="url(#filter0_b_120_27517)">
<rect width="237" height="87" rx="3" fill="#787878" fill-opacity="0.1"/>
<path id="Vector" d="M71.0904 37.0962C65.3143 37.0962 60.8011 41.5732 60.8011 47.5665C60.8011 53.5599 65.2003 57.9985 71.0904 57.9985C76.9805 57.9985 81.4562 53.4833 81.4562 47.5282C81.4562 41.6115 77.057 37.0962 71.0904 37.0962ZM71.1294 53.6793C67.8401 53.6793 65.4298 51.0709 65.4298 47.568C65.4298 44.0254 67.8011 41.4185 71.0904 41.4185C74.4186 41.4185 76.8275 44.0651 76.8275 47.568C76.8275 51.0709 74.4186 53.6793 71.1294 53.6793ZM82.7176 41.6513H85.5869V57.611H90.1766V37.4853H82.7176V41.6513ZM49.2503 41.417C51.6607 41.417 53.573 42.9349 54.299 45.1925H59.1572C58.2768 40.3663 54.3755 37.0962 49.2893 37.0962C43.5132 37.0962 39 41.5732 39 47.568C39 53.5628 43.3992 58 49.2893 58C54.2615 58 58.2392 54.73 59.1196 49.864H54.299C53.6106 52.1216 51.6982 53.6793 49.2879 53.6793C45.9596 53.6793 43.6272 51.0709 43.6272 47.568C43.6287 44.0254 45.9235 41.417 49.2503 41.417ZM169.925 45.6213L166.559 45.1159C164.953 44.883 163.805 44.3378 163.805 43.0527C163.805 41.6513 165.298 40.9513 167.324 40.9513C169.542 40.9513 170.958 41.9239 171.264 43.5199H175.701C175.203 39.4718 172.143 37.0977 167.439 37.0977C162.581 37.0977 159.369 39.628 159.369 43.209C159.369 46.6337 161.473 48.6202 165.718 49.2421L169.083 49.7475C170.729 49.9804 171.647 50.6435 171.647 51.8888C171.647 53.4847 170.04 54.1464 167.822 54.1464C165.106 54.1464 163.576 53.0176 163.346 51.3052H158.833C159.255 55.2369 162.275 58 167.783 58C172.794 58 176.121 55.6643 176.121 51.6545C176.121 48.0735 173.712 46.2049 169.925 45.6213ZM87.8818 29.1945C86.1989 29.1945 84.936 30.4398 84.936 32.1521C84.936 33.8645 86.1974 35.1098 87.8818 35.1098C89.5647 35.1098 90.8276 33.8645 90.8276 32.1521C90.8276 30.4398 89.5647 29.1945 87.8818 29.1945ZM155.238 44.3761C155.238 40.017 152.637 37.0977 147.129 37.0977C141.928 37.0977 139.021 39.7842 138.446 43.9104H142.999C143.228 42.3144 144.452 40.9911 147.053 40.9911C149.387 40.9911 150.534 42.0418 150.534 43.3268C150.534 45.0009 148.43 45.4283 145.829 45.7009C142.31 46.0899 137.95 47.3352 137.95 52.0067C137.95 55.6274 140.59 57.9617 144.797 57.9617C148.086 57.9617 150.152 56.5602 151.185 54.3409C151.338 56.3259 152.791 57.611 154.819 57.611H157.497V53.4464H155.239V44.3761H155.238ZM150.725 49.4366C150.725 52.1231 148.43 54.1081 145.637 54.1081C143.915 54.1081 142.462 53.3683 142.462 51.8121C142.462 49.8271 144.796 49.2819 146.937 49.049C149.003 48.8545 150.15 48.3874 150.725 47.4914V49.4366ZM126.36 37.0962C123.797 37.0962 121.655 38.1867 120.125 40.0155V29H115.535V57.611H120.049V54.9643C121.579 56.8712 123.759 58 126.36 58C131.868 58 136.038 53.5628 136.038 47.568C136.038 41.5732 131.791 37.0962 126.36 37.0962ZM125.672 53.6793C122.382 53.6793 119.972 51.0709 119.972 47.568C119.972 44.0651 122.42 41.4185 125.709 41.4185C129.038 41.4185 131.37 44.0268 131.37 47.568C131.37 51.0709 128.961 53.6793 125.672 53.6793ZM104.558 37.0962C101.574 37.0962 99.623 38.3415 98.4756 40.0937V37.4853H93.9234V57.6095H98.5131V46.672C98.5131 43.5965 100.426 41.417 103.256 41.417C105.896 41.417 107.54 43.3239 107.54 46.0885V57.611H112.129V45.7392C112.131 40.6772 109.569 37.0962 104.558 37.0962ZM198 46.9063C198 41.1458 193.869 37.0977 188.323 37.0977C182.433 37.0977 178.11 41.613 178.11 47.568C178.11 53.8355 182.739 58 188.399 58C193.181 58 196.929 55.119 197.885 51.0326H193.103C192.414 52.8231 190.732 53.8355 188.474 53.8355C185.528 53.8355 183.31 51.9669 182.814 48.6968H197.999V46.9063H198ZM183.082 45.3487C183.809 42.5458 185.875 41.1842 188.246 41.1842C190.847 41.1842 192.836 42.702 193.295 45.3487H183.082Z" fill="#403D54"/>
<rect x="0.5" y="0.5" width="236" height="86" rx="2.5" stroke="url(#paint0_linear_120_27517)" stroke-opacity="0.8"/>
</g>
<defs>
<filter id="filter0_b_120_27517" x="-26" y="-26" width="289" height="139" filterUnits="userSpaceOnUse" color-interpolation-filters="sRGB">
<feFlood flood-opacity="0" result="BackgroundImageFix"/>
<feGaussianBlur in="BackgroundImageFix" stdDeviation="13"/>
<feComposite in2="SourceAlpha" operator="in" result="effect1_backgroundBlur_120_27517"/>
<feBlend mode="normal" in="SourceGraphic" in2="effect1_backgroundBlur_120_27517" result="shape"/>
</filter>
<linearGradient id="paint0_linear_120_27517" x1="52.0931" y1="-32.613" x2="96.8562" y2="34.8272" gradientUnits="userSpaceOnUse">
<stop stop-color="#858585"/>
<stop offset="0.880208" stop-color="#7B7B7B" stop-opacity="0"/>
</linearGradient>
</defs>
</svg>
