<svg width="237" height="87" viewBox="0 0 237 87" fill="none" xmlns="http://www.w3.org/2000/svg">
<g id="Frame 120" filter="url(#filter0_b_120_27516)">
<rect width="237" height="87" rx="3" fill="#787878" fill-opacity="0.1"/>
<g id="layer1">
<g id="g903">
<path id="path817" d="M50.666 27L37 34.8058V50.4175L50.666 58.2233L64.3321 50.4175V34.8058L50.666 27ZM50.666 27L37 34.8058V50.4175L50.666 58.2233L64.3321 50.4175V34.8058L50.666 27Z" fill="#8B8B8B"/>
<path id="path819" d="M56.0613 52.125H54.1168L51.7889 50.0109V48.9268L54.199 46.6501V43.0453L57.3484 41.0125L60.9361 43.6958L56.0613 52.125ZM48.0095 46.4333L48.3655 43.0453L47.1879 40.0097H54.1442L52.9939 43.0453L53.3226 46.4333H50.6387H48.0095ZM49.598 50.0109L47.2701 52.1521H45.2982L40.396 43.6958L44.011 41.0396L47.1879 43.0453V46.6501L49.598 48.9268V50.0109ZM45.2708 33.7488H56.0339L57.3211 39.1695H44.011L45.2708 33.7488ZM50.666 27L37 34.8058V50.4175L50.666 58.2233L64.3321 50.4175V34.8058L50.666 27Z" fill="#403D54"/>
<path id="path845" d="M79.6686 49.8488C76.0535 49.8488 73.397 47.0571 73.397 43.6149C73.397 40.1728 76.0809 37.2998 79.696 37.2998C81.9964 37.2998 83.4206 38.14 84.5434 39.3597L82.8181 41.2027C81.9691 40.3083 81.0653 39.712 79.6686 39.712C77.6419 39.712 76.163 41.4467 76.163 43.5607C76.163 45.729 77.6693 47.4636 79.8055 47.4636C81.1201 47.4636 82.0786 46.8403 82.955 45.9729L84.6256 47.6263C83.4206 48.9001 82.0238 49.8488 79.6686 49.8488Z" fill="#403D54"/>
<path id="path847" d="M89.9111 49.8487H87.1177V37.3269H89.9111V40.2541C90.678 38.4652 92.0747 37.2185 94.2109 37.3269V40.2541H94.0466C91.6091 40.2541 89.9111 41.8261 89.9111 45.0243V49.8487Z" fill="#403D54"/>
<path id="polygon849" d="M108.808 37.2725L102.646 53.2094H99.8255L101.168 49.8485L95.8818 37.2725H98.867L102.455 46.569L105.905 37.2725H108.808Z" fill="#403D54"/>
<path id="path851" d="M117.025 39.6847C115.135 39.6847 113.492 41.2025 113.492 43.5605C113.492 45.9185 115.162 47.4363 117.025 47.4363C118.942 47.4363 120.503 45.9456 120.503 43.5605C120.503 41.1754 118.914 39.6847 117.025 39.6847ZM117.654 49.8214C115.655 49.8214 114.395 48.8186 113.546 47.7073V53.2094H110.753V37.2725H113.546V39.5221C114.45 38.2753 115.71 37.2725 117.654 37.2725C120.53 37.2725 123.323 39.522 123.323 43.5334C123.323 47.5447 120.557 49.8214 117.654 49.8214Z" fill="#403D54"/>
<path id="path853" d="M129.431 39.901V45.8096C129.431 46.8666 129.978 47.3002 130.937 47.3002H132.032V49.7667H130.115C128.089 49.7667 126.637 48.8722 126.637 46.2432V39.901H125.104V37.543H126.637V34.2363H129.431V37.543H132.032V39.901H129.431Z" fill="#403D54"/>
<path id="path855" d="M140.824 39.6849C138.578 39.6849 137.154 41.4195 137.154 43.5336C137.154 45.6748 138.687 47.4365 140.851 47.4365C143.097 47.4365 144.521 45.7019 144.521 43.5878C144.576 41.4467 143.015 39.6849 140.824 39.6849ZM140.824 49.8488C137.126 49.8488 134.388 47.0571 134.388 43.6149C134.388 40.1457 137.154 37.2998 140.878 37.2998C144.603 37.2998 147.342 40.0915 147.342 43.5607C147.342 46.9758 144.603 49.8488 140.824 49.8488Z" fill="#403D54"/>
<path id="path857" d="M173.989 39.6849C171.743 39.6849 170.319 41.4195 170.319 43.5336C170.319 45.6748 171.853 47.4365 174.017 47.4365C176.262 47.4365 177.686 45.7019 177.686 43.5878C177.714 41.4467 176.18 39.6849 173.989 39.6849ZM173.989 49.8488C170.292 49.8488 167.553 47.0571 167.553 43.6149C167.553 40.1457 170.319 37.2998 174.044 37.2998C177.769 37.2998 180.507 40.0915 180.507 43.5607C180.507 46.9758 177.741 49.8488 173.989 49.8488Z" fill="#403D54"/>
<path id="path859" d="M197.049 37.2725C199.705 37.2725 201.321 38.9258 201.321 41.8801V49.8214H198.528V42.7203C198.528 40.7959 197.624 39.7931 196.063 39.7931C194.557 39.7931 193.461 40.8501 193.461 42.7745V49.8485H190.668V42.7203C190.668 40.8501 189.736 39.7931 188.203 39.7931C186.669 39.7931 185.601 40.9314 185.601 42.8016V49.8485H182.808V37.2996H185.601V39.3594C186.395 38.3024 187.436 37.2996 189.298 37.2996C191.051 37.2996 192.256 38.1398 192.913 39.4136C193.927 38.1127 195.214 37.2725 197.049 37.2725Z" fill="#403D54"/>
<path id="polygon861" d="M149.779 47.1649L150.984 46.4873H151.149L152.381 47.1649L152.463 47.3004V48.7098L152.381 48.8453L151.149 49.5229H150.984L149.779 48.8453L149.697 48.7098V47.3004L149.779 47.1649Z" fill="#403D54"/>
<path id="path863" d="M160.926 49.8212C157.311 49.7399 154.709 46.894 154.764 43.4518C154.818 40.0097 157.557 37.1909 161.199 37.2722C163.5 37.3264 164.924 38.1937 166.02 39.4405L164.267 41.2564C163.445 40.362 162.541 39.7115 161.145 39.6844C159.118 39.6573 157.612 41.3378 157.584 43.4789C157.53 45.6472 159.009 47.409 161.145 47.4361C162.459 47.4632 163.445 46.8669 164.322 45.9996L165.965 47.68C164.732 48.9539 163.308 49.8754 160.926 49.8212Z" fill="#403D54"/>
</g>
</g>
<rect x="0.5" y="0.5" width="236" height="86" rx="2.5" stroke="url(#paint0_linear_120_27516)" stroke-opacity="0.8"/>
</g>
<defs>
<filter id="filter0_b_120_27516" x="-26" y="-26" width="289" height="139" filterUnits="userSpaceOnUse" color-interpolation-filters="sRGB">
<feFlood flood-opacity="0" result="BackgroundImageFix"/>
<feGaussianBlur in="BackgroundImageFix" stdDeviation="13"/>
<feComposite in2="SourceAlpha" operator="in" result="effect1_backgroundBlur_120_27516"/>
<feBlend mode="normal" in="SourceGraphic" in2="effect1_backgroundBlur_120_27516" result="shape"/>
</filter>
<linearGradient id="paint0_linear_120_27516" x1="52.0931" y1="-32.613" x2="96.8562" y2="34.8272" gradientUnits="userSpaceOnUse">
<stop stop-color="#858585"/>
<stop offset="0.880208" stop-color="#7B7B7B" stop-opacity="0"/>
</linearGradient>
</defs>
</svg>
