<svg width="237" height="87" viewBox="0 0 237 87" fill="none" xmlns="http://www.w3.org/2000/svg">
<g id="Frame 117" filter="url(#filter0_b_120_27513)">
<rect width="237" height="87" rx="3" fill="#787878" fill-opacity="0.1"/>
<g id="&#233;&#161;&#181;&#233;&#157;&#162;-1">
<g id="&#229;&#175;&#188;&#232;&#136;&#170;&#230;&#160;&#143;&#228;&#184;&#139;&#230;&#139;&#137;&#230;&#156;&#128;&#229;&#176;&#143;&#229;&#174;&#189;&#229;&#186;&#166;&#229;&#164;&#135;&#228;&#187;&#189;-4">
<g id="&#231;&#188;&#150;&#231;&#187;&#132;-27&#229;&#164;&#135;&#228;&#187;&#189;-2">
<g id="kucoin-logo">
<g id="KUCOIN-logo-3.0">
<path id="&#229;&#189;&#162;&#231;&#138;&#182;" d="M153.335 42.9868C153.335 42.2726 153.335 41.6009 153.312 40.9805C153.296 40.3953 153.238 39.8119 153.138 39.235C153.045 38.7082 152.88 38.1966 152.649 37.7143C152.405 37.217 152.078 36.7645 151.683 36.376C151.123 35.802 150.456 35.3426 149.72 35.0235C148.924 34.701 148.072 34.5412 147.213 34.5534C146.351 34.5422 145.496 34.702 144.696 35.0235C143.956 35.3382 143.285 35.7956 142.722 36.3695C142.327 36.7579 142.002 37.2104 141.76 37.7079C141.53 38.1903 141.368 38.702 141.278 39.2286C141.181 39.8057 141.125 40.389 141.111 40.9741C141.096 41.5945 141.088 42.2662 141.092 42.9804C141.096 43.6945 141.092 44.3611 141.111 44.9853C141.125 45.5704 141.181 46.1537 141.278 46.7308C141.368 47.2574 141.53 47.7691 141.76 48.2515C142.003 48.7484 142.328 49.2008 142.722 49.5899C143.284 50.1643 143.955 50.621 144.696 50.9334C145.495 51.2569 146.351 51.4176 147.213 51.406C148.072 51.4187 148.925 51.2579 149.72 50.9334C150.456 50.6185 151.123 50.162 151.683 49.5899C152.077 49.2006 152.404 48.7482 152.649 48.2515C152.88 47.7692 153.045 47.2576 153.138 46.7308C153.237 46.1555 153.294 45.5739 153.309 44.9904C153.328 44.3662 153.337 43.6983 153.332 42.9855L153.335 42.9868ZM150.098 42.9868C150.098 43.778 150.086 44.4369 150.06 44.9609C150.044 45.3914 150.001 45.8204 149.931 46.2453C149.883 46.5284 149.797 46.8037 149.674 47.0635C149.575 47.2729 149.445 47.4664 149.289 47.6376C149.048 47.9136 148.749 48.1329 148.413 48.2798C148.035 48.4415 147.628 48.5237 147.217 48.5213C146.804 48.5231 146.395 48.4409 146.015 48.2798C145.671 48.1356 145.364 47.9162 145.116 47.6376C144.959 47.4671 144.829 47.2735 144.731 47.0635C144.612 46.8034 144.529 46.528 144.486 46.2453C144.418 45.8201 144.375 45.3912 144.358 44.9609C144.335 44.4369 144.323 43.7788 144.323 42.9868C144.323 42.1956 144.335 41.5354 144.358 41.0114C144.375 40.581 144.418 40.1521 144.486 39.727C144.529 39.4442 144.612 39.1689 144.731 38.9088C144.829 38.6989 144.959 38.5053 145.116 38.3347C145.364 38.0565 145.671 37.8371 146.015 37.6925C146.395 37.5295 146.804 37.4473 147.217 37.451C147.628 37.4467 148.036 37.529 148.413 37.6925C148.748 37.8398 149.047 38.059 149.289 38.3347C149.445 38.5061 149.575 38.6996 149.674 38.9088C149.797 39.1686 149.883 39.4439 149.931 39.727C150.001 40.1519 150.044 40.5809 150.06 41.0114C150.088 41.5341 150.098 42.1943 150.098 42.9868Z" fill="#403D54"/>
<path id="&#232;&#183;&#175;&#229;&#190;&#132;" d="M179.126 34.9821C179.124 34.8259 178.998 34.6996 178.842 34.6982H176.172C176.015 34.6989 175.888 34.8256 175.888 34.9821V44.8463L169.376 34.7779C169.332 34.7098 169.294 34.6982 169.197 34.6982H166.721C166.565 34.7003 166.439 34.8262 166.437 34.9821V50.9883C166.439 51.144 166.565 51.2695 166.721 51.2709H169.39C169.546 51.2702 169.672 51.1441 169.672 50.9883V41.0984L176.186 51.19C176.231 51.2581 176.267 51.2696 176.364 51.2696H178.839C178.995 51.2689 179.122 51.143 179.123 50.987L179.126 34.9821Z" fill="#403D54"/>
<path id="&#232;&#183;&#175;&#229;&#190;&#132;_2" d="M161.226 34.9821C161.225 34.8256 161.099 34.6989 160.942 34.6982H158.275C158.118 34.6989 157.991 34.8256 157.991 34.9821V50.987C157.991 51.1435 158.118 51.2702 158.275 51.2709H160.942C161.099 51.2702 161.225 51.1435 161.226 50.987V34.9821Z" fill="#403D54"/>
<path id="&#232;&#183;&#175;&#229;&#190;&#132;_3" d="M129.291 42.9867C129.291 42.1904 129.3 41.5276 129.323 40.9997C129.339 40.5693 129.382 40.1403 129.451 39.7153C129.698 38.2896 130.79 37.4484 132.183 37.4484C133.093 37.4561 133.917 37.7926 134.444 38.5581C134.682 38.9155 134.856 39.3119 134.958 39.7295C134.965 39.7734 135.006 39.8041 135.05 39.8001H138.19C138.235 39.8001 138.252 39.7693 138.244 39.7256C137.901 37.7823 136.865 36.0368 135.033 35.1724C134.133 34.7556 133.151 34.5471 132.159 34.5623C130.391 34.5623 128.901 35.1677 127.69 36.3784C126.999 37.0522 126.527 37.9188 126.337 38.8651C126.152 39.7967 126.058 41.1701 126.057 42.9854C126.055 44.8007 126.148 46.1737 126.337 47.1045C126.526 48.052 126.996 48.9204 127.687 49.5962C128.897 50.8062 130.386 51.4111 132.155 51.4111C133.147 51.4261 134.129 51.218 135.03 50.8023C136.861 49.9379 137.898 48.1924 138.241 46.2491C138.248 46.2041 138.232 46.1746 138.187 46.1746H135.045C135 46.1699 134.96 46.2009 134.952 46.2452C134.851 46.6623 134.677 47.0583 134.439 47.4153C133.912 48.186 133.088 48.5186 132.178 48.5251C130.785 48.5251 129.693 47.6851 129.446 46.2594C129.376 45.8344 129.334 45.4054 129.318 44.975C129.3 44.4445 129.291 43.7805 129.291 42.9867Z" fill="#403D54"/>
<path id="&#232;&#183;&#175;&#229;&#190;&#132;_4" d="M96.1226 34.9821C96.1219 34.8256 95.9952 34.6989 95.8388 34.6982H93.1711C93.0146 34.6989 92.8879 34.8256 92.8872 34.9821V50.9883C92.8886 51.1443 93.0151 51.2702 93.1711 51.271H95.8388C95.9947 51.2702 96.1212 51.1443 96.1226 50.9883V46.29L98.2637 43.7302L102.662 51.1861C102.695 51.2411 102.756 51.2735 102.821 51.271H106.063C106.212 51.271 106.239 51.1784 106.164 51.0513L100.406 41.2898L105.689 34.9526C105.795 34.8241 105.751 34.7021 105.584 34.7021H102.04C101.997 34.6996 101.955 34.7189 101.929 34.7535L96.1226 41.7175V34.9821Z" fill="#403D54"/>
<path id="&#232;&#183;&#175;&#229;&#190;&#132;_5" d="M115.558 48.5248C114.056 48.5248 112.695 47.1351 112.695 45.4757V34.9821C112.694 34.8256 112.568 34.6989 112.411 34.6982H109.743C109.587 34.6989 109.46 34.8256 109.459 34.9821V45.4346C109.459 49.0887 112.193 51.4109 115.558 51.4109C118.923 51.4109 121.656 49.0887 121.656 45.4346V34.9821C121.655 34.8259 121.529 34.6996 121.372 34.6982H118.703C118.547 34.6996 118.421 34.8261 118.421 34.9821V45.4757C118.421 47.1338 117.058 48.5248 115.558 48.5248Z" fill="#403D54"/>
<path id="&#229;&#189;&#162;&#231;&#138;&#182;_2" fill-rule="evenodd" clip-rule="evenodd" d="M66.0712 42.9869L74.353 51.27L79.5806 46.0425C80.5153 45.2009 81.9454 45.2383 82.8348 46.1277C83.7242 47.0172 83.7617 48.4472 82.92 49.382L76.0215 56.2818C75.0948 57.1931 73.6087 57.1931 72.682 56.2818L62.7292 46.3264V52.2436C62.7292 53.5496 61.6705 54.6082 60.3646 54.6082C59.0587 54.6082 58 53.5496 58 52.2436V33.7225C58 32.4166 59.0587 31.3579 60.3646 31.3579C61.6705 31.3579 62.7292 32.4166 62.7292 33.7225V39.6398L72.6807 29.6869C73.6071 28.7749 75.0938 28.7749 76.0202 29.6869L82.9239 36.5855C83.7655 37.5202 83.7281 38.9503 82.8386 39.8397C81.9492 40.7291 80.5192 40.7666 79.5844 39.9249L74.3569 34.6974L66.0712 42.9869ZM74.3569 40.6198C73.3993 40.6193 72.5358 41.1957 72.169 42.0802C71.8022 42.9647 72.0044 43.983 72.6813 44.6603C73.3582 45.3376 74.3765 45.5403 75.2612 45.174C76.1459 44.8077 76.7228 43.9445 76.7228 42.9869C76.7231 42.3591 76.474 41.7569 76.0303 41.3127C75.5866 40.8686 74.9847 40.6188 74.3569 40.6185V40.6198Z" fill="#403D54"/>
</g>
</g>
</g>
</g>
</g>
<rect x="0.5" y="0.5" width="236" height="86" rx="2.5" stroke="url(#paint0_linear_120_27513)" stroke-opacity="0.8"/>
</g>
<defs>
<filter id="filter0_b_120_27513" x="-26" y="-26" width="289" height="139" filterUnits="userSpaceOnUse" color-interpolation-filters="sRGB">
<feFlood flood-opacity="0" result="BackgroundImageFix"/>
<feGaussianBlur in="BackgroundImageFix" stdDeviation="13"/>
<feComposite in2="SourceAlpha" operator="in" result="effect1_backgroundBlur_120_27513"/>
<feBlend mode="normal" in="SourceGraphic" in2="effect1_backgroundBlur_120_27513" result="shape"/>
</filter>
<linearGradient id="paint0_linear_120_27513" x1="52.0931" y1="-32.613" x2="96.8562" y2="34.8272" gradientUnits="userSpaceOnUse">
<stop stop-color="#858585"/>
<stop offset="0.880208" stop-color="#7B7B7B" stop-opacity="0"/>
</linearGradient>
</defs>
</svg>
