<svg width="39" height="30" viewBox="0 0 39 30" fill="none" xmlns="http://www.w3.org/2000/svg">
<path id="Vector" d="M38.41 6.917V26.3486C38.4079 27.1362 38.0941 27.8909 37.5372 28.4478C36.9803 29.0047 36.2255 29.3185 35.438 29.3206H2.97204C2.18446 29.3185 1.42973 29.0047 0.872823 28.4478C0.315913 27.8909 0.00211056 27.1362 0 26.3486V6.917C0.00211056 6.12941 0.315913 5.37469 0.872823 4.81778C1.42973 4.26087 2.18446 3.94707 2.97204 3.94495H10.7074V2.97204C10.7095 2.18446 11.0233 1.42973 11.5802 0.872823C12.1371 0.315914 12.8918 0.00211056 13.6794 0H24.7306C25.5182 0.00211056 26.2729 0.315914 26.8298 0.872823C27.3867 1.42973 27.7005 2.18446 27.7026 2.97204V3.94495H35.438C36.2255 3.94707 36.9803 4.26087 37.5372 4.81778C38.0941 5.37469 38.4079 6.12941 38.41 6.917ZM28.3104 16.6328C28.3104 14.8319 27.7764 13.0715 26.7759 11.5741C25.7753 10.0767 24.3533 8.90967 22.6895 8.22051C21.0257 7.53134 19.1949 7.35102 17.4286 7.70236C15.6624 8.05369 14.0399 8.92089 12.7665 10.1943C11.4931 11.4677 10.6259 13.0901 10.2746 14.8564C9.92324 16.6227 10.1036 18.4535 10.7927 20.1173C11.4819 21.7811 12.6489 23.2031 14.1463 24.2036C15.6437 25.2041 17.4041 25.7382 19.205 25.7382C21.6199 25.7382 23.9359 24.7789 25.6435 23.0713C27.3511 21.3637 28.3104 19.0477 28.3104 16.6328ZM23.5418 12.2933C24.5458 13.2962 25.171 14.6161 25.3109 16.0282C25.4507 17.4403 25.0966 18.8573 24.3089 20.0376C23.5211 21.2179 22.3485 22.0885 20.9908 22.5011C19.6331 22.9137 18.1743 22.8428 16.863 22.3004C15.5517 21.758 14.4691 20.7777 13.7996 19.5265C13.1301 18.2753 12.9151 16.8307 13.1914 15.4389C13.4676 14.047 14.2179 12.7939 15.3145 11.8933C16.411 10.9926 17.786 10.5 19.205 10.4994C20.0108 10.4973 20.8089 10.655 21.5533 10.9633C22.2977 11.2717 22.9736 11.7247 23.5418 12.296V12.2933ZM21.8279 3.59844C21.8273 3.89272 21.9141 4.18055 22.0772 4.42549C22.2403 4.67044 22.4725 4.86149 22.7442 4.97447C23.0159 5.08746 23.3151 5.11729 23.6037 5.0602C23.8924 5.00312 24.1577 4.86167 24.366 4.65377C24.5743 4.44586 24.7162 4.18085 24.7738 3.89225C24.8314 3.60366 24.8021 3.30447 24.6896 3.03254C24.5771 2.7606 24.3865 2.52815 24.1418 2.3646C23.8972 2.20105 23.6095 2.11375 23.3152 2.11375C22.9212 2.11375 22.5433 2.27009 22.2644 2.54844C21.9856 2.8268 21.8286 3.20443 21.8279 3.59844Z" fill="white"/>
</svg>
