<svg width="370" height="113" viewBox="0 0 370 113" fill="none" xmlns="http://www.w3.org/2000/svg">
<rect width="3.2084" height="26.6452" transform="matrix(-1 0 0 1 371.001 86.3105)" fill="url(#paint0_linear_101_57)" fill-opacity="0.2"/>
<rect width="3.2084" height="37.367" transform="matrix(-1 0 0 1 367.088 75.5879)" fill="url(#paint1_linear_101_57)" fill-opacity="0.2"/>
<rect width="3.2084" height="41.0327" transform="matrix(-1 0 0 1 363.174 71.9238)" fill="url(#paint2_linear_101_57)" fill-opacity="0.2"/>
<rect width="3.2084" height="34.9039" transform="matrix(-1 0 0 1 359.263 78.0508)" fill="url(#paint3_linear_101_57)" fill-opacity="0.2"/>
<rect width="3.2084" height="22.255" transform="matrix(-1 0 0 1 355.35 90.6992)" fill="url(#paint4_linear_101_57)" fill-opacity="0.2"/>
<rect width="3.2084" height="18.8646" transform="matrix(-1 0 0 1 351.437 94.0898)" fill="url(#paint5_linear_101_57)" fill-opacity="0.2"/>
<rect width="3.2084" height="26.4278" transform="matrix(-1 0 0 1 347.523 86.5273)" fill="url(#paint6_linear_101_57)" fill-opacity="0.2"/>
<rect width="3.2084" height="43.1191" transform="matrix(-1 0 0 1 343.611 69.8359)" fill="url(#paint7_linear_101_57)" fill-opacity="0.2"/>
<rect width="3.2084" height="62.4039" transform="matrix(-1 0 0 1 339.699 50.5527)" fill="url(#paint8_linear_101_57)" fill-opacity="0.2"/>
<rect width="3.2084" height="57.1299" transform="matrix(-1 0 0 1 335.786 55.8262)" fill="url(#paint9_linear_101_57)" fill-opacity="0.2"/>
<rect width="3.2084" height="72.039" transform="matrix(-1 0 0 1 331.875 40.916)" fill="url(#paint10_linear_101_57)" fill-opacity="0.2"/>
<rect width="3.2084" height="87.5857" transform="matrix(-1 0 0 1 327.961 25.3691)" fill="url(#paint11_linear_101_57)" fill-opacity="0.2"/>
<rect width="3.2084" height="60.7667" transform="matrix(-1 0 0 1 324.049 52.1895)" fill="url(#paint12_linear_101_57)" fill-opacity="0.2"/>
<rect width="3.2084" height="35.8022" transform="matrix(-1 0 0 1 320.136 77.1523)" fill="url(#paint13_linear_101_57)" fill-opacity="0.2"/>
<rect width="3.2084" height="42.8293" transform="matrix(-1 0 0 1 316.223 70.125)" fill="url(#paint14_linear_101_57)" fill-opacity="0.2"/>
<rect width="3.2084" height="51.088" transform="matrix(-1 0 0 1 312.312 61.8672)" fill="url(#paint15_linear_101_57)" fill-opacity="0.2"/>
<rect width="3.2084" height="49.3783" transform="matrix(-1 0 0 1 308.397 63.5781)" fill="url(#paint16_linear_101_57)" fill-opacity="0.2"/>
<rect width="3.2084" height="46.1328" transform="matrix(-1 0 0 1 304.485 66.8223)" fill="url(#paint17_linear_101_57)" fill-opacity="0.2"/>
<rect width="3.2084" height="54.3046" transform="matrix(-1 0 0 1 300.571 58.6523)" fill="url(#paint18_linear_101_57)" fill-opacity="0.2"/>
<rect width="3.2084" height="73.7343" transform="matrix(-1 0 0 1 296.658 39.2227)" fill="url(#paint19_linear_101_57)" fill-opacity="0.2"/>
<rect width="3.2084" height="72.5607" transform="matrix(-1 0 0 1 292.747 40.3945)" fill="url(#paint20_linear_101_57)" fill-opacity="0.2"/>
<rect width="3.2084" height="69.518" transform="matrix(-1 0 0 1 288.834 43.4395)" fill="url(#paint21_linear_101_57)" fill-opacity="0.2"/>
<rect width="3.2084" height="84.3402" transform="matrix(-1 0 0 1 284.921 28.6152)" fill="url(#paint22_linear_101_57)" fill-opacity="0.2"/>
<rect width="3.2084" height="60.1002" transform="matrix(-1 0 0 1 281.008 52.8555)" fill="url(#paint23_linear_101_57)" fill-opacity="0.2"/>
<rect width="3.2084" height="49.5667" transform="matrix(-1 0 0 1 277.097 63.3887)" fill="url(#paint24_linear_101_57)" fill-opacity="0.2"/>
<rect width="3.2084" height="55.029" transform="matrix(-1 0 0 1 273.184 57.9258)" fill="url(#paint25_linear_101_57)" fill-opacity="0.2"/>
<rect width="3.2084" height="77.2551" transform="matrix(-1 0 0 1 269.271 35.7012)" fill="url(#paint26_linear_101_57)" fill-opacity="0.2"/>
<rect width="3.2084" height="71.2856" transform="matrix(-1 0 0 1 265.359 41.6719)" fill="url(#paint27_linear_101_57)" fill-opacity="0.2"/>
<rect width="3.2084" height="62.6502" transform="matrix(-1 0 0 1 261.445 50.3047)" fill="url(#paint28_linear_101_57)" fill-opacity="0.2"/>
<rect width="3.2084" height="51.3633" transform="matrix(-1 0 0 1 257.533 61.5918)" fill="url(#paint29_linear_101_57)" fill-opacity="0.2"/>
<rect width="3.2084" height="46.3646" transform="matrix(-1 0 0 1 253.62 66.5898)" fill="url(#paint30_linear_101_57)" fill-opacity="0.2"/>
<rect width="3.2084" height="62.8241" transform="matrix(-1 0 0 1 249.707 50.1309)" fill="url(#paint31_linear_101_57)" fill-opacity="0.2"/>
<rect width="3.2084" height="42.3077" transform="matrix(-1 0 0 1 245.795 70.6465)" fill="url(#paint32_linear_101_57)" fill-opacity="0.2"/>
<rect width="3.2084" height="44.0464" transform="matrix(-1 0 0 1 241.883 68.9102)" fill="url(#paint33_linear_101_57)" fill-opacity="0.2"/>
<rect width="3.2084" height="57.5646" transform="matrix(-1 0 0 1 237.97 55.3906)" fill="url(#paint34_linear_101_57)" fill-opacity="0.2"/>
<rect width="3.2084" height="52.8267" transform="matrix(-1 0 0 1 234.056 60.1309)" fill="url(#paint35_linear_101_57)" fill-opacity="0.2"/>
<rect width="3.2084" height="52.6384" transform="matrix(-1 0 0 1 230.145 60.3164)" fill="url(#paint36_linear_101_57)" fill-opacity="0.2"/>
<rect width="3.2084" height="58.7817" transform="matrix(-1 0 0 1 226.231 54.1738)" fill="url(#paint37_linear_101_57)" fill-opacity="0.2"/>
<rect width="3.2084" height="45.7561" transform="matrix(-1 0 0 1 222.319 67.2012)" fill="url(#paint38_linear_101_57)" fill-opacity="0.2"/>
<rect width="3.2084" height="49.19" transform="matrix(-1 0 0 1 218.405 63.7676)" fill="url(#paint39_linear_101_57)" fill-opacity="0.2"/>
<rect width="3.2084" height="66.0551" transform="matrix(-1 0 0 1 214.494 46.9004)" fill="url(#paint40_linear_101_57)" fill-opacity="0.2"/>
<rect width="3.2084" height="75.2266" transform="matrix(-1 0 0 1 210.581 37.7305)" fill="url(#paint41_linear_101_57)" fill-opacity="0.2"/>
<rect width="3.2084" height="63.5195" transform="matrix(-1 0 0 1 206.668 49.4375)" fill="url(#paint42_linear_101_57)" fill-opacity="0.2"/>
<rect width="3.2084" height="52.7543" transform="matrix(-1 0 0 1 202.756 60.2031)" fill="url(#paint43_linear_101_57)" fill-opacity="0.2"/>
<rect width="3.2084" height="74.6905" transform="matrix(-1 0 0 1 198.842 38.2656)" fill="url(#paint44_linear_101_57)" fill-opacity="0.2"/>
<rect width="3.2084" height="83.8765" transform="matrix(-1 0 0 1 194.931 29.0781)" fill="url(#paint45_linear_101_57)" fill-opacity="0.2"/>
<rect width="3.2084" height="83.239" transform="matrix(-1 0 0 1 191.018 29.7168)" fill="url(#paint46_linear_101_57)" fill-opacity="0.2"/>
<rect width="3.2084" height="54.9711" transform="matrix(-1 0 0 1 187.104 57.9844)" fill="url(#paint47_linear_101_57)" fill-opacity="0.2"/>
<rect width="3.2084" height="63.9397" transform="matrix(-1 0 0 1 183.191 49.0156)" fill="url(#paint48_linear_101_57)" fill-opacity="0.2"/>
<rect width="3.2084" height="68.1415" transform="matrix(-1 0 0 1 179.279 44.8145)" fill="url(#paint49_linear_101_57)" fill-opacity="0.2"/>
<rect width="3.2084" height="96.5688" transform="matrix(-1 0 0 1 175.366 16.3887)" fill="url(#paint50_linear_101_57)" fill-opacity="0.2"/>
<rect width="3.2084" height="112.956" transform="matrix(-1 0 0 1 171.454 0)" fill="url(#paint51_linear_101_57)" fill-opacity="0.2"/>
<rect width="3.2084" height="65.4611" transform="matrix(-1 0 0 1 167.541 47.4961)" fill="url(#paint52_linear_101_57)" fill-opacity="0.2"/>
<rect width="3.2084" height="56.333" transform="matrix(-1 0 0 1 163.629 56.623)" fill="url(#paint53_linear_101_57)" fill-opacity="0.2"/>
<rect width="3.2084" height="76.6176" transform="matrix(-1 0 0 1 159.717 36.3379)" fill="url(#paint54_linear_101_57)" fill-opacity="0.2"/>
<rect width="3.2084" height="62.0272" transform="matrix(-1 0 0 1 155.804 50.9277)" fill="url(#paint55_linear_101_57)" fill-opacity="0.2"/>
<rect width="3.2084" height="74.4732" transform="matrix(-1 0 0 1 151.89 38.4824)" fill="url(#paint56_linear_101_57)" fill-opacity="0.2"/>
<rect width="3.2084" height="80.9353" transform="matrix(-1 0 0 1 147.979 32.0195)" fill="url(#paint57_linear_101_57)" fill-opacity="0.2"/>
<rect width="3.2084" height="87.3249" transform="matrix(-1 0 0 1 144.065 25.6309)" fill="url(#paint58_linear_101_57)" fill-opacity="0.2"/>
<rect width="3.2084" height="85.3544" transform="matrix(-1 0 0 1 140.153 27.6016)" fill="url(#paint59_linear_101_57)" fill-opacity="0.2"/>
<rect width="3.2084" height="54.5364" transform="matrix(-1 0 0 1 136.241 58.4199)" fill="url(#paint60_linear_101_57)" fill-opacity="0.2"/>
<rect width="3.2084" height="65.2148" transform="matrix(-1 0 0 1 132.327 47.7402)" fill="url(#paint61_linear_101_57)" fill-opacity="0.2"/>
<rect width="3.2084" height="61.6215" transform="matrix(-1 0 0 1 128.415 51.334)" fill="url(#paint62_linear_101_57)" fill-opacity="0.2"/>
<rect width="3.2084" height="60.2885" transform="matrix(-1 0 0 1 124.501 52.668)" fill="url(#paint63_linear_101_57)" fill-opacity="0.2"/>
<rect width="3.2084" height="66.3014" transform="matrix(-1 0 0 1 120.589 46.6543)" fill="url(#paint64_linear_101_57)" fill-opacity="0.2"/>
<rect width="3.2084" height="51.6241" transform="matrix(-1 0 0 1 116.677 61.332)" fill="url(#paint65_linear_101_57)" fill-opacity="0.2"/>
<rect width="3.2084" height="56.7242" transform="matrix(-1 0 0 1 112.765 56.2324)" fill="url(#paint66_linear_101_57)" fill-opacity="0.2"/>
<rect width="3.2084" height="60.0132" transform="matrix(-1 0 0 1 108.851 52.9414)" fill="url(#paint67_linear_101_57)" fill-opacity="0.2"/>
<rect width="3.2084" height="56.6953" transform="matrix(-1 0 0 1 104.938 56.2617)" fill="url(#paint68_linear_101_57)" fill-opacity="0.2"/>
<rect width="3.2084" height="64.0846" transform="matrix(-1 0 0 1 101.025 48.8711)" fill="url(#paint69_linear_101_57)" fill-opacity="0.2"/>
<rect width="3.2084" height="61.3317" transform="matrix(-1 0 0 1 97.1133 51.623)" fill="url(#paint70_linear_101_57)" fill-opacity="0.2"/>
<rect width="3.2084" height="57.4197" transform="matrix(-1 0 0 1 93.2012 55.5371)" fill="url(#paint71_linear_101_57)" fill-opacity="0.2"/>
<rect width="3.2084" height="57.8254" transform="matrix(-1 0 0 1 89.2871 55.1309)" fill="url(#paint72_linear_101_57)" fill-opacity="0.2"/>
<rect width="3.2084" height="66.9534" transform="matrix(-1 0 0 1 85.374 46.0039)" fill="url(#paint73_linear_101_57)" fill-opacity="0.2"/>
<rect width="3.2084" height="56.1302" transform="matrix(-1 0 0 1 81.4629 56.8242)" fill="url(#paint74_linear_101_57)" fill-opacity="0.2"/>
<rect width="3.2084" height="68.3734" transform="matrix(-1 0 0 1 77.5498 44.584)" fill="url(#paint75_linear_101_57)" fill-opacity="0.2"/>
<rect width="3.2084" height="62.1141" transform="matrix(-1 0 0 1 73.6367 50.8438)" fill="url(#paint76_linear_101_57)" fill-opacity="0.2"/>
<rect width="3.2084" height="65.7798" transform="matrix(-1 0 0 1 69.7236 47.1758)" fill="url(#paint77_linear_101_57)" fill-opacity="0.2"/>
<rect width="3.2084" height="54.1017" transform="matrix(-1 0 0 1 65.8125 58.8535)" fill="url(#paint78_linear_101_57)" fill-opacity="0.2"/>
<rect width="3.2084" height="50.3491" transform="matrix(-1 0 0 1 61.8994 62.6074)" fill="url(#paint79_linear_101_57)" fill-opacity="0.2"/>
<rect width="3.2084" height="72.1694" transform="matrix(-1 0 0 1 57.9854 40.7852)" fill="url(#paint80_linear_101_57)" fill-opacity="0.2"/>
<rect width="3.2084" height="70.0975" transform="matrix(-1 0 0 1 54.0732 42.8594)" fill="url(#paint81_linear_101_57)" fill-opacity="0.2"/>
<rect width="3.2084" height="71.3001" transform="matrix(-1 0 0 1 50.1611 41.6543)" fill="url(#paint82_linear_101_57)" fill-opacity="0.2"/>
<rect width="3.2084" height="61.1868" transform="matrix(-1 0 0 1 46.248 51.7695)" fill="url(#paint83_linear_101_57)" fill-opacity="0.2"/>
<rect width="3.2084" height="68.6631" transform="matrix(-1 0 0 1 42.335 44.293)" fill="url(#paint84_linear_101_57)" fill-opacity="0.2"/>
<rect width="3.2084" height="63.0559" transform="matrix(-1 0 0 1 38.4229 49.9004)" fill="url(#paint85_linear_101_57)" fill-opacity="0.2"/>
<rect width="3.2084" height="73.8357" transform="matrix(-1 0 0 1 34.5107 39.1191)" fill="url(#paint86_linear_101_57)" fill-opacity="0.2"/>
<rect width="3.2084" height="72.6186" transform="matrix(-1 0 0 1 30.5986 40.3379)" fill="url(#paint87_linear_101_57)" fill-opacity="0.2"/>
<rect width="3.2084" height="83.6592" transform="matrix(-1 0 0 1 26.6855 29.2969)" fill="url(#paint88_linear_101_57)" fill-opacity="0.2"/>
<rect width="3.2084" height="81.2975" transform="matrix(-1 0 0 1 22.7715 31.6602)" fill="url(#paint89_linear_101_57)" fill-opacity="0.2"/>
<rect width="3.2084" height="83.5288" transform="matrix(-1 0 0 1 18.8604 29.4277)" fill="url(#paint90_linear_101_57)" fill-opacity="0.2"/>
<rect width="3.2084" height="60.5348" transform="matrix(-1 0 0 1 14.9473 52.4199)" fill="url(#paint91_linear_101_57)" fill-opacity="0.2"/>
<rect width="3.2084" height="59.0135" transform="matrix(-1 0 0 1 11.0342 53.9434)" fill="url(#paint92_linear_101_57)" fill-opacity="0.2"/>
<rect width="3.2084" height="79.0082" transform="matrix(-1 0 0 1 7.12109 33.9473)" fill="url(#paint93_linear_101_57)" fill-opacity="0.2"/>
<rect width="3.2084" height="64.1571" transform="matrix(-1 0 0 1 3.20801 48.7988)" fill="url(#paint94_linear_101_57)" fill-opacity="0.2"/>
<defs>
<linearGradient id="paint0_linear_101_57" x1="1.6042" y1="0" x2="1.6042" y2="26.6452" gradientUnits="userSpaceOnUse">
<stop stop-color="#9B93F3"/>
<stop offset="1" stop-color="#9B93F3" stop-opacity="0"/>
</linearGradient>
<linearGradient id="paint1_linear_101_57" x1="1.6042" y1="0" x2="1.6042" y2="37.367" gradientUnits="userSpaceOnUse">
<stop stop-color="#9B93F3"/>
<stop offset="1" stop-color="#9B93F3" stop-opacity="0"/>
</linearGradient>
<linearGradient id="paint2_linear_101_57" x1="1.6042" y1="0" x2="1.6042" y2="41.0327" gradientUnits="userSpaceOnUse">
<stop stop-color="#9B93F3"/>
<stop offset="1" stop-color="#9B93F3" stop-opacity="0"/>
</linearGradient>
<linearGradient id="paint3_linear_101_57" x1="1.6042" y1="0" x2="1.6042" y2="34.9039" gradientUnits="userSpaceOnUse">
<stop stop-color="#9B93F3"/>
<stop offset="1" stop-color="#9B93F3" stop-opacity="0"/>
</linearGradient>
<linearGradient id="paint4_linear_101_57" x1="1.6042" y1="0" x2="1.6042" y2="22.255" gradientUnits="userSpaceOnUse">
<stop stop-color="#9B93F3"/>
<stop offset="1" stop-color="#9B93F3" stop-opacity="0"/>
</linearGradient>
<linearGradient id="paint5_linear_101_57" x1="1.6042" y1="0" x2="1.6042" y2="18.8646" gradientUnits="userSpaceOnUse">
<stop stop-color="#9B93F3"/>
<stop offset="1" stop-color="#9B93F3" stop-opacity="0"/>
</linearGradient>
<linearGradient id="paint6_linear_101_57" x1="1.6042" y1="0" x2="1.6042" y2="26.4278" gradientUnits="userSpaceOnUse">
<stop stop-color="#9B93F3"/>
<stop offset="1" stop-color="#9B93F3" stop-opacity="0"/>
</linearGradient>
<linearGradient id="paint7_linear_101_57" x1="1.6042" y1="0" x2="1.6042" y2="43.1191" gradientUnits="userSpaceOnUse">
<stop stop-color="#9B93F3"/>
<stop offset="1" stop-color="#9B93F3" stop-opacity="0"/>
</linearGradient>
<linearGradient id="paint8_linear_101_57" x1="1.6042" y1="0" x2="1.6042" y2="62.4039" gradientUnits="userSpaceOnUse">
<stop stop-color="#9B93F3"/>
<stop offset="1" stop-color="#9B93F3" stop-opacity="0"/>
</linearGradient>
<linearGradient id="paint9_linear_101_57" x1="1.6042" y1="0" x2="1.6042" y2="57.1299" gradientUnits="userSpaceOnUse">
<stop stop-color="#9B93F3"/>
<stop offset="1" stop-color="#9B93F3" stop-opacity="0"/>
</linearGradient>
<linearGradient id="paint10_linear_101_57" x1="1.6042" y1="0" x2="1.6042" y2="72.039" gradientUnits="userSpaceOnUse">
<stop stop-color="#9B93F3"/>
<stop offset="1" stop-color="#9B93F3" stop-opacity="0"/>
</linearGradient>
<linearGradient id="paint11_linear_101_57" x1="1.6042" y1="0" x2="1.6042" y2="87.5857" gradientUnits="userSpaceOnUse">
<stop stop-color="#9B93F3"/>
<stop offset="1" stop-color="#9B93F3" stop-opacity="0"/>
</linearGradient>
<linearGradient id="paint12_linear_101_57" x1="1.6042" y1="0" x2="1.6042" y2="60.7667" gradientUnits="userSpaceOnUse">
<stop stop-color="#9B93F3"/>
<stop offset="1" stop-color="#9B93F3" stop-opacity="0"/>
</linearGradient>
<linearGradient id="paint13_linear_101_57" x1="1.6042" y1="0" x2="1.6042" y2="35.8022" gradientUnits="userSpaceOnUse">
<stop stop-color="#9B93F3"/>
<stop offset="1" stop-color="#9B93F3" stop-opacity="0"/>
</linearGradient>
<linearGradient id="paint14_linear_101_57" x1="1.6042" y1="0" x2="1.6042" y2="42.8293" gradientUnits="userSpaceOnUse">
<stop stop-color="#9B93F3"/>
<stop offset="1" stop-color="#9B93F3" stop-opacity="0"/>
</linearGradient>
<linearGradient id="paint15_linear_101_57" x1="1.6042" y1="0" x2="1.6042" y2="51.088" gradientUnits="userSpaceOnUse">
<stop stop-color="#9B93F3"/>
<stop offset="1" stop-color="#9B93F3" stop-opacity="0"/>
</linearGradient>
<linearGradient id="paint16_linear_101_57" x1="1.6042" y1="0" x2="1.6042" y2="49.3783" gradientUnits="userSpaceOnUse">
<stop stop-color="#9B93F3"/>
<stop offset="1" stop-color="#9B93F3" stop-opacity="0"/>
</linearGradient>
<linearGradient id="paint17_linear_101_57" x1="1.6042" y1="0" x2="1.6042" y2="46.1328" gradientUnits="userSpaceOnUse">
<stop stop-color="#9B93F3"/>
<stop offset="1" stop-color="#9B93F3" stop-opacity="0"/>
</linearGradient>
<linearGradient id="paint18_linear_101_57" x1="1.6042" y1="0" x2="1.6042" y2="54.3046" gradientUnits="userSpaceOnUse">
<stop stop-color="#9B93F3"/>
<stop offset="1" stop-color="#9B93F3" stop-opacity="0"/>
</linearGradient>
<linearGradient id="paint19_linear_101_57" x1="1.6042" y1="0" x2="1.6042" y2="73.7343" gradientUnits="userSpaceOnUse">
<stop stop-color="#9B93F3"/>
<stop offset="1" stop-color="#9B93F3" stop-opacity="0"/>
</linearGradient>
<linearGradient id="paint20_linear_101_57" x1="1.6042" y1="0" x2="1.6042" y2="72.5607" gradientUnits="userSpaceOnUse">
<stop stop-color="#9B93F3"/>
<stop offset="1" stop-color="#9B93F3" stop-opacity="0"/>
</linearGradient>
<linearGradient id="paint21_linear_101_57" x1="1.6042" y1="0" x2="1.6042" y2="69.518" gradientUnits="userSpaceOnUse">
<stop stop-color="#9B93F3"/>
<stop offset="1" stop-color="#9B93F3" stop-opacity="0"/>
</linearGradient>
<linearGradient id="paint22_linear_101_57" x1="1.6042" y1="0" x2="1.6042" y2="84.3402" gradientUnits="userSpaceOnUse">
<stop stop-color="#9B93F3"/>
<stop offset="1" stop-color="#9B93F3" stop-opacity="0"/>
</linearGradient>
<linearGradient id="paint23_linear_101_57" x1="1.6042" y1="0" x2="1.6042" y2="60.1002" gradientUnits="userSpaceOnUse">
<stop stop-color="#9B93F3"/>
<stop offset="1" stop-color="#9B93F3" stop-opacity="0"/>
</linearGradient>
<linearGradient id="paint24_linear_101_57" x1="1.6042" y1="0" x2="1.6042" y2="49.5667" gradientUnits="userSpaceOnUse">
<stop stop-color="#9B93F3"/>
<stop offset="1" stop-color="#9B93F3" stop-opacity="0"/>
</linearGradient>
<linearGradient id="paint25_linear_101_57" x1="1.6042" y1="0" x2="1.6042" y2="55.029" gradientUnits="userSpaceOnUse">
<stop stop-color="#9B93F3"/>
<stop offset="1" stop-color="#9B93F3" stop-opacity="0"/>
</linearGradient>
<linearGradient id="paint26_linear_101_57" x1="1.6042" y1="0" x2="1.6042" y2="77.2551" gradientUnits="userSpaceOnUse">
<stop stop-color="#9B93F3"/>
<stop offset="1" stop-color="#9B93F3" stop-opacity="0"/>
</linearGradient>
<linearGradient id="paint27_linear_101_57" x1="1.6042" y1="0" x2="1.6042" y2="71.2856" gradientUnits="userSpaceOnUse">
<stop stop-color="#9B93F3"/>
<stop offset="1" stop-color="#9B93F3" stop-opacity="0"/>
</linearGradient>
<linearGradient id="paint28_linear_101_57" x1="1.6042" y1="0" x2="1.6042" y2="62.6502" gradientUnits="userSpaceOnUse">
<stop stop-color="#9B93F3"/>
<stop offset="1" stop-color="#9B93F3" stop-opacity="0"/>
</linearGradient>
<linearGradient id="paint29_linear_101_57" x1="1.6042" y1="0" x2="1.6042" y2="51.3633" gradientUnits="userSpaceOnUse">
<stop stop-color="#9B93F3"/>
<stop offset="1" stop-color="#9B93F3" stop-opacity="0"/>
</linearGradient>
<linearGradient id="paint30_linear_101_57" x1="1.6042" y1="0" x2="1.6042" y2="46.3646" gradientUnits="userSpaceOnUse">
<stop stop-color="#9B93F3"/>
<stop offset="1" stop-color="#9B93F3" stop-opacity="0"/>
</linearGradient>
<linearGradient id="paint31_linear_101_57" x1="1.6042" y1="0" x2="1.6042" y2="62.8241" gradientUnits="userSpaceOnUse">
<stop stop-color="#9B93F3"/>
<stop offset="1" stop-color="#9B93F3" stop-opacity="0"/>
</linearGradient>
<linearGradient id="paint32_linear_101_57" x1="1.6042" y1="0" x2="1.6042" y2="42.3077" gradientUnits="userSpaceOnUse">
<stop stop-color="#9B93F3"/>
<stop offset="1" stop-color="#9B93F3" stop-opacity="0"/>
</linearGradient>
<linearGradient id="paint33_linear_101_57" x1="1.6042" y1="0" x2="1.6042" y2="44.0464" gradientUnits="userSpaceOnUse">
<stop stop-color="#9B93F3"/>
<stop offset="1" stop-color="#9B93F3" stop-opacity="0"/>
</linearGradient>
<linearGradient id="paint34_linear_101_57" x1="1.6042" y1="0" x2="1.6042" y2="57.5646" gradientUnits="userSpaceOnUse">
<stop stop-color="#9B93F3"/>
<stop offset="1" stop-color="#9B93F3" stop-opacity="0"/>
</linearGradient>
<linearGradient id="paint35_linear_101_57" x1="1.6042" y1="0" x2="1.6042" y2="52.8267" gradientUnits="userSpaceOnUse">
<stop stop-color="#9B93F3"/>
<stop offset="1" stop-color="#9B93F3" stop-opacity="0"/>
</linearGradient>
<linearGradient id="paint36_linear_101_57" x1="1.6042" y1="0" x2="1.6042" y2="52.6384" gradientUnits="userSpaceOnUse">
<stop stop-color="#9B93F3"/>
<stop offset="1" stop-color="#9B93F3" stop-opacity="0"/>
</linearGradient>
<linearGradient id="paint37_linear_101_57" x1="1.6042" y1="0" x2="1.6042" y2="58.7817" gradientUnits="userSpaceOnUse">
<stop stop-color="#9B93F3"/>
<stop offset="1" stop-color="#9B93F3" stop-opacity="0"/>
</linearGradient>
<linearGradient id="paint38_linear_101_57" x1="1.6042" y1="0" x2="1.6042" y2="45.7561" gradientUnits="userSpaceOnUse">
<stop stop-color="#9B93F3"/>
<stop offset="1" stop-color="#9B93F3" stop-opacity="0"/>
</linearGradient>
<linearGradient id="paint39_linear_101_57" x1="1.6042" y1="0" x2="1.6042" y2="49.19" gradientUnits="userSpaceOnUse">
<stop stop-color="#9B93F3"/>
<stop offset="1" stop-color="#9B93F3" stop-opacity="0"/>
</linearGradient>
<linearGradient id="paint40_linear_101_57" x1="1.6042" y1="0" x2="1.6042" y2="66.0551" gradientUnits="userSpaceOnUse">
<stop stop-color="#9B93F3"/>
<stop offset="1" stop-color="#9B93F3" stop-opacity="0"/>
</linearGradient>
<linearGradient id="paint41_linear_101_57" x1="1.6042" y1="0" x2="1.6042" y2="75.2266" gradientUnits="userSpaceOnUse">
<stop stop-color="#9B93F3"/>
<stop offset="1" stop-color="#9B93F3" stop-opacity="0"/>
</linearGradient>
<linearGradient id="paint42_linear_101_57" x1="1.6042" y1="0" x2="1.6042" y2="63.5195" gradientUnits="userSpaceOnUse">
<stop stop-color="#9B93F3"/>
<stop offset="1" stop-color="#9B93F3" stop-opacity="0"/>
</linearGradient>
<linearGradient id="paint43_linear_101_57" x1="1.6042" y1="0" x2="1.6042" y2="52.7543" gradientUnits="userSpaceOnUse">
<stop stop-color="#9B93F3"/>
<stop offset="1" stop-color="#9B93F3" stop-opacity="0"/>
</linearGradient>
<linearGradient id="paint44_linear_101_57" x1="1.6042" y1="0" x2="1.6042" y2="74.6905" gradientUnits="userSpaceOnUse">
<stop stop-color="#9B93F3"/>
<stop offset="1" stop-color="#9B93F3" stop-opacity="0"/>
</linearGradient>
<linearGradient id="paint45_linear_101_57" x1="1.6042" y1="0" x2="1.6042" y2="83.8765" gradientUnits="userSpaceOnUse">
<stop stop-color="#9B93F3"/>
<stop offset="1" stop-color="#9B93F3" stop-opacity="0"/>
</linearGradient>
<linearGradient id="paint46_linear_101_57" x1="1.6042" y1="0" x2="1.6042" y2="83.239" gradientUnits="userSpaceOnUse">
<stop stop-color="#9B93F3"/>
<stop offset="1" stop-color="#9B93F3" stop-opacity="0"/>
</linearGradient>
<linearGradient id="paint47_linear_101_57" x1="1.6042" y1="0" x2="1.6042" y2="54.9711" gradientUnits="userSpaceOnUse">
<stop stop-color="#9B93F3"/>
<stop offset="1" stop-color="#9B93F3" stop-opacity="0"/>
</linearGradient>
<linearGradient id="paint48_linear_101_57" x1="1.6042" y1="0" x2="1.6042" y2="63.9397" gradientUnits="userSpaceOnUse">
<stop stop-color="#9B93F3"/>
<stop offset="1" stop-color="#9B93F3" stop-opacity="0"/>
</linearGradient>
<linearGradient id="paint49_linear_101_57" x1="1.6042" y1="0" x2="1.6042" y2="68.1415" gradientUnits="userSpaceOnUse">
<stop stop-color="#9B93F3"/>
<stop offset="1" stop-color="#9B93F3" stop-opacity="0"/>
</linearGradient>
<linearGradient id="paint50_linear_101_57" x1="1.6042" y1="0" x2="1.6042" y2="96.5688" gradientUnits="userSpaceOnUse">
<stop stop-color="#9B93F3"/>
<stop offset="1" stop-color="#9B93F3" stop-opacity="0"/>
</linearGradient>
<linearGradient id="paint51_linear_101_57" x1="1.6042" y1="0" x2="1.6042" y2="112.956" gradientUnits="userSpaceOnUse">
<stop stop-color="#9B93F3"/>
<stop offset="1" stop-color="#9B93F3" stop-opacity="0"/>
</linearGradient>
<linearGradient id="paint52_linear_101_57" x1="1.6042" y1="0" x2="1.6042" y2="65.4611" gradientUnits="userSpaceOnUse">
<stop stop-color="#9B93F3"/>
<stop offset="1" stop-color="#9B93F3" stop-opacity="0"/>
</linearGradient>
<linearGradient id="paint53_linear_101_57" x1="1.6042" y1="0" x2="1.6042" y2="56.333" gradientUnits="userSpaceOnUse">
<stop stop-color="#9B93F3"/>
<stop offset="1" stop-color="#9B93F3" stop-opacity="0"/>
</linearGradient>
<linearGradient id="paint54_linear_101_57" x1="1.6042" y1="0" x2="1.6042" y2="76.6176" gradientUnits="userSpaceOnUse">
<stop stop-color="#9B93F3"/>
<stop offset="1" stop-color="#9B93F3" stop-opacity="0"/>
</linearGradient>
<linearGradient id="paint55_linear_101_57" x1="1.6042" y1="0" x2="1.6042" y2="62.0272" gradientUnits="userSpaceOnUse">
<stop stop-color="#9B93F3"/>
<stop offset="1" stop-color="#9B93F3" stop-opacity="0"/>
</linearGradient>
<linearGradient id="paint56_linear_101_57" x1="1.6042" y1="0" x2="1.6042" y2="74.4732" gradientUnits="userSpaceOnUse">
<stop stop-color="#9B93F3"/>
<stop offset="1" stop-color="#9B93F3" stop-opacity="0"/>
</linearGradient>
<linearGradient id="paint57_linear_101_57" x1="1.6042" y1="0" x2="1.6042" y2="80.9353" gradientUnits="userSpaceOnUse">
<stop stop-color="#9B93F3"/>
<stop offset="1" stop-color="#9B93F3" stop-opacity="0"/>
</linearGradient>
<linearGradient id="paint58_linear_101_57" x1="1.6042" y1="0" x2="1.6042" y2="87.3249" gradientUnits="userSpaceOnUse">
<stop stop-color="#9B93F3"/>
<stop offset="1" stop-color="#9B93F3" stop-opacity="0"/>
</linearGradient>
<linearGradient id="paint59_linear_101_57" x1="1.6042" y1="0" x2="1.6042" y2="85.3544" gradientUnits="userSpaceOnUse">
<stop stop-color="#9B93F3"/>
<stop offset="1" stop-color="#9B93F3" stop-opacity="0"/>
</linearGradient>
<linearGradient id="paint60_linear_101_57" x1="1.6042" y1="0" x2="1.6042" y2="54.5364" gradientUnits="userSpaceOnUse">
<stop stop-color="#9B93F3"/>
<stop offset="1" stop-color="#9B93F3" stop-opacity="0"/>
</linearGradient>
<linearGradient id="paint61_linear_101_57" x1="1.6042" y1="0" x2="1.6042" y2="65.2148" gradientUnits="userSpaceOnUse">
<stop stop-color="#9B93F3"/>
<stop offset="1" stop-color="#9B93F3" stop-opacity="0"/>
</linearGradient>
<linearGradient id="paint62_linear_101_57" x1="1.6042" y1="0" x2="1.6042" y2="61.6215" gradientUnits="userSpaceOnUse">
<stop stop-color="#9B93F3"/>
<stop offset="1" stop-color="#9B93F3" stop-opacity="0"/>
</linearGradient>
<linearGradient id="paint63_linear_101_57" x1="1.6042" y1="0" x2="1.6042" y2="60.2885" gradientUnits="userSpaceOnUse">
<stop stop-color="#9B93F3"/>
<stop offset="1" stop-color="#9B93F3" stop-opacity="0"/>
</linearGradient>
<linearGradient id="paint64_linear_101_57" x1="1.6042" y1="0" x2="1.6042" y2="66.3014" gradientUnits="userSpaceOnUse">
<stop stop-color="#9B93F3"/>
<stop offset="1" stop-color="#9B93F3" stop-opacity="0"/>
</linearGradient>
<linearGradient id="paint65_linear_101_57" x1="1.6042" y1="0" x2="1.6042" y2="51.6241" gradientUnits="userSpaceOnUse">
<stop stop-color="#9B93F3"/>
<stop offset="1" stop-color="#9B93F3" stop-opacity="0"/>
</linearGradient>
<linearGradient id="paint66_linear_101_57" x1="1.6042" y1="0" x2="1.6042" y2="56.7242" gradientUnits="userSpaceOnUse">
<stop stop-color="#9B93F3"/>
<stop offset="1" stop-color="#9B93F3" stop-opacity="0"/>
</linearGradient>
<linearGradient id="paint67_linear_101_57" x1="1.6042" y1="0" x2="1.6042" y2="60.0132" gradientUnits="userSpaceOnUse">
<stop stop-color="#9B93F3"/>
<stop offset="1" stop-color="#9B93F3" stop-opacity="0"/>
</linearGradient>
<linearGradient id="paint68_linear_101_57" x1="1.6042" y1="0" x2="1.6042" y2="56.6953" gradientUnits="userSpaceOnUse">
<stop stop-color="#9B93F3"/>
<stop offset="1" stop-color="#9B93F3" stop-opacity="0"/>
</linearGradient>
<linearGradient id="paint69_linear_101_57" x1="1.6042" y1="0" x2="1.6042" y2="64.0846" gradientUnits="userSpaceOnUse">
<stop stop-color="#9B93F3"/>
<stop offset="1" stop-color="#9B93F3" stop-opacity="0"/>
</linearGradient>
<linearGradient id="paint70_linear_101_57" x1="1.6042" y1="0" x2="1.6042" y2="61.3317" gradientUnits="userSpaceOnUse">
<stop stop-color="#9B93F3"/>
<stop offset="1" stop-color="#9B93F3" stop-opacity="0"/>
</linearGradient>
<linearGradient id="paint71_linear_101_57" x1="1.6042" y1="0" x2="1.6042" y2="57.4197" gradientUnits="userSpaceOnUse">
<stop stop-color="#9B93F3"/>
<stop offset="1" stop-color="#9B93F3" stop-opacity="0"/>
</linearGradient>
<linearGradient id="paint72_linear_101_57" x1="1.6042" y1="0" x2="1.6042" y2="57.8254" gradientUnits="userSpaceOnUse">
<stop stop-color="#9B93F3"/>
<stop offset="1" stop-color="#9B93F3" stop-opacity="0"/>
</linearGradient>
<linearGradient id="paint73_linear_101_57" x1="1.6042" y1="0" x2="1.6042" y2="66.9534" gradientUnits="userSpaceOnUse">
<stop stop-color="#9B93F3"/>
<stop offset="1" stop-color="#9B93F3" stop-opacity="0"/>
</linearGradient>
<linearGradient id="paint74_linear_101_57" x1="1.6042" y1="0" x2="1.6042" y2="56.1302" gradientUnits="userSpaceOnUse">
<stop stop-color="#9B93F3"/>
<stop offset="1" stop-color="#9B93F3" stop-opacity="0"/>
</linearGradient>
<linearGradient id="paint75_linear_101_57" x1="1.6042" y1="0" x2="1.6042" y2="68.3734" gradientUnits="userSpaceOnUse">
<stop stop-color="#9B93F3"/>
<stop offset="1" stop-color="#9B93F3" stop-opacity="0"/>
</linearGradient>
<linearGradient id="paint76_linear_101_57" x1="1.6042" y1="0" x2="1.6042" y2="62.1141" gradientUnits="userSpaceOnUse">
<stop stop-color="#9B93F3"/>
<stop offset="1" stop-color="#9B93F3" stop-opacity="0"/>
</linearGradient>
<linearGradient id="paint77_linear_101_57" x1="1.6042" y1="0" x2="1.6042" y2="65.7798" gradientUnits="userSpaceOnUse">
<stop stop-color="#9B93F3"/>
<stop offset="1" stop-color="#9B93F3" stop-opacity="0"/>
</linearGradient>
<linearGradient id="paint78_linear_101_57" x1="1.6042" y1="0" x2="1.6042" y2="54.1017" gradientUnits="userSpaceOnUse">
<stop stop-color="#9B93F3"/>
<stop offset="1" stop-color="#9B93F3" stop-opacity="0"/>
</linearGradient>
<linearGradient id="paint79_linear_101_57" x1="1.6042" y1="0" x2="1.6042" y2="50.3491" gradientUnits="userSpaceOnUse">
<stop stop-color="#9B93F3"/>
<stop offset="1" stop-color="#9B93F3" stop-opacity="0"/>
</linearGradient>
<linearGradient id="paint80_linear_101_57" x1="1.6042" y1="0" x2="1.6042" y2="72.1694" gradientUnits="userSpaceOnUse">
<stop stop-color="#9B93F3"/>
<stop offset="1" stop-color="#9B93F3" stop-opacity="0"/>
</linearGradient>
<linearGradient id="paint81_linear_101_57" x1="1.6042" y1="0" x2="1.6042" y2="70.0975" gradientUnits="userSpaceOnUse">
<stop stop-color="#9B93F3"/>
<stop offset="1" stop-color="#9B93F3" stop-opacity="0"/>
</linearGradient>
<linearGradient id="paint82_linear_101_57" x1="1.6042" y1="0" x2="1.6042" y2="71.3001" gradientUnits="userSpaceOnUse">
<stop stop-color="#9B93F3"/>
<stop offset="1" stop-color="#9B93F3" stop-opacity="0"/>
</linearGradient>
<linearGradient id="paint83_linear_101_57" x1="1.6042" y1="0" x2="1.6042" y2="61.1868" gradientUnits="userSpaceOnUse">
<stop stop-color="#9B93F3"/>
<stop offset="1" stop-color="#9B93F3" stop-opacity="0"/>
</linearGradient>
<linearGradient id="paint84_linear_101_57" x1="1.6042" y1="0" x2="1.6042" y2="68.6631" gradientUnits="userSpaceOnUse">
<stop stop-color="#9B93F3"/>
<stop offset="1" stop-color="#9B93F3" stop-opacity="0"/>
</linearGradient>
<linearGradient id="paint85_linear_101_57" x1="1.6042" y1="0" x2="1.6042" y2="63.0559" gradientUnits="userSpaceOnUse">
<stop stop-color="#9B93F3"/>
<stop offset="1" stop-color="#9B93F3" stop-opacity="0"/>
</linearGradient>
<linearGradient id="paint86_linear_101_57" x1="1.6042" y1="0" x2="1.6042" y2="73.8357" gradientUnits="userSpaceOnUse">
<stop stop-color="#9B93F3"/>
<stop offset="1" stop-color="#9B93F3" stop-opacity="0"/>
</linearGradient>
<linearGradient id="paint87_linear_101_57" x1="1.6042" y1="0" x2="1.6042" y2="72.6186" gradientUnits="userSpaceOnUse">
<stop stop-color="#9B93F3"/>
<stop offset="1" stop-color="#9B93F3" stop-opacity="0"/>
</linearGradient>
<linearGradient id="paint88_linear_101_57" x1="1.6042" y1="0" x2="1.6042" y2="83.6592" gradientUnits="userSpaceOnUse">
<stop stop-color="#9B93F3"/>
<stop offset="1" stop-color="#9B93F3" stop-opacity="0"/>
</linearGradient>
<linearGradient id="paint89_linear_101_57" x1="1.6042" y1="0" x2="1.6042" y2="81.2975" gradientUnits="userSpaceOnUse">
<stop stop-color="#9B93F3"/>
<stop offset="1" stop-color="#9B93F3" stop-opacity="0"/>
</linearGradient>
<linearGradient id="paint90_linear_101_57" x1="1.6042" y1="0" x2="1.6042" y2="83.5288" gradientUnits="userSpaceOnUse">
<stop stop-color="#9B93F3"/>
<stop offset="1" stop-color="#9B93F3" stop-opacity="0"/>
</linearGradient>
<linearGradient id="paint91_linear_101_57" x1="1.6042" y1="0" x2="1.6042" y2="60.5348" gradientUnits="userSpaceOnUse">
<stop stop-color="#9B93F3"/>
<stop offset="1" stop-color="#9B93F3" stop-opacity="0"/>
</linearGradient>
<linearGradient id="paint92_linear_101_57" x1="1.6042" y1="0" x2="1.6042" y2="59.0135" gradientUnits="userSpaceOnUse">
<stop stop-color="#9B93F3"/>
<stop offset="1" stop-color="#9B93F3" stop-opacity="0"/>
</linearGradient>
<linearGradient id="paint93_linear_101_57" x1="1.6042" y1="0" x2="1.6042" y2="79.0082" gradientUnits="userSpaceOnUse">
<stop stop-color="#9B93F3"/>
<stop offset="1" stop-color="#9B93F3" stop-opacity="0"/>
</linearGradient>
<linearGradient id="paint94_linear_101_57" x1="1.6042" y1="0" x2="1.6042" y2="64.1571" gradientUnits="userSpaceOnUse">
<stop stop-color="#9B93F3"/>
<stop offset="1" stop-color="#9B93F3" stop-opacity="0"/>
</linearGradient>
</defs>
</svg>
