<svg width="371" height="126" viewBox="0 0 371 126" fill="none" xmlns="http://www.w3.org/2000/svg">
<path d="M0 100.025C0 98.7643 1.7858 98.4329 2.30496 99.5812C3.0733 101.281 3.84161 102.637 4.60992 104.526C5.37827 106.415 6.14661 108.837 6.91492 108.185C7.68326 107.533 8.45157 103.806 9.21988 100.801C9.98822 97.7961 10.7565 95.5136 11.5248 94.7354C12.2932 93.9572 13.0615 94.6834 13.8298 96.3342C14.5981 97.985 15.3665 100.56 16.1348 99.779C16.9031 98.9975 17.6714 94.8592 18.4398 99.5153C19.2081 104.171 19.9764 117.622 20.7447 122.97C21.5131 128.317 22.2814 125.562 23.0497 122.525C23.818 119.487 24.5864 116.167 25.3547 114.135C26.123 112.103 26.8913 111.358 27.6596 113.097C28.4279 114.836 29.1963 119.059 29.9646 116.344C30.7329 113.628 31.5013 103.974 32.2696 101.674C33.0379 99.375 33.8062 104.43 34.5746 109.471C35.3429 114.511 36.1112 119.536 36.8795 117.646C37.6478 115.755 38.4162 106.948 39.1845 99.5482C39.9528 92.148 40.7211 86.1544 41.4895 88.5216C42.2578 90.8887 43.0261 101.617 43.7944 105.053C44.5627 108.49 45.3311 104.635 46.0994 100.142C46.8677 95.6479 47.636 90.5153 48.4044 94.7024C49.1727 98.8896 49.941 112.397 50.7094 112.306C51.4777 112.214 52.246 98.5252 53.0143 92.7081C53.7826 86.891 54.551 88.946 55.3193 94.4717C56.0876 99.9974 56.8559 108.994 57.6243 110.311C58.3926 111.628 59.1609 105.267 59.9292 106.224C60.6975 107.181 61.4659 115.456 62.2342 115.454C63.0025 115.451 63.7708 107.17 64.5392 101.839C65.3075 96.5087 66.0758 94.1287 66.8441 93.4827C67.6125 92.8368 68.3808 93.9248 69.1491 91.5378C69.9174 89.1508 70.6858 83.2888 71.4541 85.5877C72.2224 87.8866 72.9907 98.3464 73.759 100.026C74.5274 101.706 75.2957 94.6058 76.064 92.3455C76.8323 90.0851 77.6007 92.6647 78.369 93.7465C79.1373 94.8282 79.9056 94.4123 80.674 95.6749C81.4423 96.9375 82.2106 99.8788 82.9789 95.6914C83.7473 91.504 84.5156 80.1879 85.2839 85.0768C86.0522 89.9657 86.8206 111.06 87.5889 116.459C88.3572 121.859 89.1255 111.564 89.8938 102.301C90.6622 93.0379 91.4305 84.8072 92.1988 79.5222C92.9671 74.2373 93.7355 71.8981 94.5038 70.4734C95.2721 69.0488 96.0404 68.5387 96.8087 69.8471C97.5771 71.1555 98.3454 74.2825 99.1137 79.6211C99.882 84.9598 100.65 92.5101 101.419 94.208C102.187 95.9058 102.955 91.7512 103.724 89.3292C104.492 86.9072 105.26 86.2179 106.029 89.8402C106.797 93.4624 107.565 101.396 108.334 99.7295C109.102 98.063 109.87 86.7961 110.639 79.72C111.407 72.644 112.175 69.7588 112.944 65.0343C113.712 60.3098 114.48 53.746 115.249 52.4418C116.017 51.1376 116.785 55.0929 117.553 55.079C118.322 55.065 119.09 51.0819 119.858 54.2384C120.627 57.3948 121.395 67.6909 122.163 69.1713C122.932 70.6518 123.7 63.3166 124.468 59.8424C125.237 56.3682 126.005 56.755 126.773 63.7157C127.542 70.6764 128.31 84.211 129.078 83.2637C129.847 82.3164 130.615 66.8871 131.383 68.1494C132.152 69.4117 132.92 87.3656 133.688 92.8894C134.457 98.4131 135.225 91.5068 135.993 86.9393C136.762 82.3717 137.53 80.143 138.298 73.3578C139.067 66.5727 139.835 55.231 140.603 53.9087C141.371 52.5865 142.14 61.2836 142.908 60.617C143.676 59.9504 144.445 49.92 145.213 44.6127C145.981 39.3053 146.75 38.721 147.518 39.9977C148.286 41.2743 149.055 44.4119 149.823 51.1727C150.591 57.9334 151.36 68.3174 152.128 63.3036C152.896 58.2898 153.665 37.8783 154.433 39.3878C155.201 40.8973 155.97 64.328 156.738 72.8799C157.506 81.4317 158.275 75.1048 159.043 69.501C159.811 63.8972 160.58 59.0165 161.348 59.8588C162.116 60.7011 162.885 67.2664 163.653 64.0618C164.421 60.8572 165.19 47.8828 165.958 52.1781C166.726 56.4733 167.494 78.0382 168.263 86.3459C169.031 94.6536 169.799 89.7041 170.568 86.2141C171.336 82.724 172.104 80.6934 172.873 74.3962C173.641 68.0991 174.409 57.5355 175.178 52.4912C175.946 47.447 176.714 47.9222 177.483 49.3266C178.251 50.7311 179.019 53.0649 179.788 52.2605C180.556 51.4561 181.324 47.5136 182.093 46.8543C182.861 46.195 183.629 48.819 184.398 51.2551C185.166 53.6912 185.934 55.9394 186.703 57.3535C187.471 58.7676 188.239 59.3476 189.008 54.4032C189.776 49.4588 190.544 38.9901 191.312 36.1243C192.081 33.2585 192.849 37.9955 193.617 37.3605C194.386 36.7254 195.154 30.7182 195.922 29.894C196.691 29.0698 197.459 33.4285 198.227 37.0308C198.996 40.6332 199.764 43.4791 200.532 45.7335C201.301 47.9879 202.069 49.6507 202.837 49.7057C203.606 49.7608 204.375 48.2082 205.142 50.2661C205.909 52.3241 206.674 57.9927 207.447 59.5786C208.221 61.1646 209.004 58.668 209.752 55.7547C210.5 52.8415 211.213 49.5115 211.961 47.9586C212.709 46.4057 213.492 46.63 214.266 47.3817C215.04 48.1334 215.804 49.4126 216.571 51.321C217.338 53.2293 218.107 55.7668 218.876 58.738C219.645 61.7092 220.413 65.1141 221.181 64.5398C221.949 63.9655 222.718 59.412 223.486 56.447C224.254 53.482 225.023 52.1055 225.791 52.1946C226.559 52.2837 227.328 53.8384 228.096 55.6558C228.864 57.4733 229.633 59.5536 230.401 61.5071C231.169 63.4605 231.938 65.2872 232.706 69.2538C233.474 73.2203 234.243 79.3266 235.011 79.1926C235.779 79.0586 236.548 72.6843 237.316 66.5177C238.084 60.3511 238.853 54.3922 239.621 55.2108C240.389 56.0295 241.157 63.6256 241.926 68.5285C242.694 73.4314 243.462 75.641 244.231 77.9729C244.999 80.3048 245.767 82.759 246.536 81.0221C247.304 79.2853 248.072 73.3574 248.841 69.6328C249.609 65.9083 250.377 64.3869 251.146 72.7974C251.914 81.208 252.682 99.5504 253.451 105.004C254.219 110.457 254.987 103.022 255.756 94.175C256.524 85.3279 257.292 75.0691 258.061 69.5175C258.829 63.9658 259.597 63.1213 260.366 57.9304C261.134 52.7395 261.902 43.2021 262.671 48.964C263.439 54.726 264.207 75.7872 264.976 85.291C265.744 94.7949 266.512 92.7413 267.28 88.4062C268.049 84.0711 268.817 77.4543 269.585 66.4682C270.354 55.4822 271.122 40.1267 271.89 39.5526C272.659 38.9786 273.427 53.1859 274.195 64.9354C274.964 76.6849 275.732 85.9766 276.5 87.4667C277.269 88.9568 278.037 82.6452 278.805 73.2754C279.574 63.9057 280.342 51.4777 281.11 44.2666C281.879 37.0554 282.647 35.0612 283.415 40.2119C284.184 45.3627 284.952 57.6584 285.72 57.9469C286.489 58.2353 287.257 46.5164 288.025 42.1733C288.794 37.8302 289.562 40.8628 290.33 46.7389C291.098 52.615 291.867 61.3345 292.635 55.6723C293.403 50.0101 294.172 29.9661 294.94 23.9109C295.708 17.8557 296.477 25.7893 297.245 36.1902C298.013 46.5911 298.782 59.4594 299.55 55.4745C300.318 51.4897 301.087 30.6519 301.855 28.8391C302.623 27.0264 303.392 44.2387 304.16 51.5023C304.928 58.7659 305.697 56.0806 306.465 61.5071C307.233 66.9335 308.002 80.4716 308.77 82.6044C309.538 84.7372 310.307 75.4647 311.075 64.5563C311.843 53.6479 312.612 41.1038 313.38 33.1245C314.148 25.1453 314.917 21.731 315.685 25.3778C316.453 29.0247 317.221 39.7328 317.99 51.9968C318.758 64.2608 319.526 78.0808 320.295 81.9781C321.063 85.8754 321.831 79.8501 322.6 74.9072C323.368 69.9643 324.136 66.1039 324.905 63.3531C325.673 60.6023 326.441 58.9611 327.21 55.4416C327.978 51.9221 328.746 46.5243 329.515 40.558C330.283 34.5918 331.051 28.057 331.82 32.3169C332.588 36.5768 333.356 51.6315 334.125 56.6118C334.893 61.5922 335.661 56.4982 336.43 51.4199C337.198 46.3415 337.966 41.2788 338.735 32.7125C339.503 24.1461 340.271 12.0763 341.04 15.8346C341.808 19.5929 342.576 39.1795 343.344 58.5567C344.113 77.934 344.881 97.102 345.649 98.6747C346.418 100.247 347.186 84.2247 347.954 72.4019C348.723 60.5791 349.491 52.9562 350.259 50.9749C351.028 48.9935 351.796 52.6537 352.564 51.1562C353.333 49.6586 354.101 43.0032 354.869 33.9651C355.638 24.927 356.406 13.5062 357.174 7.39564C357.943 1.28509 358.711 0.48482 359.479 0.110456C360.248 -0.263907 361.016 -0.212368 361.784 9.19221C362.553 18.5968 363.321 37.3544 364.089 39.4373C364.857 41.5201 365.626 26.9282 366.394 21.9495C367.163 16.9709 367.931 21.6055 368.699 21.0924C369.467 20.5794 370.233 14.9188 371 9.25814V120.669C371 121.939 369.97 122.97 368.699 122.97C367.931 122.97 367.163 122.97 366.394 122.97C365.626 122.97 364.857 122.97 364.089 122.97C363.321 122.97 362.553 122.97 361.784 122.97C361.016 122.97 360.248 122.97 359.479 122.97C358.711 122.97 357.943 122.97 357.174 122.97C356.406 122.97 355.638 122.97 354.869 122.97C354.101 122.97 353.333 122.97 352.564 122.97C351.796 122.97 351.028 122.97 350.259 122.97C349.491 122.97 348.723 122.97 347.954 122.97C347.186 122.97 346.418 122.97 345.649 122.97C344.881 122.97 344.113 122.97 343.344 122.97C342.576 122.97 341.808 122.97 341.04 122.97C340.271 122.97 339.503 122.97 338.735 122.97C337.966 122.97 337.198 122.97 336.43 122.97C335.661 122.97 334.893 122.97 334.125 122.97C333.356 122.97 332.588 122.97 331.82 122.97C331.051 122.97 330.283 122.97 329.515 122.97C328.746 122.97 327.978 122.97 327.21 122.97C326.441 122.97 325.673 122.97 324.905 122.97C324.136 122.97 323.368 122.97 322.6 122.97C321.831 122.97 321.063 122.97 320.295 122.97C319.526 122.97 318.758 122.97 317.99 122.97C317.221 122.97 316.453 122.97 315.685 122.97C314.917 122.97 314.148 122.97 313.38 122.97C312.612 122.97 311.843 122.97 311.075 122.97C310.307 122.97 309.538 122.97 308.77 122.97C308.002 122.97 307.233 122.97 306.465 122.97C305.697 122.97 304.928 122.97 304.16 122.97C303.392 122.97 302.623 122.97 301.855 122.97C301.087 122.97 300.318 122.97 299.55 122.97C298.782 122.97 298.013 122.97 297.245 122.97C296.477 122.97 295.708 122.97 294.94 122.97C294.172 122.97 293.403 122.97 292.635 122.97C291.867 122.97 291.098 122.97 290.33 122.97C289.562 122.97 288.794 122.97 288.025 122.97C287.257 122.97 286.489 122.97 285.72 122.97C284.952 122.97 284.184 122.97 283.415 122.97C282.647 122.97 281.879 122.97 281.11 122.97C280.342 122.97 279.574 122.97 278.805 122.97C278.037 122.97 277.269 122.97 276.5 122.97C275.732 122.97 274.964 122.97 274.195 122.97C273.427 122.97 272.659 122.97 271.89 122.97C271.122 122.97 270.354 122.97 269.585 122.97C268.817 122.97 268.049 122.97 267.28 122.97C266.512 122.97 265.744 122.97 264.976 122.97C264.207 122.97 263.439 122.97 262.671 122.97C261.902 122.97 261.134 122.97 260.366 122.97C259.597 122.97 258.829 122.97 258.061 122.97C257.292 122.97 256.524 122.97 255.756 122.97C254.987 122.97 254.219 122.97 253.451 122.97C252.682 122.97 251.914 122.97 251.146 122.97C250.377 122.97 249.609 122.97 248.841 122.97C248.072 122.97 247.304 122.97 246.536 122.97C245.767 122.97 244.999 122.97 244.231 122.97C243.462 122.97 242.694 122.97 241.926 122.97C241.157 122.97 240.389 122.97 239.621 122.97C238.853 122.97 238.084 122.97 237.316 122.97C236.548 122.97 235.779 122.97 235.011 122.97C234.243 122.97 233.474 122.97 232.706 122.97C231.938 122.97 231.169 122.97 230.401 122.97C229.633 122.97 228.864 122.97 228.096 122.97C227.328 122.97 226.559 122.97 225.791 122.97C225.023 122.97 224.254 122.97 223.486 122.97C222.718 122.97 221.949 122.97 221.181 122.97C220.413 122.97 219.645 122.97 218.876 122.97C218.107 122.97 217.338 122.97 216.571 122.97C215.804 122.97 215.04 122.97 214.266 122.97C213.492 122.97 212.709 122.97 211.961 122.97C211.213 122.97 210.5 122.97 209.752 122.97C209.004 122.97 208.221 122.97 207.447 122.97C206.674 122.97 205.909 122.97 205.142 122.97C204.375 122.97 203.606 122.97 202.837 122.97C202.069 122.97 201.301 122.97 200.532 122.97C199.764 122.97 198.996 122.97 198.227 122.97C197.459 122.97 196.691 122.97 195.922 122.97C195.154 122.97 194.386 122.97 193.617 122.97C192.849 122.97 192.081 122.97 191.312 122.97C190.544 122.97 189.776 122.97 189.008 122.97C188.239 122.97 187.471 122.97 186.703 122.97C185.934 122.97 185.166 122.97 184.398 122.97C183.629 122.97 182.861 122.97 182.093 122.97C181.324 122.97 180.556 122.97 179.788 122.97C179.019 122.97 178.251 122.97 177.483 122.97C176.714 122.97 175.946 122.97 175.178 122.97C174.409 122.97 173.641 122.97 172.873 122.97C172.104 122.97 171.336 122.97 170.568 122.97C169.799 122.97 169.031 122.97 168.263 122.97C167.494 122.97 166.726 122.97 165.958 122.97C165.19 122.97 164.421 122.97 163.653 122.97C162.885 122.97 162.116 122.97 161.348 122.97C160.58 122.97 159.811 122.97 159.043 122.97C158.275 122.97 157.506 122.97 156.738 122.97C155.97 122.97 155.201 122.97 154.433 122.97C153.665 122.97 152.896 122.97 152.128 122.97C151.36 122.97 150.591 122.97 149.823 122.97C149.055 122.97 148.286 122.97 147.518 122.97C146.75 122.97 145.981 122.97 145.213 122.97C144.445 122.97 143.676 122.97 142.908 122.97C142.14 122.97 141.371 122.97 140.603 122.97C139.835 122.97 139.067 122.97 138.298 122.97C137.53 122.97 136.762 122.97 135.993 122.97C135.225 122.97 134.457 122.97 133.688 122.97C132.92 122.97 132.152 122.97 131.383 122.97C130.615 122.97 129.847 122.97 129.078 122.97C128.31 122.97 127.542 122.97 126.773 122.97C126.005 122.97 125.237 122.97 124.468 122.97C123.7 122.97 122.932 122.97 122.163 122.97C121.395 122.97 120.627 122.97 119.858 122.97C119.09 122.97 118.322 122.97 117.553 122.97C116.785 122.97 116.017 122.97 115.249 122.97C114.48 122.97 113.712 122.97 112.944 122.97C112.175 122.97 111.407 122.97 110.639 122.97C109.87 122.97 109.102 122.97 108.334 122.97C107.565 122.97 106.797 122.97 106.029 122.97C105.26 122.97 104.492 122.97 103.724 122.97C102.955 122.97 102.187 122.97 101.419 122.97C100.65 122.97 99.882 122.97 99.1137 122.97C98.3454 122.97 97.5771 122.97 96.8087 122.97C96.0404 122.97 95.2721 122.97 94.5038 122.97C93.7355 122.97 92.9671 122.97 92.1988 122.97C91.4305 122.97 90.6622 122.97 89.8938 122.97C89.1255 122.97 88.3572 122.97 87.5889 122.97C86.8206 122.97 86.0522 122.97 85.2839 122.97C84.5156 122.97 83.7473 122.97 82.9789 122.97C82.2106 122.97 81.4423 122.97 80.674 122.97C79.9056 122.97 79.1373 122.97 78.369 122.97C77.6007 122.97 76.8323 122.97 76.064 122.97C75.2957 122.97 74.5274 122.97 73.759 122.97C72.9907 122.97 72.2224 122.97 71.4541 122.97C70.6858 122.97 69.9174 122.97 69.1491 122.97C68.3808 122.97 67.6125 122.97 66.8441 122.97C66.0758 122.97 65.3075 122.97 64.5392 122.97C63.7708 122.97 63.0025 122.97 62.2342 122.97C61.4659 122.97 60.6975 122.97 59.9292 122.97C59.1609 122.97 58.3926 122.97 57.6243 122.97C56.8559 122.97 56.0876 122.97 55.3193 122.97C54.551 122.97 53.7826 122.97 53.0143 122.97C52.246 122.97 51.4777 122.97 50.7094 122.97C49.941 122.97 49.1727 122.97 48.4044 122.97C47.636 122.97 46.8677 122.97 46.0994 122.97C45.3311 122.97 44.5627 122.97 43.7944 122.97C43.0261 122.97 42.2578 122.97 41.4895 122.97C40.7211 122.97 39.9528 122.97 39.1845 122.97C38.4162 122.97 37.6478 122.97 36.8795 122.97C36.1112 122.97 35.3429 122.97 34.5746 122.97C33.8062 122.97 33.0379 122.97 32.2696 122.97C31.5013 122.97 30.7329 122.97 29.9646 122.97C29.1963 122.97 28.4279 122.97 27.6596 122.97C26.8913 122.97 26.123 122.97 25.3547 122.97C24.5864 122.97 23.818 122.97 23.0497 122.97C22.2814 122.97 21.5131 122.97 20.7447 122.97C19.9764 122.97 19.2081 122.97 18.4398 122.97C17.6714 122.97 16.9031 122.97 16.1348 122.97C15.3665 122.97 14.5981 122.97 13.8298 122.97C13.0615 122.97 12.2932 122.97 11.5248 122.97C10.7565 122.97 9.98822 122.97 9.21988 122.97C8.45157 122.97 7.68326 122.97 6.91492 122.97C6.14661 122.97 5.37827 122.97 4.60992 122.97C3.84161 122.97 3.0733 122.97 2.30496 122.97C1.03198 122.97 0 121.938 0 120.665V100.025Z" fill="url(#paint0_linear_84_1338)" fill-opacity="0.2"/>
<defs>
<linearGradient id="paint0_linear_84_1338" x1="185.5" y1="0" x2="185.5" y2="0" gradientUnits="userSpaceOnUse">
<stop stop-color="#0047FF"/>
<stop offset="1" stop-color="#0047FF" stop-opacity="0"/>
</linearGradient>
</defs>
</svg>
