<svg width="37" height="37" viewBox="0 0 37 37" fill="none" xmlns="http://www.w3.org/2000/svg">
<g id="miners_icon_16.svg" clip-path="url(#clip0_101_338)">
<path id="Vector" d="M18.5001 29.0706C24.3386 29.0706 29.0716 24.3376 29.0716 18.4992C29.0716 12.6607 24.3386 7.92773 18.5001 7.92773C12.6617 7.92773 7.92871 12.6607 7.92871 18.4992C7.92871 24.3376 12.6617 29.0706 18.5001 29.0706Z" fill="#2E3148"/>
<path id="Vector_2" d="M18.5133 11.582C17.6576 11.582 16.9639 14.6854 16.9639 18.5129C16.9639 22.3404 17.6576 25.4438 18.5133 25.4438C19.3683 25.4438 20.062 22.3404 20.062 18.5129C20.062 14.6854 19.3683 11.582 18.5133 11.582ZM18.6203 25.052C18.5225 25.1828 18.424 25.085 18.424 25.085C18.0303 24.6278 17.8334 23.7801 17.8334 23.7801C17.1443 21.5621 17.3081 16.8004 17.3081 16.8004C17.6319 13.0204 18.2213 12.1271 18.4214 11.9289C18.4419 11.9085 18.469 11.8961 18.4978 11.8938C18.5266 11.8915 18.5552 11.8995 18.5787 11.9164C18.8694 12.1231 19.1138 12.9847 19.1138 12.9847C19.834 15.6593 19.7686 18.17 19.7686 18.17C19.834 20.3556 19.4079 22.8016 19.4079 22.8016C19.0795 24.6608 18.6203 25.052 18.6203 25.052Z" fill="white"/>
<path id="Vector_3" d="M24.524 15.0643C24.0979 14.3217 21.0618 15.2645 17.7404 17.1693C14.419 19.0742 12.0761 21.2195 12.5009 21.9622C12.9271 22.7048 15.9638 21.762 19.2851 19.8571C22.6066 17.9523 24.9495 15.8063 24.524 15.0643ZM12.8934 21.8598C12.7308 21.84 12.7678 21.7052 12.7678 21.7052C12.9674 21.137 13.6043 20.5436 13.6043 20.5436C15.1854 18.8423 19.3982 16.615 19.3982 16.615C22.8378 15.0148 23.9062 15.0822 24.1771 15.1562C24.2051 15.1638 24.2294 15.1812 24.2458 15.2052C24.2621 15.2291 24.2694 15.2581 24.2663 15.287C24.2333 15.6418 23.6056 16.2827 23.6056 16.2827C21.6459 18.2391 19.4352 19.4329 19.4352 19.4329C17.5719 20.5773 15.2376 21.4237 15.2376 21.4237C13.4616 22.0633 12.8934 21.8598 12.8934 21.8598Z" fill="white"/>
<path id="Vector_4" d="M24.5094 21.9872C24.9388 21.2472 22.6018 19.0912 19.291 17.1719C15.9809 15.2532 12.9455 14.2991 12.5167 15.0404C12.0872 15.7823 14.4248 17.9363 17.7363 19.8557C21.0485 21.7744 24.0805 22.7285 24.5094 21.9872ZM12.8015 15.3265C12.7374 15.1758 12.8715 15.1395 12.8715 15.1395C13.4641 15.0272 14.2966 15.2828 14.2966 15.2828C16.561 15.7982 20.5985 18.3274 20.5985 18.3274C23.7072 20.5025 24.1843 21.4612 24.2556 21.7327C24.2629 21.7607 24.26 21.7902 24.2475 21.8163C24.2351 21.8422 24.2138 21.8629 24.1875 21.8748C23.8638 22.0235 22.995 21.8022 22.995 21.8022C20.3191 21.0846 18.179 19.7704 18.179 19.7704C16.2563 18.7331 14.3548 17.1375 14.3548 17.1375C12.9099 15.9205 12.8021 15.3272 12.8021 15.3272L12.8015 15.3265Z" fill="white"/>
<path id="Vector_5" d="M18.497 19.3123C18.9472 19.3123 19.3123 18.9472 19.3123 18.497C19.3123 18.0466 18.9472 17.6816 18.497 17.6816C18.0467 17.6816 17.6816 18.0466 17.6816 18.497C17.6816 18.9472 18.0467 19.3123 18.497 19.3123Z" fill="white"/>
<path id="Vector_6" d="M21.8394 16.0265C22.2043 16.0265 22.5001 15.7307 22.5001 15.3658C22.5001 15.0009 22.2043 14.7051 21.8394 14.7051C21.4745 14.7051 21.1787 15.0009 21.1787 15.3658C21.1787 15.7307 21.4745 16.0265 21.8394 16.0265Z" fill="white"/>
<path id="Vector_7" d="M14.0767 17.6906C14.4416 17.6906 14.7374 17.3948 14.7374 17.0299C14.7374 16.665 14.4416 16.3691 14.0767 16.3691C13.7118 16.3691 13.416 16.665 13.416 17.0299C13.416 17.3948 13.7118 17.6906 14.0767 17.6906Z" fill="white"/>
<path id="Vector_8" d="M17.5347 23.6906C17.8996 23.6906 18.1955 23.3947 18.1955 23.0299C18.1955 22.665 17.8996 22.3691 17.5347 22.3691C17.1698 22.3691 16.874 22.665 16.874 23.0299C16.874 23.3947 17.1698 23.6906 17.5347 23.6906Z" fill="white"/>
<path id="Vector_9" d="M18.5 37C28.7173 37 37 28.7173 37 18.5C37 8.28273 28.7173 0 18.5 0C8.28273 0 0 8.28273 0 18.5C0 28.7173 8.28273 37 18.5 37Z" fill="#2E3148" fill-opacity="0.3"/>
</g>
<defs>
<clipPath id="clip0_101_338">
<rect width="37" height="37" fill="white"/>
</clipPath>
</defs>
</svg>
