<svg width="37" height="37" viewBox="0 0 37 37" fill="none" xmlns="http://www.w3.org/2000/svg">
<g clip-path="url(#clip0_101_366)">
<path opacity="0.16" d="M36.6186 18.5C36.6186 8.28273 28.4212 0 18.3093 0C8.19734 0 0 8.28273 0 18.5C0 28.7173 8.19734 37 18.3093 37C28.4212 37 36.6186 28.7173 36.6186 18.5Z" fill="white"/>
<path d="M18.2062 30.6667C24.9475 30.6667 30.4124 25.1448 30.4124 18.3333C30.4124 11.5218 24.9475 6 18.2062 6C11.4649 6 6 11.5218 6 18.3333C6 25.1448 11.4649 30.6667 18.2062 30.6667Z" fill="black"/>
<path d="M15.5875 17.3029L18.5006 14.3899L21.4162 17.3054L23.1111 15.6105L18.5006 11L13.8926 15.608L15.5875 17.3029Z" fill="#F3BA2F"/>
<path d="M11 18.5L12.6945 16.8055L14.389 18.5L12.6945 20.1945L11 18.5Z" fill="#F3BA2F"/>
<path d="M15.5881 19.6978L18.5011 22.6109L21.4167 19.6953L23.1116 21.3902L18.5011 26.0007L13.8931 21.3927L13.8906 21.3902L15.5881 19.6978Z" fill="#F3BA2F"/>
<path d="M22.6113 18.502L24.3058 16.8075L26.0003 18.502L24.3058 20.1964L22.6113 18.502Z" fill="#F3BA2F"/>
<path d="M20.221 18.5011L18.5011 16.7812L17.2306 18.0518L17.0833 18.1966L16.7812 18.4986V18.5036L18.5011 20.2235L20.221 18.5011Z" fill="#F3BA2F"/>
</g>
<defs>
<clipPath id="clip0_101_366">
<rect width="37" height="37" fill="white"/>
</clipPath>
</defs>
</svg>
