<svg width="37" height="37" viewBox="0 0 37 37" fill="none" xmlns="http://www.w3.org/2000/svg">
<path opacity="0.16" d="M37 18.5C37 8.28273 28.7173 0 18.5 0C8.28273 0 0 8.28273 0 18.5C0 28.7173 8.28273 37 18.5 37C28.7173 37 37 28.7173 37 18.5Z" fill="#E37F06"/>
<path d="M30.4645 21.4849C28.817 28.092 22.1244 32.113 15.5157 30.4654C8.90969 28.8181 4.88821 22.1258 6.53645 15.5191C8.1831 8.91117 14.8758 4.88977 21.4826 6.53704C28.0908 8.18428 32.1119 14.8774 30.4645 21.4849Z" fill="#F7931A"/>
<path d="M23.9375 16.7416C24.1831 15.1006 22.9334 14.2184 21.2246 13.6298L21.779 11.4067L20.4256 11.0695L19.886 13.234C19.5302 13.1454 19.1648 13.0617 18.8017 12.9789L19.3452 10.8001L17.9926 10.4629L17.4379 12.6852C17.1434 12.6181 16.8543 12.5518 16.5737 12.482L16.5753 12.4751L14.7089 12.0091L14.3489 13.4545C14.3489 13.4545 15.353 13.6846 15.3318 13.6988C15.8799 13.8356 15.979 14.1983 15.9624 14.4858L15.331 17.0184C15.3688 17.028 15.4178 17.0419 15.4717 17.0635C15.4266 17.0523 15.3785 17.0399 15.3287 17.028L14.4437 20.5757C14.3766 20.7422 14.2066 20.992 13.8235 20.8972C13.837 20.9168 12.8398 20.6517 12.8398 20.6517L12.168 22.2006L13.9291 22.6396C14.2567 22.7217 14.5778 22.8076 14.8939 22.8886L14.3339 25.1371L15.6856 25.4743L16.2403 23.2497C16.6096 23.3499 16.9681 23.4424 17.3188 23.5295L16.7661 25.7437L18.1194 26.081L18.6795 23.8367C20.9872 24.2734 22.7226 24.0972 23.453 22.0102C24.0416 20.3298 23.4237 19.3605 22.2095 18.7285C23.0938 18.5246 23.7598 17.943 23.9375 16.7416ZM20.8454 21.0772C20.4271 22.7576 17.5975 21.8491 16.6801 21.6214L17.4233 18.6425C18.3407 18.8714 21.2825 19.3247 20.8454 21.0772ZM21.264 16.7174C20.8824 18.2459 18.5272 17.4693 17.7633 17.2789L18.437 14.5772C19.201 14.7676 21.6614 15.1229 21.264 16.7174Z" fill="white"/>
</svg>
