<svg width="37" height="37" viewBox="0 0 37 37" fill="none" xmlns="http://www.w3.org/2000/svg">
<g clip-path="url(#clip0_101_348)">
<path d="M18.5 37C28.7173 37 37 28.7173 37 18.5C37 8.28273 28.7173 0 18.5 0C8.28273 0 0 8.28273 0 18.5C0 28.7173 8.28273 37 18.5 37Z" fill="#008CE7" fill-opacity="0.1"/>
<path d="M18.5001 29.0706C24.3386 29.0706 29.0716 24.3376 29.0716 18.4992C29.0716 12.6607 24.3386 7.92773 18.5001 7.92773C12.6617 7.92773 7.92871 12.6607 7.92871 18.4992C7.92871 24.3376 12.6617 29.0706 18.5001 29.0706Z" fill="#008CE7"/>
<path d="M20.539 13.2168H15.7317L15.3339 15.4415L19.6695 15.4481C21.8043 15.4481 22.4379 16.223 22.4175 17.5095C22.4082 18.1689 22.1208 19.2842 21.9992 19.6436C21.6709 20.6083 20.9943 21.7064 18.4585 21.703L14.2444 21.7004L13.8467 23.9277H18.6414C20.3323 23.9277 21.0524 23.7301 21.8129 23.3793C23.5003 22.601 24.5053 20.9339 24.909 18.7583C25.5076 15.5208 24.7616 13.2168 20.539 13.2168Z" fill="white"/>
<path d="M18.3725 18.3669C18.5291 17.716 18.5787 17.4551 18.5787 17.4551H13.659C12.401 17.4551 12.2213 18.2744 12.1017 18.7699C11.9451 19.418 11.8955 19.6823 11.8955 19.6823H16.8159C18.0732 19.6823 18.2529 18.863 18.3725 18.3669Z" fill="white"/>
</g>
<defs>
<clipPath id="clip0_101_348">
<rect width="37" height="37" fill="white"/>
</clipPath>
</defs>
</svg>
