<svg width="37" height="37" viewBox="0 0 37 37" fill="none" xmlns="http://www.w3.org/2000/svg">
<path d="M37 18.5C37 8.28273 28.7173 0 18.5 0C8.28273 0 0 8.28273 0 18.5C0 28.7173 8.28273 37 18.5 37C28.7173 37 37 28.7173 37 18.5Z" fill="#C3A634" fill-opacity="0.1"/>
<path d="M18.5 29C24.299 29 29 24.0751 29 18C29 11.9249 24.299 7 18.5 7C12.701 7 8 11.9249 8 18C8 24.0751 12.701 29 18.5 29Z" fill="#C3A634"/>
<path fill-rule="evenodd" clip-rule="evenodd" d="M16.832 17.1313H19.7079V18.56H16.832V21.5712H18.6459C19.3639 21.5712 19.9513 21.4807 20.4086 21.2982C20.8659 21.1163 21.2246 20.8643 21.4852 20.5418C21.7518 20.2065 21.9333 19.8185 22.0159 19.4075C22.1122 18.9438 22.1591 18.4723 22.1559 18C22.1591 17.5277 22.1122 17.0562 22.0159 16.5925C21.9334 16.1814 21.7519 15.7934 21.4852 15.4581C21.2246 15.1356 20.8652 14.8838 20.4086 14.7018C19.9513 14.5193 19.3639 14.4288 18.6459 14.4288H16.832V17.1313ZM14.988 18.56H14V17.1319H14.988V13H19.354C20.1606 13 20.8586 13.1312 21.4486 13.3918C22.0385 13.6537 22.5199 14.0106 22.8938 14.4638C23.2671 14.9163 23.5452 15.4462 23.7271 16.0532C23.9092 16.66 23.9998 17.3093 23.9998 18C24.0044 18.6577 23.9125 19.3128 23.7265 19.9468C23.5452 20.5531 23.2672 21.0837 22.8932 21.5362C22.5199 21.9894 22.0385 22.3462 21.4486 22.6081C20.8586 22.8693 20.1599 23 19.354 23H14.988V18.56Z" fill="white"/>
</svg>
