<svg width="37" height="37" viewBox="0 0 37 37" fill="none" xmlns="http://www.w3.org/2000/svg">
<path d="M37 18.5C37 8.28273 28.7173 0 18.5 0C8.28273 0 0 8.28273 0 18.5C0 28.7173 8.28273 37 18.5 37C28.7173 37 37 28.7173 37 18.5Z" fill="#9B93F3" fill-opacity="0.2"/>
<path d="M18.5001 29.0706C24.3384 29.0706 29.0714 24.3376 29.0714 18.4992C29.0714 12.6607 24.3384 7.92773 18.5001 7.92773C12.6617 7.92773 7.92871 12.6607 7.92871 18.4992C7.92871 24.3376 12.6617 29.0706 18.5001 29.0706Z" fill="#9B93F3"/>
<path d="M18.4987 11.7031L18.4053 12.0129V21.0001L18.4987 21.0911L22.7758 18.6251L18.4987 11.7031Z" fill="#343434"/>
<path d="M18.4978 11.7031L14.2207 18.6251L18.4978 21.0911V16.729V11.7031Z" fill="#8C8C8C"/>
<path d="M18.499 21.8826L18.4463 21.9453V25.1467L18.499 25.2967L22.7786 19.418L18.499 21.8826Z" fill="#3C3C3B"/>
<path d="M18.4978 25.2967V21.8826L14.2207 19.418L18.4978 25.2967Z" fill="#8C8C8C"/>
<path d="M18.498 21.0926L22.775 18.6267L18.498 16.7305V21.0926Z" fill="#141414"/>
<path d="M14.2207 18.6267L18.4978 21.0926V16.7305L14.2207 18.6267Z" fill="#393939"/>
</svg>
