<svg width="37" height="37" viewBox="0 0 37 37" fill="none" xmlns="http://www.w3.org/2000/svg">
<g clip-path="url(#clip0_160_1967)">
<path opacity="0.16" d="M36.6215 18.5C36.6215 8.28273 28.4241 0 18.3122 0C8.20027 0 0.00292969 8.28273 0.00292969 18.5C0.00292969 28.7173 8.20027 37 18.3122 37C28.4241 37 36.6215 28.7173 36.6215 18.5Z" fill="white"/>
<path d="M18.3126 30.8327C25.0539 30.8327 30.5188 25.3109 30.5188 18.4993C30.5188 11.6878 25.0539 6.16602 18.3126 6.16602C11.5713 6.16602 6.10645 11.6878 6.10645 18.4993C6.10645 25.3109 11.5713 30.8327 18.3126 30.8327Z" fill="white"/>
<path d="M17.6468 21.922C19.678 21.9613 21.6719 21.9996 23.7031 22.0771C23.6287 22.3864 23.5532 22.6563 23.516 22.9273C23.4022 23.3142 23.2894 23.6627 23.215 24.0496C23.1767 24.243 23.1012 24.2812 22.9141 24.2812H13.2079C13.5472 22.9273 13.8854 21.6521 14.2235 20.2981C13.6971 20.4915 13.2452 20.685 12.7188 20.9166C12.8698 20.3375 13.0197 19.8348 13.2079 19.2928C13.2079 19.2163 13.3207 19.1769 13.3962 19.1769C13.7354 19.0229 14.1108 18.9059 14.449 18.7508C14.5617 18.7136 14.6755 18.5978 14.6755 18.4809L16.2536 12.4499C16.2919 12.2182 16.3663 12.1406 16.6301 12.1406H20.0533C19.6397 13.7251 19.2632 15.3118 18.8495 16.9739C19.4514 16.704 20.0161 16.4713 20.6553 16.2396C20.5797 16.5488 20.467 16.8188 20.4298 17.0898C20.3543 17.7094 20.0161 18.0569 19.4142 18.212C19.1516 18.2885 18.8867 18.4044 18.6241 18.5213C18.5308 18.5786 18.4533 18.6582 18.3986 18.753C18.1349 19.7965 17.8711 20.8019 17.6457 21.8455V21.9231L17.6468 21.922Z" fill="#0047FF"/>
</g>
<defs>
<clipPath id="clip0_160_1967">
<rect width="37" height="37" fill="white"/>
</clipPath>
</defs>
</svg>
