<svg width="37" height="37" viewBox="0 0 37 37" fill="none" xmlns="http://www.w3.org/2000/svg">
<g clip-path="url(#clip0_101_464)">
<path d="M18.5 37C28.7173 37 37 28.7173 37 18.5C37 8.28273 28.7173 0 18.5 0C8.28273 0 0 8.28273 0 18.5C0 28.7173 8.28273 37 18.5 37Z" fill="#F00500" fill-opacity="0.23"/>
<path d="M18.5 29C24.299 29 29 24.299 29 18.5C29 12.701 24.299 8 18.5 8C12.701 8 8 12.701 8 18.5C8 24.299 12.701 29 18.5 29Z" fill="#F00500"/>
<path d="M22.5083 19.1709C22.5018 19.2076 22.3948 19.3166 22.2872 19.3966C21.9722 19.627 21.4085 19.8416 20.8356 19.9446C20.5094 20.0037 20.1832 20.0128 20.0848 19.9649C20.0212 19.9328 20.012 19.9078 20.0349 19.8258C20.0828 19.6552 20.2384 19.4675 20.4799 19.2916C20.6032 19.203 21.1033 18.8992 21.3356 18.7712C21.7189 18.5612 22.0293 18.4365 22.2393 18.4063C22.3056 18.3972 22.3856 18.3945 22.4099 18.4063C22.4519 18.4221 22.4972 18.5435 22.5149 18.6892C22.5247 18.7666 22.5202 19.1092 22.5083 19.1709ZM17.1317 19.9262C17.1186 19.9538 17.0497 19.9833 16.9722 19.9945C16.8941 20.0063 16.6572 19.9991 16.5227 19.9833C16.0384 19.919 15.5252 19.7707 15.1511 19.5882C14.9411 19.4859 14.7902 19.3828 14.6786 19.2713L14.6143 19.205L14.6077 19.1184C14.5959 18.9674 14.5986 18.7305 14.6169 18.6459C14.6288 18.5754 14.6528 18.5074 14.6878 18.4451C14.7055 18.4221 14.7055 18.4221 14.7882 18.4221C14.8886 18.4221 14.9726 18.4378 15.1098 18.4812C15.3907 18.5684 15.808 18.7784 16.3173 19.0842C16.7373 19.3349 16.8948 19.4583 17.0155 19.627C17.0976 19.732 17.152 19.8803 17.1317 19.9262ZM20.3637 23.1031C20.3637 23.1097 20.3362 23.2193 20.302 23.3492C20.28 23.4289 20.2595 23.509 20.2403 23.5894C20.2147 23.5914 20.1924 23.594 20.1668 23.5914H20.0947L19.9936 23.8289C19.9391 23.9589 19.8886 24.0796 19.882 24.098L19.8682 24.1302L19.8203 24.0521L19.7724 23.9746V23.3427L19.7541 23.3472C19.7147 23.3564 19.4391 23.3932 19.3183 23.4043C18.819 23.4541 18.3155 23.4433 17.8188 23.3722C17.7688 23.3635 17.7184 23.3574 17.6678 23.3538C17.6659 23.3564 17.6678 23.5021 17.6724 23.6826L17.679 24.0068L17.6409 24.0658C17.6199 24.098 17.5996 24.1249 17.5996 24.1275C17.593 24.1341 17.5701 24.098 17.5176 23.993C17.4611 23.8828 17.4181 23.7663 17.3896 23.6458L17.3738 23.5802L17.303 23.5842L17.2321 23.5914L17.2137 23.5067C17.2037 23.4554 17.1954 23.4037 17.1888 23.3518L17.1822 23.279L17.1232 23.2265L17.0477 23.1622C17.0359 23.153 17.0313 23.1372 17.0313 23.1235V23.0959L17.3167 23.0985L17.6022 23.1005L17.6107 23.13L17.6199 23.1602L17.7184 23.1648L18.1016 23.176L18.3871 23.1825L18.4599 23.069L18.5354 22.9548H18.6312L18.6292 22.7172L18.6266 22.4797L18.5013 22.4252C18.097 22.2474 17.8601 22.0446 17.7709 21.7978C17.7525 21.7473 17.7525 21.7289 17.7479 21.5012C17.7459 21.2748 17.7459 21.2545 17.7617 21.2039C17.7771 21.148 17.8069 21.0972 17.8481 21.0564C17.8894 21.0156 17.9406 20.9864 17.9966 20.9716C18.036 20.9598 18.1384 20.9598 18.6772 20.9598L19.3111 20.9624L19.382 20.9966C19.4503 21.0246 19.5094 21.0712 19.5526 21.1311C19.6077 21.2039 19.6241 21.261 19.6241 21.4002C19.6241 21.599 19.6103 21.7703 19.59 21.8385C19.5598 21.9324 19.515 22.021 19.4574 22.101C19.3432 22.2474 19.1359 22.3931 18.9456 22.4593L18.8911 22.4797L18.8937 22.7199L18.8957 22.9594L18.9462 22.964L18.9961 22.9686L19.065 23.071L19.1306 23.174H19.4371C19.6057 23.174 19.7541 23.176 19.7678 23.1779C19.7908 23.1832 19.7954 23.1806 19.8177 23.1418L19.8453 23.1005H20.1078C20.3047 23.0913 20.3637 23.0959 20.3637 23.1031Z" fill="black"/>
<path d="M19.1573 23.7567C19.114 23.7817 19.0845 23.7928 19.0779 23.7889C19.0714 23.7863 19.0385 23.7587 19.0044 23.7338L18.9427 23.6839L18.8791 23.7522C18.74 23.9031 18.7347 23.9097 18.694 23.9116C18.6304 23.9182 18.6166 23.907 18.5391 23.7909C18.4978 23.7318 18.4663 23.6813 18.4663 23.6813C18.4663 23.6813 18.4361 23.6767 18.402 23.6747L18.3383 23.6682L18.3088 23.7292L18.2786 23.7909L18.2261 23.7751C18.185 23.7615 18.1446 23.7455 18.1054 23.7272L18.0371 23.6931V23.5625L18.6441 23.5651L19.2512 23.5671L19.2531 23.6288C19.2558 23.7016 19.2577 23.6997 19.1573 23.7567Z" fill="black"/>
<path d="M24.8636 20.9748C24.8616 20.965 24.8616 20.9486 24.8597 20.9243C24.2223 20.8639 23.5794 20.9303 22.9678 21.1195C22.3562 21.3087 21.7881 21.6171 21.2962 22.0268C21.2962 22.0268 20.829 19.8809 18.6384 19.8809C16.4465 19.8809 15.6347 22.0268 15.6347 22.0268C14.4069 20.7051 12.7637 20.8009 12.1697 20.8875L12.1678 20.9309C12.1494 21.2616 12.1586 21.4191 12.2137 21.6265C12.3843 22.2775 12.912 22.9941 13.7382 23.697C15.0914 24.8474 16.9262 25.6775 18.3162 25.774C19.7652 25.8724 21.9039 25.0252 23.328 23.7882C23.5511 23.59 23.7611 23.38 23.958 23.1562C24.0991 22.9921 24.3091 22.7086 24.2933 22.7086C24.2887 22.7086 24.2933 22.704 24.3025 22.6995C24.3091 22.6949 24.3156 22.6883 24.3117 22.6837C24.3091 22.6811 24.3137 22.6745 24.3209 22.6725C24.3274 22.6699 24.332 22.666 24.3301 22.6607C24.3274 22.6561 24.3301 22.6515 24.3392 22.6496C24.3458 22.647 24.3484 22.6404 24.3458 22.6358C24.3432 22.6312 24.3458 22.6266 24.3504 22.6266C24.355 22.6266 24.3596 22.62 24.3596 22.6155C24.3596 22.6109 24.3642 22.6036 24.3688 22.6036C24.3734 22.6036 24.378 22.599 24.378 22.5945C24.3855 22.5758 24.3955 22.5581 24.4075 22.542C24.4416 22.4895 24.5781 22.2453 24.5972 22.2046C24.7271 21.91 24.8091 21.6475 24.8478 21.385C24.8616 21.2596 24.8728 21.0293 24.8636 20.9742V20.9748ZM19.1582 23.7586C19.1148 23.7836 19.0853 23.7947 19.0787 23.7908C19.0722 23.7882 19.0394 23.7606 19.0052 23.7357L18.9436 23.6858L18.8799 23.754C18.7408 23.905 18.7355 23.9115 18.6948 23.9135C18.6312 23.9201 18.6174 23.9089 18.54 23.7928C18.4986 23.7337 18.4671 23.6832 18.4671 23.6832C18.4671 23.6832 18.4369 23.6786 18.4028 23.6766L18.3392 23.67L18.3096 23.7311L18.2794 23.7928L18.2269 23.777C18.1858 23.7634 18.1455 23.7474 18.1062 23.7291L18.0379 23.695V23.5644L18.645 23.567L19.252 23.569L19.254 23.6307C19.2566 23.7035 19.2586 23.7015 19.1582 23.7586ZM20.3 23.3478C20.2781 23.4274 20.2573 23.5072 20.2377 23.5874C20.2127 23.5893 20.1898 23.592 20.1648 23.5893H20.092L19.9936 23.8295C19.9391 23.9595 19.8886 24.0802 19.882 24.0986L19.8682 24.1307L19.8203 24.0526L19.7724 23.9752V23.3432L19.754 23.3478C19.7147 23.357 19.439 23.3938 19.3183 23.4049C18.819 23.4547 18.3155 23.4439 17.8187 23.3728C17.7688 23.3642 17.7184 23.358 17.6678 23.3544C17.6658 23.357 17.6678 23.5027 17.6724 23.6832L17.679 24.0074L17.6409 24.0664C17.6199 24.0986 17.5996 24.1255 17.5996 24.1281C17.593 24.1347 17.57 24.0986 17.5175 23.9936C17.4611 23.8834 17.4181 23.7669 17.3896 23.6464L17.3738 23.5808L17.3029 23.5854L17.2321 23.592L17.2137 23.5073C17.2037 23.456 17.1954 23.4043 17.1887 23.3524L17.1822 23.2796L17.1231 23.2271C17.0985 23.2051 17.0733 23.1836 17.0477 23.1628C17.0358 23.1536 17.0312 23.1378 17.0312 23.124V23.0965L17.3167 23.0991L17.6022 23.1011L17.6107 23.1306L17.6199 23.1608L17.7183 23.1654L18.1016 23.1765L18.3871 23.1831L18.4599 23.0696L18.5354 22.9554H18.6312L18.6292 22.7178L18.6266 22.4803L18.5012 22.4258C18.097 22.248 17.8601 22.0452 17.7708 21.7984C17.7525 21.7479 17.7525 21.7295 17.7479 21.5018C17.7459 21.2754 17.7459 21.255 17.7617 21.2045C17.7771 21.1486 17.8069 21.0978 17.8481 21.057C17.8893 21.0162 17.9405 20.987 17.9966 20.9722C18.036 20.9604 18.1383 20.9604 18.6771 20.9604L19.3111 20.963L19.3819 20.9971C19.4502 21.0252 19.5093 21.0718 19.5526 21.1317C19.6077 21.2045 19.6241 21.2616 19.6241 21.4007C19.6241 21.5996 19.6103 21.7709 19.59 21.8391C19.5597 21.933 19.515 22.0216 19.4574 22.1016C19.3432 22.248 19.1358 22.3936 18.9455 22.4599L18.8911 22.4803L18.8937 22.7205L18.8957 22.96L18.9462 22.9646L18.9961 22.9692L19.065 23.0715L19.1306 23.1746H19.4371C19.6057 23.1746 19.754 23.1765 19.7678 23.1785C19.7908 23.1838 19.7954 23.1811 19.8177 23.1424L19.8452 23.1011H20.1077C20.3112 23.1011 20.3702 23.1037 20.3702 23.1103C20.3637 23.1083 20.3335 23.2199 20.2994 23.3478H20.3Z" fill="white"/>
<path d="M24.8458 20.7406C24.8411 20.6346 24.8341 20.5287 24.8248 20.423C24.7263 19.3868 24.4619 18.5402 23.9598 17.6431C23.941 17.6124 23.9244 17.5804 23.9099 17.5473C23.9054 17.5408 23.9034 17.5342 23.9008 17.5296C23.9716 17.317 24.2617 16.4291 24.4914 15.4139C24.8044 14.0357 25.0033 12.424 24.3962 11.9403C24.3962 11.9403 23.3462 11.8629 21.9405 13.241C21.5593 13.6216 21.2101 14.0351 20.8997 14.4754L20.8013 14.4439C20.2364 14.259 19.6507 14.1454 19.0576 14.106C18.8798 14.0928 18.2157 14.0928 17.9991 14.106C17.3442 14.1493 16.8415 14.2477 16.2712 14.4459C16.2502 14.4542 16.229 14.4619 16.2075 14.4689C15.8858 14.0295 15.5262 13.6193 15.1326 13.243C13.6692 11.8583 12.5804 11.9384 12.5804 11.9384C11.9373 12.4378 12.1565 14.1224 12.4886 15.5464C12.6535 16.2452 12.8501 16.936 13.0779 17.6169C13.0705 17.634 13.0622 17.6506 13.0529 17.6668C12.5214 18.7443 12.2333 19.7825 12.165 20.887C12.7603 20.8004 14.4015 20.7019 15.6314 22.0256C15.6314 22.0256 16.4438 19.8803 18.635 19.8803C20.8256 19.8803 21.2935 22.0262 21.2935 22.0262C21.7856 21.6171 22.3536 21.3091 22.965 21.12C23.5764 20.9308 24.2191 20.8641 24.8563 20.9237L24.8451 20.7406H24.8458ZM13.5097 16.7559C13.5097 16.7559 12.6566 14.6218 12.8751 13.4025C12.9119 13.1977 12.9801 13.0172 13.0877 12.8807C13.0877 12.8807 14.055 12.9765 15.6163 14.711C15.6163 14.711 15.3196 14.8547 14.9226 15.1605C14.9226 15.1605 14.92 15.1625 14.918 15.1625C14.3492 15.5967 13.8707 16.138 13.5097 16.7559ZM17.1322 19.9256C17.1178 19.9531 17.0495 19.9827 16.9721 19.9938C16.894 20.0056 16.6571 19.9984 16.5225 19.9827C16.0382 19.9184 15.525 19.77 15.151 19.5876C14.941 19.4852 14.79 19.3822 14.6785 19.2706L14.6142 19.2044L14.6076 19.1177C14.5958 18.9668 14.5984 18.7299 14.6168 18.6452C14.6286 18.5747 14.6526 18.5068 14.6877 18.4444C14.7054 18.4215 14.7054 18.4215 14.7881 18.4215C14.8885 18.4215 14.9725 18.4372 15.1096 18.4805C15.3905 18.5678 15.8079 18.7778 16.3171 19.0836C16.7371 19.3343 16.8946 19.4577 17.0154 19.6263C17.0974 19.7313 17.1519 19.8796 17.1315 19.9256H17.1322ZM22.5082 19.1702C22.5016 19.207 22.3947 19.3159 22.287 19.396C21.972 19.6263 21.4083 19.8409 20.8354 19.944C20.5093 20.003 20.1831 20.0122 20.0847 19.9643C20.021 19.9321 20.0118 19.9072 20.0348 19.8252C20.0827 19.6545 20.2382 19.4669 20.4797 19.291C20.6031 19.2017 21.1032 18.8985 21.3355 18.7706C21.7187 18.5606 22.0291 18.4359 22.2391 18.4057C22.3054 18.3965 22.3855 18.3939 22.4104 18.4057C22.4518 18.4215 22.497 18.5429 22.5154 18.6885C22.5246 18.766 22.52 19.1085 22.5089 19.1702H22.5082ZM22.1295 15.1605L22.1249 15.1579C21.9161 14.9872 21.6916 14.8366 21.4543 14.7084C22.963 12.9739 23.8955 12.8781 23.8955 12.8781C23.9985 13.0172 24.0648 13.1951 24.1016 13.4005C24.3135 14.6191 23.4899 16.7552 23.4899 16.7552C23.1442 16.1405 22.6822 15.5988 22.1295 15.1605Z" fill="#FFA409"/>
<path d="M24.104 13.4013C23.9255 13.379 23.0836 13.3744 22.1294 15.1613L22.1248 15.1587C21.916 14.988 21.6914 14.8374 21.4541 14.7092C22.9628 12.9747 23.8954 12.8789 23.8954 12.8789C24.0004 13.018 24.0673 13.1959 24.1034 13.4013H24.104Z" fill="#FF9300"/>
<path d="M23.4923 16.7563C23.1465 16.1408 22.6837 15.5988 22.1299 15.1609C23.0841 13.374 23.9241 13.3786 24.1039 13.4009C24.3165 14.6222 23.4923 16.7563 23.4923 16.7563ZM24.138 13.4074L24.1039 13.4009L24.138 13.4074Z" fill="#FF8300"/>
<path d="M15.6171 14.7092C15.6171 14.7092 15.3205 14.8536 14.9235 15.1587C14.9235 15.1587 14.9209 15.1613 14.9189 15.1613C13.9306 13.3717 13.0604 13.379 12.874 13.4013C12.9101 13.1959 12.979 13.0161 13.086 12.8789C13.0886 12.8789 14.0559 12.9747 15.6171 14.7098V14.7092Z" fill="#FF9300"/>
<path d="M14.9205 15.1609C14.3505 15.595 13.8714 16.1368 13.5102 16.7556C13.5102 16.7556 12.6571 14.6222 12.8757 13.4009C13.0607 13.3786 13.9322 13.374 14.9205 15.1609Z" fill="#FF8300"/>
<path d="M12.8756 13.4023L12.8389 13.4089L12.875 13.4023H12.8756Z" fill="#FF8300"/>
<path d="M21.1833 17.9404C21.1833 17.9404 20.4529 17.9856 20.5441 17.4154C20.636 16.8444 21.2063 16.7762 21.3658 16.7985C21.5259 16.8215 22.1644 17.0498 22.0509 17.5295C21.9367 18.0086 21.7766 17.9167 21.6853 17.9404C21.5941 17.9627 21.1833 17.9404 21.1833 17.9404ZM15.7968 17.9404C15.7968 17.9404 15.0671 17.9856 15.1583 17.4154C15.2502 16.8444 15.8198 16.7762 15.9799 16.7985C16.1394 16.8215 16.7786 17.0498 16.6644 17.5295C16.5502 18.0086 16.3907 17.9167 16.2995 17.9404C16.2076 17.9627 15.7975 17.9404 15.7975 17.9404H15.7968Z" fill="white"/>
</g>
<defs>
<clipPath id="clip0_101_464">
<rect width="37" height="37" fill="white"/>
</clipPath>
</defs>
</svg>
