<svg width="37" height="37" viewBox="0 0 37 37" fill="none" xmlns="http://www.w3.org/2000/svg">
<g clip-path="url(#clip0_101_446)">
<path d="M18.5 37C28.7173 37 37 28.7173 37 18.5C37 8.28273 28.7173 0 18.5 0C8.28273 0 0 8.28273 0 18.5C0 28.7173 8.28273 37 18.5 37Z" fill="#818181" fill-opacity="0.1"/>
<path d="M18.5714 29.1429C24.4099 29.1429 29.1429 24.4099 29.1429 18.5714C29.1429 12.733 24.4099 8 18.5714 8C12.733 8 8 12.733 8 18.5714C8 24.4099 12.733 29.1429 18.5714 29.1429Z" fill="black"/>
<path d="M14.1127 21.6338C14.1922 21.5558 14.3001 21.512 14.4125 21.512H24.7875C24.9765 21.512 25.0711 21.7363 24.9374 21.8674L22.8873 23.8781C22.8078 23.9562 22.6999 24 22.5875 24H12.2125C12.0235 24 11.9289 23.7757 12.0626 23.6445L14.1127 21.6338Z" fill="url(#paint0_linear_101_446)"/>
<path d="M14.1127 14.1219C14.1922 14.0438 14.3001 14 14.4125 14H24.7875C24.9765 14 25.0711 14.2243 24.9374 14.3555L22.8873 16.3662C22.8078 16.4442 22.6999 16.488 22.5875 16.488H12.2125C12.0235 16.488 11.9289 16.2637 12.0626 16.1326L14.1127 14.1219Z" fill="url(#paint1_linear_101_446)"/>
<path d="M22.8873 17.8539C22.8078 17.7759 22.6999 17.7321 22.5875 17.7321H12.2125C12.0235 17.7321 11.9289 17.9564 12.0626 18.0875L14.1127 20.0982C14.1922 20.1763 14.3001 20.2201 14.4125 20.2201H24.7875C24.9765 20.2201 25.0711 19.9958 24.9374 19.8646L22.8873 17.8539Z" fill="url(#paint2_linear_101_446)"/>
</g>
<defs>
<linearGradient id="paint0_linear_101_446" x1="20.7888" y1="11.257" x2="13.8159" y2="24.8634" gradientUnits="userSpaceOnUse">
<stop stop-color="#00FFA3"/>
<stop offset="1" stop-color="#DC1FFF"/>
</linearGradient>
<linearGradient id="paint1_linear_101_446" x1="20.7888" y1="11.257" x2="13.8159" y2="24.8634" gradientUnits="userSpaceOnUse">
<stop stop-color="#00FFA3"/>
<stop offset="1" stop-color="#DC1FFF"/>
</linearGradient>
<linearGradient id="paint2_linear_101_446" x1="20.7888" y1="11.257" x2="13.8159" y2="24.8634" gradientUnits="userSpaceOnUse">
<stop stop-color="#00FFA3"/>
<stop offset="1" stop-color="#DC1FFF"/>
</linearGradient>
<clipPath id="clip0_101_446">
<rect width="37" height="37" fill="white"/>
</clipPath>
</defs>
</svg>
