<svg width="37" height="37" viewBox="0 0 37 37" fill="none" xmlns="http://www.w3.org/2000/svg">
<g clip-path="url(#clip0_101_423)">
<path d="M18.5001 29.0706C24.3386 29.0706 29.0716 24.3376 29.0716 18.4992C29.0716 12.6607 24.3386 7.92773 18.5001 7.92773C12.6617 7.92773 7.92871 12.6607 7.92871 18.4992C7.92871 24.3376 12.6617 29.0706 18.5001 29.0706Z" fill="#2E3148"/>
<path d="M18.5133 11.582C17.6576 11.582 16.9639 14.6854 16.9639 18.5129C16.9639 22.3404 17.6576 25.4438 18.5133 25.4438C19.3683 25.4438 20.062 22.3404 20.062 18.5129C20.062 14.6854 19.3683 11.582 18.5133 11.582ZM18.6203 25.052C18.5225 25.1828 18.424 25.085 18.424 25.085C18.0303 24.6278 17.8334 23.7801 17.8334 23.7801C17.1443 21.5621 17.3081 16.8004 17.3081 16.8004C17.6319 13.0204 18.2213 12.1271 18.4214 11.9289C18.4419 11.9085 18.469 11.8961 18.4978 11.8938C18.5266 11.8915 18.5552 11.8995 18.5787 11.9164C18.8694 12.1231 19.1138 12.9847 19.1138 12.9847C19.834 15.6593 19.7686 18.17 19.7686 18.17C19.834 20.3556 19.4079 22.8016 19.4079 22.8016C19.0795 24.6608 18.6203 25.052 18.6203 25.052Z" fill="white"/>
<path d="M24.524 15.0643C24.0979 14.3217 21.0618 15.2645 17.7404 17.1693C14.419 19.0742 12.0761 21.2195 12.5009 21.9622C12.9271 22.7048 15.9638 21.762 19.2851 19.8571C22.6066 17.9523 24.9495 15.8063 24.524 15.0643ZM12.8934 21.8598C12.7308 21.84 12.7678 21.7052 12.7678 21.7052C12.9674 21.137 13.6043 20.5436 13.6043 20.5436C15.1854 18.8423 19.3982 16.615 19.3982 16.615C22.8378 15.0148 23.9062 15.0822 24.1771 15.1562C24.2051 15.1638 24.2294 15.1812 24.2458 15.2052C24.2621 15.2291 24.2694 15.2581 24.2663 15.287C24.2333 15.6418 23.6056 16.2827 23.6056 16.2827C21.6459 18.2391 19.4352 19.4329 19.4352 19.4329C17.5719 20.5773 15.2376 21.4237 15.2376 21.4237C13.4616 22.0633 12.8934 21.8598 12.8934 21.8598Z" fill="white"/>
<path d="M24.5094 21.9872C24.9388 21.2472 22.6018 19.0912 19.291 17.1719C15.9809 15.2532 12.9455 14.2991 12.5167 15.0404C12.0872 15.7823 14.4248 17.9363 17.7363 19.8557C21.0485 21.7744 24.0805 22.7285 24.5094 21.9872ZM12.8015 15.3265C12.7374 15.1758 12.8715 15.1395 12.8715 15.1395C13.4641 15.0272 14.2966 15.2828 14.2966 15.2828C16.561 15.7982 20.5985 18.3274 20.5985 18.3274C23.7072 20.5025 24.1843 21.4612 24.2556 21.7327C24.2629 21.7607 24.26 21.7902 24.2475 21.8163C24.2351 21.8422 24.2138 21.8629 24.1875 21.8748C23.8638 22.0235 22.995 21.8022 22.995 21.8022C20.3191 21.0846 18.179 19.7704 18.179 19.7704C16.2563 18.7331 14.3548 17.1375 14.3548 17.1375C12.9099 15.9205 12.8021 15.3272 12.8021 15.3272L12.8015 15.3265Z" fill="white"/>
<path d="M18.497 19.3123C18.9472 19.3123 19.3123 18.9472 19.3123 18.497C19.3123 18.0466 18.9472 17.6816 18.497 17.6816C18.0467 17.6816 17.6816 18.0466 17.6816 18.497C17.6816 18.9472 18.0467 19.3123 18.497 19.3123Z" fill="white"/>
<path d="M21.8394 16.0265C22.2043 16.0265 22.5001 15.7307 22.5001 15.3658C22.5001 15.0009 22.2043 14.7051 21.8394 14.7051C21.4745 14.7051 21.1787 15.0009 21.1787 15.3658C21.1787 15.7307 21.4745 16.0265 21.8394 16.0265Z" fill="white"/>
<path d="M14.0767 17.6906C14.4416 17.6906 14.7374 17.3948 14.7374 17.0299C14.7374 16.665 14.4416 16.3691 14.0767 16.3691C13.7118 16.3691 13.416 16.665 13.416 17.0299C13.416 17.3948 13.7118 17.6906 14.0767 17.6906Z" fill="white"/>
<path d="M17.5347 23.6906C17.8996 23.6906 18.1955 23.3947 18.1955 23.0299C18.1955 22.665 17.8996 22.3691 17.5347 22.3691C17.1698 22.3691 16.874 22.665 16.874 23.0299C16.874 23.3947 17.1698 23.6906 17.5347 23.6906Z" fill="white"/>
<path d="M18.5 37C28.7173 37 37 28.7173 37 18.5C37 8.28273 28.7173 0 18.5 0C8.28273 0 0 8.28273 0 18.5C0 28.7173 8.28273 37 18.5 37Z" fill="#FF007A" fill-opacity="0.2"/>
<path d="M18.5 29C24.299 29 29 24.299 29 18.5C29 12.701 24.299 8 18.5 8C12.701 8 8 12.701 8 18.5C8 24.299 12.701 29 18.5 29Z" fill="#FF007A"/>
<path d="M16.0362 11.3358C15.8492 11.3069 15.8413 11.303 15.9292 11.2899C16.0979 11.2636 16.4969 11.2997 16.7719 11.3647C17.413 11.5176 17.9964 11.9081 18.6199 12.6017L18.7852 12.7855L19.0215 12.7481C20.019 12.5873 21.0342 12.7153 21.8827 13.107C22.1164 13.2147 22.4845 13.4293 22.5304 13.485C22.5455 13.5021 22.5724 13.6156 22.5902 13.7364C22.6532 14.1544 22.6217 14.4747 22.4944 14.7142C22.4248 14.8441 22.4209 14.8848 22.4674 14.9964C22.4896 15.0425 22.5242 15.0814 22.5673 15.1088C22.6105 15.1362 22.6605 15.1509 22.7116 15.1513C22.9229 15.1513 23.1499 14.81 23.2549 14.3355L23.2969 14.1472L23.3796 14.241C23.8338 14.7555 24.1901 15.4571 24.2511 15.9558L24.2675 16.0864L24.1908 15.9683C24.0595 15.7649 23.9283 15.6257 23.7589 15.5135C23.4544 15.312 23.1322 15.2438 22.2791 15.1985C21.5087 15.1578 21.0723 15.0922 20.6404 14.9511C19.9048 14.7116 19.534 14.392 18.6599 13.2455C18.272 12.7363 18.0319 12.4547 17.7936 12.2283C17.2509 11.7125 16.718 11.4421 16.0362 11.3358Z" fill="white"/>
<path d="M22.7508 12.8576C22.7705 12.5163 22.8164 12.2912 22.9096 12.0858C22.9463 12.0044 22.9811 11.9375 22.9864 11.9375C22.9805 11.9836 22.9684 12.0286 22.9503 12.0714C22.8827 12.2709 22.8715 12.5439 22.9181 12.8608C22.9772 13.2638 23.0113 13.3215 23.4366 13.7566C23.6367 13.9607 23.869 14.218 23.953 14.3289L24.1059 14.5297L23.953 14.386C23.766 14.2108 23.3355 13.8675 23.2403 13.819C23.1767 13.7862 23.1668 13.7868 23.1275 13.8255C23.0914 13.8623 23.0835 13.9161 23.0789 14.1727C23.071 14.5717 23.0166 14.8289 22.8847 15.0849C22.8138 15.2227 22.8026 15.1938 22.8669 15.037C22.9148 14.9202 22.9194 14.869 22.9194 14.4824C22.9194 13.7054 22.8269 13.5191 22.2855 13.1988C22.1226 13.1043 21.9553 13.0176 21.7841 12.9389C21.6996 12.905 21.6175 12.8651 21.5387 12.8195C21.5538 12.8044 22.0814 12.958 22.2934 13.04C22.6097 13.1614 22.6615 13.1772 22.7002 13.1621C22.7258 13.1522 22.7383 13.0774 22.7508 12.8576ZM16.4462 14.1865C16.0662 13.6634 15.8313 12.8608 15.8818 12.261L15.8976 12.0753L15.9842 12.0911C16.1469 12.1206 16.4272 12.2249 16.5584 12.305C16.918 12.5235 17.0742 12.8116 17.2324 13.5506C17.279 13.7671 17.34 14.0119 17.3682 14.0952C17.4128 14.2285 17.5835 14.5402 17.7226 14.743C17.8223 14.8887 17.7554 14.9576 17.5349 14.9379C17.1976 14.907 16.7408 14.592 16.4462 14.1865ZM22.2901 18.0813C20.5136 17.366 19.8882 16.7452 19.8882 15.6978C19.8882 15.5436 19.8935 15.4176 19.8994 15.4176C19.9059 15.4176 19.9748 15.4681 20.0523 15.5305C20.4126 15.8192 20.8162 15.9426 21.9324 16.1053C22.5893 16.2018 22.9595 16.2792 23.3007 16.3921C24.3848 16.7517 25.0555 17.4815 25.2157 18.4751C25.2616 18.7638 25.2347 19.3052 25.1592 19.5907C25.1002 19.8164 24.9184 20.2227 24.8705 20.2384C24.8573 20.2423 24.8442 20.1918 24.8403 20.1216C24.8219 19.7488 24.6336 19.3853 24.3166 19.1129C23.9563 18.8038 23.4733 18.5571 22.2901 18.0813ZM21.0432 18.3779C21.0222 18.2512 20.9935 18.1258 20.9572 18.0026L20.9113 17.8674L20.996 17.9619C21.1121 18.0931 21.2047 18.2598 21.2821 18.4829C21.3418 18.6529 21.3484 18.7034 21.3477 18.9797C21.3477 19.2514 21.3405 19.3078 21.2854 19.4614C21.2087 19.6866 21.0804 19.8907 20.9107 20.0573C20.5858 20.388 20.1691 20.5705 19.5667 20.6466C19.4617 20.6597 19.1572 20.682 18.8887 20.6958C18.2128 20.7313 17.7685 20.8034 17.3689 20.9439C17.3328 20.96 17.2941 20.9694 17.2547 20.9714C17.2389 20.955 17.5106 20.7929 17.7357 20.6847C18.0527 20.5317 18.3677 20.4484 19.0745 20.3309C19.4236 20.2725 19.7845 20.2023 19.8757 20.1741C20.7407 19.909 21.1856 19.2252 21.0432 18.3779Z" fill="white"/>
<path d="M21.4308 20.0428C21.1946 19.5356 21.1408 19.0453 21.27 18.5886C21.2838 18.54 21.3061 18.5 21.3193 18.5C21.3637 18.5161 21.4055 18.5386 21.4433 18.5669C21.5522 18.6404 21.7701 18.7638 22.3509 19.0801C23.076 19.4758 23.4895 19.7823 23.771 20.1314C24.0171 20.4379 24.1693 20.787 24.2428 21.2123C24.2842 21.4531 24.2599 22.0326 24.1982 22.2754C24.0033 23.0406 23.5498 23.6417 22.9041 23.9922C22.8431 24.0274 22.78 24.0588 22.7151 24.086C22.7059 24.086 22.74 23.9987 22.7919 23.8911C23.0084 23.437 23.034 22.9947 22.8693 22.5025C22.7689 22.2012 22.5635 21.8331 22.1494 21.2123C21.6677 20.4904 21.5496 20.2975 21.4308 20.0428ZM14.7587 22.7801C15.4183 22.2236 16.2379 21.8285 16.9854 21.7071C17.3069 21.6546 17.8438 21.6756 18.1417 21.7517C18.6194 21.8738 19.0473 22.1481 19.2698 22.4742C19.4863 22.7932 19.5802 23.0714 19.6767 23.6896C19.716 23.9337 19.7574 24.1785 19.7698 24.2343C19.842 24.5546 19.9844 24.8112 20.1603 24.9398C20.4392 25.1439 20.9203 25.1563 21.3928 24.9726C21.4421 24.9499 21.4942 24.9336 21.5476 24.924C21.5647 24.9411 21.3271 25.1006 21.1591 25.1846C20.9609 25.2906 20.7388 25.3444 20.514 25.3407C20.0809 25.3407 19.7213 25.1209 19.4214 24.6714C19.3623 24.5828 19.2298 24.3183 19.1261 24.0827C18.8098 23.3608 18.6536 23.1403 18.2861 22.8995C17.9652 22.6895 17.5524 22.6521 17.242 22.8043C16.8338 23.0045 16.7203 23.5262 17.0123 23.8563C17.1284 23.9876 17.345 24.1011 17.5222 24.1227C17.5995 24.133 17.6781 24.1265 17.7527 24.1038C17.8272 24.081 17.8961 24.0425 17.9545 23.9909C18.0129 23.9393 18.0595 23.8757 18.0913 23.8045C18.123 23.7332 18.1391 23.656 18.1384 23.5781C18.1384 23.3602 18.0544 23.2368 17.8444 23.1417C17.5576 23.0124 17.2492 23.1633 17.2505 23.433C17.2512 23.5479 17.301 23.6201 17.4165 23.6726C17.4907 23.7054 17.492 23.7087 17.4316 23.6962C17.1685 23.6411 17.1068 23.3241 17.3187 23.1134C17.5727 22.8601 18.0984 22.9717 18.2788 23.3169C18.355 23.4619 18.3635 23.7513 18.2972 23.9259C18.1496 24.3163 17.7178 24.5211 17.28 24.4095C16.9821 24.3334 16.8607 24.2514 16.5017 23.8812C15.8776 23.2381 15.6355 23.1134 14.7351 22.973L14.5625 22.9461L14.7587 22.7801Z" fill="white"/>
<path fill-rule="evenodd" clip-rule="evenodd" d="M11.9375 10.0764L12.0005 10.1532C14.4339 13.1325 15.6913 14.6787 15.7713 14.7889C15.9026 14.9713 15.8533 15.1347 15.6276 15.2634C15.5023 15.3349 15.2437 15.4071 15.1151 15.4071C14.9687 15.4071 14.804 15.3369 14.6839 15.2233C14.5992 15.1426 14.2573 14.6321 13.4679 13.4068C13.0982 12.8278 12.7237 12.2518 12.3444 11.6789C12.3122 11.6487 12.3129 11.6494 13.4062 13.6057C14.0926 14.8342 14.3249 15.268 14.3249 15.3264C14.3249 15.4445 14.2921 15.5062 14.1464 15.6689C13.9036 15.94 13.7953 16.2445 13.7166 16.8745C13.6287 17.5812 13.3819 18.08 12.6968 18.9338C12.2965 19.4338 12.2308 19.5257 12.1291 19.7272C12.0018 19.9805 11.967 20.1229 11.9526 20.4432C11.9375 20.7818 11.967 21.001 12.0707 21.3245C12.1613 21.608 12.2558 21.7957 12.4973 22.1697C12.706 22.4933 12.8261 22.7335 12.8261 22.8273C12.8261 22.9021 12.8405 22.9021 13.164 22.8293C13.9377 22.6547 14.5658 22.3469 14.9195 21.9702C15.138 21.7373 15.1892 21.6087 15.1912 21.2891C15.1918 21.0804 15.1846 21.0364 15.1282 20.9163C15.0363 20.7207 14.869 20.558 14.5002 20.306C14.0165 19.9752 13.8104 19.7088 13.7533 19.3433C13.7061 19.0434 13.7606 18.8314 14.0283 18.271C14.3046 17.6908 14.3735 17.4441 14.4201 16.8594C14.4496 16.4814 14.491 16.3324 14.5999 16.213C14.7128 16.0883 14.8152 16.0456 15.0954 16.0076C15.5521 15.9452 15.8428 15.8271 16.0817 15.6072C16.2891 15.4156 16.3757 15.2312 16.3888 14.9543L16.3993 14.7443L16.2832 14.6091C16.1165 14.4148 14.7377 12.8937 12.1462 10.0442L12.0766 9.96875L11.9375 10.0764ZM13.0623 20.8271C13.1081 20.746 13.1218 20.6507 13.1006 20.56C13.0795 20.4694 13.025 20.3899 12.9481 20.3375C12.7985 20.2378 12.5655 20.285 12.5655 20.4149C12.5655 20.4543 12.5872 20.4832 12.6364 20.5088C12.7198 20.5514 12.7257 20.6 12.6607 20.6978C12.5944 20.7975 12.5997 20.8855 12.6758 20.9452C12.7978 21.041 12.9704 20.9878 13.0623 20.8271ZM16.6874 16.1178C16.4728 16.1834 16.2648 16.4112 16.1998 16.6494C16.1605 16.7944 16.1828 17.0497 16.2418 17.1284C16.337 17.2557 16.4295 17.2892 16.6789 17.2872C17.1672 17.284 17.5911 17.0746 17.641 16.8128C17.6817 16.5982 17.4946 16.3009 17.238 16.1697C17.1055 16.1027 16.8239 16.0758 16.6874 16.1178ZM17.2584 16.5641C17.3338 16.4571 17.3004 16.3409 17.1731 16.2635C16.9289 16.1145 16.5601 16.2372 16.5601 16.4682C16.5601 16.5824 16.7524 16.7078 16.9283 16.7078C17.0464 16.7078 17.2065 16.6376 17.2584 16.5641Z" fill="white"/>
</g>
<defs>
<clipPath id="clip0_101_423">
<rect width="37" height="37" fill="white"/>
</clipPath>
</defs>
</svg>
