<svg width="37" height="37" viewBox="0 0 37 37" fill="none" xmlns="http://www.w3.org/2000/svg">
<g clip-path="url(#clip0_101_383)">
<path opacity="0.16" d="M36.6215 18.5C36.6215 8.28273 28.4241 0 18.3122 0C8.20027 0 0.00292969 8.28273 0.00292969 18.5C0.00292969 28.7173 8.20027 37 18.3122 37C28.4241 37 36.6215 28.7173 36.6215 18.5Z" fill="white"/>
<path d="M18.3126 30.8327C25.0539 30.8327 30.5188 25.3109 30.5188 18.4993C30.5188 11.6878 25.0539 6.16602 18.3126 6.16602C11.5713 6.16602 6.10645 11.6878 6.10645 18.4993C6.10645 25.3109 11.5713 30.8327 18.3126 30.8327Z" fill="white"/>
<path d="M23.7417 13.7013L21.8152 14.6439L12.5121 19.1944C12.4806 18.964 12.4648 18.7318 12.4647 18.4994C12.466 17.5722 12.7195 16.6614 13.2001 15.8573C13.6807 15.0531 14.3717 14.3834 15.2047 13.9147C16.0378 13.4459 16.9839 13.1942 17.9493 13.1846C18.9148 13.175 19.8661 13.4078 20.7091 13.8599L21.8118 13.3203L21.9763 13.2397C20.9661 12.5356 19.7729 12.1134 18.5285 12.0198C17.2841 11.9263 16.037 12.1649 14.925 12.7094C13.813 13.2539 12.8795 14.083 12.2275 15.1052C11.5755 16.1274 11.2305 17.3027 11.2307 18.5014C11.2307 18.6669 11.2372 18.8318 11.2503 18.9961C11.2686 19.2287 11.2149 19.4613 11.0959 19.6647C10.9769 19.868 10.7979 20.033 10.5815 20.1389L10 20.4237V21.7517L11.712 20.9138L12.2664 20.6421L12.8127 20.3749L22.6201 15.5761L23.7221 15.0372L26 13.9223V12.5948L23.7417 13.7013ZM26 15.251L13.3698 21.4267L12.2677 21.9669L10 23.0766V24.4034L12.2522 23.3015L14.1787 22.3589L23.4913 17.8019C23.5228 18.0338 23.5386 18.2675 23.5387 18.5014C23.5381 19.4297 23.2847 20.3416 22.8036 21.1468C22.3225 21.952 21.6305 22.6223 20.7963 23.0912C19.9621 23.5601 19.0146 23.8114 18.048 23.82C17.0814 23.8286 16.1293 23.5943 15.2862 23.1403L15.2185 23.1748L14.023 23.7598C15.0329 24.4639 16.2259 24.8862 17.4701 24.9801C18.7143 25.0739 19.9613 24.8355 21.0733 24.2914C22.1853 23.7473 23.119 22.9186 23.7713 21.8968C24.4235 20.875 24.7689 19.6999 24.7693 18.5014C24.7693 18.3343 24.7626 18.1673 24.7497 18.0021C24.7314 17.7696 24.7851 17.5371 24.9039 17.3338C25.0228 17.1304 25.2016 16.9654 25.4178 16.8593L26 16.5746V15.251Z" fill="black"/>
</g>
<defs>
<clipPath id="clip0_101_383">
<rect width="37" height="37" fill="white"/>
</clipPath>
</defs>
</svg>
