<svg width="40" height="40" viewBox="0 0 40 40" fill="none" xmlns="http://www.w3.org/2000/svg">
<g clip-path="url(#clip0_101_400)">
<path d="M20 40C31.0457 40 40 31.0457 40 20C40 8.95431 31.0457 0 20 0C8.95431 0 0 8.95431 0 20C0 31.0457 8.95431 40 20 40Z" fill="#2E3148" fill-opacity="0.3"/>
<path d="M19.8108 30.6216C25.7815 30.6216 30.6216 25.7815 30.6216 19.8108C30.6216 13.8402 25.7815 9 19.8108 9C13.8402 9 9 13.8402 9 19.8108C9 25.7815 13.8402 30.6216 19.8108 30.6216Z" fill="white"/>
<path d="M28.8218 25.6033H24.5552V19.8105L19.8107 24.4919L15.0662 19.8105V25.6033H10.7996H10.6631C12.5745 28.6006 15.9537 30.6214 19.8107 30.6214C23.6677 30.6214 27.0469 28.6343 28.9583 25.6033H28.8218Z" fill="#4C4C4C"/>
<path d="M12.8196 23.1372V14.2298L19.8108 21.1465L26.802 14.2298V23.1372H30.0419C30.417 22.0575 30.6216 20.9103 30.6216 19.6957C30.6216 13.7911 25.7789 9 19.8108 9C13.8427 9 9 13.7911 9 19.6957C9 20.9103 9.20462 22.0575 9.57976 23.1372H12.8196Z" fill="#FF6B01"/>
</g>
<defs>
<clipPath id="clip0_101_400">
<rect width="40" height="40" fill="white"/>
</clipPath>
</defs>
</svg>
