<svg width="31" height="29" viewBox="0 0 31 29" fill="none" xmlns="http://www.w3.org/2000/svg">
<path d="M27.3707 10.6618H22.8927C20.9584 10.6618 19.8008 9.50424 19.8008 7.56988V3.09192C19.8008 1.15757 20.9584 0 22.8927 0H27.3707C29.305 0 30.4626 1.15757 30.4626 3.09192V7.56988C30.4626 9.50424 29.305 10.6618 27.3707 10.6618ZM27.7058 5.6203C27.523 5.43752 27.2793 5.34614 27.0356 5.34614C26.7919 5.34614 26.5482 5.43752 26.3654 5.6203L26.0912 5.89446V2.48268C26.0912 1.94959 25.6648 1.52312 25.1317 1.52312C24.5986 1.52312 24.1721 1.94959 24.1721 2.48268V5.89446L23.898 5.6203C23.5324 5.25475 22.9232 5.25475 22.5576 5.6203C22.1921 5.98584 22.1921 6.59509 22.5576 6.96064L24.4615 8.86453C24.5377 8.94069 24.6443 9.00161 24.7509 9.04731C24.7814 9.06254 24.8118 9.06254 24.8423 9.07777C24.9184 9.10823 24.9946 9.12346 25.086 9.12346C25.1165 9.12346 25.1469 9.12346 25.1774 9.12346C25.284 9.12346 25.3754 9.10823 25.482 9.06254C25.4972 9.06254 25.4972 9.06254 25.5125 9.06254C25.6191 9.01684 25.7105 8.95592 25.7866 8.87976C25.8019 8.86453 25.8019 8.86453 25.8171 8.86453L27.721 6.96064C28.0865 6.59509 28.0865 5.98584 27.7058 5.6203Z" fill="url(#paint0_radial_101_1222)"/>
<path d="M0 14.7922V22.4078C0 25.8957 2.81776 28.7135 6.3057 28.7135H24.1414C27.6293 28.7135 30.4623 25.8805 30.4623 22.3925V14.7922C30.4623 13.7717 29.6398 12.9492 28.6193 12.9492H1.84297C0.822482 12.9492 0 13.7717 0 14.7922ZM9.13869 23.611H6.09246C5.46798 23.611 4.95013 23.0932 4.95013 22.4687C4.95013 21.8442 5.46798 21.3264 6.09246 21.3264H9.13869C9.76317 21.3264 10.281 21.8442 10.281 22.4687C10.281 23.0932 9.76317 23.611 9.13869 23.611ZM19.0389 23.611H12.9465C12.322 23.611 11.8041 23.0932 11.8041 22.4687C11.8041 21.8442 12.322 21.3264 12.9465 21.3264H19.0389C19.6634 21.3264 20.1813 21.8442 20.1813 22.4687C20.1813 23.0932 19.6634 23.611 19.0389 23.611Z" fill="url(#paint1_radial_101_1222)"/>
<path d="M17.5158 4.35469V8.81742C17.5158 9.83791 16.6933 10.6604 15.6729 10.6604H1.84297C0.807251 10.6604 0 9.80744 0 8.78695C0.0152312 7.06583 0.700633 5.49703 1.84297 4.35469C2.98531 3.21235 4.56935 2.51172 6.3057 2.51172H15.6729C16.6933 2.51172 17.5158 3.3342 17.5158 4.35469Z" fill="url(#paint2_linear_101_1222)"/>
<defs>
<radialGradient id="paint0_radial_101_1222" cx="0" cy="0" r="1" gradientUnits="userSpaceOnUse" gradientTransform="translate(19.8008 9.10696) rotate(-42.2832) scale(18.5982 180.467)">
<stop stop-color="#9C74F1"/>
<stop offset="1" stop-color="#3500A8"/>
</radialGradient>
<radialGradient id="paint1_radial_101_1222" cx="0" cy="0" r="1" gradientUnits="userSpaceOnUse" gradientTransform="translate(9.86318e-07 26.4145) rotate(-25.2022) scale(43.4487 326.338)">
<stop stop-color="#9C74F1"/>
<stop offset="1" stop-color="#3500A8"/>
</radialGradient>
<linearGradient id="paint2_linear_101_1222" x1="19.1201" y1="2.51172" x2="-0.630442" y2="8.62287" gradientUnits="userSpaceOnUse">
<stop stop-color="#19FB9B"/>
<stop offset="1" stop-color="#8C01FA"/>
</linearGradient>
</defs>
</svg>
