<svg width="32" height="27" viewBox="0 0 32 27" fill="none" xmlns="http://www.w3.org/2000/svg">
<path d="M30.768 8.64844H18.1072C17.7804 8.64844 17.467 8.75485 17.2359 8.94429C17.0048 9.13368 16.875 9.39059 16.875 9.65851V25.2237C16.876 25.4913 17.0061 25.7478 17.237 25.937C17.4679 26.1263 17.7807 26.2329 18.1072 26.2338H30.768C31.0945 26.2329 31.4074 26.1263 31.6383 25.937C31.8691 25.7478 31.9993 25.4913 32.0002 25.2237V9.65851C32.0002 9.39059 31.8704 9.13368 31.6393 8.94429C31.4082 8.75485 31.0948 8.64844 30.768 8.64844Z" fill="url(#paint0_radial_84_1340)"/>
<path d="M30.768 0H18.1072C17.7804 0 17.467 0.106421 17.2359 0.295844C17.0048 0.485268 16.875 0.742184 16.875 1.01007V6.19675C16.876 6.46442 17.0061 6.72088 17.237 6.91011C17.4679 7.09935 17.7807 7.20607 18.1072 7.20682H30.768C31.0945 7.20607 31.4074 7.09935 31.6383 6.91011C31.8691 6.72088 31.9993 6.46442 32.0002 6.19675V1.01007C32.0002 0.742184 31.8704 0.485268 31.6393 0.295844C31.4082 0.106421 31.0948 0 30.768 0Z" fill="url(#paint1_linear_84_1340)"/>
<path d="M13.8869 15.5684H1.2322C0.551674 15.5684 0 16.0206 0 16.5784V25.2247C0 25.7825 0.551674 26.2347 1.2322 26.2347H13.8869C14.5674 26.2347 15.1191 25.7825 15.1191 25.2247V16.5784C15.1191 16.0206 14.5674 15.5684 13.8869 15.5684Z" fill="url(#paint2_linear_84_1340)"/>
<path d="M13.8869 6.29748e-06H1.23221C1.07023 -0.000463385 0.909734 0.025344 0.759985 0.0759434C0.61023 0.126538 0.47417 0.200909 0.359631 0.2948C0.245098 0.388686 0.154353 0.500218 0.0926258 0.622977C0.030905 0.745731 -0.000559288 0.877297 7.52382e-06 1.01008V13.0956C7.52382e-06 13.3634 0.129832 13.6204 0.360913 13.8098C0.591993 13.9992 0.905409 14.1056 1.23221 14.1056H13.8869C14.2137 14.1056 14.5271 13.9992 14.7582 13.8098C14.9893 13.6204 15.1191 13.3634 15.1191 13.0956V1.01008C15.1196 0.877297 15.0882 0.745731 15.0264 0.622977C14.9647 0.500218 14.874 0.388686 14.7595 0.2948C14.6449 0.200909 14.5088 0.126538 14.3591 0.0759434C14.2093 0.025344 14.0489 -0.000463385 13.8869 6.29748e-06Z" fill="url(#paint3_radial_84_1340)"/>
<defs>
<radialGradient id="paint0_radial_84_1340" cx="0" cy="0" r="1" gradientUnits="userSpaceOnUse" gradientTransform="translate(16.875 23.6692) rotate(-46.5955) scale(28.4071 276.462)">
<stop stop-color="#9C74F1"/>
<stop offset="1" stop-color="#3500A8"/>
</radialGradient>
<linearGradient id="paint1_linear_84_1340" x1="33.3856" y1="1.78438e-07" x2="16.2607" y2="5.17351" gradientUnits="userSpaceOnUse">
<stop stop-color="#19FB9B"/>
<stop offset="1" stop-color="#8C01FA"/>
</linearGradient>
<linearGradient id="paint2_linear_84_1340" x1="16.5039" y1="15.5684" x2="-1.42974" y2="19.2275" gradientUnits="userSpaceOnUse">
<stop stop-color="#19FB9B"/>
<stop offset="1" stop-color="#8C01FA"/>
</linearGradient>
<radialGradient id="paint3_radial_84_1340" cx="0" cy="0" r="1" gradientUnits="userSpaceOnUse" gradientTransform="translate(4.8953e-07 12.0486) rotate(-40.3125) scale(25.5883 246.085)">
<stop stop-color="#9C74F1"/>
<stop offset="1" stop-color="#3500A8"/>
</radialGradient>
</defs>
</svg>
