<svg width="28" height="28" viewBox="0 0 28 28" fill="none" xmlns="http://www.w3.org/2000/svg">
<path fill-rule="evenodd" clip-rule="evenodd" d="M14 28C7.40033 28 4.1005 28 2.05026 25.9497C-1.66893e-07 23.8995 0 20.5996 0 14C0 7.40033 -1.66893e-07 4.1005 2.05026 2.05026C4.1005 -1.66893e-07 7.40033 0 14 0C20.5996 0 23.8995 -1.66893e-07 25.9497 2.05026C28 4.1005 28 7.40033 28 14C28 20.5996 28 23.8995 25.9497 25.9497C23.8995 28 20.5996 28 14 28ZM14 22.05C14.5799 22.05 15.05 21.5799 15.05 21V12.6C15.05 12.0201 14.5799 11.55 14 11.55C13.4201 11.55 12.95 12.0201 12.95 12.6V21C12.95 21.5799 13.4201 22.05 14 22.05ZM14 7C14.7732 7 15.4 7.62681 15.4 8.4C15.4 9.17319 14.7732 9.8 14 9.8C13.2268 9.8 12.6 9.17319 12.6 8.4C12.6 7.62681 13.2268 7 14 7Z" fill="url(#paint0_linear_120_27474)"/>
<defs>
<linearGradient id="paint0_linear_120_27474" x1="30.5646" y1="6.9327e-07" x2="-3.32821" y2="4.87873" gradientUnits="userSpaceOnUse">
<stop stop-color="#19FB9B"/>
<stop offset="1" stop-color="#8C01FA"/>
</linearGradient>
</defs>
</svg>
