<svg width="38" height="38" viewBox="0 0 38 38" fill="none" xmlns="http://www.w3.org/2000/svg">
<g id="SVGRepo_iconCarrier">
<path id="Vector" d="M13.3476 0C8.37912 0 4.33984 4.03927 4.33984 9.00777C4.33984 13.8815 8.15155 17.8259 13.1201 17.9966C13.2718 17.9776 13.4235 17.9776 13.5373 17.9966C13.5752 17.9966 13.5941 17.9966 13.6321 17.9966C13.651 17.9966 13.651 17.9966 13.67 17.9966C18.5247 17.8259 22.3364 13.8815 22.3554 9.00777C22.3554 4.03927 18.3161 0 13.3476 0Z" fill="url(#paint0_linear_114_82)"/>
<path id="Vector_2" d="M22.984 23.038C17.6931 19.5108 9.06466 19.5108 3.73586 23.038C1.32746 24.6499 0 26.8308 0 29.1633C0 31.4958 1.32746 33.6577 3.71689 35.2507C6.37181 37.0333 9.86114 37.9245 13.3505 37.9245C16.8397 37.9245 20.329 37.0333 22.984 35.2507C25.3734 33.6387 26.7009 31.4769 26.7009 29.1254C26.6819 26.7928 25.3734 24.631 22.984 23.038Z" fill="url(#paint1_linear_114_82)"/>
<path id="Vector_3" d="M34.1897 10.1231C34.4932 13.8021 31.8762 17.0259 28.2541 17.462C28.2351 17.462 28.2351 17.462 28.2162 17.462H28.1593C28.0455 17.462 27.9317 17.462 27.8369 17.4999C25.9974 17.5948 24.3096 17.0069 23.0391 15.926C24.9923 14.1814 26.1112 11.5644 25.8836 8.71983C25.7509 7.18377 25.2199 5.78045 24.4234 4.58574C25.144 4.22543 25.9784 3.99786 26.8318 3.92201C30.5487 3.59962 33.8674 6.36833 34.1897 10.1231Z" fill="url(#paint2_radial_114_82)"/>
<path id="Vector_4" d="M37.9796 27.6671C37.8279 29.5066 36.6521 31.0995 34.6799 32.1804C32.7835 33.2234 30.3941 33.7165 28.0236 33.6596C29.389 32.427 30.1855 30.8909 30.3372 29.26C30.5268 26.9085 29.408 24.6518 27.1703 22.8503C25.8997 21.8452 24.4205 21.0487 22.8086 20.4609C26.9996 19.2472 32.2715 20.0626 35.5143 22.6796C37.259 24.0829 38.1503 25.8466 37.9796 27.6671Z" fill="url(#paint3_radial_114_82)"/>
</g>
<defs>
<linearGradient id="paint0_linear_114_82" x1="24.0055" y1="4.45589e-07" x2="2.19936" y2="3.14221" gradientUnits="userSpaceOnUse">
<stop stop-color="#19FB9B"/>
<stop offset="1" stop-color="#8C01FA"/>
</linearGradient>
<linearGradient id="paint1_linear_114_82" x1="29.1464" y1="20.3926" x2="-2.33068" y2="27.2932" gradientUnits="userSpaceOnUse">
<stop stop-color="#19FB9B"/>
<stop offset="1" stop-color="#8C01FA"/>
</linearGradient>
<radialGradient id="paint2_radial_114_82" cx="0" cy="0" r="1" gradientUnits="userSpaceOnUse" gradientTransform="translate(23.0391 15.5246) rotate(-47.9295) scale(21.5228 208.693)">
<stop stop-color="#9C74F1"/>
<stop offset="1" stop-color="#3500A8"/>
</radialGradient>
<radialGradient id="paint3_radial_114_82" cx="0" cy="0" r="1" gradientUnits="userSpaceOnUse" gradientTransform="translate(22.8086 31.6583) rotate(-39.4655) scale(25.3954 242.931)">
<stop stop-color="#9C74F1"/>
<stop offset="1" stop-color="#3500A8"/>
</radialGradient>
</defs>
</svg>
