<svg width="27" height="27" viewBox="0 0 27 27" fill="none" xmlns="http://www.w3.org/2000/svg">
<path id="Vector" d="M20.1825 13.4325C21.3261 12.2899 22.1573 10.8729 22.5965 9.31711C23.0357 7.76131 23.0681 6.11882 22.6908 4.54688L26.059 3.10238C26.1618 3.05835 26.2738 3.04051 26.3851 3.05046C26.4964 3.06042 26.6035 3.09785 26.6968 3.15941C26.7901 3.22097 26.8666 3.30472 26.9195 3.40316C26.9725 3.50159 27.0001 3.61162 27 3.72338V22.95L17.55 27L9.45 22.95L0.94095 26.5964C0.838234 26.6404 0.726191 26.6582 0.614879 26.6483C0.503566 26.6383 0.396467 26.6009 0.303193 26.5393C0.209918 26.4778 0.133388 26.394 0.0804694 26.2956C0.0275511 26.1971 -9.9166e-05 26.0871 2.67233e-07 25.9753V6.75007L4.22415 4.93972C3.92694 6.45925 4.00803 8.02856 4.46027 9.50936C4.91252 10.9902 5.72204 12.337 6.8175 13.4312L13.5 20.115L20.1825 13.4325ZM18.2736 11.5237L13.5 16.2945L8.7264 11.5223C7.78257 10.5782 7.13988 9.3755 6.87957 8.06618C6.61926 6.75686 6.75304 5.39976 7.26398 4.16646C7.77493 2.93317 8.64009 1.87907 9.75009 1.13745C10.8601 0.395834 12.1651 0 13.5 0C14.8349 0 16.1399 0.395834 17.2499 1.13745C18.3599 1.87907 19.2251 2.93317 19.736 4.16646C20.247 5.39976 20.3807 6.75686 20.1204 8.06618C19.8601 9.3755 19.2174 10.5782 18.2736 11.5223V11.5237Z" fill="url(#paint0_linear_124_28026)"/>
<defs>
<linearGradient id="paint0_linear_124_28026" x1="29.473" y1="6.68511e-07" x2="-3.20935" y2="4.70449" gradientUnits="userSpaceOnUse">
<stop stop-color="#19FB9B"/>
<stop offset="1" stop-color="#8C01FA"/>
</linearGradient>
</defs>
</svg>
