<svg width="32" height="34" viewBox="0 0 32 34" fill="none" xmlns="http://www.w3.org/2000/svg">
<path id="Vector" fill-rule="evenodd" clip-rule="evenodd" d="M17.1415 0C18.653 0 19.9516 1.05308 20.2359 2.50947L20.3623 3.15709C20.8594 5.70263 23.5431 7.22277 26.0387 6.3723L26.6739 6.15583C28.1017 5.66926 29.6806 6.24598 30.4362 7.53014L31.5778 9.46977C32.3335 10.754 32.0531 12.3838 30.9097 13.3535L30.4012 13.7848C28.4025 15.4799 28.4025 18.5202 30.4012 20.2151L30.9097 20.6464C32.0531 21.6162 32.3335 23.246 31.5778 24.5302L30.4364 26.4698C29.6806 27.754 28.1017 28.3307 26.6738 27.8441L26.0388 27.6276C23.5431 26.777 20.8594 28.2971 20.3623 30.8429L20.2359 31.4905C19.9516 32.9469 18.653 34 17.1415 34H14.8585C13.3471 34 12.0485 32.9469 11.7641 31.4906L11.6376 30.8426C11.1405 28.2971 8.45666 26.777 5.96105 27.6276L5.32624 27.8439C3.89842 28.3307 2.31949 27.7539 1.56371 26.4697L0.422254 24.5302C-0.3335 23.246 -0.0531698 21.6162 1.09027 20.6464L1.59887 20.2151C3.59744 18.52 3.59744 15.4799 1.59887 13.7849L1.09027 13.3535C-0.0531698 12.3838 -0.333499 10.754 0.422254 9.46983L1.56375 7.53018C2.31951 6.246 3.89839 5.66928 5.3262 6.15588L5.96118 6.37228C8.45675 7.22277 11.1405 5.70273 11.6376 3.15726L11.7641 2.50936C12.0485 1.05303 13.3469 0 14.8585 0H17.1415ZM16 21.8572C18.6509 21.8572 20.8 19.6825 20.8 17C20.8 14.3174 18.6509 12.1428 16 12.1428C13.349 12.1428 11.2 14.3174 11.2 17C11.2 19.6825 13.349 21.8572 16 21.8572Z" fill="url(#paint0_linear_119_26708)"/>
<defs>
<linearGradient id="paint0_linear_119_26708" x1="34.9309" y1="8.41828e-07" x2="-3.89367" y2="5.2599" gradientUnits="userSpaceOnUse">
<stop stop-color="#19FB9B"/>
<stop offset="1" stop-color="#8C01FA"/>
</linearGradient>
</defs>
</svg>
