<svg width="31" height="27" viewBox="0 0 31 27" fill="none" xmlns="http://www.w3.org/2000/svg">
<g id="SVGRepo_iconCarrier">
<path id="Vector" d="M30.9989 11.577V14.77C30.9989 15.6225 30.3169 16.32 29.4489 16.351H26.4109C24.737 16.351 23.2025 15.1265 23.063 13.4525C22.97 12.476 23.342 11.5615 23.993 10.9261C24.5665 10.3371 25.3569 9.99609 26.2249 9.99609H29.4489C30.3169 10.0271 30.9989 10.7246 30.9989 11.577Z" fill="url(#paint0_linear_164_1774)"/>
<path id="Vector_2" d="M28.6282 18.6773H26.4117C23.4667 18.6773 20.9868 16.4608 20.7388 13.6398C20.5993 12.0279 21.1883 10.4159 22.3663 9.2689C23.3582 8.24591 24.7377 7.67242 26.2257 7.67242H28.6282C29.0777 7.67242 29.4497 7.30042 29.4032 6.85092C29.0622 3.08447 26.5667 0.511494 22.8622 0.0774991C22.4903 0.0154998 22.1028 0 21.6998 0H7.74992C7.31592 0 6.89742 0.0309996 6.49443 0.0929989C2.54197 0.588993 0 3.53396 0 7.74991V18.5998C0 22.8777 3.47196 26.3497 7.74992 26.3497H21.6998C26.0397 26.3497 29.0312 23.6372 29.4032 19.4988C29.4497 19.0493 29.0777 18.6773 28.6282 18.6773ZM17.0498 9.68739H7.74992C7.11442 9.68739 6.58743 9.1604 6.58743 8.52491C6.58743 7.88941 7.11442 7.36242 7.74992 7.36242H17.0498C17.6853 7.36242 18.2123 7.88941 18.2123 8.52491C18.2123 9.1604 17.6853 9.68739 17.0498 9.68739Z" fill="url(#paint1_linear_164_1774)"/>
</g>
<defs>
<linearGradient id="paint0_linear_164_1774" x1="31.727" y1="9.99609" x2="22.213" y2="11.7094" gradientUnits="userSpaceOnUse">
<stop stop-color="#19FB9B"/>
<stop offset="1" stop-color="#8C01FA"/>
</linearGradient>
<linearGradient id="paint1_linear_164_1774" x1="32.1006" y1="6.5241e-07" x2="-3.31893" y2="5.69008" gradientUnits="userSpaceOnUse">
<stop stop-color="#19FB9B"/>
<stop offset="1" stop-color="#8C01FA"/>
</linearGradient>
</defs>
</svg>
