<svg width="64" height="64" viewBox="0 0 64 64" fill="none" xmlns="http://www.w3.org/2000/svg">
<g id="currency__icon_7.svg" clip-path="url(#clip0_101_1351)">
<path id="Vector" opacity="0.16" d="M64.0049 32C64.0049 14.3269 49.678 0 32.0049 0C14.3318 0 0.00488281 14.3269 0.00488281 32C0.00488281 49.6731 14.3318 64 32.0049 64C49.678 64 64.0049 49.6731 64.0049 32Z" fill="#0047FF" fill-opacity="0.87"/>
<path id="Vector_2" d="M32.1134 53.6667C43.774 53.6667 53.2268 44.1154 53.2268 32.3333C53.2268 20.5513 43.774 11 32.1134 11C20.4528 11 11 20.5513 11 32.3333C11 44.1154 20.4528 53.6667 32.1134 53.6667Z" fill="#0047FF"/>
<g id="Vector_3">
<path d="M25.8502 32.4135C25.8245 32.8579 25.9771 33.2942 26.2745 33.6266C26.5718 33.959 26.9895 34.1603 27.4358 34.1863H27.5277C27.8564 34.186 28.1778 34.0898 28.4523 33.9097C28.7267 33.7295 28.9421 33.4733 29.072 33.1727C29.2019 32.8721 29.2405 32.5402 29.1831 32.2179C29.1257 31.8957 28.9748 31.5972 28.7491 31.3594C28.5233 31.1216 28.2325 30.9548 27.9126 30.8796C27.5927 30.8044 27.2577 30.8241 26.9489 30.9363C26.6401 31.0485 26.3711 31.2482 26.175 31.5109C25.979 31.7736 25.8644 32.0877 25.8456 32.4144L25.8502 32.4135Z" fill="white"/>
<path d="M19.5739 31.9886C19.4666 31.9826 19.36 32.0084 19.2674 32.0628C19.1748 32.1171 19.1005 32.1976 19.0539 32.294C19.0072 32.3904 18.9903 32.4984 19.0053 32.6044C19.0203 32.7103 19.0665 32.8095 19.1381 32.8893C19.2096 32.9691 19.3033 33.026 19.4074 33.0529C19.5114 33.0797 19.6211 33.0752 19.7226 33.0399C19.8241 33.0047 19.9128 32.9403 19.9775 32.8548C20.0422 32.7694 20.0801 32.6668 20.0862 32.56C20.0904 32.4889 20.0805 32.4177 20.057 32.3505C20.0336 32.2833 19.997 32.2214 19.9494 32.1683C19.9017 32.1152 19.8441 32.072 19.7797 32.0411C19.7152 32.0103 19.6453 31.9924 19.5739 31.9886Z" fill="white"/>
<path d="M25.7435 22.6875C25.839 22.6386 25.918 22.5627 25.9703 22.4693C26.0226 22.3759 26.046 22.2691 26.0375 22.1625C26.0291 22.0559 25.9891 21.9541 25.9227 21.87C25.8562 21.786 25.7663 21.7234 25.6642 21.6901C25.5621 21.6568 25.4524 21.6543 25.3489 21.6829C25.2454 21.7116 25.1527 21.7701 25.0825 21.8511C25.0123 21.9321 24.9678 22.0319 24.9545 22.1381C24.9411 22.2442 24.9597 22.3519 25.0077 22.4476C25.04 22.5116 25.0847 22.5687 25.1392 22.6154C25.1937 22.6622 25.257 22.6978 25.3254 22.7201C25.3938 22.7424 25.466 22.751 25.5377 22.7454C25.6095 22.7398 25.6794 22.7201 25.7435 22.6875Z" fill="white"/>
<path d="M27.4514 25.6526C27.5998 25.5781 27.7227 25.4614 27.8045 25.3173C27.8864 25.1733 27.9235 25.0083 27.9111 24.8432C27.8988 24.6781 27.8376 24.5204 27.7352 24.39C27.6329 24.2596 27.494 24.1623 27.3361 24.1105C27.1782 24.0586 27.0085 24.0546 26.8483 24.0988C26.6881 24.143 26.5446 24.2335 26.4361 24.3588C26.3276 24.4842 26.2588 24.6388 26.2385 24.8031C26.2182 24.9673 26.2472 25.1339 26.322 25.2818C26.3716 25.38 26.4403 25.4675 26.5239 25.5393C26.6076 25.6111 26.7046 25.6658 26.8095 25.7002C26.9144 25.7346 27.0251 25.7482 27.1352 25.74C27.2454 25.7318 27.3528 25.7022 27.4514 25.6526Z" fill="white"/>
<path d="M21.704 27.692C21.8185 27.7669 21.9527 27.8064 22.0898 27.8053C22.2268 27.8043 22.3604 27.7629 22.4737 27.6862C22.5871 27.6095 22.675 27.5011 22.7265 27.3747C22.7779 27.2482 22.7905 27.1094 22.7627 26.9759C22.7349 26.8423 22.6679 26.7199 22.5702 26.6242C22.4725 26.5286 22.3486 26.4639 22.2139 26.4384C22.0793 26.4129 21.9402 26.4278 21.814 26.4811C21.6879 26.5343 21.5805 26.6237 21.5054 26.7378C21.4048 26.8906 21.3692 27.0769 21.4064 27.2558C21.4437 27.4347 21.5507 27.5916 21.704 27.692Z" fill="white"/>
<path d="M22.7277 31.6836C22.5617 31.6743 22.3967 31.7142 22.2535 31.7982C22.1103 31.8822 21.9953 32.0066 21.9231 32.1557C21.8509 32.3048 21.8247 32.4718 21.8479 32.6357C21.871 32.7996 21.9424 32.953 22.0531 33.0765C22.1637 33.2 22.3087 33.288 22.4696 33.3295C22.6305 33.371 22.8002 33.3641 22.9571 33.3096C23.1141 33.2551 23.2513 33.1555 23.3514 33.0234C23.4515 32.8912 23.51 32.7325 23.5196 32.5673C23.5321 32.3456 23.4558 32.128 23.3073 31.9623C23.1588 31.7966 22.9503 31.6964 22.7277 31.6836Z" fill="white"/>
<path d="M21.796 37.3108C21.6738 37.3723 21.5726 37.4685 21.5053 37.5872C21.438 37.706 21.4075 37.8419 21.4178 37.9779C21.428 38.1139 21.4786 38.2437 21.563 38.3511C21.6474 38.4585 21.7618 38.5386 21.8919 38.5812C22.022 38.6238 22.1619 38.6271 22.2938 38.5906C22.4258 38.5541 22.5439 38.4794 22.6332 38.3761C22.7226 38.2728 22.7792 38.1454 22.7958 38.01C22.8124 37.8747 22.7884 37.7375 22.7268 37.6157C22.6858 37.5348 22.6292 37.4628 22.5602 37.4036C22.4913 37.3445 22.4113 37.2995 22.3249 37.2712C22.2384 37.2429 22.1472 37.2318 22.0565 37.2386C21.9657 37.2454 21.8772 37.2699 21.796 37.3108Z" fill="white"/>
<path d="M25.0638 29.9538C25.2275 30.0606 25.4193 30.1167 25.615 30.115C25.8107 30.1132 26.0015 30.0538 26.1633 29.9441C26.3251 29.8344 26.4505 29.6794 26.5238 29.4987C26.5971 29.318 26.615 29.1198 26.5751 28.929C26.5353 28.7382 26.4395 28.5635 26.2999 28.4269C26.1603 28.2903 25.9831 28.198 25.7908 28.1617C25.5986 28.1253 25.3998 28.1465 25.2196 28.2227C25.0394 28.2988 24.886 28.4264 24.7787 28.5894C24.7073 28.6976 24.658 28.8187 24.6337 28.9459C24.6094 29.073 24.6105 29.2037 24.637 29.3305C24.6635 29.4572 24.7148 29.5775 24.788 29.6845C24.8613 29.7914 24.955 29.883 25.0638 29.9538Z" fill="white"/>
<path d="M35.431 25.5867C35.5703 25.6772 35.7335 25.7246 35.8999 25.7227C36.0663 25.7209 36.2285 25.67 36.3658 25.5765C36.5032 25.483 36.6096 25.351 36.6716 25.1972C36.7337 25.0435 36.7485 24.8749 36.7143 24.7127C36.6801 24.5506 36.5984 24.4022 36.4795 24.2863C36.3606 24.1703 36.2099 24.0921 36.0464 24.0615C35.8828 24.0308 35.7138 24.0491 35.5607 24.1141C35.4077 24.1791 35.2774 24.2878 35.1863 24.4265C35.1257 24.5186 35.0839 24.6217 35.0634 24.7299C35.0429 24.8382 35.044 24.9494 35.0668 25.0571C35.0895 25.1649 35.1334 25.2672 35.1959 25.3581C35.2584 25.4489 35.3383 25.5266 35.431 25.5867Z" fill="white"/>
<path d="M37.1564 22.6307C37.2465 22.6895 37.352 22.7204 37.4598 22.7194C37.5675 22.7185 37.6725 22.6857 37.7615 22.6253C37.8505 22.5649 37.9195 22.4796 37.9598 22.3801C38.0001 22.2806 38.0099 22.1715 37.9879 22.0665C37.9658 21.9615 37.913 21.8654 37.8361 21.7903C37.7592 21.7152 37.6617 21.6645 37.5558 21.6446C37.45 21.6247 37.3406 21.6365 37.2415 21.6786C37.1424 21.7206 37.058 21.791 36.9991 21.8807C36.9202 22.001 36.8924 22.1475 36.9219 22.2881C36.9514 22.4287 37.0357 22.552 37.1564 22.6307Z" fill="white"/>
<path d="M35.5634 30.8183C35.3427 30.8056 35.1216 30.8364 34.9128 30.9089C34.7041 30.9813 34.5117 31.094 34.3466 31.2404C34.0133 31.5362 33.8116 31.9518 33.786 32.3956C33.7604 32.8394 33.9129 33.2752 34.21 33.6071C34.5071 33.939 34.9245 34.1398 35.3703 34.1653C35.4025 34.1653 35.4356 34.1653 35.4678 34.1653C35.7925 34.1651 36.1102 34.0714 36.3827 33.8955C36.6552 33.7196 36.8707 33.4689 37.0033 33.1738C37.1359 32.8787 37.1799 32.5516 37.1301 32.2321C37.0802 31.9126 36.9386 31.6143 36.7223 31.3732C36.5758 31.2087 36.3979 31.075 36.1989 30.9797C35.9999 30.8844 35.7839 30.8295 35.5634 30.8183Z" fill="white"/>
<path d="M28.0042 29.8375C28.1439 30.1154 28.3588 30.349 28.6246 30.5119C28.8904 30.6749 29.1967 30.7606 29.5088 30.7597C29.7966 30.7597 30.0796 30.6863 30.3309 30.5465C30.5821 30.4067 30.7931 30.2052 30.9438 29.961C31.0945 29.7169 31.1799 29.4384 31.1918 29.1521C31.2037 28.8658 31.1417 28.5813 31.0117 28.3256C30.871 28.049 30.6557 27.8168 30.3899 27.655C30.1242 27.4933 29.8185 27.4084 29.507 27.4099C29.2201 27.4104 28.9381 27.4839 28.6877 27.6233C28.4373 27.7628 28.2268 27.9637 28.0763 28.2068C27.9257 28.45 27.8401 28.7275 27.8275 29.0128C27.8149 29.2982 27.8757 29.5821 28.0042 29.8375Z" fill="white"/>
<path d="M41.2023 27.6901C41.3245 27.6287 41.4257 27.5326 41.4931 27.4139C41.5605 27.2952 41.5911 27.1593 41.5809 27.0233C41.5707 26.8874 41.5203 26.7575 41.436 26.65C41.3517 26.5426 41.2373 26.4625 41.1073 26.4197C40.9773 26.377 40.8374 26.3736 40.7055 26.41C40.5735 26.4464 40.4553 26.5209 40.3659 26.6241C40.2764 26.7273 40.2197 26.8546 40.2029 26.9899C40.1861 27.1252 40.21 27.2625 40.2715 27.3843C40.3543 27.5476 40.4988 27.6716 40.6733 27.729C40.8478 27.7863 41.0381 27.7723 41.2023 27.6901Z" fill="white"/>
<path d="M36.9338 28.224C36.759 28.3117 36.6142 28.449 36.5178 28.6185C36.4213 28.7881 36.3776 28.9824 36.392 29.1767C36.4065 29.3711 36.4785 29.5568 36.5989 29.7104C36.7194 29.864 36.8829 29.9786 37.0687 30.0397C37.2546 30.1008 37.4545 30.1056 37.6431 30.0536C37.8317 30.0016 38.0006 29.895 38.1285 29.7474C38.2563 29.5998 38.3372 29.4178 38.3612 29.2244C38.3851 29.031 38.3509 28.8349 38.2628 28.6608C38.2044 28.5451 38.1237 28.4421 38.0253 28.3575C37.9269 28.273 37.8127 28.2086 37.6893 28.168C37.5658 28.1274 37.4356 28.1115 37.3059 28.1211C37.1763 28.1307 37.0498 28.1657 36.9338 28.224Z" fill="white"/>
<path d="M31.4357 22.378C31.5724 22.3857 31.7085 22.3529 31.8265 22.2837C31.9446 22.2145 32.0393 22.112 32.0988 21.9891C32.1584 21.8662 32.1799 21.7286 32.1608 21.5935C32.1418 21.4584 32.0829 21.332 31.9916 21.2303C31.9004 21.1285 31.7809 21.056 31.6482 21.0219C31.5156 20.9878 31.3758 20.9936 31.2464 21.0387C31.1171 21.0837 31.0041 21.1659 30.9217 21.2749C30.8393 21.3838 30.7913 21.5147 30.7836 21.6509C30.7733 21.8334 30.8362 22.0125 30.9585 22.1488C31.0807 22.2852 31.2524 22.3676 31.4357 22.378Z" fill="white"/>
<path d="M31.4283 26.7176C31.6237 26.7285 31.8179 26.6815 31.9864 26.5826C32.155 26.4836 32.2903 26.3371 32.3752 26.1616C32.4602 25.9861 32.4909 25.7894 32.4637 25.5965C32.4364 25.4036 32.3523 25.223 32.222 25.0777C32.0917 24.9324 31.921 24.8287 31.7316 24.7799C31.5422 24.7311 31.3425 24.7393 31.1577 24.8035C30.973 24.8677 30.8115 24.9849 30.6936 25.1405C30.5758 25.296 30.5069 25.4828 30.4957 25.6774C30.4809 25.9384 30.5708 26.1947 30.7457 26.3897C30.9206 26.5848 31.1661 26.7027 31.4283 26.7176Z" fill="white"/>
<path d="M26.0663 36.776C26.2411 36.6883 26.3858 36.5509 26.4822 36.3812C26.5785 36.2116 26.6222 36.0173 26.6077 35.8229C26.5931 35.6286 26.521 35.4429 26.4005 35.2893C26.2799 35.1358 26.1163 35.0213 25.9304 34.9603C25.7445 34.8993 25.5446 34.8946 25.356 34.9468C25.1674 34.9989 24.9985 35.1056 24.8708 35.2533C24.7431 35.401 24.6622 35.5831 24.6385 35.7765C24.6147 35.97 24.6491 36.1661 24.7373 36.3401C24.8555 36.5733 25.0619 36.7503 25.3111 36.832C25.5604 36.9138 25.832 36.8936 26.0663 36.776Z" fill="white"/>
<path d="M32.0675 28.1553C31.8623 28.4672 31.7673 28.8383 31.7978 29.2099C31.8282 29.5815 31.9822 29.9325 32.2355 30.2071C32.4887 30.4818 32.8268 30.6645 33.1961 30.7264C33.5654 30.7882 33.9448 30.7257 34.2744 30.5487C34.604 30.3716 34.8649 30.0902 35.0158 29.749C35.1666 29.4077 35.1989 29.0261 35.1074 28.6645C35.016 28.303 34.806 27.9821 34.5108 27.7527C34.2156 27.5233 33.8519 27.3985 33.4775 27.398C33.1978 27.3978 32.9225 27.4669 32.6763 27.5991C32.4302 27.7314 32.2209 27.9225 32.0675 28.1553Z" fill="white"/>
<path d="M34.9941 35.1634C34.8592 34.8972 34.6555 34.6716 34.4039 34.5099C34.1522 34.3482 33.8618 34.2563 33.5626 34.2437C33.2634 34.231 32.9662 34.2981 32.7017 34.438C32.4372 34.5779 32.215 34.7855 32.058 35.0394C31.901 35.2933 31.8149 35.5843 31.8085 35.8824C31.8022 36.1805 31.8758 36.4749 32.0219 36.7353C32.168 36.9956 32.3811 37.2124 32.6394 37.3633C32.8977 37.5142 33.1918 37.5937 33.4913 37.5937C33.7547 37.5919 34.0141 37.5292 34.2491 37.4106C34.6466 37.2103 34.9481 36.8614 35.0877 36.4402C35.2273 36.019 35.1937 35.5599 34.9941 35.1634Z" fill="white"/>
<path d="M37.9354 35.0462C37.7718 34.9392 37.58 34.883 37.3842 34.8846C37.1885 34.8862 36.9977 34.9455 36.8358 35.0551C36.674 35.1647 36.5484 35.3196 36.4749 35.5002C36.4015 35.6809 36.3835 35.8791 36.4233 36.07C36.463 36.2608 36.5587 36.4356 36.6982 36.5723C36.8378 36.7089 37.0149 36.8013 37.2071 36.8378C37.3994 36.8743 37.5982 36.8531 37.7784 36.7771C37.9586 36.7011 38.1122 36.5735 38.2196 36.4106C38.3631 36.192 38.4138 35.9257 38.3606 35.67C38.3073 35.4142 38.1544 35.1899 37.9354 35.0462Z" fill="white"/>
<path d="M41.1581 32.5288C41.1675 32.3636 41.1274 32.1993 41.043 32.0567C40.9586 31.9141 40.8337 31.7997 40.684 31.7278C40.5342 31.6559 40.3665 31.6298 40.2019 31.6529C40.0373 31.6759 39.8832 31.747 39.7592 31.8572C39.6351 31.9673 39.5467 32.1117 39.505 32.2719C39.4634 32.4321 39.4703 32.601 39.5251 32.7573C39.5798 32.9136 39.6798 33.0502 39.8125 33.1498C39.9452 33.2495 40.1046 33.3078 40.2706 33.3173C40.4932 33.3298 40.7118 33.2538 40.8782 33.1059C41.0446 32.9581 41.1453 32.7505 41.1581 32.5288Z" fill="white"/>
<path d="M43.4869 31.9327C43.3794 31.9265 43.2724 31.9523 43.1796 32.0066C43.0868 32.061 43.0122 32.1415 42.9653 32.238C42.9185 32.3346 42.9014 32.4428 42.9163 32.549C42.9312 32.6552 42.9774 32.7546 43.0491 32.8346C43.1207 32.9146 43.2146 32.9717 43.3189 32.9987C43.4231 33.0256 43.533 33.0211 43.6347 32.9859C43.7364 32.9506 43.8253 32.8861 43.8902 32.8005C43.955 32.7149 43.993 32.6121 43.9992 32.505C44.0072 32.3616 43.9578 32.2208 43.8618 32.1135C43.7657 32.0062 43.6309 31.9412 43.4869 31.9327Z" fill="white"/>
<path d="M41.2942 37.308C41.1797 37.2333 41.0454 37.1941 40.9085 37.1954C40.7715 37.1966 40.638 37.2382 40.5249 37.315C40.4117 37.3918 40.3239 37.5002 40.2726 37.6267C40.2213 37.7531 40.2088 37.8918 40.2367 38.0253C40.2646 38.1588 40.3317 38.2811 40.4293 38.3767C40.527 38.4722 40.6509 38.5368 40.7855 38.5623C40.92 38.5877 41.0591 38.5729 41.1852 38.5197C41.3113 38.4664 41.4187 38.3772 41.4938 38.2631C41.5437 38.1874 41.5782 38.1026 41.5952 38.0136C41.6121 37.9246 41.6113 37.8331 41.5928 37.7444C41.5743 37.6557 41.5384 37.5715 41.4871 37.4966C41.4359 37.4218 41.3704 37.3577 41.2942 37.308Z" fill="white"/>
<path d="M25.8428 42.3693C25.7528 42.3105 25.6473 42.2795 25.5396 42.2804C25.4319 42.2813 25.3269 42.314 25.2379 42.3743C25.1489 42.4346 25.0798 42.5198 25.0394 42.6192C24.999 42.7185 24.9891 42.8276 25.0109 42.9326C25.0328 43.0375 25.0854 43.1337 25.1622 43.2089C25.2389 43.2841 25.3363 43.335 25.4421 43.355C25.5479 43.3751 25.6573 43.3635 25.7564 43.3217C25.8556 43.2799 25.94 43.2098 25.9992 43.1202C26.0384 43.0607 26.0655 42.994 26.0789 42.9241C26.0923 42.8541 26.0918 42.7822 26.0772 42.7125C26.0627 42.6427 26.0345 42.5765 25.9943 42.5177C25.9541 42.4588 25.9026 42.4083 25.8428 42.3693Z" fill="white"/>
<path d="M37.2548 42.3125C37.1586 42.3608 37.079 42.4363 37.0259 42.5297C36.9729 42.623 36.9489 42.7299 36.9569 42.8368C36.9649 42.9438 37.0045 43.0459 37.0708 43.1304C37.1372 43.2149 37.2271 43.2779 37.3294 43.3115C37.4317 43.345 37.5417 43.3476 37.6455 43.319C37.7492 43.2903 37.8421 43.2316 37.9124 43.1504C37.9827 43.0691 38.0272 42.9689 38.0403 42.8625C38.0534 42.7561 38.0345 42.6482 37.986 42.5524C37.9539 42.4888 37.9095 42.4321 37.8553 42.3856C37.8012 42.3391 37.7383 42.3037 37.6704 42.2814C37.6025 42.2591 37.5308 42.2504 37.4595 42.2557C37.3882 42.261 37.3186 42.2803 37.2548 42.3125Z" fill="white"/>
<path d="M30.9307 36.8419C31.136 36.53 31.2309 36.1589 31.2005 35.7872C31.17 35.4156 31.016 35.0646 30.7626 34.79C30.5093 34.5153 30.1712 34.3326 29.8019 34.2708C29.4325 34.209 29.053 34.2717 28.7234 34.4488C28.3939 34.6259 28.133 34.9075 27.9823 35.2488C27.8315 35.5902 27.7994 35.9718 27.891 36.3334C27.9826 36.695 28.1927 37.0158 28.4881 37.245C28.7835 37.4743 29.1472 37.599 29.5217 37.5992C29.8014 37.6002 30.0769 37.5314 30.323 37.3991C30.5691 37.2668 30.7781 37.0753 30.9307 36.8419Z" fill="white"/>
<path d="M27.5673 39.4142C27.4282 39.3236 27.2652 39.2761 27.099 39.2777C26.9328 39.2793 26.7708 39.3299 26.6334 39.4232C26.4961 39.5164 26.3896 39.6481 26.3275 39.8016C26.2653 39.9551 26.2502 40.1235 26.2842 40.2855C26.3181 40.4475 26.3995 40.5959 26.5181 40.7118C26.6367 40.8278 26.7872 40.9061 26.9505 40.937C27.1138 40.9678 27.2826 40.9497 27.4357 40.885C27.5887 40.8203 27.719 40.7119 27.8101 40.5735C27.9322 40.3877 27.9752 40.1612 27.9296 39.9438C27.8841 39.7265 27.7538 39.536 27.5673 39.4142Z" fill="white"/>
<path d="M31.4918 42.622C31.355 42.6143 31.2191 42.6471 31.101 42.7163C30.983 42.7855 30.8883 42.8879 30.8287 43.0107C30.7692 43.1335 30.7476 43.2712 30.7666 43.4062C30.7856 43.5412 30.8444 43.6676 30.9356 43.7694C31.0267 43.8712 31.1461 43.9438 31.2787 43.978C31.4113 44.0122 31.5511 44.0065 31.6804 43.9616C31.8097 43.9167 31.9228 43.8346 32.0053 43.7258C32.0878 43.6169 32.136 43.4862 32.1439 43.35C32.1491 43.2596 32.1364 43.169 32.1064 43.0835C32.0765 42.9979 32.0299 42.9191 31.9693 42.8515C31.9088 42.7839 31.8354 42.7288 31.7535 42.6895C31.6715 42.6501 31.5826 42.6272 31.4918 42.622Z" fill="white"/>
<path d="M31.4991 38.2833C31.3036 38.2715 31.1089 38.3177 30.9398 38.4161C30.7707 38.5145 30.6347 38.6607 30.549 38.8361C30.4634 39.0115 30.432 39.2083 30.4588 39.4015C30.4855 39.5947 30.5693 39.7757 30.6995 39.9215C30.8296 40.0672 31.0003 40.1713 31.1899 40.2204C31.3795 40.2695 31.5794 40.2615 31.7645 40.1974C31.9495 40.1332 32.1112 40.0159 32.2292 39.8602C32.3471 39.7045 32.416 39.5174 32.4271 39.3226C32.4422 39.0624 32.353 38.8067 32.179 38.6119C32.005 38.417 31.7605 38.2989 31.4991 38.2833Z" fill="white"/>
<path d="M35.5469 39.3474C35.3983 39.4224 35.2755 39.5396 35.194 39.6842C35.1124 39.8287 35.0757 39.9941 35.0886 40.1594C35.1015 40.3247 35.1633 40.4825 35.2663 40.6128C35.3693 40.7431 35.5088 40.84 35.6672 40.8913C35.8255 40.9427 35.9956 40.946 36.1559 40.9011C36.3162 40.8561 36.4595 40.7648 36.5676 40.6387C36.6758 40.5126 36.7439 40.3574 36.7634 40.1927C36.7829 40.0281 36.7529 39.8613 36.6772 39.7137C36.6272 39.6156 36.5583 39.5284 36.4744 39.4569C36.3905 39.3854 36.2933 39.3311 36.1883 39.2971C36.0833 39.2631 35.9726 39.25 35.8626 39.2586C35.7525 39.2673 35.6452 39.2974 35.5469 39.3474Z" fill="white"/>
</g>
</g>
<defs>
<clipPath id="clip0_101_1351">
<rect width="64" height="64" fill="white"/>
</clipPath>
</defs>
</svg>
