<svg width="64" height="64" viewBox="0 0 64 64" fill="none" xmlns="http://www.w3.org/2000/svg">
<g id="Group 68">
<path id="Vector" opacity="0.16" d="M64 32C64 14.3269 49.6731 0 32 0C14.3269 0 0 14.3269 0 32C0 49.6731 14.3269 64 32 64C49.6731 64 64 49.6731 64 32Z" fill="#4BCF51"/>
<g id="Group 76">
<path id="Vector_2" d="M32 53C43.598 53 53 43.598 53 32C53 20.402 43.598 11 32 11C20.402 11 11 20.402 11 32C11 43.598 20.402 53 32 53Z" fill="#4BCF51"/>
<path id="Vector_3" d="M21.0858 25.813C21.8093 25.6225 22.5001 25.3753 23.2237 25.1848C23.9473 24.9944 24.6381 24.7471 25.3617 24.5567C25.565 24.5151 25.5891 24.4254 25.5475 24.2221C25.217 23.1247 24.9193 22.0841 24.5888 20.9867C24.5472 20.7834 24.5712 20.6938 24.7745 20.6522C25.4413 20.4945 26.0184 20.3129 26.6524 20.0984C26.8557 20.0568 26.8885 20.1137 26.8973 20.2601C27.195 21.3007 27.5255 22.3981 27.8231 23.4387C27.8559 23.4955 27.8887 23.5524 27.8975 23.6989C28.4178 23.55 28.9949 23.3684 29.5152 23.2195C29.5721 23.1867 29.5633 23.0402 29.5873 22.9506C29.3312 22.1133 29.108 21.3329 28.9088 20.4628L28.6855 19.6824C28.6199 19.5687 28.6439 19.4791 28.7904 19.4703C29.4571 19.3127 30.0911 19.0982 30.8147 18.9078C30.8715 18.875 30.9043 18.9318 30.9612 18.899C31.2172 19.7362 31.4405 20.5167 31.6637 21.2971C31.771 21.6141 31.8782 21.9311 31.9286 22.2808C31.9702 22.4842 32.0598 22.5082 32.2632 22.4666L34.6308 22.2363C35.396 22.2491 36.17 22.4085 36.896 22.7471C37.8997 23.3043 38.4815 24.1808 38.7792 25.2214C38.9696 25.945 39.0704 26.6446 38.8782 27.3617C38.7341 27.8996 38.4107 28.3894 38.0545 28.8224C37.9976 28.8552 37.9736 28.9449 37.86 29.0105C38.1857 29.0498 38.4787 29.0322 38.8045 29.0714C39.7818 29.1892 40.5974 29.5518 41.2841 30.2163C41.7587 30.7758 42.0956 31.4906 42.286 32.2142C42.5181 33.1411 42.6277 33.9872 42.4771 34.9076C42.2785 36.0074 41.7125 36.8646 40.8688 37.5033C39.7738 38.3628 38.5715 38.9054 37.3364 39.3912C37.1331 39.4328 37.0522 39.5552 37.0938 39.7585C37.3915 40.7991 37.722 41.8965 38.0196 42.9371C38.0941 43.1973 38.1269 43.2541 37.7771 43.3045C37.2 43.4861 36.5332 43.6438 35.9561 43.8254C35.7528 43.867 35.72 43.8102 35.7112 43.6637C35.3807 42.5663 35.0502 41.4689 34.8094 40.3955C34.7437 40.2818 34.7678 40.1922 34.6213 40.201C34.101 40.3498 33.5807 40.4986 33.0036 40.6803C33.1852 41.2574 33.31 41.8673 33.4917 42.4445C33.6733 43.0216 33.7982 43.6315 33.9798 44.2086C33.9886 44.3551 34.0214 44.4119 33.8181 44.4536C33.1513 44.6112 32.5174 44.8256 31.8834 45.0401C31.6801 45.0817 31.6473 45.0249 31.6385 44.8784C31.308 43.781 30.9775 42.6836 30.7367 41.6102C30.7039 41.5534 30.7279 41.4637 30.6623 41.35C29.1583 41.7637 27.6542 42.1774 26.0934 42.6239C26.0758 42.331 26.0342 42.1277 26.0166 41.8347C25.9486 41.192 25.8806 40.5492 25.7886 39.9961C25.747 39.7928 25.8039 39.76 25.9743 39.6615C26.4378 39.5455 26.9581 39.3967 27.3887 39.2238C27.909 39.075 28.1188 38.6508 27.9459 38.2201C27.0113 34.8951 26.0767 31.5701 25.0524 28.221C24.9036 27.7007 24.3241 27.3533 23.7142 27.4781C23.1043 27.6029 22.5271 27.7846 22.0069 27.9334C21.8932 27.999 21.8035 27.975 21.7948 27.8285C21.6043 27.1049 21.3811 26.3245 21.1906 25.6009C21.0617 25.9026 21.0617 25.9026 21.0858 25.813ZM32.0889 38.1773C32.1457 38.1445 32.2354 38.1685 32.2354 38.1685C33.276 37.8708 34.4062 37.5972 35.4052 37.0962C36.12 36.7593 36.7451 36.3983 37.239 35.8101C38.122 34.8456 37.7563 33.1623 36.6062 32.6139C36.0595 32.3233 35.4408 32.3017 34.8221 32.28C33.471 32.3023 32.1462 32.764 30.8783 33.1929C30.675 33.2345 30.7078 33.2914 30.7494 33.4947C30.9639 34.1286 31.0887 34.7386 31.3031 35.3725C31.5352 36.2994 31.8241 37.1935 32.0889 38.1773ZM33.516 29.6241C33.6297 29.5584 33.881 29.3376 34.0755 29.1495C35.0241 28.2987 34.8706 26.7203 33.7444 26.0822C33.165 25.7348 32.4566 25.6891 31.8138 25.7571C30.8213 25.8755 29.9272 26.1643 28.9435 26.4292C28.7401 26.4708 28.7161 26.5604 28.7577 26.7637C29.1626 28.1213 29.5347 29.422 29.8828 30.8124C29.8916 30.9589 29.9812 30.9829 30.1277 30.9741C30.3878 30.8997 30.5912 30.8581 30.8513 30.7837C31.7694 30.4051 32.6067 30.1491 33.516 29.6241Z" fill="white"/>
</g>
</g>
</svg>
