<svg width="64" height="64" viewBox="0 0 64 64" fill="none" xmlns="http://www.w3.org/2000/svg">
<g id="currency__icon_7.svg" clip-path="url(#clip0_101_1290)">
<path id="Vector" opacity="0.16" d="M64 32C64 14.3269 49.6731 0 32 0C14.3269 0 0 14.3269 0 32C0 49.6731 14.3269 64 32 64C49.6731 64 64 49.6731 64 32Z" fill="white"/>
<path id="Vector_2" d="M32.335 53.6667C44.118 53.6667 53.67 44.1154 53.67 32.3333C53.67 20.5513 44.118 11 32.335 11C20.552 11 11 20.5513 11 32.3333C11 44.1154 20.552 53.6667 32.335 53.6667Z" fill="black"/>
<path id="Vector_3" d="M26.962 29.9297L32.0009 24.8909L37.044 29.934L39.9758 27.0023L32.0009 19.0273L24.0303 26.998L26.962 29.9297Z" fill="#F3BA2F"/>
<path id="Vector_4" d="M19.0273 32L21.9583 29.069L24.8893 32L21.9583 34.931L19.0273 32Z" fill="#F3BA2F"/>
<path id="Vector_5" d="M26.9634 34.0727L32.0023 39.1115L37.0454 34.0684L39.9772 37.0001L32.0023 44.9751L24.0317 37.0044L24.0273 37.0001L26.9634 34.0727Z" fill="#F3BA2F"/>
<path id="Vector_6" d="M39.1113 32.0039L42.0423 29.0729L44.9733 32.0039L42.0423 34.9349L39.1113 32.0039Z" fill="#F3BA2F"/>
<path id="Vector_7" d="M34.9772 32.0023L32.0023 29.0273L29.8045 31.2251L29.5498 31.4755L29.0273 31.998V32.0066L32.0023 34.9816L34.9772 32.0023Z" fill="#F3BA2F"/>
</g>
<defs>
<clipPath id="clip0_101_1290">
<rect width="64" height="64" fill="white"/>
</clipPath>
</defs>
</svg>
