<svg width="64" height="64" viewBox="0 0 64 64" fill="none" xmlns="http://www.w3.org/2000/svg">
<g id="Group 68">
<path id="Vector" opacity="0.16" d="M64 32C64 14.3269 49.6731 0 32 0C14.3269 0 0 14.3269 0 32C0 49.6731 14.3269 64 32 64C49.6731 64 64 49.6731 64 32Z" fill="#E37F06"/>
<path id="Vector_2" d="M52.6951 37.1621C49.8455 48.5906 38.2689 55.5459 26.8377 52.696C15.4111 49.8466 8.45505 38.2708 11.306 26.8428C14.1543 15.413 25.7309 8.45704 37.1588 11.3064C48.5893 14.1556 55.5447 25.7329 52.6951 37.1621Z" fill="#F7931A"/>
<path id="Vector_3" d="M41.405 28.9582C41.8297 26.1196 39.6681 24.5936 36.7125 23.5756L37.6713 19.7303L35.3303 19.147L34.3969 22.8909C33.7815 22.7376 33.1495 22.5929 32.5214 22.4496L33.4615 18.681L31.1219 18.0977L30.1625 21.9416C29.6531 21.8256 29.153 21.7109 28.6677 21.5903L28.6703 21.5783L25.442 20.7723L24.8193 23.2723C24.8193 23.2723 26.5561 23.6703 26.5194 23.6949C27.4675 23.9316 27.6389 24.5589 27.6102 25.0563L26.5181 29.4369C26.5834 29.4535 26.6681 29.4775 26.7615 29.5149C26.6835 29.4955 26.6001 29.4742 26.5141 29.4535L24.9833 35.5901C24.8673 35.8781 24.5732 36.3101 23.9105 36.1461C23.9338 36.1801 22.209 35.7215 22.209 35.7215L21.0469 38.4008L24.0931 39.1601C24.6599 39.3021 25.2153 39.4507 25.762 39.5907L24.7933 43.4801L27.1315 44.0634L28.0909 40.2154C28.7297 40.3887 29.3497 40.5487 29.9565 40.6994L29.0003 44.5294L31.3413 45.1127L32.3101 41.2307C36.3018 41.9861 39.3035 41.6814 40.5669 38.0715C41.585 35.1648 40.5162 33.4882 38.416 32.3949C39.9455 32.0422 41.0976 31.0362 41.405 28.9582ZM36.0564 36.4575C35.333 39.3641 30.4385 37.7928 28.8517 37.3988L30.1371 32.2461C31.724 32.6421 36.8125 33.4261 36.0564 36.4575ZM36.7805 28.9162C36.1204 31.5602 32.0467 30.2169 30.7252 29.8875L31.8907 25.2143C33.2121 25.5436 37.4679 26.1582 36.7805 28.9162Z" fill="white"/>
</g>
</svg>
