<svg width="64" height="64" viewBox="0 0 64 64" fill="none" xmlns="http://www.w3.org/2000/svg">
<g id="miners_icon_16.svg" clip-path="url(#clip0_103_1591)">
<path id="Vector" d="M31.9996 50.2863C42.0985 50.2863 50.2853 42.0995 50.2853 32.0006C50.2853 21.9017 42.0985 13.7148 31.9996 13.7148C21.9007 13.7148 13.7139 21.9017 13.7139 32.0006C13.7139 42.0995 21.9007 50.2863 31.9996 50.2863Z" fill="#2E3148"/>
<path id="Vector_2" d="M32.0229 20.0352C30.5428 20.0352 29.3428 25.4031 29.3428 32.0237C29.3428 38.6442 30.5428 44.0123 32.0229 44.0123C33.5017 44.0123 34.7017 38.6442 34.7017 32.0237C34.7017 25.4031 33.5017 20.0352 32.0229 20.0352ZM32.208 43.3345C32.0389 43.5608 31.8685 43.3917 31.8685 43.3917C31.1873 42.6008 30.8468 41.1346 30.8468 41.1346C29.6548 37.2979 29.9383 29.0614 29.9383 29.0614C30.4983 22.5231 31.5177 20.9779 31.8639 20.6351C31.8994 20.5999 31.9462 20.5784 31.996 20.5744C32.0459 20.5705 32.0954 20.5843 32.1359 20.6134C32.6388 20.9711 33.0616 22.4614 33.0616 22.4614C34.3073 27.0877 34.1943 31.4305 34.1943 31.4305C34.3073 35.2111 33.5703 39.4419 33.5703 39.4419C33.0022 42.6579 32.208 43.3345 32.208 43.3345Z" fill="white"/>
<path id="Vector_3" d="M42.4208 26.0561C41.6837 24.7715 36.4322 26.4025 30.687 29.6973C24.9419 32.9922 20.8893 36.703 21.6241 37.9875C22.3613 39.2721 27.6139 37.6413 33.359 34.3464C39.1042 31.0516 43.1568 27.3396 42.4208 26.0561ZM22.303 37.8105C22.0218 37.7762 22.0858 37.543 22.0858 37.543C22.431 36.5602 23.5327 35.5339 23.5327 35.5339C26.2676 32.591 33.5545 28.7385 33.5545 28.7385C39.5042 25.9705 41.3523 26.087 41.8208 26.215C41.8692 26.2283 41.9112 26.2583 41.9396 26.2998C41.9677 26.3412 41.9804 26.3913 41.9751 26.4413C41.9179 27.055 40.8322 28.1635 40.8322 28.1635C37.4425 31.5476 33.6185 33.6127 33.6185 33.6127C30.3956 35.5921 26.3578 37.0562 26.3578 37.0562C23.2858 38.1625 22.303 37.8105 22.303 37.8105Z" fill="white"/>
<path id="Vector_4" d="M42.3946 38.0308C43.1374 36.7508 39.095 33.0216 33.3683 29.7017C27.6426 26.3828 22.3923 24.7325 21.6505 26.0148C20.9076 27.2982 24.9511 31.0239 30.679 34.344C36.4083 37.6628 41.6528 39.3131 42.3946 38.0308ZM22.1431 26.5096C22.0322 26.249 22.2643 26.1863 22.2643 26.1863C23.2893 25.992 24.7293 26.4342 24.7293 26.4342C28.646 27.3256 35.6299 31.7005 35.6299 31.7005C41.0071 35.4628 41.8323 37.1211 41.9557 37.5908C41.9682 37.6391 41.9632 37.6901 41.9417 37.7352C41.9202 37.7802 41.8833 37.816 41.8379 37.8365C41.2779 38.0936 39.7751 37.7108 39.7751 37.7108C35.1466 36.4697 31.4448 34.1965 31.4448 34.1965C28.119 32.4022 24.8299 29.6423 24.8299 29.6423C22.3306 27.5371 22.1442 26.5108 22.1442 26.5108L22.1431 26.5096Z" fill="white"/>
<path id="Vector_5" d="M31.9943 33.4046C32.7731 33.4046 33.4046 32.7731 33.4046 31.9943C33.4046 31.2153 32.7731 30.584 31.9943 30.584C31.2154 30.584 30.584 31.2153 30.584 31.9943C30.584 32.7731 31.2154 33.4046 31.9943 33.4046Z" fill="white"/>
<path id="Vector_6" d="M37.7766 27.7213C38.4078 27.7213 38.9195 27.2096 38.9195 26.5784C38.9195 25.9472 38.4078 25.4355 37.7766 25.4355C37.1455 25.4355 36.6338 25.9472 36.6338 26.5784C36.6338 27.2096 37.1455 27.7213 37.7766 27.7213Z" fill="white"/>
<path id="Vector_7" d="M24.3499 30.5982C24.9811 30.5982 25.4927 30.0867 25.4927 29.4554C25.4927 28.8242 24.9811 28.3125 24.3499 28.3125C23.7187 28.3125 23.207 28.8242 23.207 29.4554C23.207 30.0867 23.7187 30.5982 24.3499 30.5982Z" fill="white"/>
<path id="Vector_8" d="M30.3304 40.9791C30.9615 40.9791 31.4732 40.4674 31.4732 39.8362C31.4732 39.2051 30.9615 38.6934 30.3304 38.6934C29.6992 38.6934 29.1875 39.2051 29.1875 39.8362C29.1875 40.4674 29.6992 40.9791 30.3304 40.9791Z" fill="white"/>
<path id="Vector_9" d="M32 64C49.6731 64 64 49.6731 64 32C64 14.3269 49.6731 0 32 0C14.3269 0 0 14.3269 0 32C0 49.6731 14.3269 64 32 64Z" fill="#2E3148" fill-opacity="0.3"/>
</g>
<defs>
<clipPath id="clip0_103_1591">
<rect width="64" height="64" fill="white"/>
</clipPath>
</defs>
</svg>
