<svg width="64" height="64" viewBox="0 0 64 64" fill="none" xmlns="http://www.w3.org/2000/svg">
<g id="DASH.svg" clip-path="url(#clip0_103_1601)">
<path id="Vector" d="M32 64C49.6731 64 64 49.6731 64 32C64 14.3269 49.6731 0 32 0C14.3269 0 0 14.3269 0 32C0 49.6731 14.3269 64 32 64Z" fill="#008CE7" fill-opacity="0.1"/>
<path id="Vector_2" d="M31.9996 50.2863C42.0985 50.2863 50.2853 42.0995 50.2853 32.0006C50.2853 21.9017 42.0985 13.7148 31.9996 13.7148C21.9007 13.7148 13.7139 21.9017 13.7139 32.0006C13.7139 42.0995 21.9007 50.2863 31.9996 50.2863Z" fill="#008CE7"/>
<path id="Vector_3" d="M35.5271 22.8613H27.2117L26.5237 26.7094L34.0231 26.7208C37.7157 26.7208 38.8117 28.0613 38.7763 30.2865C38.7603 31.4271 38.2631 33.3563 38.0528 33.978C37.4849 35.6465 36.3146 37.546 31.9283 37.5402L24.6392 37.5356L23.9512 41.3883H32.2448C35.1695 41.3883 36.4152 41.0465 37.7305 40.4397C40.6494 39.0934 42.3877 36.2099 43.086 32.4465C44.1214 26.8465 42.831 22.8613 35.5271 22.8613Z" fill="white"/>
<path id="Vector_4" d="M31.7797 31.7685C32.0505 30.6428 32.1362 30.1914 32.1362 30.1914H23.6265C21.4505 30.1914 21.1397 31.6085 20.9327 32.4657C20.662 33.5868 20.5762 34.0439 20.5762 34.0439H29.0871C31.2619 34.0439 31.5727 32.6268 31.7797 31.7685Z" fill="white"/>
</g>
<defs>
<clipPath id="clip0_103_1601">
<rect width="64" height="64" fill="white"/>
</clipPath>
</defs>
</svg>
