<svg width="64" height="64" viewBox="0 0 64 64" fill="none" xmlns="http://www.w3.org/2000/svg">
<g id="Group 75">
<path id="Vector" d="M64 32C64 14.3269 49.6731 0 32 0C14.3269 0 0 14.3269 0 32C0 49.6731 14.3269 64 32 64C49.6731 64 64 49.6731 64 32Z" fill="#C3A634" fill-opacity="0.1"/>
<path id="Vector_2" d="M32.0001 50.1615C42.0307 50.1615 50.1622 41.6428 50.1622 31.1344C50.1622 20.6261 42.0307 12.1074 32.0001 12.1074C21.9694 12.1074 13.8379 20.6261 13.8379 31.1344C13.8379 41.6428 21.9694 50.1615 32.0001 50.1615Z" fill="#C3A634"/>
<path id="Vector_3" fill-rule="evenodd" clip-rule="evenodd" d="M29.1143 29.6323H34.089V32.1036H29.1143V37.3123H32.2519C33.4939 37.3123 34.5099 37.1556 35.301 36.8399C36.092 36.5252 36.7124 36.0895 37.1632 35.5317C37.6243 34.9516 37.9383 34.2805 38.0811 33.5696C38.2478 32.7676 38.3288 31.952 38.3233 31.135C38.3288 30.318 38.2478 29.5024 38.0811 28.7004C37.9384 27.9893 37.6245 27.3182 37.1632 26.7381C36.7124 26.1803 36.0908 25.7447 35.301 25.43C34.5099 25.1144 33.4939 24.9577 32.2519 24.9577H29.1143V29.6323ZM25.9248 32.1036H24.2158V29.6334H25.9248V22.4863H33.4767C34.872 22.4863 36.0793 22.7134 37.0999 23.1641C38.1203 23.6171 38.9529 24.2344 39.5997 25.0182C40.2455 25.8009 40.7264 26.7177 41.0411 27.7675C41.356 28.8171 41.5128 29.9403 41.5128 31.135C41.5207 32.2726 41.3617 33.4057 41.0401 34.5025C40.7264 35.5511 40.2456 36.469 39.5986 37.2517C38.9529 38.0356 38.1203 38.6528 37.0999 39.1057C36.0793 39.5576 34.8708 39.7836 33.4767 39.7836H25.9248V32.1036Z" fill="white"/>
</g>
</svg>
