<svg width="64" height="64" viewBox="0 0 64 64" fill="none" xmlns="http://www.w3.org/2000/svg">
<g id="currency__icon_7.svg" clip-path="url(#clip0_101_1277)">
<path id="Vector" opacity="0.16" d="M63.3451 32C63.3451 14.3269 49.1659 0 31.675 0C14.1841 0 0.00488281 14.3269 0.00488281 32C0.00488281 49.6731 14.1841 64 31.675 64C49.1659 64 63.3451 49.6731 63.3451 32Z" fill="#E6007A"/>
<path id="Vector_2" d="M31.6749 53.3327C43.3355 53.3327 52.7883 43.7814 52.7883 31.9993C52.7883 20.2173 43.3355 10.666 31.6749 10.666C20.0143 10.666 10.5615 20.2173 10.5615 31.9993C10.5615 43.7814 20.0143 53.3327 31.6749 53.3327Z" fill="#E6007A"/>
<g id="Group 9">
<path id="Vector_3" d="M32.1217 20C29.7054 20.0095 27.3908 20.9736 25.6822 22.6822C23.9736 24.3908 23.0095 26.7054 23 29.1217C23.0002 30.1286 23.1625 31.1289 23.4807 32.0842C23.5953 32.3972 23.8254 32.6545 24.1238 32.8032C24.4222 32.9518 24.7662 32.9805 25.0851 32.8834C25.3933 32.7654 25.645 32.5345 25.789 32.2376C25.933 31.9406 25.9585 31.6 25.8603 31.285C25.5901 30.5407 25.4696 29.7504 25.5058 28.9595C25.5442 27.6841 25.9527 26.4475 26.6814 25.4001C27.41 24.3528 28.4275 23.5398 29.6099 23.0603C30.7923 22.5808 32.0886 22.4554 33.3409 22.6994C34.5933 22.9434 35.7477 23.5463 36.6636 24.4346C37.5795 25.3229 38.2174 26.4583 38.4996 27.7026C38.7818 28.9469 38.6962 30.2464 38.2531 31.4429C37.81 32.6394 37.0286 33.6813 36.004 34.4417C34.9794 35.2021 33.7558 35.6482 32.4823 35.7257C32.4823 35.7257 31.2023 35.8038 30.5654 35.8819C30.3308 35.9158 30.0981 35.9619 29.8683 36.0201C29.8605 36.0281 29.8512 36.0344 29.8408 36.0388C29.8305 36.0431 29.8194 36.0453 29.8082 36.0453C29.797 36.0453 29.786 36.0431 29.7757 36.0388C29.7653 36.0344 29.756 36.0281 29.7482 36.0201C29.7369 36.0054 29.7309 35.9875 29.7309 35.969C29.7309 35.9506 29.7369 35.9326 29.7482 35.9179L29.9464 34.8363L31.1483 29.4282C31.2176 29.1039 31.1552 28.7653 30.9749 28.4869C30.7946 28.2086 30.5111 28.0133 30.1868 27.9439C29.8625 27.8746 29.5239 27.937 29.2456 28.1173C28.9672 28.2976 28.7719 28.5811 28.7026 28.9054C28.7026 28.9054 25.8423 42.1433 25.8423 42.2635C25.8029 42.4182 25.7948 42.5792 25.8183 42.7371C25.8418 42.895 25.8966 43.0466 25.9794 43.1831C26.0622 43.3196 26.1714 43.4383 26.3005 43.5321C26.4297 43.6259 26.5762 43.6931 26.7316 43.7297H26.7977C26.9532 43.7699 27.1152 43.7785 27.2742 43.755C27.4331 43.7315 27.5857 43.6764 27.7229 43.5929C27.8602 43.5095 27.9793 43.3993 28.0732 43.269C28.1672 43.1387 28.2341 42.9909 28.2699 42.8343C28.2676 42.8144 28.2676 42.7942 28.2699 42.7743C28.306 42.618 28.6665 40.8574 28.6665 40.8574C28.8 40.2084 29.1289 39.6158 29.609 39.1592C30.0892 38.7027 30.6977 38.4041 31.3526 38.3035C31.629 38.2615 32.7887 38.1834 32.7887 38.1834C35.096 37.9533 37.2289 36.8526 38.7533 35.1054C40.2776 33.3581 41.0789 31.0956 40.9939 28.7785C40.9089 26.4613 39.944 24.2636 38.2958 22.6327C36.6475 21.0018 34.4397 20.0604 32.1217 20V20Z" fill="white"/>
<path id="Vector_4" d="M32.6754 41.0319C32.478 40.9908 32.2744 40.9894 32.0764 41.0278C31.8785 41.0661 31.6901 41.1435 31.5224 41.2553C31.3546 41.3672 31.2108 41.5113 31.0992 41.6792C30.9877 41.8472 30.9107 42.0357 30.8726 42.2337C30.8302 42.4282 30.8266 42.6292 30.862 42.8252C30.8973 43.0211 30.9709 43.2081 31.0787 43.3756C31.1864 43.543 31.3261 43.6876 31.4897 43.801C31.6534 43.9144 31.8378 43.9944 32.0324 44.0364H32.0745C32.2663 44.0827 32.4654 44.0905 32.6602 44.0592C32.855 44.028 33.0417 43.9583 33.2094 43.8543C33.3771 43.7504 33.5225 43.6141 33.6372 43.4535C33.7518 43.2929 33.8334 43.1111 33.8772 42.9187V42.8346C33.9457 42.4374 33.8593 42.029 33.6357 41.6936C33.4121 41.3582 33.0684 41.1214 32.6754 41.0319Z" fill="white"/>
</g>
</g>
<defs>
<clipPath id="clip0_101_1277">
<rect width="64" height="64" fill="white"/>
</clipPath>
</defs>
</svg>
