<svg width="64" height="64" viewBox="0 0 64 64" fill="none" xmlns="http://www.w3.org/2000/svg">
<g id="currency__icon_7.svg" clip-path="url(#clip0_101_1455)">
<path id="Vector" opacity="0.16" d="M64 32C64 14.3269 49.6731 0 32 0C14.3269 0 0 14.3269 0 32C0 49.6731 14.3269 64 32 64C49.6731 64 64 49.6731 64 32Z" fill="white"/>
<path id="Vector_2" d="M32 53C43.598 53 53 43.598 53 32C53 20.402 43.598 11 32 11C20.402 11 11 20.402 11 32C11 43.598 20.402 53 32 53Z" fill="white"/>
<g id="g1627">
<path id="path1599" d="M24 32.735C26.7436 34.192 29.6064 35.7171 31.8175 36.8972L39.5711 32.735C36.7637 36.9056 34.4245 40.3778 31.8175 44.2205C29.206 40.3863 26.3218 36.1554 24 32.735ZM24.2982 31.5845L31.826 27.5676L39.2558 31.5552L31.8303 35.5765L24.2982 31.5845ZM31.8175 26.2807L24 30.3961L31.7834 19L39.5711 30.4216L31.8175 26.2807Z" fill="#3AB83A"/>
<path id="path1593" d="M31.8173 36.8972L39.571 32.735C36.7635 36.9056 31.8173 44.2205 31.8173 44.2205V36.8972ZM31.8258 27.5676L39.2557 31.5552L31.83 35.5765L31.8258 27.5676ZM31.8173 26.281L31.7832 19L39.571 30.4216L31.8173 26.281Z" fill="#0B8311"/>
<path id="path1603" d="M24.2988 31.5841L31.827 32.2019L39.2569 31.5586L31.8309 35.5802L24.2988 31.5841Z" fill="#0B8311"/>
<path id="path1606" d="M31.8262 32.2019L39.2561 31.5586L31.8304 35.5802L31.8262 32.2019Z" fill="#146714"/>
</g>
</g>
<defs>
<clipPath id="clip0_101_1455">
<rect width="64" height="64" fill="white"/>
</clipPath>
</defs>
</svg>
