<svg width="64" height="64" viewBox="0 0 64 64" fill="none" xmlns="http://www.w3.org/2000/svg">
<g id="Group 69">
<path id="Vector" d="M64 32C64 14.3269 49.6731 0 32 0C14.3269 0 0 14.3269 0 32C0 49.6731 14.3269 64 32 64C49.6731 64 64 49.6731 64 32Z" fill="#9B93F3" fill-opacity="0.2"/>
<path id="Vector_2" d="M32.0004 50.2843C42.0992 50.2843 50.286 42.0975 50.286 31.9986C50.286 21.8997 42.0992 13.7129 32.0004 13.7129C21.9016 13.7129 13.7148 21.8997 13.7148 31.9986C13.7148 42.0975 21.9016 50.2843 32.0004 50.2843Z" fill="#9B93F3"/>
<path id="Vector_3" d="M31.9976 20.2441L31.8359 20.7799V36.3254L31.9976 36.4828L39.3957 32.2173L31.9976 20.2441Z" fill="#343434"/>
<path id="Vector_4" d="M31.9959 20.2441L24.5977 32.2173L31.9959 36.4828V28.9375V20.2441Z" fill="#8C8C8C"/>
<path id="Vector_5" d="M31.9984 37.8511L31.9072 37.9595V43.4971L31.9984 43.7566L39.4009 33.5879L31.9984 37.8511Z" fill="#3C3C3B"/>
<path id="Vector_6" d="M31.9959 43.7566V37.8511L24.5977 33.5879L31.9959 43.7566Z" fill="#8C8C8C"/>
<path id="Vector_7" d="M31.9971 36.4848L39.395 32.2195L31.9971 28.9395V36.4848Z" fill="#141414"/>
<path id="Vector_8" d="M24.5977 32.2195L31.9959 36.4848V28.9395L24.5977 32.2195Z" fill="#393939"/>
</g>
</svg>
