<svg width="64" height="64" viewBox="0 0 64 64" fill="none" xmlns="http://www.w3.org/2000/svg">
<g id="currency__icon_7.svg" clip-path="url(#clip0_101_1417)">
<path id="Vector" opacity="0.16" d="M63.3451 32C63.3451 14.3269 49.1659 0 31.675 0C14.1841 0 0.00488281 14.3269 0.00488281 32C0.00488281 49.6731 14.1841 64 31.675 64C49.1659 64 63.3451 49.6731 63.3451 32Z" fill="#0047FF"/>
<path id="Vector_2" d="M31.6749 53.3327C43.3355 53.3327 52.7883 43.7814 52.7883 31.9993C52.7883 20.2173 43.3355 10.666 31.6749 10.666C20.0143 10.666 10.5615 20.2173 10.5615 31.9993C10.5615 43.7814 20.0143 53.3327 31.6749 53.3327Z" fill="#0047FF"/>
<path id="Vector_3" d="M31.5033 23.9326L38.7181 27.9518V36.0225L31.5232 40.0674L24.3084 36.0545V27.9839L31.5033 23.9326ZM31.5033 18L28.8557 19.4896L21.6476 23.5409L19 25.0305V27.9968V36.061V39.0273L21.6476 40.504L28.8623 44.5233L31.5099 46L34.1575 44.5104L41.3524 40.4591L44 38.9759V36.0096V27.939V24.9727L41.3524 23.496L34.1376 19.4767L31.4901 18H31.5033Z" fill="white"/>
</g>
<defs>
<clipPath id="clip0_101_1417">
<rect width="64" height="64" fill="white"/>
</clipPath>
</defs>
</svg>
