<svg width="64" height="64" viewBox="0 0 64 64" fill="none" xmlns="http://www.w3.org/2000/svg">
<g id="currency__icon_7.svg" clip-path="url(#clip0_101_1411)">
<path id="Vector" opacity="0.16" d="M63.3451 32C63.3451 14.3269 49.1659 0 31.675 0C14.1841 0 0.00488281 14.3269 0.00488281 32C0.00488281 49.6731 14.1841 64 31.675 64C49.1659 64 63.3451 49.6731 63.3451 32Z" fill="white"/>
<path id="Vector_2" d="M31.6749 53.3327C43.3355 53.3327 52.7883 43.7814 52.7883 31.9993C52.7883 20.2173 43.3355 10.666 31.6749 10.666C20.0143 10.666 10.5615 20.2173 10.5615 31.9993C10.5615 43.7814 20.0143 53.3327 31.6749 53.3327Z" fill="white"/>
<path id="Vector_3" d="M30.5242 37.9191C34.0376 37.9871 37.4866 38.0533 41 38.1875C40.8713 38.7224 40.7407 39.1893 40.6763 39.6581C40.4794 40.3272 40.2844 40.9302 40.1557 41.5993C40.0895 41.9338 39.9589 42 39.6352 42H22.8462C23.433 39.6581 24.0179 37.4522 24.6029 35.1103C23.6923 35.4448 22.9105 35.7794 22 36.1801C22.2612 35.1783 22.5206 34.3088 22.8462 33.3713C22.8462 33.239 23.0411 33.1709 23.1718 33.1709C23.7586 32.9044 24.4079 32.7022 24.9928 32.4338C25.1878 32.3695 25.3847 32.1691 25.3847 31.9669L28.1144 21.5349C28.1806 21.1342 28.3094 21 28.7656 21H34.6869C33.9713 23.7408 33.3201 26.4853 32.6046 29.3603C33.6457 28.8934 34.6225 28.4908 35.728 28.0901C35.5974 28.625 35.4024 29.0919 35.338 29.5607C35.2074 30.6324 34.6225 31.2335 33.5813 31.5019C33.127 31.6342 32.6689 31.8346 32.2146 32.0368C32.0532 32.1359 31.9192 32.2736 31.8246 32.4375C31.3684 34.2427 30.9122 35.9816 30.5223 37.7868V37.921L30.5242 37.9191Z" fill="#0047FF"/>
</g>
<defs>
<clipPath id="clip0_101_1411">
<rect width="64" height="64" fill="white"/>
</clipPath>
</defs>
</svg>
