<svg width="64" height="64" viewBox="0 0 64 64" fill="none" xmlns="http://www.w3.org/2000/svg">
<g id="Group 68">
<path id="Vector" opacity="0.16" d="M64 32C64 14.3269 49.6731 0 32 0C14.3269 0 0 14.3269 0 32C0 49.6731 14.3269 64 32 64C49.6731 64 64 49.6731 64 32Z" fill="#C1C1C1"/>
<path id="Vector_2" d="M52.6951 37.1621C49.8455 48.5906 38.2689 55.5459 26.8377 52.696C15.4111 49.8466 8.45505 38.2708 11.306 26.8428C14.1543 15.413 25.7309 8.45704 37.1588 11.3064C48.5893 14.1556 55.5447 25.7329 52.6951 37.1621Z" fill="white"/>
<path id="Vector_3" d="M38.6199 27.7209C38.1402 27.4419 37.5166 27.4419 36.989 27.7209L33.2472 29.8605L30.7048 31.2559L26.9631 33.3954C26.4834 33.6744 25.8598 33.6744 25.3321 33.3954L22.3579 31.7209C21.8782 31.4418 21.5424 30.9303 21.5424 30.3721V27.0698C21.5424 26.5116 21.8303 26 22.3579 25.7209L25.2841 24.093C25.7638 23.814 26.3874 23.814 26.9151 24.093L29.8413 25.7209C30.321 26 30.6568 26.5116 30.6568 27.0698V29.2093L33.1992 27.7675V25.6279C33.1992 25.0698 32.9115 24.5581 32.3838 24.2791L26.9631 21.2093C26.4834 20.9302 25.8598 20.9302 25.3321 21.2093L19.8155 24.2791C19.2878 24.5581 19 25.0698 19 25.6279V31.814C19 32.3721 19.2878 32.8838 19.8155 33.1628L25.3321 36.2326C25.8118 36.5117 26.4354 36.5117 26.9631 36.2326L30.7048 34.1395L33.2472 32.6977L36.989 30.6047C37.4686 30.3256 38.0922 30.3256 38.6199 30.6047L41.5461 32.2326C42.0258 32.5116 42.3616 33.0233 42.3616 33.5814V36.8837C42.3616 37.4419 42.0738 37.9535 41.5461 38.2326L38.6199 39.907C38.1402 40.1861 37.5166 40.1861 36.989 39.907L34.0628 38.2791C33.583 38 33.2472 37.4884 33.2472 36.9302V34.7908L30.7048 36.2326V38.3721C30.7048 38.9302 30.9926 39.4419 31.5202 39.7209L37.0369 42.7907C37.5166 43.0698 38.1402 43.0698 38.6679 42.7907L44.1845 39.7209C44.6642 39.4419 45 38.9302 45 38.3721V32.186C45 31.6279 44.7121 31.1163 44.1845 30.8373L38.6199 27.7209Z" fill="#8247E5"/>
</g>
</svg>
