<svg width="64" height="64" viewBox="0 0 64 64" fill="none" xmlns="http://www.w3.org/2000/svg">
<g id="miners_icon_16.svg" clip-path="url(#clip0_103_1606)">
<path id="Vector" d="M32 64C49.6731 64 64 49.6731 64 32C64 14.3269 49.6731 0 32 0C14.3269 0 0 14.3269 0 32C0 49.6731 14.3269 64 32 64Z" fill="#FF6B01" fill-opacity="0.12"/>
<g id="dash-3 (1)">
<path id="Oval" d="M31.6977 48.995C41.2507 48.995 48.995 41.2507 48.995 31.6977C48.995 22.1447 41.2507 14.4004 31.6977 14.4004C22.1447 14.4004 14.4004 22.1447 14.4004 31.6977C14.4004 41.2507 22.1447 48.995 31.6977 48.995Z" fill="white"/>
<path id="Shape" d="M46.1154 40.9656H39.2889V31.6973L31.6977 39.1874L24.1065 31.6973V40.9656H17.28H17.0615C20.1198 45.7614 25.5265 48.9946 31.6977 48.9946C37.8689 48.9946 43.2756 45.8153 46.3339 40.9656H46.1154Z" fill="#4C4C4C"/>
<path id="Shape_2" d="M20.5117 37.0199V22.768L31.6977 33.8348L42.8836 22.768V37.0199H48.0674C48.6676 35.2924 48.995 33.457 48.995 31.5135C48.995 22.0662 41.2467 14.4004 31.6977 14.4004C22.1487 14.4004 14.4004 22.0662 14.4004 31.5135C14.4004 33.457 14.7278 35.2924 15.328 37.0199H20.5117Z" fill="#FF6B01"/>
</g>
</g>
<defs>
<clipPath id="clip0_103_1606">
<rect width="64" height="64" fill="white"/>
</clipPath>
</defs>
</svg>
