<svg width="64" height="64" viewBox="0 0 64 64" fill="none" xmlns="http://www.w3.org/2000/svg">
<g id="DASH.svg" clip-path="url(#clip0_103_1633)">
<path id="Vector" d="M32 64C49.6731 64 64 49.6731 64 32C64 14.3269 49.6731 0 32 0C14.3269 0 0 14.3269 0 32C0 49.6731 14.3269 64 32 64Z" fill="#F00500" fill-opacity="0.23"/>
<g id="Group">
<path id="Vector_2" d="M32.0001 50.1622C42.0307 50.1622 50.1622 42.0307 50.1622 32.0001C50.1622 21.9694 42.0307 13.8379 32.0001 13.8379C21.9694 13.8379 13.8379 21.9694 13.8379 32.0001C13.8379 42.0307 21.9694 50.1622 32.0001 50.1622Z" fill="#F00500"/>
<path id="Vector_3" d="M38.9332 33.1584C38.9218 33.2219 38.7368 33.4104 38.5506 33.5489C38.0058 33.9473 37.0307 34.3185 36.0397 34.4967C35.4755 34.5989 34.9114 34.6148 34.7411 34.5319C34.631 34.4763 34.6151 34.4331 34.6548 34.2912C34.7377 33.9961 35.0067 33.6715 35.4245 33.3672C35.6379 33.214 36.5028 32.6884 36.9047 32.4671C37.5676 32.1038 38.1045 31.8882 38.4678 31.8359C38.5824 31.82 38.7209 31.8155 38.7629 31.8359C38.8355 31.8632 38.9139 32.0732 38.9445 32.3252C38.9615 32.4591 38.9536 33.0517 38.9332 33.1584ZM29.633 34.4649C29.6103 34.5126 29.4911 34.5637 29.3572 34.583C29.2221 34.6034 28.8123 34.5909 28.5796 34.5637C27.7419 34.4524 26.8542 34.1959 26.2072 33.8803C25.8439 33.7032 25.5828 33.525 25.3899 33.332L25.2786 33.2174L25.2673 33.0676C25.2468 32.8065 25.2514 32.3967 25.2832 32.2503C25.3037 32.1283 25.3452 32.0108 25.4058 31.9029C25.4364 31.8632 25.4364 31.8632 25.5794 31.8632C25.7531 31.8632 25.8984 31.8904 26.1356 31.9653C26.6215 32.1163 27.3434 32.4796 28.2243 33.0085C28.9508 33.4422 29.2232 33.6556 29.4321 33.9473C29.574 34.1289 29.6682 34.3855 29.633 34.4649ZM35.2235 39.9601C35.2235 39.9715 35.1759 40.161 35.1168 40.3858C35.0788 40.5236 35.0432 40.6621 35.0101 40.8012C34.9659 40.8046 34.9273 40.8092 34.883 40.8046H34.7581L34.5833 41.2156C34.4891 41.4403 34.4017 41.6492 34.3904 41.681L34.3665 41.7366L34.2836 41.6015L34.2008 41.4676V40.3744L34.169 40.3824C34.1009 40.3983 33.6241 40.4618 33.4153 40.4811C32.5516 40.5673 31.6807 40.5486 30.8215 40.4255C30.735 40.4106 30.6479 40.4 30.5604 40.3937C30.557 40.3983 30.5604 40.6503 30.5684 40.9624L30.5797 41.5232L30.5139 41.6253C30.4775 41.681 30.4424 41.7275 30.4424 41.7321C30.431 41.7434 30.3913 41.681 30.3005 41.4993C30.2028 41.3088 30.1285 41.1072 30.0791 40.8989L30.0519 40.7853L29.9293 40.7922L29.8067 40.8046L29.7749 40.6582C29.7576 40.5694 29.7432 40.4801 29.7318 40.3903L29.7204 40.2643L29.6182 40.1735L29.4877 40.0623C29.4673 40.0464 29.4593 40.0191 29.4593 39.9953V39.9476L29.9531 39.9522L30.4469 39.9556L30.4616 40.0066L30.4775 40.0589L30.6478 40.0668L31.3107 40.0861L31.8045 40.0975L31.9305 39.9011L32.0611 39.7036H32.2268L32.2234 39.2926L32.2188 38.8817L32.002 38.7875C31.3028 38.4799 30.893 38.1291 30.7386 37.7023C30.7068 37.6149 30.7068 37.5831 30.6989 37.1892C30.6955 36.7976 30.6955 36.7624 30.7227 36.675C30.7494 36.5783 30.801 36.4904 30.8723 36.4198C30.9436 36.3493 31.0321 36.2988 31.1291 36.2732C31.1972 36.2528 31.3743 36.2528 32.3062 36.2528L33.4028 36.2573L33.5254 36.3163C33.6435 36.3649 33.7457 36.4455 33.8205 36.549C33.9159 36.675 33.9442 36.7738 33.9442 37.0144C33.9442 37.3584 33.9204 37.6546 33.8852 37.7727C33.8329 37.9351 33.7555 38.0883 33.6559 38.2268C33.4584 38.4799 33.0997 38.7319 32.7705 38.8465L32.6763 38.8817L32.6808 39.2972L32.6842 39.7115L32.7716 39.7195L32.8579 39.7274L32.9771 39.9045L33.0906 40.0827H33.6207C33.9125 40.0827 34.169 40.0861 34.1928 40.0895C34.2326 40.0986 34.2405 40.094 34.2791 40.0271L34.3268 39.9556H34.7808C35.1214 39.9397 35.2235 39.9476 35.2235 39.9601Z" fill="black"/>
<path id="Vector_4" d="M33.1379 41.0938C33.063 41.1369 33.0119 41.1562 33.0005 41.1494C32.9892 41.1449 32.9324 41.0972 32.8734 41.0541L32.7667 40.9678L32.6566 41.0859C32.4159 41.3469 32.4068 41.3583 32.3365 41.3617C32.2264 41.3731 32.2025 41.3538 32.0686 41.1528C31.9971 41.0507 31.9426 40.9633 31.9426 40.9633C31.9426 40.9633 31.8904 40.9553 31.8313 40.9519L31.7212 40.9406L31.6701 41.0461L31.6179 41.1528L31.5271 41.1256C31.4559 41.1021 31.3862 41.0744 31.3182 41.0427L31.2002 40.9837V40.7578L32.2502 40.7624L33.3002 40.7658L33.3036 40.8725C33.3081 40.9985 33.3115 40.9951 33.1379 41.0938Z" fill="black"/>
<path id="Vector_5" d="M43.0074 36.279C43.004 36.262 43.004 36.2336 43.0006 36.1916C41.8982 36.0872 40.786 36.202 39.7282 36.5292C38.6703 36.8565 37.6877 37.3899 36.8368 38.0986C36.8368 38.0986 36.0286 34.3867 32.2395 34.3867C28.4482 34.3867 27.044 38.0986 27.044 38.0986C24.9202 35.8124 22.0778 35.9782 21.0505 36.128L21.0471 36.2029C21.0153 36.775 21.0312 37.0475 21.1266 37.4062C21.4217 38.5322 22.3343 39.7718 23.7635 40.9875C26.1041 42.9774 29.278 44.4134 31.6822 44.5802C34.1886 44.7505 37.888 43.285 40.3512 41.1453C40.7372 40.8025 41.1004 40.4393 41.4409 40.0522C41.685 39.7684 42.0482 39.278 42.021 39.278C42.013 39.278 42.021 39.2701 42.0369 39.2621C42.0482 39.2542 42.0596 39.2428 42.0528 39.2349C42.0482 39.2303 42.0562 39.219 42.0687 39.2156C42.08 39.211 42.088 39.2042 42.0846 39.1951C42.08 39.1872 42.0846 39.1793 42.1005 39.1759C42.1118 39.1713 42.1163 39.16 42.1118 39.152C42.1073 39.1441 42.1118 39.1361 42.1198 39.1361C42.1277 39.1361 42.1356 39.1248 42.1356 39.1168C42.1356 39.1089 42.1436 39.0964 42.1515 39.0964C42.1595 39.0964 42.1674 39.0884 42.1674 39.0805C42.1805 39.0482 42.1977 39.0177 42.2185 38.9897C42.2775 38.8989 42.5136 38.4766 42.5466 38.4062C42.7713 37.8966 42.9132 37.4425 42.9802 36.9884C43.004 36.7716 43.0233 36.3732 43.0074 36.2779V36.279ZM33.1386 41.0942C33.0636 41.1374 33.0126 41.1567 33.0012 41.1499C32.9899 41.1453 32.9331 41.0976 32.8741 41.0545L32.7674 40.9682L32.6573 41.0863C32.4166 41.3474 32.4075 41.3587 32.3372 41.3621C32.227 41.3735 32.2032 41.3542 32.0693 41.1533C31.9978 41.0511 31.9433 40.9637 31.9433 40.9637C31.9433 40.9637 31.891 40.9557 31.832 40.9523L31.7219 40.941L31.6708 41.0466L31.6186 41.1533L31.5278 41.126C31.4566 41.1025 31.3869 41.0748 31.3189 41.0431L31.2009 40.9841V40.7582L32.2509 40.7628L33.3009 40.7662L33.3043 40.8729C33.3088 40.9989 33.3122 40.9955 33.1386 41.0942ZM35.1137 40.3836C35.0757 40.5212 35.0397 40.6593 35.0059 40.798C34.9627 40.8014 34.923 40.8059 34.8799 40.8014H34.7539L34.5836 41.2168C34.4894 41.4416 34.402 41.6504 34.3906 41.6822L34.3668 41.7379L34.2839 41.6028L34.201 41.4688V40.3757L34.1693 40.3836C34.1012 40.3995 33.6244 40.4631 33.4155 40.4824C32.5519 40.5685 31.6809 40.5499 30.8218 40.4268C30.7353 40.4119 30.6482 40.4013 30.5607 40.395C30.5573 40.3995 30.5607 40.6515 30.5686 40.9637L30.58 41.5244L30.5141 41.6266C30.4778 41.6822 30.4426 41.7288 30.4426 41.7333C30.4313 41.7447 30.3915 41.6822 30.3007 41.5006C30.2031 41.3101 30.1288 41.1084 30.0794 40.9001L30.0521 40.7866L29.9295 40.7946L29.8069 40.8059L29.7752 40.6595C29.7578 40.5707 29.7435 40.4813 29.732 40.3916L29.7207 40.2656L29.6185 40.1748C29.5759 40.1367 29.5323 40.0996 29.488 40.0635C29.4675 40.0476 29.4596 40.0204 29.4596 39.9966V39.9489L29.9534 39.9534L30.4472 39.9568L30.4619 40.0079L30.4778 40.0601L30.6481 40.0681L31.311 40.0874L31.8048 40.0987L31.9308 39.9023L32.0613 39.7048H32.227L32.2236 39.2939L32.2191 38.883L32.0023 38.7888C31.303 38.4812 30.8933 38.1304 30.7389 37.7036C30.7071 37.6162 30.7071 37.5844 30.6992 37.1905C30.6958 36.7989 30.6958 36.7637 30.723 36.6763C30.7497 36.5796 30.8012 36.4916 30.8725 36.4211C30.9438 36.3506 31.0324 36.3 31.1294 36.2744C31.1975 36.254 31.3746 36.254 32.3065 36.254L33.403 36.2586L33.5256 36.3176C33.6437 36.3662 33.746 36.4468 33.8208 36.5503C33.9161 36.6763 33.9445 36.775 33.9445 37.0157C33.9445 37.3596 33.9207 37.6559 33.8855 37.774C33.8332 37.9363 33.7558 38.0895 33.6562 38.228C33.4587 38.4811 33.1 38.7332 32.7708 38.8478L32.6766 38.883L32.6811 39.2984L32.6845 39.7128L32.7719 39.7207L32.8582 39.7287L32.9774 39.9057L33.0909 40.084H33.621C33.9127 40.084 34.1693 40.0874 34.1931 40.0908C34.2328 40.0999 34.2408 40.0953 34.2794 40.0283L34.327 39.9568H34.7811C35.133 39.9568 35.2352 39.9614 35.2352 39.9727C35.2238 39.9693 35.1716 40.1623 35.1126 40.3836H35.1137Z" fill="white"/>
<path id="Vector_6" d="M42.9762 35.8755C42.9682 35.6921 42.9561 35.5089 42.9399 35.3261C42.7696 33.5337 42.3122 32.0694 41.4438 30.5177C41.4113 30.4644 41.3825 30.4091 41.3575 30.3519C41.3496 30.3406 41.3462 30.3292 41.3416 30.3213C41.4642 29.9535 41.9659 28.4177 42.3632 26.6616C42.9047 24.2778 43.2486 21.4899 42.1986 20.6533C42.1986 20.6533 40.3824 20.5194 37.951 22.9032C37.2915 23.5615 36.6876 24.2767 36.1506 25.0384L35.9804 24.9839C35.0033 24.6639 33.9901 24.4676 32.9643 24.3993C32.6567 24.3766 31.5079 24.3766 31.1333 24.3993C30.0005 24.4742 29.131 24.6445 28.1445 24.9873C28.1082 25.0016 28.0715 25.0149 28.0344 25.027C27.478 24.2671 26.8558 23.5575 26.1751 22.9066C23.6437 20.5114 21.7605 20.6499 21.7605 20.6499C20.6481 21.5138 21.0272 24.4277 21.6016 26.8909C21.8868 28.0995 22.227 29.2946 22.621 30.4722C22.6082 30.5018 22.5938 30.5306 22.5778 30.5585C21.6584 32.4224 21.16 34.2182 21.042 36.1286C22.0716 35.9788 24.9105 35.8085 27.0378 38.0981C27.0378 38.0981 28.4431 34.3873 32.2333 34.3873C36.0224 34.3873 36.8317 38.0992 36.8317 38.0992C37.683 37.3916 38.6655 36.8589 39.723 36.5316C40.7805 36.2044 41.8922 36.089 42.9944 36.1922L42.9751 35.8755H42.9762ZM23.3679 28.983C23.3679 28.983 21.8922 25.2915 22.2702 23.1824C22.3338 22.8282 22.4518 22.5161 22.638 22.28C22.638 22.28 24.3112 22.4457 27.0117 25.4459C27.0117 25.4459 26.4986 25.6945 25.8118 26.2234C25.8118 26.2234 25.8073 26.2268 25.8039 26.2268C24.8199 26.9779 23.9924 27.9142 23.3679 28.983ZM29.6338 34.4657C29.6089 34.5133 29.4908 34.5644 29.3569 34.5837C29.2218 34.6041 28.812 34.5917 28.5793 34.5644C27.7416 34.4532 26.8539 34.1966 26.2069 33.8811C25.8436 33.704 25.5825 33.5258 25.3896 33.3328L25.2783 33.2181L25.267 33.0683C25.2465 32.8072 25.2511 32.3974 25.2829 32.251C25.3034 32.129 25.3448 32.0115 25.4055 31.9037C25.4361 31.8639 25.4361 31.8639 25.5791 31.8639C25.7528 31.8639 25.8981 31.8912 26.1353 31.9661C26.6212 32.1171 27.3431 32.4803 28.224 33.0093C28.9505 33.4429 29.2229 33.6563 29.4318 33.948C29.5737 34.1297 29.6679 34.3862 29.6327 34.4657H29.6338ZM38.9329 33.1591C38.9215 33.2227 38.7365 33.4111 38.5503 33.5496C38.0055 33.948 37.0304 34.3192 36.0394 34.4974C35.4752 34.5996 34.9111 34.6155 34.7408 34.5326C34.6307 34.477 34.6148 34.4339 34.6545 34.292C34.7374 33.9968 35.0064 33.6722 35.4242 33.368C35.6376 33.2136 36.5025 32.6892 36.9044 32.4678C37.5673 32.1046 38.1042 31.8889 38.4675 31.8367C38.5821 31.8208 38.7206 31.8162 38.7637 31.8367C38.8352 31.8639 38.9136 32.0739 38.9453 32.3259C38.9612 32.4599 38.9533 33.0524 38.934 33.1591H38.9329ZM38.2779 26.2234L38.2699 26.2189C37.9088 25.9235 37.5203 25.6632 37.1098 25.4413C39.7195 22.4412 41.3325 22.2754 41.3325 22.2754C41.5107 22.5161 41.6254 22.8237 41.689 23.179C42.0556 25.287 40.631 28.9818 40.631 28.9818C40.033 27.9184 39.2338 26.9815 38.2779 26.2234Z" fill="#FFA409"/>
<path id="Vector_7" d="M41.694 23.1809C41.3853 23.1423 39.9289 23.1344 38.2784 26.2253L38.2705 26.2208C37.9093 25.9254 37.5208 25.6651 37.1104 25.4432C39.72 22.4431 41.3331 22.2773 41.3331 22.2773C41.5147 22.518 41.6305 22.8256 41.6929 23.1809H41.694Z" fill="#FF9300"/>
<path id="Vector_8" d="M40.6349 28.9815C40.0368 27.9168 39.2362 26.9793 38.2783 26.222C39.9288 23.131 41.3818 23.1389 41.6928 23.1775C42.0606 25.29 40.6349 28.9815 40.6349 28.9815ZM41.7518 23.1889L41.6928 23.1775L41.7518 23.1889Z" fill="#FF8300"/>
<path id="Vector_9" d="M27.0124 25.4432C27.0124 25.4432 26.4994 25.693 25.8126 26.2208C25.8126 26.2208 25.8081 26.2253 25.8047 26.2253C24.0951 23.1298 22.59 23.1423 22.2676 23.1809C22.33 22.8256 22.4492 22.5146 22.6342 22.2773C22.6388 22.2773 24.312 22.4431 27.0124 25.4444V25.4432Z" fill="#FF9300"/>
<path id="Vector_10" d="M25.809 26.222C24.8231 26.9728 23.9942 27.91 23.3696 28.9803C23.3696 28.9803 21.8939 25.29 22.2719 23.1775C22.592 23.1389 24.0995 23.131 25.809 26.222Z" fill="#FF8300"/>
<path id="Vector_11" d="M22.2716 23.1816L22.208 23.193L22.2704 23.1816H22.2716Z" fill="#FF8300"/>
<path id="Vector_12" d="M36.6404 31.034C36.6404 31.034 35.377 31.1124 35.5348 30.1259C35.6937 29.1384 36.6801 29.0203 36.956 29.0589C37.2329 29.0986 38.3374 29.4937 38.1411 30.3234C37.9435 31.1521 37.6666 30.9932 37.5088 31.034C37.351 31.0726 36.6404 31.034 36.6404 31.034ZM27.3232 31.034C27.3232 31.034 26.0609 31.1124 26.2187 30.1259C26.3776 29.1384 27.3629 29.0203 27.6399 29.0589C27.9158 29.0986 29.0214 29.4937 28.8239 30.3234C28.6263 31.1521 28.3505 30.9932 28.1927 31.034C28.0338 31.0726 27.3243 31.034 27.3243 31.034H27.3232Z" fill="white"/>
</g>
</g>
<defs>
<clipPath id="clip0_103_1633">
<rect width="64" height="64" fill="white"/>
</clipPath>
</defs>
</svg>
