<svg width="64" height="64" viewBox="0 0 64 64" fill="none" xmlns="http://www.w3.org/2000/svg">
<g id="currency__icon_7.svg" clip-path="url(#clip0_101_1389)">
<path id="Vector" opacity="0.16" d="M64 32C64 14.3269 49.6731 0 32 0C14.3269 0 0 14.3269 0 32C0 49.6731 14.3269 64 32 64C49.6731 64 64 49.6731 64 32Z" fill="#9B93F3"/>
<path id="Vector_2" d="M32.335 53.6667C44.118 53.6667 53.67 44.1154 53.67 32.3333C53.67 20.5513 44.118 11 32.335 11C20.552 11 11 20.5513 11 32.3333C11 44.1154 20.552 53.6667 32.335 53.6667Z" fill="#9B93F3"/>
<g id="Group">
<g id="Group_2">
<path id="Vector_3" d="M25.5759 23.1719L42.8031 34.9345L38.5426 41.2326L21.3154 29.3774L25.5759 23.1719Z" fill="url(#paint0_linear_101_1389)"/>
<path id="Vector_4" d="M42.8027 34.9334C41.3208 37.0636 36.3194 36.2301 31.5958 32.8958C26.7796 29.6541 24.1863 25.301 25.5755 23.1708C27.0575 21.0405 32.0589 21.8741 36.7825 25.2084C41.5986 28.3575 44.192 32.8032 42.8027 34.9334Z" fill="url(#paint1_linear_101_1389)"/>
<path id="Vector_5" d="M38.5426 41.1393C37.0607 43.2695 32.0592 42.436 27.3357 39.1017C22.6121 35.7674 19.9261 31.5069 21.408 29.2841C22.8899 27.1538 27.8914 27.9874 32.615 31.3217C37.3385 34.656 39.9319 39.0091 38.5426 41.1393Z" fill="url(#paint2_linear_101_1389)"/>
<path id="Vector_6" d="M42.8029 34.9328L38.5424 41.2309C37.0605 43.3612 32.0591 42.435 27.3355 39.1933C26.4093 38.545 25.5758 37.8966 24.7422 37.1557C25.3905 37.0631 26.2241 36.6926 27.0577 35.7664C28.5396 34.1919 29.2805 33.8214 29.9289 33.914C30.5772 33.914 31.3181 34.5623 32.5222 36.1369C33.7262 37.7114 35.3934 38.1745 36.4122 37.3409C36.5048 37.2483 36.5974 37.2483 36.69 37.1557C37.5236 36.5073 37.8015 36.2295 39.376 33.2657C39.7465 32.5247 41.0431 31.3207 42.8029 31.8764C43.266 33.0804 43.266 34.0993 42.8029 34.9328Z" fill="#0E0F23"/>
<path id="Vector_7" fill-rule="evenodd" clip-rule="evenodd" d="M42.1544 34.5624C40.8577 36.4148 36.3194 35.4886 31.9663 32.4322C27.5206 29.3757 24.9273 25.4857 26.2239 23.6334C27.5206 21.781 32.0589 22.7072 36.412 25.7636C40.7651 28.82 43.3585 32.71 42.1544 34.5624ZM38.0792 31.7838C37.4308 32.71 35.208 32.2469 32.9851 30.765C30.8549 29.2831 29.5582 27.3381 30.2065 26.4119C30.8549 25.4857 33.0777 25.9488 35.3006 27.4307C37.4308 28.9127 38.7275 30.8577 38.0792 31.7838Z" fill="white"/>
<path id="Vector_8" d="M25.2054 25.3009C25.2054 25.2083 25.1128 25.1157 25.0202 25.2083C24.9276 25.3009 24.835 25.3009 24.835 25.3935C24.9276 25.6714 25.0202 25.8566 25.0202 26.0419C25.0202 26.1345 25.1128 26.2271 25.2054 26.1345C25.2981 26.1345 25.3907 26.0419 25.2981 25.9492C25.2981 25.764 25.2981 25.5788 25.2054 25.3009Z" fill="white"/>
<path id="Vector_9" d="M25.6685 26.7833C25.6685 26.6907 25.5759 26.5981 25.4832 26.6907C25.3906 26.7833 25.3906 26.7833 25.3906 26.8759C26.4094 29.1914 28.5397 31.6921 31.3182 33.5445C31.4109 33.6371 31.5035 33.5445 31.5961 33.5445C31.6887 33.4519 31.5961 33.3593 31.5961 33.2667C28.7249 31.4143 26.6873 29.0062 25.6685 26.7833Z" fill="white"/>
<path id="Vector_10" d="M36.8757 35.8594C36.783 35.8594 36.6904 35.8594 36.6904 35.952C36.6904 36.0446 36.6904 36.1372 36.783 36.1372C37.0609 36.2299 37.4314 36.3225 37.7092 36.4151C37.8019 36.4151 37.8945 36.4151 37.8945 36.3225C37.8945 36.2299 37.8945 36.1372 37.8019 36.1372C37.524 36.0446 37.1535 35.952 36.8757 35.8594Z" fill="white"/>
<path id="Vector_11" d="M38.5427 36.2305C38.45 36.2305 38.3574 36.3231 38.3574 36.4157C38.3574 36.5083 38.45 36.6009 38.5427 36.6009C39.2836 36.6936 40.1172 36.7862 40.7655 36.6936C40.8581 36.6936 40.9508 36.6009 40.9508 36.5083C40.9508 36.4157 40.8581 36.3231 40.7655 36.3231C40.0246 36.4157 39.2836 36.3231 38.5427 36.2305Z" fill="white"/>
</g>
</g>
</g>
<defs>
<linearGradient id="paint0_linear_101_1389" x1="28.9511" y1="21.4995" x2="32.3675" y2="33.2308" gradientUnits="userSpaceOnUse">
<stop stop-color="#03B8FF"/>
<stop offset="1" stop-color="#FA52A0"/>
</linearGradient>
<linearGradient id="paint1_linear_101_1389" x1="31.7642" y1="20.679" x2="35.1806" y2="32.4104" gradientUnits="userSpaceOnUse">
<stop stop-color="#03B8FF"/>
<stop offset="1" stop-color="#FA52A0"/>
</linearGradient>
<linearGradient id="paint2_linear_101_1389" x1="26.1464" y1="22.3155" x2="29.5629" y2="34.0469" gradientUnits="userSpaceOnUse">
<stop stop-color="#03B8FF"/>
<stop offset="1" stop-color="#FA52A0"/>
</linearGradient>
<clipPath id="clip0_101_1389">
<rect width="64" height="64" fill="white"/>
</clipPath>
</defs>
</svg>
