<svg width="64" height="64" viewBox="0 0 64 64" fill="none" xmlns="http://www.w3.org/2000/svg">
<g id="Group 69">
<path id="Vector" d="M64 32C64 14.3269 49.6731 0 32 0C14.3269 0 0 14.3269 0 32C0 49.6731 14.3269 64 32 64C49.6731 64 64 49.6731 64 32Z" fill="#C63127" fill-opacity="0.2"/>
<path id="Vector_2" d="M32.0004 50.2843C42.0992 50.2843 50.286 42.0975 50.286 31.9986C50.286 21.8997 42.0992 13.7129 32.0004 13.7129C21.9016 13.7129 13.7148 21.8997 13.7148 31.9986C13.7148 42.0975 21.9016 50.2843 32.0004 50.2843Z" fill="#C63127"/>
<path id="Tron" fill-rule="evenodd" clip-rule="evenodd" d="M21 22L30.1925 45L43 29.4827L38.4657 25.1962L21 22ZM24.2589 23.8295L36.8482 26.1338L31.9615 30.1826L24.2589 23.8295ZM23.3858 24.6853L31.4133 31.3065L30.1582 41.6314L23.3858 24.6853ZM38.1846 26.6043L40.8562 29.1302L33.5493 30.4461L38.1846 26.6043ZM32.5752 31.8543L40.6667 30.3975L31.3857 41.6423L32.5752 31.8543Z" fill="white"/>
</g>
</svg>
