<svg width="64" height="64" viewBox="0 0 64 64" fill="none" xmlns="http://www.w3.org/2000/svg">
<g id="miners_icon_16.svg" clip-path="url(#clip0_103_1620)">
<path id="Vector" d="M31.9996 50.2863C42.0985 50.2863 50.2853 42.0995 50.2853 32.0006C50.2853 21.9017 42.0985 13.7148 31.9996 13.7148C21.9007 13.7148 13.7139 21.9017 13.7139 32.0006C13.7139 42.0995 21.9007 50.2863 31.9996 50.2863Z" fill="#2E3148"/>
<path id="Vector_2" d="M32.0229 20.0352C30.5428 20.0352 29.3428 25.4031 29.3428 32.0237C29.3428 38.6442 30.5428 44.0123 32.0229 44.0123C33.5017 44.0123 34.7017 38.6442 34.7017 32.0237C34.7017 25.4031 33.5017 20.0352 32.0229 20.0352ZM32.208 43.3345C32.0389 43.5608 31.8685 43.3917 31.8685 43.3917C31.1873 42.6008 30.8468 41.1346 30.8468 41.1346C29.6548 37.2979 29.9383 29.0614 29.9383 29.0614C30.4983 22.5231 31.5177 20.9779 31.8639 20.6351C31.8994 20.5999 31.9462 20.5784 31.996 20.5744C32.0459 20.5705 32.0954 20.5843 32.1359 20.6134C32.6388 20.9711 33.0616 22.4614 33.0616 22.4614C34.3073 27.0877 34.1943 31.4305 34.1943 31.4305C34.3073 35.2111 33.5703 39.4419 33.5703 39.4419C33.0022 42.6579 32.208 43.3345 32.208 43.3345Z" fill="white"/>
<path id="Vector_3" d="M42.4208 26.0561C41.6837 24.7715 36.4322 26.4025 30.687 29.6973C24.9419 32.9922 20.8893 36.703 21.6241 37.9875C22.3613 39.2721 27.6139 37.6413 33.359 34.3464C39.1042 31.0516 43.1568 27.3396 42.4208 26.0561ZM22.303 37.8105C22.0218 37.7762 22.0858 37.543 22.0858 37.543C22.431 36.5602 23.5327 35.5339 23.5327 35.5339C26.2676 32.591 33.5545 28.7385 33.5545 28.7385C39.5042 25.9705 41.3523 26.087 41.8208 26.215C41.8692 26.2283 41.9112 26.2583 41.9396 26.2998C41.9677 26.3412 41.9804 26.3913 41.9751 26.4413C41.9179 27.055 40.8322 28.1635 40.8322 28.1635C37.4425 31.5476 33.6185 33.6127 33.6185 33.6127C30.3956 35.5921 26.3578 37.0562 26.3578 37.0562C23.2858 38.1625 22.303 37.8105 22.303 37.8105Z" fill="white"/>
<path id="Vector_4" d="M42.3946 38.0308C43.1374 36.7508 39.095 33.0216 33.3683 29.7017C27.6426 26.3828 22.3923 24.7325 21.6505 26.0148C20.9076 27.2982 24.9511 31.0239 30.679 34.344C36.4083 37.6628 41.6528 39.3131 42.3946 38.0308ZM22.1431 26.5096C22.0322 26.249 22.2643 26.1863 22.2643 26.1863C23.2893 25.992 24.7293 26.4342 24.7293 26.4342C28.646 27.3256 35.6299 31.7005 35.6299 31.7005C41.0071 35.4628 41.8323 37.1211 41.9557 37.5908C41.9682 37.6391 41.9632 37.6901 41.9417 37.7352C41.9202 37.7802 41.8833 37.816 41.8379 37.8365C41.2779 38.0936 39.7751 37.7108 39.7751 37.7108C35.1466 36.4697 31.4448 34.1965 31.4448 34.1965C28.119 32.4022 24.8299 29.6423 24.8299 29.6423C22.3306 27.5371 22.1442 26.5108 22.1442 26.5108L22.1431 26.5096Z" fill="white"/>
<path id="Vector_5" d="M31.9943 33.4046C32.7731 33.4046 33.4046 32.7731 33.4046 31.9943C33.4046 31.2153 32.7731 30.584 31.9943 30.584C31.2154 30.584 30.584 31.2153 30.584 31.9943C30.584 32.7731 31.2154 33.4046 31.9943 33.4046Z" fill="white"/>
<path id="Vector_6" d="M37.7766 27.7213C38.4078 27.7213 38.9195 27.2096 38.9195 26.5784C38.9195 25.9472 38.4078 25.4355 37.7766 25.4355C37.1455 25.4355 36.6338 25.9472 36.6338 26.5784C36.6338 27.2096 37.1455 27.7213 37.7766 27.7213Z" fill="white"/>
<path id="Vector_7" d="M24.3499 30.5982C24.9811 30.5982 25.4927 30.0867 25.4927 29.4554C25.4927 28.8242 24.9811 28.3125 24.3499 28.3125C23.7187 28.3125 23.207 28.8242 23.207 29.4554C23.207 30.0867 23.7187 30.5982 24.3499 30.5982Z" fill="white"/>
<path id="Vector_8" d="M30.3304 40.9791C30.9615 40.9791 31.4732 40.4674 31.4732 39.8362C31.4732 39.2051 30.9615 38.6934 30.3304 38.6934C29.6992 38.6934 29.1875 39.2051 29.1875 39.8362C29.1875 40.4674 29.6992 40.9791 30.3304 40.9791Z" fill="white"/>
<path id="Vector_9" d="M32 64C49.6731 64 64 49.6731 64 32C64 14.3269 49.6731 0 32 0C14.3269 0 0 14.3269 0 32C0 49.6731 14.3269 64 32 64Z" fill="#FF007A" fill-opacity="0.2"/>
<g id="Group 7">
<path id="Vector_10" d="M32.0001 50.1622C42.0307 50.1622 50.1622 42.0307 50.1622 32.0001C50.1622 21.9694 42.0307 13.8379 32.0001 13.8379C21.9694 13.8379 13.8379 21.9694 13.8379 32.0001C13.8379 42.0307 21.9694 50.1622 32.0001 50.1622Z" fill="#FF007A"/>
<g id="Vector_11">
<path d="M27.7381 19.6088C27.4146 19.5589 27.4009 19.552 27.553 19.5293C27.8448 19.4839 28.5349 19.5464 29.0106 19.6587C30.1196 19.9232 31.1287 20.5986 32.2071 21.7985L32.4932 22.1163L32.9018 22.0516C34.6272 21.7735 36.3833 21.9949 37.851 22.6725C38.2551 22.8587 38.8919 23.2299 38.9714 23.3264C38.9975 23.3559 39.044 23.5523 39.0747 23.7611C39.1836 24.4842 39.1292 25.0382 38.9089 25.4525C38.7886 25.6772 38.7818 25.7476 38.8624 25.9406C38.9006 26.0203 38.9605 26.0877 39.0352 26.135C39.1098 26.1824 39.1963 26.2078 39.2847 26.2085C39.6502 26.2085 40.0429 25.6182 40.2246 24.7975L40.2972 24.4717L40.4402 24.634C41.2257 25.524 41.8421 26.7374 41.9477 27.6002L41.9761 27.826L41.8433 27.6217C41.6162 27.2698 41.3892 27.0292 41.0963 26.8351C40.5696 26.4866 40.0123 26.3685 38.5366 26.2902C37.204 26.2198 36.4491 26.1063 35.7022 25.8623C34.4297 25.4479 33.7883 24.8951 32.2763 22.912C31.6055 22.0312 31.19 21.5442 30.778 21.1526C29.8392 20.2604 28.9175 19.7927 27.7381 19.6088Z" fill="white"/>
<path d="M39.3525 22.241C39.3865 21.6507 39.466 21.2614 39.6272 20.9061C39.6908 20.7653 39.7509 20.6495 39.76 20.6495C39.7499 20.7292 39.7289 20.8071 39.6976 20.8811C39.5806 21.2262 39.5614 21.6984 39.6419 22.2467C39.7441 22.9437 39.8031 23.0435 40.5387 23.7961C40.8849 24.1492 41.2868 24.5941 41.4321 24.786L41.6965 25.1333L41.4321 24.8847C41.1085 24.5817 40.3639 23.988 40.1993 23.904C40.0892 23.8472 40.0722 23.8484 40.0041 23.9153C39.9416 23.9789 39.928 24.072 39.9201 24.5158C39.9064 25.206 39.8122 25.651 39.5841 26.0937C39.4615 26.332 39.4422 26.2821 39.5534 26.0108C39.6363 25.8087 39.6442 25.7202 39.6442 25.0516C39.6442 23.7076 39.4842 23.3852 38.5477 22.8313C38.2659 22.6678 37.9765 22.5178 37.6804 22.3818C37.5342 22.3231 37.3923 22.254 37.2559 22.1752C37.282 22.1491 38.1946 22.4147 38.5613 22.5566C39.1084 22.7666 39.1981 22.7938 39.2651 22.7677C39.3094 22.7507 39.3309 22.6213 39.3525 22.241ZM28.4472 24.5397C27.79 23.635 27.3836 22.2467 27.471 21.2092L27.4983 20.8879L27.6481 20.9152C27.9296 20.9662 28.4143 21.1467 28.6414 21.2852C29.2634 21.6632 29.5336 22.1615 29.8071 23.4397C29.8877 23.8143 29.9933 24.2377 30.0421 24.3819C30.1193 24.6123 30.4144 25.1515 30.6551 25.5022C30.8276 25.7542 30.7118 25.8734 30.3304 25.8394C29.747 25.786 28.9569 25.2412 28.4472 24.5397ZM38.5556 31.2767C35.4828 30.0394 34.401 28.9655 34.401 27.1539C34.401 26.8871 34.4101 26.6692 34.4203 26.6692C34.4317 26.6692 34.5509 26.7566 34.6848 26.8644C35.308 27.3639 36.0061 27.5773 37.937 27.8588C39.0732 28.0257 39.7135 28.1596 40.3037 28.3548C42.179 28.9769 43.3391 30.2392 43.6161 31.9578C43.6955 32.4572 43.649 33.3937 43.5184 33.8875C43.4163 34.278 43.1018 34.9806 43.019 35.0079C42.9963 35.0147 42.9736 34.9273 42.9668 34.8058C42.935 34.1611 42.6092 33.5322 42.0609 33.0611C41.4377 32.5265 40.6023 32.0997 38.5556 31.2767ZM36.3989 31.7898C36.3626 31.5705 36.3129 31.3537 36.2502 31.1405L36.1707 30.9066L36.3171 31.0701C36.5181 31.2971 36.6781 31.5854 36.8121 31.9714C36.9154 32.2654 36.9267 32.3528 36.9256 32.8307C36.9256 33.3006 36.9131 33.3982 36.8177 33.6639C36.6852 34.0534 36.4632 34.4064 36.1696 34.6946C35.6077 35.2667 34.8869 35.5822 33.8448 35.7139C33.6632 35.7366 33.1365 35.7752 32.6722 35.7991C31.503 35.8604 30.7345 35.9852 30.0432 36.2281C29.9809 36.2561 29.9139 36.2722 29.8457 36.2758C29.8185 36.2474 30.2884 35.9671 30.6778 35.7798C31.2261 35.5153 31.7709 35.3711 32.9935 35.1679C33.5974 35.0669 34.2217 34.9454 34.3795 34.8966C35.8756 34.438 36.6452 33.2552 36.3989 31.7898Z" fill="white"/>
<path d="M37.0693 34.6696C36.6607 33.7921 36.5676 32.9442 36.7912 32.1541C36.815 32.0701 36.8536 32.0009 36.8763 32.0009C36.9532 32.0287 37.0255 32.0677 37.0909 32.1167C37.2793 32.2438 37.6562 32.4572 38.6608 33.0044C39.9151 33.6888 40.6302 34.2189 41.1172 34.8228C41.5429 35.3529 41.8062 35.9568 41.9334 36.6924C42.0049 37.109 41.9629 38.1113 41.8562 38.5313C41.519 39.8549 40.7347 40.8947 39.6177 41.5008C39.5123 41.5618 39.4031 41.616 39.2908 41.6632C39.2749 41.6632 39.3339 41.5122 39.4236 41.326C39.7982 40.5405 39.8424 39.7754 39.5575 38.9241C39.3838 38.4031 39.0285 37.7662 38.3123 36.6924C37.4791 35.4438 37.2748 35.11 37.0693 34.6696ZM25.5284 39.4042C26.6692 38.4417 28.087 37.7583 29.3799 37.5483C29.9361 37.4575 30.8647 37.4938 31.38 37.6255C32.2064 37.8366 32.9465 38.3111 33.3313 38.8753C33.7059 39.4269 33.8682 39.9082 34.0351 40.9775C34.1032 41.3998 34.1747 41.8232 34.1963 41.9197C34.3211 42.4736 34.5675 42.9175 34.8717 43.14C35.3541 43.493 36.1862 43.5146 37.0035 43.1967C37.0889 43.1575 37.1789 43.1293 37.2714 43.1127C37.3009 43.1422 36.89 43.4181 36.5994 43.5634C36.2564 43.7469 35.8724 43.8399 35.4835 43.8335C34.7343 43.8335 34.1123 43.4533 33.5935 42.6757C33.4914 42.5225 33.2621 42.065 33.0827 41.6575C32.5356 40.4088 32.2654 40.0274 31.6297 39.6108C31.0747 39.2476 30.3607 39.1829 29.8237 39.4462C29.1177 39.7925 28.9213 40.6949 29.4264 41.2659C29.6274 41.4929 30.002 41.6893 30.3084 41.7267C30.4421 41.7444 30.5781 41.7333 30.7071 41.6939C30.8361 41.6546 30.9551 41.588 31.0562 41.4987C31.1572 41.4093 31.2379 41.2994 31.2928 41.1762C31.3477 41.053 31.3755 40.9194 31.3743 40.7846C31.3743 40.4077 31.229 40.1943 30.8658 40.0297C30.3697 39.8061 29.8362 40.0672 29.8385 40.5337C29.8396 40.7324 29.9259 40.8572 30.1257 40.948C30.254 41.0048 30.2562 41.0105 30.1518 40.9889C29.6966 40.8935 29.5899 40.3453 29.9565 39.9809C30.3958 39.5427 31.3051 39.7357 31.6172 40.3328C31.7489 40.5837 31.7637 41.0842 31.649 41.3862C31.3936 42.0616 30.6467 42.4158 29.8896 42.2228C29.3742 42.0911 29.1642 41.9492 28.5433 41.309C27.4638 40.1966 27.0449 39.9809 25.4875 39.738L25.189 39.6914L25.5284 39.4042Z" fill="white"/>
<path fill-rule="evenodd" clip-rule="evenodd" d="M20.6484 17.4303L20.7574 17.5631C24.9665 22.7166 27.1414 25.391 27.2799 25.5817C27.5069 25.8973 27.4218 26.1799 27.0313 26.4024C26.8145 26.5261 26.3672 26.651 26.1448 26.651C25.8916 26.651 25.6067 26.5295 25.399 26.3332C25.2525 26.1935 24.6611 25.3104 23.2956 23.1911C22.6561 22.1895 22.0083 21.1932 21.3522 20.2023C21.2966 20.1501 21.2977 20.1512 23.1889 23.5351C24.3762 25.66 24.7781 26.4104 24.7781 26.5114C24.7781 26.7157 24.7213 26.8224 24.4693 27.1039C24.0493 27.5727 23.862 28.0994 23.7258 29.1892C23.5737 30.4117 23.1469 31.2744 21.9618 32.7512C21.2694 33.6162 21.1558 33.7751 20.9799 34.1236C20.7597 34.5618 20.6995 34.8081 20.6745 35.362C20.6484 35.9478 20.6995 36.3269 20.8789 36.8865C21.0355 37.3769 21.199 37.7015 21.6167 38.3486C21.9777 38.9082 22.1854 39.3237 22.1854 39.486C22.1854 39.6154 22.2104 39.6154 22.77 39.4894C24.1083 39.1874 25.1947 38.6551 25.8065 38.0035C26.1845 37.6005 26.273 37.378 26.2764 36.8252C26.2776 36.4642 26.2651 36.3882 26.1675 36.1805C26.0085 35.8422 25.7191 35.5607 25.0811 35.1248C24.2445 34.5527 23.8881 34.0918 23.7894 33.4595C23.7076 32.9408 23.8018 32.5741 24.265 31.6047C24.7429 30.6013 24.8621 30.1745 24.9427 29.1631C24.9937 28.5092 25.0652 28.2515 25.2537 28.045C25.4489 27.8293 25.626 27.7555 26.1107 27.6897C26.9008 27.5818 27.4036 27.3775 27.8168 26.9972C28.1755 26.6658 28.3254 26.3468 28.3481 25.8678L28.3662 25.5045L28.1653 25.2707C27.877 24.9347 25.4921 22.3034 21.0094 17.3747L20.8891 17.2441L20.6484 17.4303ZM22.5941 36.0261C22.6733 35.8859 22.6969 35.721 22.6603 35.5642C22.6237 35.4074 22.5296 35.27 22.3965 35.1793C22.1377 35.0067 21.7348 35.0885 21.7348 35.3132C21.7348 35.3813 21.7722 35.4313 21.8574 35.4755C22.0015 35.5493 22.0117 35.6333 21.8994 35.8025C21.7847 35.975 21.7938 36.1271 21.9255 36.2304C22.1366 36.3961 22.4351 36.3042 22.5941 36.0261ZM28.8645 27.8804C28.4934 27.9939 28.1335 28.3878 28.0211 28.7998C27.953 29.0507 27.9916 29.4922 28.0938 29.6285C28.2584 29.8487 28.4184 29.9066 28.8498 29.9032C29.6943 29.8975 30.4276 29.5354 30.5139 29.0825C30.5843 28.7113 30.2608 28.1971 29.8169 27.97C29.5876 27.8542 29.1007 27.8077 28.8645 27.8804ZM29.8521 28.6522C29.9827 28.4672 29.9248 28.2663 29.7045 28.1324C29.2823 27.8747 28.6443 28.087 28.6443 28.4865C28.6443 28.684 28.9769 28.9008 29.2811 28.9008C29.4855 28.9008 29.7624 28.7794 29.8521 28.6522Z" fill="white"/>
</g>
</g>
</g>
<defs>
<clipPath id="clip0_103_1620">
<rect width="64" height="64" fill="white"/>
</clipPath>
</defs>
</svg>
