<svg width="64" height="64" viewBox="0 0 64 64" fill="none" xmlns="http://www.w3.org/2000/svg">
<g id="Group 68">
<path id="Vector" opacity="0.16" d="M64 32C64 14.3269 49.6731 0 32 0C14.3269 0 0 14.3269 0 32C0 49.6731 14.3269 64 32 64C49.6731 64 64 49.6731 64 32Z" fill="#4BCF51"/>
<g id="Group 76">
<path id="Vector_2" d="M32 53C43.598 53 53 43.598 53 32C53 20.402 43.598 11 32 11C20.402 11 11 20.402 11 32C11 43.598 20.402 53 32 53Z" fill="#50AF95"/>
<g id="Layer 2">
<g id="Layer 1">
<g id="Layer_1">
<path id="Vector_3" fill-rule="evenodd" clip-rule="evenodd" d="M34.6348 33.0441C34.4969 33.0556 33.783 33.1016 32.1936 33.1016C30.9273 33.1016 30.0288 33.0671 29.7063 33.0441C24.8129 32.8258 21.1628 31.9733 21.1628 30.9598C21.1628 29.9464 24.8129 29.0831 29.7063 28.8647V32.1923C30.0256 32.2153 30.9388 32.2727 32.2051 32.2727C33.7249 32.2727 34.4848 32.2038 34.6233 32.1923V28.8647C39.5052 29.0831 43.1553 29.9356 43.1553 30.9483C43.1553 31.9611 39.5155 32.8258 34.6348 33.0441ZM34.6348 28.5307V25.5479H41.4516V21H22.8902V25.5479H29.7063V28.5307C24.168 28.7861 20 29.8775 20 31.2019C20 32.5263 24.168 33.6086 29.7063 33.873V43.4191H34.6348V33.873C40.1617 33.6176 44.3188 32.5256 44.3188 31.2134C44.3188 29.9011 40.1617 28.7836 34.6348 28.5313V28.5307Z" fill="white"/>
</g>
</g>
</g>
</g>
</g>
</svg>
