<svg width="64" height="64" viewBox="0 0 64 64" fill="none" xmlns="http://www.w3.org/2000/svg">
<g id="currency__icon_7.svg" clip-path="url(#clip0_103_1616)">
<path id="Vector" opacity="0.16" d="M63.3451 32C63.3451 14.3269 49.1659 0 31.675 0C14.1841 0 0.00488281 14.3269 0.00488281 32C0.00488281 49.6731 14.1841 64 31.675 64C49.1659 64 63.3451 49.6731 63.3451 32Z" fill="white"/>
<path id="Vector_2" d="M31.6749 53.3327C43.3355 53.3327 52.7883 43.7814 52.7883 31.9993C52.7883 20.2173 43.3355 10.666 31.6749 10.666C20.0143 10.666 10.5615 20.2173 10.5615 31.9993C10.5615 43.7814 20.0143 53.3327 31.6749 53.3327Z" fill="white"/>
<path id="Layer 1" d="M41.0664 23.6986L37.734 25.329L21.6421 33.2002C21.5877 32.8016 21.5603 32.4001 21.5602 31.9981C21.5624 30.3943 22.0008 28.8189 22.8322 27.4279C23.6635 26.0369 24.8588 24.8786 26.2997 24.0677C27.7406 23.2568 29.3771 22.8215 31.0471 22.8049C32.7171 22.7883 34.3626 23.1909 35.8207 23.9729L37.7281 23.0397L38.0126 22.9002C36.2653 21.6823 34.2014 20.9521 32.0489 20.7902C29.8965 20.6283 27.7393 21.0411 25.8159 21.9829C23.8924 22.9247 22.2776 24.3589 21.1498 26.127C20.0221 27.8951 19.4254 29.9281 19.4256 32.0015C19.4256 32.2879 19.4369 32.5731 19.4595 32.8572C19.4913 33.2595 19.3983 33.6619 19.1925 34.0136C18.9866 34.3654 18.6771 34.6508 18.3027 34.834L17.2969 35.3265V37.6237L20.2581 36.1743L21.2171 35.7043L22.162 35.2422L39.1262 26.9415L41.0324 26.0093L44.9725 24.0809V21.7848L41.0664 23.6986ZM44.9725 26.3793L23.1257 37.0615L21.2194 37.9959L17.2969 39.9154V42.2104L21.1925 40.3044L24.5249 38.674L40.6332 30.7916C40.6876 31.1928 40.715 31.5969 40.7151 32.0015C40.7141 33.6072 40.2757 35.1847 39.4436 36.5773C38.6115 37.97 37.4145 39.1295 35.9715 39.9406C34.5286 40.7518 32.8897 41.1864 31.2178 41.2013C29.5459 41.2162 27.8989 40.8108 26.4405 40.0256L26.3234 40.0852L24.2556 41.0972C26.0025 42.3151 28.066 43.0456 30.2182 43.2078C32.3703 43.3701 34.5272 42.9579 36.4507 42.0167C38.3741 41.0755 39.9892 39.642 41.1174 37.8746C42.2457 36.1071 42.8431 34.0746 42.8438 32.0015C42.8438 31.7125 42.8321 31.4235 42.8099 31.1379C42.7782 30.7357 42.871 30.3335 43.0766 29.9818C43.2823 29.6301 43.5915 29.3446 43.9656 29.1611L44.9725 28.6686V26.3793Z" fill="black"/>
</g>
<defs>
<clipPath id="clip0_103_1616">
<rect width="64" height="64" fill="white"/>
</clipPath>
</defs>
</svg>
