<svg width="64" height="64" viewBox="0 0 64 64" fill="none" xmlns="http://www.w3.org/2000/svg">
<path opacity="0.16" d="M64 32C64 14.3269 49.6731 0 32 0C14.3269 0 0 14.3269 0 32C0 49.6731 14.3269 64 32 64C49.6731 64 64 49.6731 64 32Z" fill="#E37F06"/>
<path d="M53 32.0458C52.9953 43.7076 43.6583 53.0081 31.9636 53C20.3303 52.992 10.9936 43.6136 11 31.9429C11.0064 20.332 20.4657 10.9829 32.1897 11C43.6709 11.0169 53.0047 20.4562 53 32.0458ZM48.3746 31.7555C48.1741 27.301 46.6914 23.3957 43.4905 20.2709C39.3168 16.1965 34.2949 15.0211 28.6953 15.9421C22.3927 16.9787 15.4919 23.1469 15.6411 32.2832C15.7846 41.0709 22.9799 48.344 32.021 48.3027C41.2562 48.2606 48.5201 40.7471 48.3746 31.7555Z" fill="#030302"/>
<path d="M48.3736 31.7558C48.52 40.7469 41.2562 48.2604 32.0209 48.3026C22.9799 48.3438 15.7845 41.0708 15.641 32.2831C15.4918 23.1468 22.3927 16.9785 28.6952 15.9419C34.2948 15.0209 39.3168 16.1963 43.4905 20.2708C46.6914 23.3955 48.174 27.3009 48.3736 31.7558Z" fill="#DEA038"/>
<path d="M29.7309 42.0113C27.8077 42.0113 26.0374 42.0113 24.2504 42.0113C23.8955 39.896 24.1475 38.0676 25.5628 36.357C28.0494 33.3513 30.0842 29.982 32.8267 26.921C30.0628 26.921 27.4912 26.921 24.8583 26.921C24.8583 25.2612 24.8583 23.6938 24.8583 22.0111C26.4319 22.0111 28.0242 22.0111 29.6967 22.0111C29.6967 20.7464 29.6967 19.5936 29.6967 18.375C31.2069 18.375 32.636 18.375 34.1745 18.375C34.1745 19.5516 34.1745 20.7263 34.1745 21.9917C36.0162 21.9917 37.7518 21.9917 39.5472 21.9917C39.5722 23.9924 39.7732 25.7909 38.3571 27.5238C35.8908 30.5419 33.8389 33.8995 31.1849 37.0448C34.1847 37.0448 37.0045 37.0448 39.8644 37.0448C39.8644 38.7324 39.8644 40.3046 39.8644 41.9722C38.0015 41.9722 36.1556 41.9722 34.2199 41.9722C34.2199 43.1894 34.2199 44.314 34.2199 45.499C32.6955 45.499 31.2612 45.499 29.7308 45.499C29.7309 44.3741 29.7309 43.2504 29.7309 42.0113Z" fill="#030302"/>
</svg>
