<svg width="46" height="45" viewBox="0 0 46 45" fill="none" xmlns="http://www.w3.org/2000/svg">
<g clip-path="url(#clip0_66_143)">
<mask id="mask0_66_143" style="mask-type:luminance" maskUnits="userSpaceOnUse" x="0" y="0" width="45" height="45">
<path d="M44.2796 0.489258H0.257812V44.511H44.2796V0.489258Z" fill="white"/>
</mask>
<g mask="url(#mask0_66_143)">
<path d="M43.3616 37.084H29.8118C29.5528 37.084 29.3428 36.8741 29.3428 36.615V34.4455C29.3428 34.1865 29.5527 33.9766 29.8118 33.9766H43.3616C43.6206 33.9766 43.8306 34.1865 43.8306 34.4455V36.615C43.8306 36.874 43.6207 37.084 43.3616 37.084Z" fill="url(#paint0_linear_66_143)"/>
<path d="M41.6416 37.084H31.5318C31.3069 37.084 31.1245 36.9018 31.1245 36.6768V34.3838C31.1245 34.1589 31.3068 33.9766 31.5318 33.9766H41.6416C41.8664 33.9766 42.0488 34.1589 42.0488 34.3838V36.6768C42.0488 36.9017 41.8665 37.084 41.6416 37.084Z" fill="url(#paint1_linear_66_143)"/>
<path d="M38.3276 37.084H34.8461C34.7105 37.084 34.6006 36.9741 34.6006 36.8385V34.2222C34.6006 34.0865 34.7105 33.9766 34.8461 33.9766H38.3276C38.4632 33.9766 38.5731 34.0865 38.5731 34.2222V36.8385C38.5731 36.9741 38.4632 37.084 38.3276 37.084Z" fill="url(#paint2_linear_66_143)"/>
<path d="M30.2209 34.3555C29.9619 34.3555 29.752 34.5654 29.752 34.8244V36.9939C29.752 37.0241 29.755 37.0534 29.7605 37.0819C29.7774 37.0837 29.7946 37.0848 29.812 37.0848H43.3618C43.6208 37.0848 43.8308 36.8749 43.8308 36.6158V34.4463C43.8308 34.4162 43.8277 34.3869 43.8222 34.3584C43.8053 34.3566 43.7881 34.3555 43.7707 34.3555H30.2209Z" fill="url(#paint3_linear_66_143)"/>
<path d="M43.3616 33.9766H29.8118C29.5528 33.9766 29.3428 33.7666 29.3428 33.5076V31.3381C29.3428 31.0791 29.5527 30.8691 29.8118 30.8691H43.3616C43.6206 30.8691 43.8306 31.0791 43.8306 31.3381V33.5076C43.8306 33.7666 43.6207 33.9766 43.3616 33.9766Z" fill="url(#paint4_linear_66_143)"/>
<path d="M41.6416 33.9766H31.5318C31.3069 33.9766 31.1245 33.7942 31.1245 33.5693V31.2764C31.1245 31.0516 31.3068 30.8691 31.5318 30.8691H41.6416C41.8664 30.8691 42.0488 31.0515 42.0488 31.2764V33.5694C42.0488 33.7942 41.8665 33.9766 41.6416 33.9766Z" fill="url(#paint5_linear_66_143)"/>
<path d="M38.3276 33.9766H34.8461C34.7105 33.9766 34.6006 33.8666 34.6006 33.731V31.1147C34.6006 30.9791 34.7105 30.8691 34.8461 30.8691H38.3276C38.4632 30.8691 38.5731 30.9791 38.5731 31.1147V33.731C38.5731 33.8666 38.4632 33.9766 38.3276 33.9766Z" fill="url(#paint6_linear_66_143)"/>
<path d="M30.2209 31.248C29.9619 31.248 29.752 31.458 29.752 31.717V33.8865C29.752 33.9166 29.755 33.9459 29.7605 33.9745C29.7774 33.9763 29.7946 33.9774 29.812 33.9774H43.3618C43.6208 33.9774 43.8308 33.7675 43.8308 33.5084V31.3389C43.8308 31.3088 43.8277 31.2795 43.8222 31.251C43.8053 31.2491 43.7881 31.248 43.7707 31.248H30.2209Z" fill="url(#paint7_linear_66_143)"/>
<path d="M43.3616 30.8692H29.8118C29.5528 30.8692 29.3428 30.6592 29.3428 30.4002V28.2307C29.3428 27.9717 29.5527 27.7617 29.8118 27.7617H43.3616C43.6206 27.7617 43.8306 27.9717 43.8306 28.2307V30.4002C43.8306 30.6592 43.6207 30.8692 43.3616 30.8692Z" fill="url(#paint8_linear_66_143)"/>
<path d="M41.6416 30.8692H31.5318C31.3069 30.8692 31.1245 30.6868 31.1245 30.4619V28.169C31.1245 27.9441 31.3068 27.7617 31.5318 27.7617H41.6416C41.8664 27.7617 42.0488 27.9441 42.0488 28.169V30.4619C42.0488 30.6868 41.8665 30.8692 41.6416 30.8692Z" fill="url(#paint9_linear_66_143)"/>
<path d="M38.3276 30.8692H34.8461C34.7105 30.8692 34.6006 30.7592 34.6006 30.6236V28.0073C34.6006 27.8717 34.7105 27.7617 34.8461 27.7617H38.3276C38.4632 27.7617 38.5731 27.8717 38.5731 28.0073V30.6236C38.5731 30.7592 38.4632 30.8692 38.3276 30.8692Z" fill="url(#paint10_linear_66_143)"/>
<path d="M30.2209 28.1406C29.9619 28.1406 29.752 28.3506 29.752 28.6096V30.7791C29.752 30.8092 29.755 30.8386 29.7605 30.867C29.7774 30.8688 29.7946 30.87 29.812 30.87H43.3618C43.6208 30.87 43.8308 30.66 43.8308 30.401V28.2315C43.8308 28.2014 43.8277 28.172 43.8222 28.1436C43.8053 28.1417 43.7881 28.1406 43.7707 28.1406H30.2209Z" fill="url(#paint11_linear_66_143)"/>
<path d="M43.3616 27.7627H29.8118C29.5528 27.7627 29.3428 27.5528 29.3428 27.2937V25.1243C29.3428 24.8652 29.5527 24.6553 29.8118 24.6553H43.3616C43.6206 24.6553 43.8306 24.8652 43.8306 25.1243V27.2937C43.8306 27.5528 43.6207 27.7627 43.3616 27.7627Z" fill="url(#paint12_linear_66_143)"/>
<path d="M41.6416 27.7627H31.5318C31.3069 27.7627 31.1245 27.5805 31.1245 27.3555V25.0625C31.1245 24.8377 31.3068 24.6553 31.5318 24.6553H41.6416C41.8664 24.6553 42.0488 24.8376 42.0488 25.0625V27.3556C42.0488 27.5805 41.8665 27.7627 41.6416 27.7627Z" fill="url(#paint13_linear_66_143)"/>
<path d="M38.3276 27.7627H34.8461C34.7105 27.7627 34.6006 27.6528 34.6006 27.5172V24.9009C34.6006 24.7652 34.7105 24.6553 34.8461 24.6553H38.3276C38.4632 24.6553 38.5731 24.7652 38.5731 24.9009V27.5172C38.5731 27.6528 38.4632 27.7627 38.3276 27.7627Z" fill="url(#paint14_linear_66_143)"/>
<path d="M30.2209 25.0332C29.9619 25.0332 29.752 25.2431 29.752 25.5022V27.6717C29.752 27.7018 29.755 27.7311 29.7605 27.7596C29.7774 27.7616 29.7946 27.7626 29.812 27.7626H43.3618C43.6208 27.7626 43.8308 27.5526 43.8308 27.2936V25.1241C43.8308 25.094 43.8277 25.0647 43.8222 25.0361C43.8053 25.0343 43.7881 25.0332 43.7707 25.0332H30.2209Z" fill="url(#paint15_linear_66_143)"/>
<path d="M43.3616 24.6553H29.8118C29.5528 24.6553 29.3428 24.4454 29.3428 24.1863V22.0168C29.3428 21.7578 29.5527 21.5479 29.8118 21.5479H43.3616C43.6206 21.5479 43.8306 21.7578 43.8306 22.0168V24.1863C43.8306 24.4454 43.6207 24.6553 43.3616 24.6553Z" fill="url(#paint16_linear_66_143)"/>
<path d="M41.6416 24.6553H31.5318C31.3069 24.6553 31.1245 24.4729 31.1245 24.248V21.9551C31.1245 21.7302 31.3068 21.5479 31.5318 21.5479H41.6416C41.8664 21.5479 42.0488 21.7302 42.0488 21.9551V24.248C42.0488 24.4729 41.8665 24.6553 41.6416 24.6553Z" fill="url(#paint17_linear_66_143)"/>
<path d="M38.3276 24.6553H34.8461C34.7105 24.6553 34.6006 24.5453 34.6006 24.4098V21.7935C34.6006 21.6578 34.7105 21.5479 34.8461 21.5479H38.3276C38.4632 21.5479 38.5731 21.6578 38.5731 21.7935V24.4098C38.5731 24.5454 38.4632 24.6553 38.3276 24.6553Z" fill="url(#paint18_linear_66_143)"/>
<path d="M30.2209 21.9258C29.9619 21.9258 29.752 22.1357 29.752 22.3948V24.5642C29.752 24.5944 29.755 24.6237 29.7605 24.6522C29.7774 24.654 29.7946 24.6551 29.812 24.6551H43.3618C43.6208 24.6551 43.8308 24.4452 43.8308 24.1862V22.0167C43.8308 21.9865 43.8277 21.9572 43.8222 21.9287C43.8053 21.9269 43.7881 21.9258 43.7707 21.9258H30.2209Z" fill="url(#paint19_linear_66_143)"/>
<path d="M43.3616 21.5479H29.8118C29.5528 21.5479 29.3428 21.3379 29.3428 21.0789V18.9094C29.3428 18.6504 29.5527 18.4404 29.8118 18.4404H43.3616C43.6206 18.4404 43.8306 18.6504 43.8306 18.9094V21.0789C43.8306 21.3379 43.6207 21.5479 43.3616 21.5479Z" fill="url(#paint20_linear_66_143)"/>
<path d="M41.6416 21.5479H31.5318C31.3069 21.5479 31.1245 21.3655 31.1245 21.1406V18.8477C31.1245 18.6228 31.3068 18.4404 31.5318 18.4404H41.6416C41.8664 18.4404 42.0488 18.6228 42.0488 18.8477V21.1406C42.0488 21.3655 41.8665 21.5479 41.6416 21.5479Z" fill="url(#paint21_linear_66_143)"/>
<path d="M38.3276 21.5479H34.8461C34.7105 21.5479 34.6006 21.4379 34.6006 21.3023V18.686C34.6006 18.5504 34.7105 18.4404 34.8461 18.4404H38.3276C38.4632 18.4404 38.5731 18.5504 38.5731 18.686V21.3023C38.5731 21.438 38.4632 21.5479 38.3276 21.5479Z" fill="url(#paint22_linear_66_143)"/>
<path d="M30.2209 18.8184C29.9619 18.8184 29.752 19.0283 29.752 19.2873V21.4568C29.752 21.487 29.755 21.5162 29.7605 21.5448C29.7774 21.5465 29.7946 21.5477 29.812 21.5477H43.3618C43.6208 21.5477 43.8308 21.3378 43.8308 21.0787V18.9092C43.8308 18.8791 43.8277 18.8499 43.8222 18.8213C43.8053 18.8194 43.7881 18.8184 43.7707 18.8184H30.2209Z" fill="url(#paint23_linear_66_143)"/>
<path d="M43.3616 18.4395H29.8118C29.5528 18.4395 29.3428 18.2295 29.3428 17.9705V15.801C29.3428 15.542 29.5527 15.332 29.8118 15.332H43.3616C43.6206 15.332 43.8306 15.542 43.8306 15.801V17.9705C43.8306 18.2294 43.6207 18.4395 43.3616 18.4395Z" fill="url(#paint24_linear_66_143)"/>
<path d="M41.6416 18.4396H31.5318C31.3069 18.4396 31.1245 18.2572 31.1245 18.0323V15.7393C31.1245 15.5144 31.3068 15.332 31.5318 15.332H41.6416C41.8664 15.332 42.0488 15.5143 42.0488 15.7393V18.0322C42.0488 18.2571 41.8665 18.4396 41.6416 18.4396Z" fill="url(#paint25_linear_66_143)"/>
<path d="M38.3276 18.4395H34.8461C34.7105 18.4395 34.6006 18.3295 34.6006 18.1938V15.5776C34.6006 15.442 34.7105 15.332 34.8461 15.332H38.3276C38.4632 15.332 38.5731 15.442 38.5731 15.5776V18.1938C38.5731 18.3295 38.4632 18.4395 38.3276 18.4395Z" fill="url(#paint26_linear_66_143)"/>
<path d="M30.2209 15.7109C29.9619 15.7109 29.752 15.9209 29.752 16.1799V18.3494C29.752 18.3794 29.755 18.4088 29.7605 18.4374C29.7774 18.4391 29.7946 18.4403 29.812 18.4403H43.3618C43.6208 18.4403 43.8308 18.2303 43.8308 17.9713V15.8018C43.8308 15.7717 43.8277 15.7423 43.8222 15.7139C43.8053 15.712 43.7881 15.7109 43.7707 15.7109H30.2209Z" fill="url(#paint27_linear_66_143)"/>
<path d="M43.3616 15.333H29.8118C29.5528 15.333 29.3428 15.1231 29.3428 14.8641V12.6946C29.3428 12.4355 29.5527 12.2256 29.8118 12.2256H43.3616C43.6206 12.2256 43.8306 12.4355 43.8306 12.6946V14.8641C43.8306 15.123 43.6207 15.333 43.3616 15.333Z" fill="url(#paint28_linear_66_143)"/>
<path d="M41.6416 15.333H31.5318C31.3069 15.333 31.1245 15.1507 31.1245 14.9258V12.6328C31.1245 12.408 31.3068 12.2256 31.5318 12.2256H41.6416C41.8664 12.2256 42.0488 12.4079 42.0488 12.6328V14.9258C42.0488 15.1507 41.8665 15.333 41.6416 15.333Z" fill="url(#paint29_linear_66_143)"/>
<path d="M38.3276 15.333H34.8461C34.7105 15.333 34.6006 15.2231 34.6006 15.0875V12.4712C34.6006 12.3355 34.7105 12.2256 34.8461 12.2256H38.3276C38.4632 12.2256 38.5731 12.3355 38.5731 12.4712V15.0875C38.5731 15.2231 38.4632 15.333 38.3276 15.333Z" fill="url(#paint30_linear_66_143)"/>
<path d="M30.2209 12.6035C29.9619 12.6035 29.752 12.8135 29.752 13.0725V15.242C29.752 15.2721 29.755 15.3014 29.7605 15.3299C29.7774 15.3317 29.7946 15.3329 29.812 15.3329H43.3618C43.6208 15.3329 43.8308 15.1229 43.8308 14.8639V12.6944C43.8308 12.6643 43.8277 12.6349 43.8222 12.6065C43.8053 12.6046 43.7881 12.6035 43.7707 12.6035H30.2209Z" fill="url(#paint31_linear_66_143)"/>
<path d="M36.3115 23.5937L35.0662 17.0635C34.1375 12.1926 29.8785 8.66895 24.9198 8.66895H20.2479C15.2893 8.66895 11.0304 12.1926 10.1016 17.0635L9.39558 20.7659C8.71712 24.3238 7.63263 27.8047 6.01074 31.0434C5.5365 31.9903 5.28748 33.0694 5.33418 34.211C5.46909 37.514 8.37599 40.3561 11.6811 40.4207C11.7054 40.4211 11.7295 40.4215 11.7537 40.4217C13.2532 40.4347 14.6969 41.019 15.7485 42.0881C16.9238 43.2829 18.5587 44.024 20.3673 44.024C22.5622 44.024 24.5018 42.9327 25.6743 41.2634C26.0517 40.726 26.6708 40.4206 27.3276 40.4219H27.339C27.6212 40.4219 27.8984 40.4011 28.1694 40.3608C28.6803 40.2851 29.1973 40.4155 29.6192 40.7138C30.76 41.5208 32.1727 41.9688 33.6934 41.8918C36.9479 41.7271 39.6027 39.1219 39.8238 35.8707C39.9034 34.701 39.672 33.5923 39.2044 32.6184C37.8318 29.7601 36.9053 26.7083 36.3115 23.5937Z" fill="url(#paint32_radial_66_143)"/>
<path d="M11.8109 40.4227C15.3911 40.4227 18.2933 37.5205 18.2933 33.9404C18.2933 30.3603 15.3911 27.458 11.8109 27.458C8.23085 27.458 5.32861 30.3603 5.32861 33.9404C5.32861 37.5205 8.23085 40.4227 11.8109 40.4227Z" fill="url(#paint33_linear_66_143)"/>
<path d="M20.3676 44.0243C23.9477 44.0243 26.8499 41.122 26.8499 37.5419C26.8499 33.9618 23.9477 31.0596 20.3676 31.0596C16.7876 31.0596 13.8853 33.9618 13.8853 37.5419C13.8853 41.122 16.7876 44.0243 20.3676 44.0243Z" fill="url(#paint34_linear_66_143)"/>
<path d="M33.3572 41.9001C36.9374 41.9001 39.8396 38.9979 39.8396 35.4178C39.8396 31.8378 36.9374 28.9355 33.3572 28.9355C29.7772 28.9355 26.875 31.8378 26.875 35.4178C26.875 38.9979 29.7772 41.9001 33.3572 41.9001Z" fill="url(#paint35_linear_66_143)"/>
<path d="M39.8237 35.8706C39.9033 34.7009 39.6719 33.5921 39.2042 32.6183C37.8315 29.76 36.9052 26.7081 36.3113 23.5935L35.0662 17.0633C34.7292 15.2958 33.952 13.7073 32.8637 12.3986C31.0627 10.9073 28.7571 10.0254 26.2764 10.0254H21.6044C16.6459 10.0254 12.3869 13.549 11.4581 18.4199L10.7521 22.1223C10.0736 25.6803 8.98915 29.1611 7.36725 32.3997C6.89302 33.3466 6.64399 34.4258 6.69061 35.5675C6.74369 36.8669 7.22715 38.0941 7.99383 39.1097C9.04888 39.9044 10.3316 40.394 11.681 40.4204C11.7052 40.4208 11.7294 40.4212 11.7536 40.4215C13.253 40.4344 14.6968 41.0188 15.7485 42.0879C16.9238 43.2826 18.5586 44.0236 20.3672 44.0236C22.5622 44.0236 24.5017 42.9324 25.6742 41.2631C26.0517 40.7257 26.6708 40.4203 27.3276 40.4216H27.3389C27.6211 40.4216 27.8984 40.4007 28.1694 40.3605C28.6803 40.2848 29.1973 40.4152 29.6191 40.7136C30.76 41.5206 32.1726 41.9685 33.6934 41.8915C36.9478 41.727 39.6026 39.1218 39.8237 35.8706Z" fill="url(#paint36_linear_66_143)"/>
<path d="M26.3499 16.2999C25.8807 16.1547 25.4348 16.0501 25.0124 15.9857C24.8087 15.9546 24.6029 15.9293 24.3955 15.9095L24.3905 15.9066L23.4402 14.9224C23.2526 14.7999 23.049 14.7383 22.8302 14.7383C22.5796 14.7383 22.3685 14.7967 22.1965 14.9125C22.0243 15.0286 21.9385 15.1666 21.9385 15.3257V15.935C20.5775 16.1263 19.455 16.6291 18.5713 17.4426C17.6872 18.2561 17.2456 19.3726 17.2456 20.7922C17.2456 21.3712 17.3472 21.8992 17.5506 22.3762C17.7538 22.8534 17.9884 23.2444 18.2546 23.5494L21.9386 27.2366V29.4274C21.3284 29.318 20.6634 29.009 19.9441 28.5005C19.2243 27.9922 18.7158 27.7378 18.4188 27.7378C17.9965 27.7378 17.6247 27.957 17.3042 28.3949C16.9835 28.8331 16.8232 29.2711 16.8232 29.709C16.8232 30.2795 17.1031 30.8066 17.6621 31.2904L26.8485 40.4767C27.0038 40.4404 27.1645 40.4217 27.3277 40.422H27.3391C27.6213 40.422 27.8985 40.4012 28.1694 40.3609C28.6804 40.2853 29.1974 40.4157 29.6192 40.7139C30.76 41.5209 32.1727 41.969 33.6934 41.892C36.948 41.7272 39.6027 39.122 39.8239 35.8709C39.9035 34.7011 39.6721 33.5924 39.2044 32.6185C38.2491 30.6292 37.5105 28.5461 36.9491 26.4133L27.4879 16.9525C27.1983 16.6625 26.8193 16.4451 26.3499 16.2999Z" fill="url(#paint37_linear_66_143)"/>
<path d="M28.0512 25.8843C27.8553 25.3838 27.6207 24.969 27.3472 24.6406C27.0733 24.312 26.7095 23.9994 26.2559 23.702C25.8021 23.405 25.3955 23.1781 25.0358 23.0215C24.6758 22.8653 24.2381 22.6854 23.7218 22.4818V19.0558C24.2849 19.1028 24.8284 19.2593 25.3527 19.5252C25.8767 19.7914 26.248 19.9241 26.4672 19.9241C26.9208 19.9241 27.2768 19.7015 27.5349 19.2565C27.7931 18.8114 27.9221 18.3816 27.9221 17.9681C27.9221 17.5813 27.7773 17.2429 27.4879 16.9525C27.1983 16.6625 26.8193 16.4452 26.3499 16.2999C25.8807 16.1547 25.4348 16.0501 25.0124 15.9857C24.59 15.9211 24.1596 15.8808 23.7218 15.8647V15.3231C23.7218 15.1786 23.6279 15.0452 23.4402 14.9223C23.2526 14.7998 23.049 14.7383 22.8302 14.7383C22.5796 14.7383 22.3685 14.7967 22.1965 14.9125C22.0243 15.0286 21.9385 15.1666 21.9385 15.3257V15.935C20.5775 16.1263 19.455 16.6291 18.5713 17.4426C17.6872 18.2561 17.2456 19.3726 17.2456 20.7922C17.2456 21.3712 17.3471 21.8992 17.5506 22.3762C17.7538 22.8534 17.9884 23.2444 18.2546 23.5494C18.5204 23.8544 18.8959 24.1518 19.3809 24.4411C19.8655 24.7307 20.2727 24.9456 20.6011 25.0862C20.9296 25.227 21.3754 25.4071 21.9386 25.626V29.4273C21.3284 29.318 20.6634 29.009 19.9441 28.5005C19.2243 27.9922 18.7158 27.7378 18.4188 27.7378C17.9965 27.7378 17.6247 27.957 17.3042 28.3949C16.9835 28.8331 16.8232 29.2711 16.8232 29.709C16.8232 30.4757 17.3277 31.1638 18.3367 31.7739C19.3458 32.3841 20.5461 32.7126 21.9386 32.7594V33.346C21.9386 33.518 22.0245 33.6665 22.1966 33.7919C22.3686 33.9168 22.5797 33.9796 22.8303 33.9796C23.049 33.9796 23.2527 33.9129 23.4403 33.7801C23.6281 33.647 23.7219 33.5022 23.7219 33.346V32.6655C25.1299 32.4309 26.2521 31.8757 27.0891 30.9995C27.9258 30.1236 28.3445 28.9738 28.3445 27.5501C28.3444 26.94 28.2466 26.385 28.0512 25.8843ZM22.1732 21.9186C21.1719 21.4962 20.6713 21.0035 20.6713 20.4403C20.6713 19.7679 21.1718 19.3297 22.1732 19.1263V21.9186ZM23.4872 29.4039V26.2597C24.4412 26.7135 24.9185 27.2686 24.9185 27.9256C24.9185 28.6922 24.4412 29.185 23.4872 29.4039Z" fill="url(#paint38_linear_66_143)"/>
<path d="M25.7682 8.66926H19.4004L16.5034 3.1156C16.0757 2.29577 16.564 1.29604 17.4736 1.12928L19.3707 0.78142C21.4954 0.39187 23.6732 0.39187 25.7978 0.78142L27.6949 1.12928C28.6045 1.29604 29.0928 2.29568 28.6651 3.1156L25.7682 8.66926Z" fill="url(#paint39_linear_66_143)"/>
<path d="M23.6432 8.66926H21.5254L20.5619 3.1156C20.4196 2.29577 20.5821 1.29604 20.8846 1.12928L21.5156 0.78142C22.2222 0.39187 22.9464 0.39187 23.6531 0.78142L24.2841 1.12928C24.5866 1.29604 24.749 2.29568 24.6067 3.1156L23.6432 8.66926Z" fill="url(#paint40_linear_66_143)"/>
<path d="M28.5694 1.6879C28.6935 1.8645 28.6311 2.11059 28.4384 2.20822C27.535 2.66768 26.4667 2.66768 25.5632 2.20822L24.7645 1.80271C23.8612 1.34324 22.7927 1.34324 21.8893 1.80271L21.0916 2.20822C20.1882 2.66768 19.1198 2.66768 18.2163 2.20822L17.3809 1.78328C17.0882 1.63439 17.1428 1.19166 17.4655 1.13107C17.4682 1.13055 17.4709 1.13003 17.4737 1.12951L19.3708 0.780966C21.4951 0.392022 23.6733 0.392022 25.7976 0.780966L27.6949 1.12951C28.0694 1.19779 28.3721 1.40737 28.5694 1.6879Z" fill="url(#paint41_linear_66_143)"/>
<path d="M28.6834 2.46659C28.7261 2.3631 28.7569 2.25693 28.7797 2.14989C28.655 1.6515 28.2554 1.23208 27.6949 1.12928L25.7978 0.78142C23.6731 0.39187 21.4953 0.39187 19.3707 0.78142L17.9556 1.04089C17.7784 1.46566 17.7558 1.99253 17.9511 2.46659L20.5076 8.66926H25.768L27.4781 5.39084L28.6834 2.46659Z" fill="url(#paint42_linear_66_143)"/>
<path d="M22.584 9.29222C21.2037 9.29222 19.8972 9.20305 18.8265 9.03827C18.474 8.98398 18.2374 8.64786 18.3085 8.29827C18.3747 7.9732 18.6835 7.7568 19.0114 7.80705C20.0171 7.9612 21.2821 8.04752 22.584 8.04752C23.886 8.04752 25.1509 7.9612 26.1566 7.80705C26.4846 7.7568 26.7934 7.97311 26.8595 8.29827C26.9306 8.64786 26.6941 8.98407 26.3415 9.03827C25.2708 9.20305 23.9644 9.29222 22.584 9.29222Z" fill="url(#paint43_linear_66_143)"/>
<path d="M15.1791 26.2259C15.1296 26.0199 14.946 25.8662 14.725 25.8662H13.0049H9.69067H8.10692C7.53861 27.6411 6.84652 29.3744 6.0108 31.0432C5.53657 31.9901 5.28755 33.0692 5.33416 34.2109C5.46907 37.5138 8.37606 40.3559 11.6811 40.4206C11.7054 40.421 11.7295 40.4213 11.7538 40.4216C13.2533 40.4345 14.6971 41.0189 15.7487 42.0879C16.924 43.2828 18.5588 44.0237 20.3674 44.0237C22.5624 44.0237 24.5019 42.9326 25.6744 41.2633C26.0519 40.7258 26.671 40.4205 27.3278 40.4218H27.3391C27.6214 40.4218 27.8986 40.4008 28.1695 40.3606C28.6805 40.2849 29.1974 40.4154 29.6193 40.7137C29.6677 40.7479 29.7173 40.7807 29.7667 40.8135L15.1791 26.2259Z" fill="url(#paint44_linear_66_143)"/>
<path d="M14.7249 44.5108H1.17502C0.916064 44.5108 0.706055 44.3008 0.706055 44.0418V41.8723C0.706055 41.6133 0.915978 41.4033 1.17502 41.4033H14.7249C14.9839 41.4033 15.1939 41.6133 15.1939 41.8723V44.0418C15.1939 44.3008 14.9839 44.5108 14.7249 44.5108Z" fill="url(#paint45_linear_66_143)"/>
<path d="M13.0048 44.5108H2.89504C2.67009 44.5108 2.48779 44.3284 2.48779 44.1035V41.8106C2.48779 41.5857 2.67009 41.4033 2.89504 41.4033H13.0048C13.2297 41.4033 13.4121 41.5856 13.4121 41.8106V44.1035C13.4121 44.3284 13.2297 44.5108 13.0048 44.5108Z" fill="url(#paint46_linear_66_143)"/>
<path d="M9.69079 44.5108H6.20944C6.07383 44.5108 5.96387 44.4007 5.96387 44.2651V41.6489C5.96387 41.5133 6.07383 41.4033 6.20944 41.4033H9.69079C9.82638 41.4033 9.93635 41.5133 9.93635 41.6489V44.2651C9.93635 44.4007 9.82638 44.5108 9.69079 44.5108Z" fill="url(#paint47_linear_66_143)"/>
<path d="M1.58371 41.7812C1.32467 41.7812 1.11475 41.9911 1.11475 42.2501V44.4197C1.11475 44.4498 1.11785 44.4791 1.12329 44.5077C1.14021 44.5094 1.15739 44.5106 1.17482 44.5106H14.7247C14.9838 44.5106 15.1937 44.3007 15.1937 44.0416V41.8721C15.1937 41.842 15.1906 41.8127 15.1851 41.7842C15.1682 41.7823 15.1511 41.7812 15.1336 41.7812H1.58371Z" fill="url(#paint48_linear_66_143)"/>
<path d="M14.7249 41.4032H1.17502C0.916064 41.4032 0.706055 41.1934 0.706055 40.9344V38.7649C0.706055 38.5058 0.915978 38.2959 1.17502 38.2959H14.7249C14.9839 38.2959 15.1939 38.5058 15.1939 38.7649V40.9344C15.1939 41.1934 14.9839 41.4032 14.7249 41.4032Z" fill="url(#paint49_linear_66_143)"/>
<path d="M13.0048 41.4033H2.89504C2.67009 41.4033 2.48779 41.2211 2.48779 40.9961V38.7032C2.48779 38.4782 2.67009 38.2959 2.89504 38.2959H13.0048C13.2297 38.2959 13.4121 38.4782 13.4121 38.7032V40.9961C13.4121 41.2211 13.2297 41.4033 13.0048 41.4033Z" fill="url(#paint50_linear_66_143)"/>
<path d="M9.69079 41.4032H6.20944C6.07383 41.4032 5.96387 41.2933 5.96387 41.1577V38.5414C5.96387 38.4059 6.07383 38.2959 6.20944 38.2959H9.69079C9.82638 38.2959 9.93635 38.4059 9.93635 38.5414V41.1577C9.93635 41.2933 9.82638 41.4032 9.69079 41.4032Z" fill="url(#paint51_linear_66_143)"/>
<path d="M1.58371 38.6738C1.32467 38.6738 1.11475 38.8838 1.11475 39.1428V41.3123C1.11475 41.3424 1.11785 41.3718 1.12329 41.4003C1.14021 41.4022 1.15739 41.4033 1.17482 41.4033H14.7247C14.9838 41.4033 15.1937 41.1933 15.1937 40.9343V38.7648C15.1937 38.7347 15.1906 38.7053 15.1851 38.6768C15.1682 38.6749 15.1511 38.6738 15.1336 38.6738H1.58371Z" fill="url(#paint52_linear_66_143)"/>
<path d="M14.7249 38.2959H1.17502C0.916064 38.2959 0.706055 38.086 0.706055 37.8269V35.6575C0.706055 35.3985 0.915978 35.1885 1.17502 35.1885H14.7249C14.9839 35.1885 15.1939 35.3984 15.1939 35.6575V37.8269C15.1939 38.086 14.9839 38.2959 14.7249 38.2959Z" fill="url(#paint53_linear_66_143)"/>
<path d="M13.0048 38.2959H2.89504C2.67009 38.2959 2.48779 38.1136 2.48779 37.8887V35.5957C2.48779 35.3708 2.67009 35.1885 2.89504 35.1885H13.0048C13.2297 35.1885 13.4121 35.3708 13.4121 35.5957V37.8887C13.4121 38.1136 13.2297 38.2959 13.0048 38.2959Z" fill="url(#paint54_linear_66_143)"/>
<path d="M9.69079 38.2959H6.20944C6.07383 38.2959 5.96387 38.186 5.96387 38.0503V35.434C5.96387 35.2984 6.07383 35.1885 6.20944 35.1885H9.69079C9.82638 35.1885 9.93635 35.2984 9.93635 35.434V38.0503C9.93635 38.1861 9.82638 38.2959 9.69079 38.2959Z" fill="url(#paint55_linear_66_143)"/>
<path d="M1.58371 35.5674C1.32467 35.5674 1.11475 35.7773 1.11475 36.0364V38.2058C1.11475 38.236 1.11785 38.2653 1.12329 38.2938C1.14021 38.2956 1.15739 38.2967 1.17482 38.2967H14.7247C14.9838 38.2967 15.1937 38.0868 15.1937 37.8278V35.6583C15.1937 35.6281 15.1906 35.5989 15.1851 35.5703C15.1682 35.5685 15.1511 35.5674 15.1336 35.5674H1.58371Z" fill="url(#paint56_linear_66_143)"/>
<path d="M14.7249 35.1885H1.17502C0.916064 35.1885 0.706055 34.9786 0.706055 34.7195V32.55C0.706055 32.291 0.915978 32.0811 1.17502 32.0811H14.7249C14.9839 32.0811 15.1939 32.291 15.1939 32.55V34.7195C15.1939 34.9786 14.9839 35.1885 14.7249 35.1885Z" fill="url(#paint57_linear_66_143)"/>
<path d="M13.0048 35.1886H2.89504C2.67009 35.1886 2.48779 35.0063 2.48779 34.7813V32.4883C2.48779 32.2635 2.67009 32.0811 2.89504 32.0811H13.0048C13.2297 32.0811 13.4121 32.2634 13.4121 32.4883V34.7813C13.4121 35.0063 13.2297 35.1886 13.0048 35.1886Z" fill="url(#paint58_linear_66_143)"/>
<path d="M9.69079 35.1885H6.20944C6.07383 35.1885 5.96387 35.0785 5.96387 34.9429V32.3266C5.96387 32.191 6.07383 32.0811 6.20944 32.0811H9.69079C9.82638 32.0811 9.93635 32.191 9.93635 32.3266V34.9429C9.93635 35.0785 9.82638 35.1885 9.69079 35.1885Z" fill="url(#paint59_linear_66_143)"/>
<path d="M1.58371 32.46C1.32467 32.46 1.11475 32.6699 1.11475 32.9288V35.0984C1.11475 35.1286 1.11785 35.1578 1.12329 35.1864C1.14021 35.1882 1.15739 35.1893 1.17482 35.1893H14.7247C14.9838 35.1893 15.1937 34.9794 15.1937 34.7203V32.5508C15.1937 32.5207 15.1906 32.4915 15.1851 32.4629C15.1682 32.4609 15.1511 32.46 15.1336 32.46H1.58371Z" fill="url(#paint60_linear_66_143)"/>
<path d="M14.7249 32.0811H1.17502C0.916064 32.0811 0.706055 31.8711 0.706055 31.6121V29.4426C0.706055 29.1837 0.915978 28.9736 1.17502 28.9736H14.7249C14.9839 28.9736 15.1939 29.1836 15.1939 29.4426V31.6121C15.1939 31.871 14.9839 32.0811 14.7249 32.0811Z" fill="url(#paint61_linear_66_143)"/>
<path d="M13.0048 32.0811H2.89504C2.67009 32.0811 2.48779 31.8987 2.48779 31.6738V29.3809C2.48779 29.156 2.67009 28.9736 2.89504 28.9736H13.0048C13.2297 28.9736 13.4121 29.1559 13.4121 29.3809V31.6738C13.4121 31.8986 13.2297 32.0811 13.0048 32.0811Z" fill="url(#paint62_linear_66_143)"/>
<path d="M9.69079 32.0811H6.20944C6.07383 32.0811 5.96387 31.971 5.96387 31.8354V29.2192C5.96387 29.0836 6.07383 28.9736 6.20944 28.9736H9.69079C9.82638 28.9736 9.93635 29.0836 9.93635 29.2192V31.8354C9.93635 31.971 9.82638 32.0811 9.69079 32.0811Z" fill="url(#paint63_linear_66_143)"/>
<path d="M1.58371 29.3525C1.32467 29.3525 1.11475 29.5624 1.11475 29.8214V31.9909C1.11475 32.021 1.11785 32.0504 1.12329 32.079C1.14021 32.0807 1.15739 32.0819 1.17482 32.0819H14.7247C14.9838 32.0819 15.1937 31.872 15.1937 31.6129V29.4434C15.1937 29.4133 15.1906 29.384 15.1851 29.3555C15.1682 29.3536 15.1511 29.3525 15.1336 29.3525H1.58371Z" fill="url(#paint64_linear_66_143)"/>
<path d="M14.7249 28.9736H1.17502C0.916064 28.9736 0.706055 28.7636 0.706055 28.5047V26.3351C0.706055 26.076 0.915978 25.8662 1.17502 25.8662H14.7249C14.9839 25.8662 15.1939 26.076 15.1939 26.3351V28.5047C15.1939 28.7636 14.9839 28.9736 14.7249 28.9736Z" fill="url(#paint65_linear_66_143)"/>
<path d="M13.0048 28.9737H2.89504C2.67009 28.9737 2.48779 28.7914 2.48779 28.5664V26.2735C2.48779 26.0486 2.67009 25.8662 2.89504 25.8662H13.0048C13.2297 25.8662 13.4121 26.0485 13.4121 26.2735V28.5664C13.4121 28.7914 13.2297 28.9737 13.0048 28.9737Z" fill="url(#paint66_linear_66_143)"/>
<path d="M9.69079 28.9736H6.20944C6.07383 28.9736 5.96387 28.8636 5.96387 28.728V26.1118C5.96387 25.9762 6.07383 25.8662 6.20944 25.8662H9.69079C9.82638 25.8662 9.93635 25.9762 9.93635 26.1118V28.728C9.93635 28.8636 9.82638 28.9736 9.69079 28.9736Z" fill="url(#paint67_linear_66_143)"/>
<path d="M1.58371 26.2441C1.32467 26.2441 1.11475 26.4541 1.11475 26.7131V28.8826C1.11475 28.9127 1.11785 28.942 1.12329 28.9706C1.14021 28.9724 1.15739 28.9735 1.17482 28.9735H14.7247C14.9838 28.9735 15.1937 28.7637 15.1937 28.5046V26.335C15.1937 26.305 15.1906 26.2756 15.1851 26.2471C15.1682 26.2453 15.1511 26.2441 15.1336 26.2441H1.58371Z" fill="url(#paint68_linear_66_143)"/>
<path d="M40.1321 44.5108H26.5823C26.3232 44.5108 26.1133 44.3008 26.1133 44.0418V41.8723C26.1133 41.6133 26.3232 41.4033 26.5823 41.4033H40.1321C40.3911 41.4033 40.6011 41.6133 40.6011 41.8723V44.0418C40.6011 44.3008 40.3911 44.5108 40.1321 44.5108Z" fill="url(#paint69_linear_66_143)"/>
<path d="M38.4121 44.5108H28.3023C28.0774 44.5108 27.895 44.3284 27.895 44.1035V41.8106C27.895 41.5857 28.0773 41.4033 28.3023 41.4033H38.4121C38.6369 41.4033 38.8194 41.5856 38.8194 41.8106V44.1035C38.8194 44.3284 38.6369 44.5108 38.4121 44.5108Z" fill="url(#paint70_linear_66_143)"/>
<path d="M35.0975 44.5108H31.6161C31.4806 44.5108 31.3706 44.4007 31.3706 44.2651V41.6489C31.3706 41.5133 31.4806 41.4033 31.6161 41.4033H35.0975C35.2332 41.4033 35.3431 41.5133 35.3431 41.6489V44.2651C35.3431 44.4007 35.2332 44.5108 35.0975 44.5108Z" fill="url(#paint71_linear_66_143)"/>
<path d="M26.9909 41.7812C26.7319 41.7812 26.522 41.9911 26.522 42.2501V44.4197C26.522 44.4498 26.525 44.4791 26.5305 44.5077C26.5474 44.5094 26.5645 44.5106 26.582 44.5106H40.1319C40.3909 44.5106 40.6009 44.3007 40.6009 44.0416V41.8721C40.6009 41.842 40.5978 41.8127 40.5923 41.7842C40.5754 41.7823 40.5583 41.7812 40.5407 41.7812H26.9909Z" fill="url(#paint72_linear_66_143)"/>
<path d="M40.1321 41.4032H26.5823C26.3232 41.4032 26.1133 41.1934 26.1133 40.9344V38.7649C26.1133 38.5058 26.3232 38.2959 26.5823 38.2959H40.1321C40.3911 38.2959 40.6011 38.5058 40.6011 38.7649V40.9344C40.6011 41.1934 40.3911 41.4032 40.1321 41.4032Z" fill="url(#paint73_linear_66_143)"/>
<path d="M38.4121 41.4033H28.3023C28.0774 41.4033 27.895 41.2211 27.895 40.9961V38.7032C27.895 38.4782 28.0773 38.2959 28.3023 38.2959H38.4121C38.6369 38.2959 38.8194 38.4782 38.8194 38.7032V40.9961C38.8194 41.2211 38.6369 41.4033 38.4121 41.4033Z" fill="url(#paint74_linear_66_143)"/>
<path d="M35.0975 41.4032H31.6161C31.4806 41.4032 31.3706 41.2933 31.3706 41.1577V38.5414C31.3706 38.4059 31.4806 38.2959 31.6161 38.2959H35.0975C35.2332 38.2959 35.3431 38.4059 35.3431 38.5414V41.1577C35.3431 41.2933 35.2332 41.4032 35.0975 41.4032Z" fill="url(#paint75_linear_66_143)"/>
<path d="M26.9909 38.6738C26.7319 38.6738 26.522 38.8838 26.522 39.1428V41.3123C26.522 41.3424 26.525 41.3718 26.5305 41.4003C26.5474 41.4022 26.5645 41.4033 26.582 41.4033H40.1319C40.3909 41.4033 40.6009 41.1933 40.6009 40.9343V38.7648C40.6009 38.7347 40.5978 38.7053 40.5923 38.6768C40.5754 38.6749 40.5583 38.6738 40.5407 38.6738H26.9909Z" fill="url(#paint76_linear_66_143)"/>
<path d="M8.28989 18.588C6.99392 19.4325 5.8882 20.5449 5.05083 21.8463C4.86249 22.1389 4.42797 22.1381 4.24075 21.8448C3.40813 20.5405 2.30647 19.4241 1.01361 18.5748C0.726603 18.3862 0.72738 17.9577 1.01507 17.7702C2.31104 16.9257 3.41677 15.8133 4.25413 14.5119C4.44239 14.2193 4.87699 14.2201 5.06422 14.5134C5.89682 15.8178 6.99849 16.9342 8.29144 17.7835C8.57835 17.972 8.57758 18.4005 8.28989 18.588Z" fill="url(#paint77_linear_66_143)"/>
<path d="M13.4522 6.83323C12.5358 7.43045 11.7538 8.21706 11.1616 9.13738C11.0285 9.34429 10.7212 9.34377 10.5888 9.13635C10 8.21395 9.22093 7.42451 8.30666 6.8239C8.10373 6.69063 8.10425 6.38749 8.3077 6.25491C9.22413 5.65768 10.0061 4.87107 10.5982 3.95075C10.7314 3.74385 11.0387 3.74437 11.1711 3.95179C11.7599 4.87417 12.5389 5.66363 13.4532 6.26423C13.6562 6.39759 13.6556 6.70064 13.4522 6.83323Z" fill="url(#paint78_linear_66_143)"/>
<path d="M38.3433 8.95824C37.4269 9.55546 36.6449 10.3421 36.0528 11.2624C35.9196 11.4693 35.6123 11.4687 35.4799 11.2613C34.8911 10.3389 34.112 9.54951 33.1978 8.94891C32.9949 8.81563 32.9953 8.51249 33.1988 8.37991C34.1153 7.78268 34.8972 6.99607 35.4893 6.07575C35.6225 5.86885 35.9298 5.86937 36.0622 6.07679C36.651 6.99918 37.4301 7.78864 38.3444 8.38923C38.5473 8.52259 38.5468 8.82565 38.3433 8.95824Z" fill="url(#paint79_linear_66_143)"/>
</g>
</g>
<defs>
<linearGradient id="paint0_linear_66_143" x1="36.5867" y1="34.0406" x2="36.5867" y2="38.0695" gradientUnits="userSpaceOnUse">
<stop stop-color="#E4F2FF"/>
<stop offset="1" stop-color="#B2CBFF"/>
</linearGradient>
<linearGradient id="paint1_linear_66_143" x1="36.5866" y1="34.099" x2="36.5866" y2="40.8748" gradientUnits="userSpaceOnUse">
<stop stop-color="#3F3CED" stop-opacity="0"/>
<stop offset="0.2796" stop-color="#3C3DE4" stop-opacity="0.28"/>
<stop offset="0.7305" stop-color="#3541CC" stop-opacity="0.731"/>
<stop offset="1" stop-color="#2F43BB"/>
</linearGradient>
<linearGradient id="paint2_linear_66_143" x1="36.5868" y1="34.099" x2="36.5868" y2="40.8748" gradientUnits="userSpaceOnUse">
<stop stop-color="#3F3CED" stop-opacity="0"/>
<stop offset="0.2796" stop-color="#3C3DE4" stop-opacity="0.28"/>
<stop offset="0.7305" stop-color="#3541CC" stop-opacity="0.731"/>
<stop offset="1" stop-color="#2F43BB"/>
</linearGradient>
<linearGradient id="paint3_linear_66_143" x1="36.5702" y1="35.1853" x2="34.9636" y2="31.3005" gradientUnits="userSpaceOnUse">
<stop stop-color="white" stop-opacity="0"/>
<stop offset="1" stop-color="white"/>
</linearGradient>
<linearGradient id="paint4_linear_66_143" x1="36.5867" y1="30.9332" x2="36.5867" y2="34.9621" gradientUnits="userSpaceOnUse">
<stop stop-color="#E4F2FF"/>
<stop offset="1" stop-color="#B2CBFF"/>
</linearGradient>
<linearGradient id="paint5_linear_66_143" x1="36.5866" y1="30.9916" x2="36.5866" y2="37.7672" gradientUnits="userSpaceOnUse">
<stop stop-color="#3F3CED" stop-opacity="0"/>
<stop offset="0.2796" stop-color="#3C3DE4" stop-opacity="0.28"/>
<stop offset="0.7305" stop-color="#3541CC" stop-opacity="0.731"/>
<stop offset="1" stop-color="#2F43BB"/>
</linearGradient>
<linearGradient id="paint6_linear_66_143" x1="36.5868" y1="30.9916" x2="36.5868" y2="37.7672" gradientUnits="userSpaceOnUse">
<stop stop-color="#3F3CED" stop-opacity="0"/>
<stop offset="0.2796" stop-color="#3C3DE4" stop-opacity="0.28"/>
<stop offset="0.7305" stop-color="#3541CC" stop-opacity="0.731"/>
<stop offset="1" stop-color="#2F43BB"/>
</linearGradient>
<linearGradient id="paint7_linear_66_143" x1="36.5702" y1="32.0779" x2="34.9636" y2="28.193" gradientUnits="userSpaceOnUse">
<stop stop-color="white" stop-opacity="0"/>
<stop offset="1" stop-color="white"/>
</linearGradient>
<linearGradient id="paint8_linear_66_143" x1="36.5867" y1="27.8258" x2="36.5867" y2="31.8547" gradientUnits="userSpaceOnUse">
<stop stop-color="#E4F2FF"/>
<stop offset="1" stop-color="#B2CBFF"/>
</linearGradient>
<linearGradient id="paint9_linear_66_143" x1="36.5866" y1="27.8842" x2="36.5866" y2="34.6598" gradientUnits="userSpaceOnUse">
<stop stop-color="#3F3CED" stop-opacity="0"/>
<stop offset="0.2796" stop-color="#3C3DE4" stop-opacity="0.28"/>
<stop offset="0.7305" stop-color="#3541CC" stop-opacity="0.731"/>
<stop offset="1" stop-color="#2F43BB"/>
</linearGradient>
<linearGradient id="paint10_linear_66_143" x1="36.5868" y1="27.8842" x2="36.5868" y2="34.6598" gradientUnits="userSpaceOnUse">
<stop stop-color="#3F3CED" stop-opacity="0"/>
<stop offset="0.2796" stop-color="#3C3DE4" stop-opacity="0.28"/>
<stop offset="0.7305" stop-color="#3541CC" stop-opacity="0.731"/>
<stop offset="1" stop-color="#2F43BB"/>
</linearGradient>
<linearGradient id="paint11_linear_66_143" x1="36.5702" y1="28.9705" x2="34.9636" y2="25.0856" gradientUnits="userSpaceOnUse">
<stop stop-color="white" stop-opacity="0"/>
<stop offset="1" stop-color="white"/>
</linearGradient>
<linearGradient id="paint12_linear_66_143" x1="36.5867" y1="24.7193" x2="36.5867" y2="28.7482" gradientUnits="userSpaceOnUse">
<stop stop-color="#E4F2FF"/>
<stop offset="1" stop-color="#B2CBFF"/>
</linearGradient>
<linearGradient id="paint13_linear_66_143" x1="36.5866" y1="24.7778" x2="36.5866" y2="31.5535" gradientUnits="userSpaceOnUse">
<stop stop-color="#3F3CED" stop-opacity="0"/>
<stop offset="0.2796" stop-color="#3C3DE4" stop-opacity="0.28"/>
<stop offset="0.7305" stop-color="#3541CC" stop-opacity="0.731"/>
<stop offset="1" stop-color="#2F43BB"/>
</linearGradient>
<linearGradient id="paint14_linear_66_143" x1="36.5868" y1="24.7778" x2="36.5868" y2="31.5535" gradientUnits="userSpaceOnUse">
<stop stop-color="#3F3CED" stop-opacity="0"/>
<stop offset="0.2796" stop-color="#3C3DE4" stop-opacity="0.28"/>
<stop offset="0.7305" stop-color="#3541CC" stop-opacity="0.731"/>
<stop offset="1" stop-color="#2F43BB"/>
</linearGradient>
<linearGradient id="paint15_linear_66_143" x1="36.5702" y1="25.8631" x2="34.9636" y2="21.9783" gradientUnits="userSpaceOnUse">
<stop stop-color="white" stop-opacity="0"/>
<stop offset="1" stop-color="white"/>
</linearGradient>
<linearGradient id="paint16_linear_66_143" x1="36.5867" y1="21.6119" x2="36.5867" y2="25.6408" gradientUnits="userSpaceOnUse">
<stop stop-color="#E4F2FF"/>
<stop offset="1" stop-color="#B2CBFF"/>
</linearGradient>
<linearGradient id="paint17_linear_66_143" x1="36.5866" y1="21.6703" x2="36.5866" y2="28.446" gradientUnits="userSpaceOnUse">
<stop stop-color="#3F3CED" stop-opacity="0"/>
<stop offset="0.2796" stop-color="#3C3DE4" stop-opacity="0.28"/>
<stop offset="0.7305" stop-color="#3541CC" stop-opacity="0.731"/>
<stop offset="1" stop-color="#2F43BB"/>
</linearGradient>
<linearGradient id="paint18_linear_66_143" x1="36.5868" y1="21.6703" x2="36.5868" y2="28.446" gradientUnits="userSpaceOnUse">
<stop stop-color="#3F3CED" stop-opacity="0"/>
<stop offset="0.2796" stop-color="#3C3DE4" stop-opacity="0.28"/>
<stop offset="0.7305" stop-color="#3541CC" stop-opacity="0.731"/>
<stop offset="1" stop-color="#2F43BB"/>
</linearGradient>
<linearGradient id="paint19_linear_66_143" x1="36.5702" y1="22.7556" x2="34.9636" y2="18.8709" gradientUnits="userSpaceOnUse">
<stop stop-color="white" stop-opacity="0"/>
<stop offset="1" stop-color="white"/>
</linearGradient>
<linearGradient id="paint20_linear_66_143" x1="36.5867" y1="18.5045" x2="36.5867" y2="22.5335" gradientUnits="userSpaceOnUse">
<stop stop-color="#E4F2FF"/>
<stop offset="1" stop-color="#B2CBFF"/>
</linearGradient>
<linearGradient id="paint21_linear_66_143" x1="36.5866" y1="18.5629" x2="36.5866" y2="25.3386" gradientUnits="userSpaceOnUse">
<stop stop-color="#3F3CED" stop-opacity="0"/>
<stop offset="0.2796" stop-color="#3C3DE4" stop-opacity="0.28"/>
<stop offset="0.7305" stop-color="#3541CC" stop-opacity="0.731"/>
<stop offset="1" stop-color="#2F43BB"/>
</linearGradient>
<linearGradient id="paint22_linear_66_143" x1="36.5868" y1="18.5629" x2="36.5868" y2="25.3386" gradientUnits="userSpaceOnUse">
<stop stop-color="#3F3CED" stop-opacity="0"/>
<stop offset="0.2796" stop-color="#3C3DE4" stop-opacity="0.28"/>
<stop offset="0.7305" stop-color="#3541CC" stop-opacity="0.731"/>
<stop offset="1" stop-color="#2F43BB"/>
</linearGradient>
<linearGradient id="paint23_linear_66_143" x1="36.5702" y1="19.6482" x2="34.9636" y2="15.7634" gradientUnits="userSpaceOnUse">
<stop stop-color="white" stop-opacity="0"/>
<stop offset="1" stop-color="white"/>
</linearGradient>
<linearGradient id="paint24_linear_66_143" x1="36.5867" y1="15.3961" x2="36.5867" y2="19.425" gradientUnits="userSpaceOnUse">
<stop stop-color="#E4F2FF"/>
<stop offset="1" stop-color="#B2CBFF"/>
</linearGradient>
<linearGradient id="paint25_linear_66_143" x1="36.5866" y1="15.4545" x2="36.5866" y2="22.2302" gradientUnits="userSpaceOnUse">
<stop stop-color="#3F3CED" stop-opacity="0"/>
<stop offset="0.2796" stop-color="#3C3DE4" stop-opacity="0.28"/>
<stop offset="0.7305" stop-color="#3541CC" stop-opacity="0.731"/>
<stop offset="1" stop-color="#2F43BB"/>
</linearGradient>
<linearGradient id="paint26_linear_66_143" x1="36.5868" y1="15.4544" x2="36.5868" y2="22.2301" gradientUnits="userSpaceOnUse">
<stop stop-color="#3F3CED" stop-opacity="0"/>
<stop offset="0.2796" stop-color="#3C3DE4" stop-opacity="0.28"/>
<stop offset="0.7305" stop-color="#3541CC" stop-opacity="0.731"/>
<stop offset="1" stop-color="#2F43BB"/>
</linearGradient>
<linearGradient id="paint27_linear_66_143" x1="36.5702" y1="16.5409" x2="34.9636" y2="12.6559" gradientUnits="userSpaceOnUse">
<stop stop-color="white" stop-opacity="0"/>
<stop offset="1" stop-color="white"/>
</linearGradient>
<linearGradient id="paint28_linear_66_143" x1="36.5867" y1="12.2897" x2="36.5867" y2="16.3185" gradientUnits="userSpaceOnUse">
<stop stop-color="#E4F2FF"/>
<stop offset="1" stop-color="#B2CBFF"/>
</linearGradient>
<linearGradient id="paint29_linear_66_143" x1="36.5866" y1="12.3481" x2="36.5866" y2="19.1237" gradientUnits="userSpaceOnUse">
<stop stop-color="#3F3CED" stop-opacity="0"/>
<stop offset="0.2796" stop-color="#3C3DE4" stop-opacity="0.28"/>
<stop offset="0.7305" stop-color="#3541CC" stop-opacity="0.731"/>
<stop offset="1" stop-color="#2F43BB"/>
</linearGradient>
<linearGradient id="paint30_linear_66_143" x1="36.5868" y1="12.3481" x2="36.5868" y2="19.1237" gradientUnits="userSpaceOnUse">
<stop stop-color="#3F3CED" stop-opacity="0"/>
<stop offset="0.2796" stop-color="#3C3DE4" stop-opacity="0.28"/>
<stop offset="0.7305" stop-color="#3541CC" stop-opacity="0.731"/>
<stop offset="1" stop-color="#2F43BB"/>
</linearGradient>
<linearGradient id="paint31_linear_66_143" x1="36.5702" y1="13.4334" x2="34.9636" y2="9.5485" gradientUnits="userSpaceOnUse">
<stop stop-color="white" stop-opacity="0"/>
<stop offset="1" stop-color="white"/>
</linearGradient>
<radialGradient id="paint32_radial_66_143" cx="0" cy="0" r="1" gradientUnits="userSpaceOnUse" gradientTransform="translate(17.3976 18.3591) scale(29.1387 29.1387)">
<stop stop-color="#4AB272"/>
<stop offset="0.3386" stop-color="#47B071"/>
<stop offset="0.5502" stop-color="#3FA870"/>
<stop offset="0.727" stop-color="#309B6D"/>
<stop offset="0.8837" stop-color="#1C8869"/>
<stop offset="1" stop-color="#077565"/>
</radialGradient>
<linearGradient id="paint33_linear_66_143" x1="11.8783" y1="31.8416" x2="10.9449" y2="60.9351" gradientUnits="userSpaceOnUse">
<stop stop-color="#005A01" stop-opacity="0"/>
<stop offset="1" stop-color="#005A01"/>
</linearGradient>
<linearGradient id="paint34_linear_66_143" x1="20.3758" y1="37.5731" x2="24.5249" y2="53.4086" gradientUnits="userSpaceOnUse">
<stop stop-color="#005A01" stop-opacity="0"/>
<stop offset="1" stop-color="#005A01"/>
</linearGradient>
<linearGradient id="paint35_linear_66_143" x1="33.2133" y1="37.2615" x2="31.6922" y2="56.762" gradientUnits="userSpaceOnUse">
<stop stop-color="#005A01" stop-opacity="0"/>
<stop offset="1" stop-color="#005A01"/>
</linearGradient>
<linearGradient id="paint36_linear_66_143" x1="20.5596" y1="25.8745" x2="1.05918" y2="-8.97724" gradientUnits="userSpaceOnUse">
<stop stop-color="#91F27F" stop-opacity="0"/>
<stop offset="1" stop-color="#FFED82"/>
</linearGradient>
<linearGradient id="paint37_linear_66_143" x1="34.1622" y1="32.6236" x2="9.45159" y2="18.6417" gradientUnits="userSpaceOnUse">
<stop stop-color="#005A01" stop-opacity="0"/>
<stop offset="1" stop-color="#005A01"/>
</linearGradient>
<linearGradient id="paint38_linear_66_143" x1="19.7521" y1="21.684" x2="33.2875" y2="33.3525" gradientUnits="userSpaceOnUse">
<stop stop-color="#FFC738"/>
<stop offset="0.1876" stop-color="#FDBF3C"/>
<stop offset="0.4837" stop-color="#F7A848"/>
<stop offset="0.8493" stop-color="#ED835B"/>
<stop offset="1" stop-color="#E97264"/>
</linearGradient>
<linearGradient id="paint39_linear_66_143" x1="21.0225" y1="-0.820712" x2="25.5864" y2="8.82575" gradientUnits="userSpaceOnUse">
<stop stop-color="#4AB272"/>
<stop offset="0.3386" stop-color="#47B071"/>
<stop offset="0.5502" stop-color="#3FA870"/>
<stop offset="0.727" stop-color="#309B6D"/>
<stop offset="0.8837" stop-color="#1C8869"/>
<stop offset="1" stop-color="#077565"/>
</linearGradient>
<linearGradient id="paint40_linear_66_143" x1="22.5216" y1="4.27131" x2="28.6759" y2="13.814" gradientUnits="userSpaceOnUse">
<stop stop-color="#005A01" stop-opacity="0"/>
<stop offset="1" stop-color="#005A01"/>
</linearGradient>
<linearGradient id="paint41_linear_66_143" x1="22.8231" y1="0.811091" x2="23.1342" y2="3.87095" gradientUnits="userSpaceOnUse">
<stop stop-color="#005A01" stop-opacity="0"/>
<stop offset="1" stop-color="#005A01"/>
</linearGradient>
<linearGradient id="paint42_linear_66_143" x1="21.4729" y1="4.57662" x2="9.70002" y2="4.3692" gradientUnits="userSpaceOnUse">
<stop stop-color="#91F27F" stop-opacity="0"/>
<stop offset="1" stop-color="#FFED82"/>
</linearGradient>
<linearGradient id="paint43_linear_66_143" x1="22.584" y1="8.0565" x2="22.584" y2="9.52338" gradientUnits="userSpaceOnUse">
<stop stop-color="#FFC738"/>
<stop offset="0.1876" stop-color="#FDBF3C"/>
<stop offset="0.4837" stop-color="#F7A848"/>
<stop offset="0.8493" stop-color="#ED835B"/>
<stop offset="1" stop-color="#E97264"/>
</linearGradient>
<linearGradient id="paint44_linear_66_143" x1="21.4458" y1="35.2805" x2="12.318" y2="34.5199" gradientUnits="userSpaceOnUse">
<stop stop-color="#005A01" stop-opacity="0"/>
<stop offset="1" stop-color="#005A01"/>
</linearGradient>
<linearGradient id="paint45_linear_66_143" x1="7.94996" y1="41.4674" x2="7.94996" y2="45.4962" gradientUnits="userSpaceOnUse">
<stop stop-color="#FFD945"/>
<stop offset="0.3043" stop-color="#FFCD3E"/>
<stop offset="0.8558" stop-color="#FFAD2B"/>
<stop offset="1" stop-color="#FFA325"/>
</linearGradient>
<linearGradient id="paint46_linear_66_143" x1="7.94994" y1="41.5258" x2="7.94994" y2="48.3014" gradientUnits="userSpaceOnUse">
<stop stop-color="#E87264" stop-opacity="0"/>
<stop offset="1" stop-color="#FF7044"/>
</linearGradient>
<linearGradient id="paint47_linear_66_143" x1="7.95011" y1="41.5258" x2="7.95011" y2="48.3014" gradientUnits="userSpaceOnUse">
<stop stop-color="#E87264" stop-opacity="0"/>
<stop offset="1" stop-color="#FF7044"/>
</linearGradient>
<linearGradient id="paint48_linear_66_143" x1="7.93302" y1="42.6111" x2="6.32657" y2="38.7261" gradientUnits="userSpaceOnUse">
<stop stop-color="#FFD945" stop-opacity="0"/>
<stop offset="1" stop-color="#FBED21"/>
</linearGradient>
<linearGradient id="paint49_linear_66_143" x1="7.94996" y1="38.3599" x2="7.94996" y2="42.3887" gradientUnits="userSpaceOnUse">
<stop stop-color="#FFD945"/>
<stop offset="0.3043" stop-color="#FFCD3E"/>
<stop offset="0.8558" stop-color="#FFAD2B"/>
<stop offset="1" stop-color="#FFA325"/>
</linearGradient>
<linearGradient id="paint50_linear_66_143" x1="7.94994" y1="38.4185" x2="7.94994" y2="45.1941" gradientUnits="userSpaceOnUse">
<stop stop-color="#E87264" stop-opacity="0"/>
<stop offset="1" stop-color="#FF7044"/>
</linearGradient>
<linearGradient id="paint51_linear_66_143" x1="7.95011" y1="38.4184" x2="7.95011" y2="45.194" gradientUnits="userSpaceOnUse">
<stop stop-color="#E87264" stop-opacity="0"/>
<stop offset="1" stop-color="#FF7044"/>
</linearGradient>
<linearGradient id="paint52_linear_66_143" x1="7.93302" y1="39.5037" x2="6.32656" y2="35.6189" gradientUnits="userSpaceOnUse">
<stop stop-color="#FFD945" stop-opacity="0"/>
<stop offset="1" stop-color="#FBED21"/>
</linearGradient>
<linearGradient id="paint53_linear_66_143" x1="7.94996" y1="35.2526" x2="7.94996" y2="39.2814" gradientUnits="userSpaceOnUse">
<stop stop-color="#FFD945"/>
<stop offset="0.3043" stop-color="#FFCD3E"/>
<stop offset="0.8558" stop-color="#FFAD2B"/>
<stop offset="1" stop-color="#FFA325"/>
</linearGradient>
<linearGradient id="paint54_linear_66_143" x1="7.94994" y1="35.311" x2="7.94994" y2="42.0866" gradientUnits="userSpaceOnUse">
<stop stop-color="#E87264" stop-opacity="0"/>
<stop offset="1" stop-color="#FF7044"/>
</linearGradient>
<linearGradient id="paint55_linear_66_143" x1="7.95011" y1="35.311" x2="7.95011" y2="42.0866" gradientUnits="userSpaceOnUse">
<stop stop-color="#E87264" stop-opacity="0"/>
<stop offset="1" stop-color="#FF7044"/>
</linearGradient>
<linearGradient id="paint56_linear_66_143" x1="7.93302" y1="36.3972" x2="6.32656" y2="32.5124" gradientUnits="userSpaceOnUse">
<stop stop-color="#FFD945" stop-opacity="0"/>
<stop offset="1" stop-color="#FBED21"/>
</linearGradient>
<linearGradient id="paint57_linear_66_143" x1="7.94996" y1="32.1451" x2="7.94996" y2="36.174" gradientUnits="userSpaceOnUse">
<stop stop-color="#FFD945"/>
<stop offset="0.3043" stop-color="#FFCD3E"/>
<stop offset="0.8558" stop-color="#FFAD2B"/>
<stop offset="1" stop-color="#FFA325"/>
</linearGradient>
<linearGradient id="paint58_linear_66_143" x1="7.94994" y1="32.2036" x2="7.94994" y2="38.9795" gradientUnits="userSpaceOnUse">
<stop stop-color="#E87264" stop-opacity="0"/>
<stop offset="1" stop-color="#FF7044"/>
</linearGradient>
<linearGradient id="paint59_linear_66_143" x1="7.95011" y1="32.2035" x2="7.95011" y2="38.9793" gradientUnits="userSpaceOnUse">
<stop stop-color="#E87264" stop-opacity="0"/>
<stop offset="1" stop-color="#FF7044"/>
</linearGradient>
<linearGradient id="paint60_linear_66_143" x1="7.93302" y1="33.2898" x2="6.32657" y2="29.4049" gradientUnits="userSpaceOnUse">
<stop stop-color="#FFD945" stop-opacity="0"/>
<stop offset="1" stop-color="#FBED21"/>
</linearGradient>
<linearGradient id="paint61_linear_66_143" x1="7.94996" y1="29.0376" x2="7.94996" y2="33.0665" gradientUnits="userSpaceOnUse">
<stop stop-color="#FFD945"/>
<stop offset="0.3043" stop-color="#FFCD3E"/>
<stop offset="0.8558" stop-color="#FFAD2B"/>
<stop offset="1" stop-color="#FFA325"/>
</linearGradient>
<linearGradient id="paint62_linear_66_143" x1="7.94994" y1="29.096" x2="7.94994" y2="35.8717" gradientUnits="userSpaceOnUse">
<stop stop-color="#E87264" stop-opacity="0"/>
<stop offset="1" stop-color="#FF7044"/>
</linearGradient>
<linearGradient id="paint63_linear_66_143" x1="7.95011" y1="29.096" x2="7.95011" y2="35.8717" gradientUnits="userSpaceOnUse">
<stop stop-color="#E87264" stop-opacity="0"/>
<stop offset="1" stop-color="#FF7044"/>
</linearGradient>
<linearGradient id="paint64_linear_66_143" x1="7.93302" y1="30.1824" x2="6.32656" y2="26.2975" gradientUnits="userSpaceOnUse">
<stop stop-color="#FFD945" stop-opacity="0"/>
<stop offset="1" stop-color="#FBED21"/>
</linearGradient>
<linearGradient id="paint65_linear_66_143" x1="7.94996" y1="25.9302" x2="7.94996" y2="29.9591" gradientUnits="userSpaceOnUse">
<stop stop-color="#FFD945"/>
<stop offset="0.3043" stop-color="#FFCD3E"/>
<stop offset="0.8558" stop-color="#FFAD2B"/>
<stop offset="1" stop-color="#FFA325"/>
</linearGradient>
<linearGradient id="paint66_linear_66_143" x1="7.94994" y1="25.9887" x2="7.94994" y2="32.7644" gradientUnits="userSpaceOnUse">
<stop stop-color="#E87264" stop-opacity="0"/>
<stop offset="1" stop-color="#FF7044"/>
</linearGradient>
<linearGradient id="paint67_linear_66_143" x1="7.95011" y1="25.9886" x2="7.95011" y2="32.7643" gradientUnits="userSpaceOnUse">
<stop stop-color="#E87264" stop-opacity="0"/>
<stop offset="1" stop-color="#FF7044"/>
</linearGradient>
<linearGradient id="paint68_linear_66_143" x1="7.93302" y1="27.074" x2="6.32656" y2="23.1891" gradientUnits="userSpaceOnUse">
<stop stop-color="#FFD945" stop-opacity="0"/>
<stop offset="1" stop-color="#FBED21"/>
</linearGradient>
<linearGradient id="paint69_linear_66_143" x1="33.3572" y1="41.4674" x2="33.3572" y2="45.4962" gradientUnits="userSpaceOnUse">
<stop stop-color="#FFD945"/>
<stop offset="0.3043" stop-color="#FFCD3E"/>
<stop offset="0.8558" stop-color="#FFAD2B"/>
<stop offset="1" stop-color="#FFA325"/>
</linearGradient>
<linearGradient id="paint70_linear_66_143" x1="33.3571" y1="41.5258" x2="33.3571" y2="48.3014" gradientUnits="userSpaceOnUse">
<stop stop-color="#E87264" stop-opacity="0"/>
<stop offset="1" stop-color="#FF7044"/>
</linearGradient>
<linearGradient id="paint71_linear_66_143" x1="33.3569" y1="41.5258" x2="33.3569" y2="48.3014" gradientUnits="userSpaceOnUse">
<stop stop-color="#E87264" stop-opacity="0"/>
<stop offset="1" stop-color="#FF7044"/>
</linearGradient>
<linearGradient id="paint72_linear_66_143" x1="33.3403" y1="42.6111" x2="31.7338" y2="38.7261" gradientUnits="userSpaceOnUse">
<stop stop-color="#FFD945" stop-opacity="0"/>
<stop offset="1" stop-color="#FBED21"/>
</linearGradient>
<linearGradient id="paint73_linear_66_143" x1="33.3572" y1="38.3599" x2="33.3572" y2="42.3887" gradientUnits="userSpaceOnUse">
<stop stop-color="#FFD945"/>
<stop offset="0.3043" stop-color="#FFCD3E"/>
<stop offset="0.8558" stop-color="#FFAD2B"/>
<stop offset="1" stop-color="#FFA325"/>
</linearGradient>
<linearGradient id="paint74_linear_66_143" x1="33.3571" y1="38.4185" x2="33.3571" y2="45.1941" gradientUnits="userSpaceOnUse">
<stop stop-color="#E87264" stop-opacity="0"/>
<stop offset="1" stop-color="#FF7044"/>
</linearGradient>
<linearGradient id="paint75_linear_66_143" x1="33.3569" y1="38.4184" x2="33.3569" y2="45.194" gradientUnits="userSpaceOnUse">
<stop stop-color="#E87264" stop-opacity="0"/>
<stop offset="1" stop-color="#FF7044"/>
</linearGradient>
<linearGradient id="paint76_linear_66_143" x1="33.3403" y1="39.5037" x2="31.7338" y2="35.6189" gradientUnits="userSpaceOnUse">
<stop stop-color="#FFD945" stop-opacity="0"/>
<stop offset="1" stop-color="#FBED21"/>
</linearGradient>
<linearGradient id="paint77_linear_66_143" x1="3.39284" y1="16.4981" x2="7.47026" y2="21.9574" gradientUnits="userSpaceOnUse">
<stop stop-color="#FFD945"/>
<stop offset="0.3043" stop-color="#FFCD3E"/>
<stop offset="0.8558" stop-color="#FFAD2B"/>
<stop offset="1" stop-color="#FFA325"/>
</linearGradient>
<linearGradient id="paint78_linear_66_143" x1="9.99047" y1="5.35682" x2="12.8739" y2="9.21743" gradientUnits="userSpaceOnUse">
<stop stop-color="#FFD945"/>
<stop offset="0.3043" stop-color="#FFCD3E"/>
<stop offset="0.8558" stop-color="#FFAD2B"/>
<stop offset="1" stop-color="#FFA325"/>
</linearGradient>
<linearGradient id="paint79_linear_66_143" x1="34.8811" y1="7.48681" x2="37.7646" y2="11.3474" gradientUnits="userSpaceOnUse">
<stop stop-color="#FFD945"/>
<stop offset="0.3043" stop-color="#FFCD3E"/>
<stop offset="0.8558" stop-color="#FFAD2B"/>
<stop offset="1" stop-color="#FFA325"/>
</linearGradient>
<clipPath id="clip0_66_143">
<rect width="45" height="44.0217" fill="white" transform="translate(0.25 0.489258)"/>
</clipPath>
</defs>
</svg>
