<svg width="46" height="45" viewBox="0 0 46 45" fill="none" xmlns="http://www.w3.org/2000/svg">
<g clip-path="url(#clip0_66_235)">
<mask id="mask0_66_235" style="mask-type:luminance" maskUnits="userSpaceOnUse" x="0" y="0" width="45" height="45">
<path d="M44.2747 0.489258H0.25293V44.511H44.2747V0.489258Z" fill="white"/>
</mask>
<g mask="url(#mask0_66_235)">
<path d="M35.3496 8.17629V34.9686C35.3496 35.0221 35.3488 35.0756 35.346 35.129C35.2621 36.9638 33.7475 38.4269 31.8903 38.4269H12.4436C10.533 38.4269 8.98438 36.8782 8.98438 34.9686V3.94849C8.98438 2.30627 10.1283 0.931453 11.6627 0.577473C11.9141 0.519609 12.1753 0.489258 12.4436 0.489258H27.8907C28.416 0.489258 28.9286 0.60877 29.3931 0.833435C30.3275 1.2832 30.5907 1.85161 32.2701 3.56872C34.2021 5.66654 34.6634 5.88158 35.0571 6.78995C35.2488 7.2232 35.3496 7.69394 35.3496 8.17629Z" fill="#FFC477"/>
<path d="M35.3498 8.17629V34.9685C35.3498 35.0221 35.3489 35.0756 35.3462 35.1291C35.0948 35.187 34.8336 35.2173 34.5652 35.2173H15.1184C13.2078 35.2173 11.6592 33.6686 11.6592 31.759V0.738858C11.6592 0.684433 11.6601 0.630953 11.6627 0.577473C11.9142 0.519609 12.1754 0.489258 12.4437 0.489258H27.891C28.4161 0.489258 28.9287 0.60877 29.3932 0.833435C29.7747 1.01709 30.1234 1.27211 30.4185 1.58774L32.2703 3.5688L34.3903 5.787C34.673 6.08208 34.8976 6.42179 35.0572 6.79004C35.2491 7.2232 35.3498 7.69395 35.3498 8.17629Z" fill="#FFDAAA"/>
<path d="M44.2244 20.1736V39.6221C44.2244 40.7036 43.8731 41.704 43.2776 42.5135C42.3887 43.7243 40.9541 44.5106 39.336 44.5106H26.633C23.9333 44.5106 21.7446 42.3218 21.7446 39.6222V20.1736C21.7446 18.1561 22.9678 16.4237 24.7127 15.6774C25.302 15.4251 25.9511 15.2852 26.6331 15.2852H39.336C42.0366 15.2853 44.2244 17.474 44.2244 20.1736Z" fill="#4CBA68"/>
<path d="M44.2242 20.1736V39.6221C44.2242 40.7036 43.8729 41.704 43.2773 42.5135C42.688 42.7658 42.0389 42.9058 41.3569 42.9058H28.654C25.9543 42.9058 23.7656 40.717 23.7656 38.0174V18.5688C23.7656 17.4873 24.1169 16.4869 24.7124 15.6774C25.3017 15.4251 25.9508 15.2852 26.6328 15.2852H39.3358C42.0363 15.2853 44.2242 17.474 44.2242 20.1736Z" fill="#7CCC92"/>
<path d="M34.8573 32.9605V35.2447C34.8573 35.6486 34.53 35.9758 34.127 35.9758H31.8419C31.4381 35.9758 31.1108 35.6486 31.1108 35.2447V32.9605C31.1108 32.5567 31.4381 32.2295 31.8419 32.2295H34.127C34.5301 32.2295 34.8573 32.5567 34.8573 32.9605Z" fill="#2C733F"/>
<path d="M40.865 19.7159V22.1632C40.865 23.0334 40.1597 23.7395 39.2887 23.7395H26.6803C25.81 23.7395 25.104 23.0334 25.104 22.1632V19.7159C25.104 18.8457 25.8101 18.1396 26.6803 18.1396H39.2887C40.1597 18.1396 40.865 18.8458 40.865 19.7159Z" fill="#1E81CE"/>
<path d="M40.8646 19.7159V22.1632C40.8646 23.0334 40.1594 23.7395 39.2883 23.7395H29.3546C28.4843 23.7395 27.7783 23.0334 27.7783 22.1632V19.7159C27.7783 18.8457 28.4844 18.1396 29.3546 18.1396H39.2883C40.1594 18.1396 40.8646 18.8458 40.8646 19.7159Z" fill="#3D9AE2"/>
<path d="M28.8508 32.9605V35.2447C28.8508 35.6486 28.5236 35.9758 28.1197 35.9758H25.8347C25.4316 35.9758 25.1035 35.6486 25.1035 35.2447V32.9605C25.1035 32.5567 25.4316 32.2295 25.8347 32.2295H28.1197C28.5236 32.2295 28.8508 32.5567 28.8508 32.9605Z" fill="#2C733F"/>
<path d="M34.8573 26.9869V29.2711C34.8573 29.675 34.53 30.0022 34.127 30.0022H31.8419C31.4381 30.0022 31.1108 29.675 31.1108 29.2711V26.9869C31.1108 26.5831 31.4381 26.2559 31.8419 26.2559H34.127C34.5301 26.2559 34.8573 26.5831 34.8573 26.9869Z" fill="#2C733F"/>
<path d="M40.9373 26.9869V29.2711C40.9373 29.675 40.61 30.0022 40.2062 30.0022H37.9221C37.5182 30.0022 37.1909 29.675 37.1909 29.2711V26.9869C37.1909 26.5831 37.5182 26.2559 37.9221 26.2559H40.2062C40.6101 26.2559 40.9373 26.5831 40.9373 26.9869Z" fill="#EE8700"/>
<path d="M28.8508 26.9869V29.2711C28.8508 29.675 28.5236 30.0022 28.1197 30.0022H25.8347C25.4316 30.0022 25.1035 29.675 25.1035 29.2711V26.9869C25.1035 26.5831 25.4316 26.2559 25.8347 26.2559H28.1197C28.5236 26.2559 28.8508 26.5831 28.8508 26.9869Z" fill="#2C733F"/>
<path d="M34.8573 38.6413V40.9264C34.8573 41.3303 34.53 41.6575 34.127 41.6575H31.8419C31.4381 41.6575 31.1108 41.3303 31.1108 40.9264V38.6413C31.1108 38.2384 31.4381 37.9111 31.8419 37.9111H34.127C34.5301 37.9111 34.8573 38.2384 34.8573 38.6413Z" fill="#2C733F"/>
<path d="M28.8508 38.6413V40.9264C28.8508 41.3303 28.5236 41.6575 28.1197 41.6575H25.8347C25.4316 41.6575 25.1035 41.3303 25.1035 40.9264V38.6413C25.1035 38.2384 25.4316 37.9111 25.8347 37.9111H28.1197C28.5236 37.9111 28.8508 38.2384 28.8508 38.6413Z" fill="#2C733F"/>
<path d="M40.9372 33.3155V40.4095C40.9372 41.0988 40.3791 41.6569 39.6909 41.6569H38.4373C37.749 41.6569 37.1909 41.0988 37.1909 40.4095V33.3155C37.1909 32.7154 37.6778 32.2295 38.2769 32.2295H39.8514C40.4514 32.2295 40.9372 32.7155 40.9372 33.3155Z" fill="#EE8700"/>
<path d="M34.8573 32.9605V33.6399C34.8573 34.0438 34.53 34.371 34.127 34.371H31.8419C31.4381 34.371 31.1108 34.0438 31.1108 33.6399V32.9605C31.1108 32.5567 31.4381 32.2295 31.8419 32.2295H34.127C34.5301 32.2295 34.8573 32.5567 34.8573 32.9605Z" fill="#317F46"/>
<path d="M28.8508 32.9605V33.6399C28.8508 34.0438 28.5236 34.371 28.1197 34.371H25.8347C25.4316 34.371 25.1035 34.0438 25.1035 33.6399V32.9605C25.1035 32.5567 25.4316 32.2295 25.8347 32.2295H28.1197C28.5236 32.2295 28.8508 32.5567 28.8508 32.9605Z" fill="#317F46"/>
<path d="M34.8573 26.9869V27.6663C34.8573 28.0701 34.53 28.3974 34.127 28.3974H31.8419C31.4381 28.3974 31.1108 28.0701 31.1108 27.6663V26.9869C31.1108 26.5831 31.4381 26.2559 31.8419 26.2559H34.127C34.5301 26.2559 34.8573 26.5831 34.8573 26.9869Z" fill="#317F46"/>
<path d="M40.9373 26.9869V27.6663C40.9373 28.0701 40.61 28.3974 40.2062 28.3974H37.9221C37.5182 28.3974 37.1909 28.0701 37.1909 27.6663V26.9869C37.1909 26.5831 37.5182 26.2559 37.9221 26.2559H40.2062C40.6101 26.2559 40.9373 26.5831 40.9373 26.9869Z" fill="#FF9811"/>
<path d="M28.8508 26.9869V27.6663C28.8508 28.0701 28.5236 28.3974 28.1197 28.3974H25.8347C25.4316 28.3974 25.1035 28.0701 25.1035 27.6663V26.9869C25.1035 26.5831 25.4316 26.2559 25.8347 26.2559H28.1197C28.5236 26.2559 28.8508 26.5831 28.8508 26.9869Z" fill="#317F46"/>
<path d="M34.8573 38.6413V39.3216C34.8573 39.7254 34.53 40.0527 34.127 40.0527H31.8419C31.4381 40.0527 31.1108 39.7254 31.1108 39.3216V38.6413C31.1108 38.2384 31.4381 37.9111 31.8419 37.9111H34.127C34.5301 37.9111 34.8573 38.2384 34.8573 38.6413Z" fill="#317F46"/>
<path d="M28.8508 38.6413V39.3216C28.8508 39.7254 28.5236 40.0527 28.1197 40.0527H25.8347C25.4316 40.0527 25.1035 39.7254 25.1035 39.3216V38.6413C25.1035 38.2384 25.4316 37.9111 25.8347 37.9111H28.1197C28.5236 37.9111 28.8508 38.2384 28.8508 38.6413Z" fill="#317F46"/>
<path d="M40.9372 33.3155V38.8047C40.9372 39.494 40.3791 40.0521 39.6909 40.0521H38.4373C37.749 40.0521 37.1909 39.494 37.1909 38.8047V33.3155C37.1909 32.7154 37.6778 32.2295 38.2769 32.2295H39.8514C40.4514 32.2295 40.9372 32.7155 40.9372 33.3155Z" fill="#FF9811"/>
<path d="M35.0576 6.78945H30.7229C29.9884 6.78945 29.3931 6.19404 29.3931 5.45959V0.833008C29.7748 1.01657 30.1234 1.27151 30.4183 1.58679L32.2708 3.56803L34.3906 5.78657C34.6728 6.08149 34.8974 6.42128 35.0576 6.78945Z" fill="#FFB655"/>
<path d="M16.7992 19.1997C15.9838 18.9001 15.3949 18.6837 15.3949 17.9284C15.3949 17.24 15.852 16.891 16.7537 16.891C17.3596 16.891 17.7013 17.0668 17.9279 17.1833C18.0624 17.2524 18.1785 17.3122 18.3057 17.3122C18.6726 17.3122 18.8757 16.9228 18.8757 16.6534C18.8757 16.0964 17.967 15.8202 17.1547 15.7474V15.245C17.1547 14.8956 16.8705 14.6113 16.521 14.6113C16.1716 14.6113 15.8873 14.8956 15.8873 15.245V15.8272C14.7767 16.0909 14.1664 16.8581 14.1664 17.9947C14.1664 19.5511 15.3121 19.9816 16.2329 20.3278C17.1345 20.6665 17.8467 20.9341 17.8467 21.9634C17.8467 22.8136 17.3746 23.2447 16.4435 23.2447C15.6002 23.2447 15.2642 22.8825 15.0189 22.6182C14.8728 22.4606 14.7467 22.3245 14.5481 22.3245C14.2261 22.3245 13.9668 22.6849 13.9668 22.9833C13.9668 23.5102 14.7516 24.2027 15.8874 24.3826V24.8679C15.8874 25.2173 16.1717 25.5016 16.5211 25.5016C16.8706 25.5016 17.1548 25.2173 17.1548 24.8679V24.3696C18.3765 24.1397 19.0754 23.2424 19.0754 21.8969C19.0752 20.036 17.8131 19.5723 16.7992 19.1997Z" fill="#4E901E"/>
<path d="M28.5881 10.2514H30.2677C30.6369 10.2514 30.9363 9.9521 30.9363 9.58273C30.9363 9.21336 30.6369 8.91406 30.2677 8.91406H28.5881C28.2188 8.91406 27.9194 9.21336 27.9194 9.58273C27.9194 9.9521 28.2188 10.2514 28.5881 10.2514Z" fill="#4E901E"/>
<path d="M14.0558 10.2514H25.9136C26.2829 10.2514 26.5823 9.9521 26.5823 9.58273C26.5823 9.21336 26.2829 8.91406 25.9136 8.91406H14.0558C13.6866 8.91406 13.3872 9.21336 13.3872 9.58273C13.3872 9.9521 13.6866 10.2514 14.0558 10.2514Z" fill="#4E901E"/>
<path d="M16.1813 13.5707C16.5506 13.5707 16.85 13.2714 16.85 12.902C16.85 12.5326 16.5506 12.2334 16.1813 12.2334H14.0558C13.6866 12.2334 13.3872 12.5326 13.3872 12.902C13.3872 13.2714 13.6866 13.5707 14.0558 13.5707H16.1813Z" fill="#4E901E"/>
<path d="M30.2677 12.2334H18.8557C18.4865 12.2334 18.187 12.5326 18.187 12.902C18.187 13.2714 18.4865 13.5707 18.8557 13.5707H30.2677C30.6369 13.5707 30.9363 13.2714 30.9363 12.902C30.9363 12.5326 30.6369 12.2334 30.2677 12.2334Z" fill="#4E901E"/>
<path d="M19.4625 42.4088C19.4625 42.875 19.2718 43.2976 18.9651 43.6053C18.6575 43.912 18.2348 44.1028 17.7686 44.1028H7.39075C6.45908 44.1028 5.69678 43.3405 5.69678 42.4088C5.69678 41.9426 5.88757 41.52 6.19426 41.2123C6.50181 40.9056 6.92449 40.7148 7.39075 40.7148H17.7686C18.7003 40.7148 19.4625 41.4771 19.4625 42.4088Z" fill="#AA6100"/>
<path d="M19.4625 39.0201C19.4625 39.4865 19.2718 39.909 18.9651 40.2166C18.6575 40.5233 18.2348 40.7141 17.7686 40.7141H7.39075C6.45908 40.7141 5.69678 39.9518 5.69678 39.0201C5.69678 38.5539 5.88757 38.1313 6.19426 37.8236C6.50181 37.5169 6.92449 37.3262 7.39075 37.3262H17.7686C18.7003 37.3262 19.4625 38.0884 19.4625 39.0201Z" fill="#CC7400"/>
<path d="M19.4625 35.6324C19.4625 36.0987 19.2718 36.5213 18.9651 36.8289C18.6575 37.1356 18.2348 37.3264 17.7686 37.3264H7.39075C6.45908 37.3264 5.69678 36.5641 5.69678 35.6324C5.69678 35.1662 5.88757 34.7436 6.19426 34.4359C6.50181 34.1292 6.92449 33.9385 7.39075 33.9385H17.7686C18.7003 33.9386 19.4625 34.7007 19.4625 35.6324Z" fill="#EE8700"/>
<path d="M19.4625 32.2448C19.4625 32.7111 19.2718 33.1337 18.9651 33.4412C18.6575 33.748 18.2348 33.9388 17.7686 33.9388H7.39075C6.45908 33.9388 5.69678 33.1764 5.69678 32.2448C5.69678 31.9132 5.79394 31.6029 5.96065 31.3407C6.02755 31.2346 6.10595 31.1365 6.19426 31.0483C6.50181 30.7416 6.92449 30.5508 7.39075 30.5508H17.7686C18.7003 30.5508 19.4625 31.3131 19.4625 32.2448Z" fill="#FF9811"/>
<path d="M17.7686 30.551H7.39124C6.45956 30.551 5.69727 29.7887 5.69727 28.857C5.69727 27.9253 6.45956 27.1631 7.39124 27.1631H17.7687C18.7003 27.1631 19.4627 27.9253 19.4627 28.857C19.4626 29.7887 18.7003 30.551 17.7686 30.551Z" fill="#FFA733"/>
<path d="M7.75919 33.2676V44.2955H6.07166C4.58155 44.3596 3.20337 43.8251 2.17015 42.9067C-1.57961 39.5789 0.702817 33.4799 5.59947 33.2676H7.75919Z" fill="#CC7400"/>
<path d="M13.5043 38.9809C13.405 41.8328 11.124 44.1709 8.22555 44.295C5.18066 44.4252 2.60668 42.0623 2.4765 39.0174C2.47598 39.005 2.47538 38.9932 2.47538 38.9809C2.36533 35.9513 4.72161 33.3974 7.75413 33.2678C10.799 33.1376 13.373 35.5005 13.5032 38.546C13.5094 38.6924 13.5099 38.8372 13.5043 38.9809Z" fill="#FFC477"/>
<path d="M8.90274 42.8092C8.83542 42.8243 8.76853 42.8378 8.70129 42.8496C6.54655 43.229 4.45139 41.8518 3.96191 39.6948C3.45789 37.4704 4.85206 35.2591 7.07636 34.7545C7.62972 34.6293 8.18258 34.6209 8.70851 34.7141C10.2958 34.9958 11.6379 36.1981 12.0167 37.8689C12.5213 40.0932 11.127 42.3052 8.90274 42.8092Z" fill="#CC7400"/>
<path d="M8.90318 42.8091C8.83585 42.8242 8.76896 42.8377 8.70172 42.8495C7.11504 42.5677 5.77247 41.365 5.39355 39.6946C4.88954 37.4702 6.28371 35.2589 8.50801 34.7543C8.57481 34.7391 8.64222 34.7256 8.70894 34.7139C10.2962 34.9956 11.6383 36.1979 12.0171 37.8688C12.5217 40.093 11.1274 42.3051 8.90318 42.8091Z" fill="#EE8700"/>
<path d="M13.504 38.9814C13.4047 41.8333 11.1236 44.1714 8.22527 44.2956C5.18037 44.4257 2.60638 42.0628 2.47621 39.0178C2.47569 39.0055 2.4751 38.9937 2.4751 38.9814H3.86358C3.87536 39.2177 3.90787 39.4563 3.96186 39.6948C4.46647 41.9192 6.6784 43.3139 8.9027 42.8093C10.7532 42.3899 12.0289 40.7893 12.1148 38.9814H13.504Z" fill="#FFA733"/>
<path d="M8.48519 37.9432L8.38159 37.9049C7.79435 37.689 7.73458 37.6206 7.73458 37.4215C7.73458 37.254 7.79632 37.2058 7.85419 37.1737C7.94429 37.1239 8.08573 37.0964 8.25236 37.0964C8.54365 37.0964 8.69034 37.172 8.82103 37.2391C8.92103 37.2906 9.03443 37.3488 9.18197 37.3488C9.56338 37.3488 9.8196 36.9916 9.8196 36.658C9.8196 36.2513 9.45599 35.9712 8.78887 35.8564V35.8145C8.78887 35.4418 8.48571 35.1387 8.11316 35.1387C7.74061 35.1387 7.43744 35.4418 7.43744 35.8145V35.9426C6.77917 36.1814 6.40671 36.7244 6.40671 37.4613C6.40671 38.5986 7.23298 38.909 7.83647 39.1358C8.41185 39.352 8.61089 39.4467 8.61089 39.8382C8.61089 40.0829 8.54503 40.3093 8.06672 40.3093C7.69083 40.3093 7.55858 40.1667 7.43056 40.0286C7.33074 39.9209 7.17967 39.7583 6.93145 39.7583C6.56268 39.7583 6.28711 40.123 6.28711 40.449C6.28711 40.911 6.76748 41.3494 7.43752 41.5273V41.5779C7.43752 41.9504 7.74069 42.2536 8.11324 42.2536C8.48579 42.2536 8.78896 41.9504 8.78896 41.5779V41.5096C9.51385 41.2765 9.93928 40.6523 9.93928 39.7984C9.93886 38.4851 8.99333 38.1325 8.48519 37.9432Z" fill="#AA6100"/>
<path d="M3.38458 35.7402C3.11341 36.1502 2.89553 36.5983 2.74086 37.074H0.587402C0.740791 36.5909 0.973022 36.1275 1.23019 35.7402H3.38458Z" fill="#AA6100"/>
<path d="M2.51422 39.4734H0.359821C0.305396 39.0338 0.300839 38.5941 0.353545 38.1396H2.5088C2.45713 38.5728 2.45824 39.0229 2.51422 39.4734Z" fill="#AA6100"/>
<path d="M3.46033 41.9343H1.30507C1.01325 41.5163 0.783861 41.0618 0.624023 40.6006H2.77843C2.94462 41.0798 3.17583 41.5272 3.46033 41.9343Z" fill="#AA6100"/>
</g>
</g>
<defs>
<clipPath id="clip0_66_235">
<rect width="45" height="44.0217" fill="white" transform="translate(0.245117 0.489258)"/>
</clipPath>
</defs>
</svg>
