<svg width="242" height="51" viewBox="0 0 242 51" fill="none" xmlns="http://www.w3.org/2000/svg">
<path d="M42.3449 44.3819L2 4.03699M2 4.03699V44.3819M2 4.03699L2.55622 4.59321M15.4108 44.3449L55.7557 4M55.7557 4V44.3449M55.7557 4L54.8602 4.89556" stroke="white" stroke-width="4" stroke-linecap="round" stroke-linejoin="round"/>
<path d="M64.0625 7.625H66.125V20H64.0625V7.625ZM66.125 5.5625H64.0625V3.5H66.125V5.5625ZM80.2188 11.6533C80.2188 11.1377 80.1794 10.7116 80.1006 10.375C80.029 10.0312 79.8535 9.75911 79.5742 9.55859C79.2949 9.35091 78.8796 9.20768 78.3281 9.12891C77.7839 9.04297 77.0391 9 76.0938 9C75.1699 9 74.418 9.08236 73.8379 9.24707C73.2578 9.40462 72.8031 9.63021 72.4736 9.92383C72.1442 10.2174 71.9186 10.5684 71.7969 10.9766C71.6823 11.3848 71.625 11.8395 71.625 12.3408V20H69.5625V7.625H71.625V9.59082C71.6966 9.36882 71.8291 9.12533 72.0225 8.86035C72.2158 8.58822 72.5094 8.33757 72.9033 8.1084C73.2972 7.87207 73.8057 7.67513 74.4287 7.51758C75.0589 7.36003 75.8431 7.28125 76.7812 7.28125C77.8555 7.28125 78.7292 7.37793 79.4023 7.57129C80.0755 7.75749 80.5983 8.03678 80.9707 8.40918C81.3503 8.77441 81.6045 9.22917 81.7334 9.77344C81.8695 10.3177 81.9375 10.9443 81.9375 11.6533H80.2188ZM95.6338 18.3027C95.6123 18.3887 95.4512 18.6035 95.1504 18.9473C94.9355 19.2051 94.6491 19.4342 94.291 19.6348C93.9329 19.8281 93.4531 19.9785 92.8516 20.0859C92.2572 20.2005 91.473 20.2578 90.499 20.2578C89.2028 20.2578 88.0964 20.1898 87.1797 20.0537C86.263 19.9248 85.5146 19.7243 84.9346 19.4521C84.3545 19.1729 83.9284 18.8184 83.6562 18.3887C83.3913 17.959 83.2588 17.4469 83.2588 16.8525C83.2588 16.2295 83.3304 15.7031 83.4736 15.2734C83.624 14.8366 83.8389 14.4714 84.1182 14.1777C84.4046 13.8841 84.7484 13.6549 85.1494 13.4902C85.5505 13.3255 86.0052 13.2002 86.5137 13.1143C87.0293 13.0283 87.5915 12.9746 88.2002 12.9531C88.8089 12.9316 89.457 12.9209 90.1445 12.9209C91.1257 12.9209 91.9456 12.9639 92.6045 13.0498C93.2633 13.1286 93.8005 13.2324 94.2158 13.3613C94.6383 13.4831 94.957 13.6156 95.1719 13.7588C95.3867 13.902 95.5407 14.0345 95.6338 14.1562C95.6338 13.3542 95.598 12.6702 95.5264 12.1045C95.4619 11.5387 95.3509 11.0661 95.1934 10.6865C95.043 10.307 94.846 10.0062 94.6025 9.78418C94.359 9.55501 94.0583 9.38314 93.7002 9.26855C93.3493 9.15397 92.9375 9.08236 92.4648 9.05371C91.9922 9.0179 91.4515 9 90.8428 9C89.8975 9 89.1133 9.02507 88.4902 9.0752C87.8672 9.11816 87.373 9.20768 87.0078 9.34375C86.6426 9.47982 86.3848 9.6696 86.2344 9.91309C86.084 10.1494 86.0088 10.4609 86.0088 10.8477H83.9463C83.9463 10.196 84.0609 9.64453 84.29 9.19336C84.5264 8.74219 84.9131 8.37695 85.4502 8.09766C85.9945 7.8112 86.707 7.60352 87.5879 7.47461C88.4688 7.3457 89.5537 7.28125 90.8428 7.28125C92.1032 7.28125 93.1702 7.38509 94.0439 7.59277C94.9176 7.80046 95.623 8.16569 96.1602 8.68848C96.7044 9.21126 97.0947 9.91667 97.3311 10.8047C97.5745 11.6855 97.6963 12.8027 97.6963 14.1562V20H95.6338V18.3027ZM90.8428 18.625C91.7523 18.625 92.5114 18.582 93.1201 18.4961C93.736 18.4102 94.2301 18.2812 94.6025 18.1094C94.9749 17.9375 95.2399 17.7227 95.3975 17.4648C95.555 17.207 95.6338 16.9062 95.6338 16.5625C95.6338 16.2188 95.5407 15.9287 95.3545 15.6924C95.1755 15.4489 94.8711 15.252 94.4414 15.1016C94.0189 14.9512 93.4567 14.8438 92.7549 14.7793C92.0531 14.7077 91.1865 14.6719 90.1553 14.6719C89.124 14.6719 88.2897 14.6898 87.6523 14.7256C87.0221 14.7614 86.5352 14.8438 86.1914 14.9727C85.8477 15.1016 85.6149 15.2913 85.4932 15.542C85.3786 15.7926 85.3213 16.1328 85.3213 16.5625C85.3213 16.9922 85.3822 17.3431 85.5039 17.6152C85.6328 17.8802 85.8906 18.0879 86.2773 18.2383C86.6641 18.3887 87.2191 18.4925 87.9424 18.5498C88.6729 18.5999 89.6396 18.625 90.8428 18.625ZM112.488 14.5C112.488 15.5527 112.402 16.4336 112.23 17.1426C112.059 17.8444 111.769 18.4066 111.36 18.8291C110.959 19.2516 110.429 19.5524 109.771 19.7314C109.112 19.9105 108.299 20 107.332 20C106.394 20 105.606 19.9284 104.969 19.7852C104.331 19.6419 103.816 19.3984 103.422 19.0547C103.028 18.7109 102.745 18.2526 102.573 17.6797C102.401 17.1068 102.315 16.3906 102.315 15.5312V9.32227H99.7695V7.625H102.315V4.24121H104.378V7.625H112.145V9.32227H104.378V15.5312C104.378 16.2188 104.428 16.7487 104.528 17.1211C104.636 17.4935 104.804 17.7656 105.033 17.9375C105.262 18.1094 105.563 18.2096 105.936 18.2383C106.315 18.2669 106.777 18.2812 107.321 18.2812C107.751 18.2812 108.134 18.2741 108.471 18.2598C108.814 18.2454 109.112 18.2025 109.362 18.1309C109.62 18.0521 109.839 17.9375 110.018 17.7871C110.197 17.6296 110.34 17.4111 110.447 17.1318C110.562 16.8525 110.644 16.5016 110.694 16.0791C110.744 15.6494 110.77 15.123 110.77 14.5H112.488ZM114.207 13.7266C114.207 12.459 114.343 11.4098 114.615 10.5791C114.887 9.74837 115.324 9.08952 115.926 8.60254C116.527 8.11556 117.308 7.77539 118.268 7.58203C119.227 7.38151 120.395 7.28125 121.77 7.28125C123.145 7.28125 124.312 7.38151 125.271 7.58203C126.231 7.77539 127.012 8.11556 127.613 8.60254C128.215 9.08952 128.652 9.74837 128.924 10.5791C129.196 11.4098 129.332 12.459 129.332 13.7266C129.332 14.9941 129.196 16.0469 128.924 16.8848C128.652 17.7227 128.215 18.3887 127.613 18.8828C127.012 19.377 126.231 19.7279 125.271 19.9355C124.312 20.1361 123.145 20.2363 121.77 20.2363C120.395 20.2363 119.227 20.1361 118.268 19.9355C117.308 19.7279 116.527 19.377 115.926 18.8828C115.324 18.3887 114.887 17.7227 114.615 16.8848C114.343 16.0469 114.207 14.9941 114.207 13.7266ZM116.27 13.7266C116.27 14.4141 116.295 15.012 116.345 15.5205C116.395 16.029 116.488 16.4658 116.624 16.8311C116.767 17.1963 116.964 17.4935 117.215 17.7227C117.465 17.9518 117.795 18.1344 118.203 18.2705C118.611 18.4066 119.105 18.4997 119.686 18.5498C120.273 18.5999 120.967 18.625 121.77 18.625C122.457 18.625 123.069 18.6107 123.606 18.582C124.151 18.5462 124.623 18.471 125.024 18.3564C125.433 18.2419 125.78 18.0807 126.066 17.873C126.353 17.6582 126.582 17.3682 126.754 17.0029C126.933 16.6377 127.062 16.1901 127.141 15.6602C127.227 15.123 127.27 14.4785 127.27 13.7266C127.27 12.9889 127.227 12.3623 127.141 11.8467C127.062 11.3239 126.933 10.887 126.754 10.5361C126.582 10.1852 126.353 9.90951 126.066 9.70898C125.78 9.5013 125.433 9.34733 125.024 9.24707C124.623 9.13965 124.151 9.07161 123.606 9.04297C123.069 9.01432 122.457 9 121.77 9C121.082 9 120.466 9.01432 119.922 9.04297C119.385 9.07161 118.912 9.13965 118.504 9.24707C118.103 9.34733 117.759 9.5013 117.473 9.70898C117.186 9.90951 116.953 10.1852 116.774 10.5361C116.603 10.887 116.474 11.3239 116.388 11.8467C116.309 12.3623 116.27 12.9889 116.27 13.7266ZM144.113 20V13.125C144.113 12.3587 144.056 11.7142 143.941 11.1914C143.827 10.6615 143.598 10.2354 143.254 9.91309C142.91 9.59082 142.423 9.35807 141.793 9.21484C141.163 9.07161 140.332 9 139.301 9C138.184 9 137.267 9.08236 136.551 9.24707C135.842 9.41178 135.283 9.64453 134.875 9.94531C134.467 10.2461 134.184 10.6077 134.026 11.0303C133.876 11.4528 133.801 11.9219 133.801 12.4375V20H131.738V7.625H133.801V9.6875C133.951 9.33659 134.166 9.03581 134.445 8.78516C134.725 8.52734 135.04 8.30892 135.391 8.12988C135.742 7.95085 136.121 7.80762 136.529 7.7002C136.938 7.58561 137.346 7.49967 137.754 7.44238C138.162 7.37793 138.556 7.33496 138.936 7.31348C139.322 7.29199 139.673 7.28125 139.988 7.28125C140.905 7.28125 141.693 7.33854 142.352 7.45312C143.018 7.56771 143.58 7.736 144.038 7.95801C144.504 8.18001 144.876 8.45573 145.155 8.78516C145.435 9.11458 145.649 9.49772 145.8 9.93457C145.957 10.3643 146.061 10.8477 146.111 11.3848C146.161 11.9147 146.187 12.4948 146.187 13.125L146.176 20H144.113Z" fill="#D9D9D9"/>
<path d="M81.2393 32.6562C81.2393 31.7969 81.1462 31.1165 80.96 30.6152C80.7738 30.1139 80.4658 29.7344 80.0361 29.4766C79.6064 29.2188 79.0407 29.054 78.3389 28.9824C77.6442 28.9108 76.7812 28.875 75.75 28.875H70.9268C70.0101 28.875 69.2367 28.9036 68.6064 28.9609C67.9834 29.0111 67.4678 29.1185 67.0596 29.2832C66.6514 29.4479 66.3363 29.6842 66.1143 29.9922C65.8923 30.3001 65.7311 30.7083 65.6309 31.2168C65.5306 31.7253 65.4733 32.3519 65.459 33.0967C65.4447 33.8343 65.4375 34.7188 65.4375 35.75C65.4375 36.7812 65.4447 37.6693 65.459 38.4141C65.4805 39.1517 65.5413 39.7747 65.6416 40.2832C65.7419 40.7917 65.8994 41.1999 66.1143 41.5078C66.3363 41.8158 66.6514 42.0521 67.0596 42.2168C67.4678 42.3815 67.9834 42.4925 68.6064 42.5498C69.2367 42.5999 70.0101 42.625 70.9268 42.625H75.75C76.5521 42.625 77.2432 42.6035 77.8232 42.5605C78.4033 42.5176 78.8975 42.4388 79.3057 42.3242C79.7139 42.2096 80.0433 42.0521 80.2939 41.8516C80.5446 41.651 80.738 41.4004 80.874 41.0996C81.0173 40.7917 81.1139 40.4264 81.1641 40.0039C81.2142 39.5742 81.2393 39.0729 81.2393 38.5H83.3018C83.3018 39.1875 83.2588 39.8105 83.1729 40.3691C83.0869 40.9206 82.9329 41.4147 82.7109 41.8516C82.4961 42.2812 82.2061 42.6536 81.8408 42.9688C81.4756 43.2839 81.0137 43.5452 80.4551 43.7529C79.8965 43.9535 79.2305 44.1003 78.457 44.1934C77.6836 44.2936 76.7812 44.3438 75.75 44.3438H70.9268C69.6663 44.3438 68.6029 44.265 67.7363 44.1074C66.877 43.957 66.168 43.7279 65.6094 43.4199C65.0508 43.1048 64.6175 42.7109 64.3096 42.2383C64.0088 41.7656 63.7868 41.2106 63.6436 40.5732C63.5075 39.9359 63.4287 39.2161 63.4072 38.4141C63.3857 37.612 63.375 36.724 63.375 35.75C63.375 34.776 63.3857 33.888 63.4072 33.0859C63.4287 32.2839 63.5075 31.5641 63.6436 30.9268C63.7868 30.2894 64.0088 29.7344 64.3096 29.2617C64.6175 28.7891 65.0508 28.3988 65.6094 28.0908C66.168 27.7757 66.877 27.543 67.7363 27.3926C68.6029 27.235 69.6663 27.1562 70.9268 27.1562H75.75C76.7812 27.1562 77.6836 27.2064 78.457 27.3066C79.2305 27.3997 79.8965 27.5465 80.4551 27.7471C81.0137 27.9404 81.4756 28.1875 81.8408 28.4883C82.2061 28.7891 82.4961 29.1436 82.7109 29.5518C82.9329 29.96 83.0869 30.4219 83.1729 30.9375C83.2588 31.4531 83.3018 32.026 83.3018 32.6562H81.2393ZM85.0312 37.7266C85.0312 36.459 85.1673 35.4098 85.4395 34.5791C85.7116 33.7484 86.1484 33.0895 86.75 32.6025C87.3516 32.1156 88.1322 31.7754 89.0918 31.582C90.0514 31.3815 91.2188 31.2812 92.5938 31.2812C93.9688 31.2812 95.1361 31.3815 96.0957 31.582C97.0553 31.7754 97.8359 32.1156 98.4375 32.6025C99.0391 33.0895 99.4759 33.7484 99.748 34.5791C100.02 35.4098 100.156 36.459 100.156 37.7266C100.156 38.9941 100.02 40.0469 99.748 40.8848C99.4759 41.7227 99.0391 42.3887 98.4375 42.8828C97.8359 43.377 97.0553 43.7279 96.0957 43.9355C95.1361 44.1361 93.9688 44.2363 92.5938 44.2363C91.2188 44.2363 90.0514 44.1361 89.0918 43.9355C88.1322 43.7279 87.3516 43.377 86.75 42.8828C86.1484 42.3887 85.7116 41.7227 85.4395 40.8848C85.1673 40.0469 85.0312 38.9941 85.0312 37.7266ZM87.0938 37.7266C87.0938 38.4141 87.1188 39.012 87.1689 39.5205C87.2191 40.029 87.3122 40.4658 87.4482 40.8311C87.5915 41.1963 87.7884 41.4935 88.0391 41.7227C88.2897 41.9518 88.6191 42.1344 89.0273 42.2705C89.4355 42.4066 89.9297 42.4997 90.5098 42.5498C91.097 42.5999 91.7917 42.625 92.5938 42.625C93.2812 42.625 93.8936 42.6107 94.4307 42.582C94.9749 42.5462 95.4476 42.471 95.8486 42.3564C96.2568 42.2419 96.6042 42.0807 96.8906 41.873C97.1771 41.6582 97.4062 41.3682 97.5781 41.0029C97.7572 40.6377 97.8861 40.1901 97.9648 39.6602C98.0508 39.123 98.0938 38.4785 98.0938 37.7266C98.0938 36.9889 98.0508 36.3623 97.9648 35.8467C97.8861 35.3239 97.7572 34.887 97.5781 34.5361C97.4062 34.1852 97.1771 33.9095 96.8906 33.709C96.6042 33.5013 96.2568 33.3473 95.8486 33.2471C95.4476 33.1396 94.9749 33.0716 94.4307 33.043C93.8936 33.0143 93.2812 33 92.5938 33C91.9062 33 91.2904 33.0143 90.7461 33.043C90.209 33.0716 89.7363 33.1396 89.3281 33.2471C88.9271 33.3473 88.5833 33.5013 88.2969 33.709C88.0104 33.9095 87.7777 34.1852 87.5986 34.5361C87.4268 34.887 87.2979 35.3239 87.2119 35.8467C87.1331 36.3623 87.0938 36.9889 87.0938 37.7266ZM115.625 44H113.562V37.0176C113.562 36.2728 113.512 35.6462 113.412 35.1377C113.319 34.6221 113.122 34.2067 112.821 33.8916C112.528 33.5765 112.109 33.3509 111.564 33.2148C111.027 33.0716 110.318 33 109.438 33C108.471 33 107.676 33.0824 107.053 33.2471C106.43 33.4046 105.939 33.6302 105.581 33.9238C105.223 34.2103 104.972 34.5576 104.829 34.9658C104.693 35.374 104.625 35.8288 104.625 36.3301V44H102.562V31.625H104.625V33.5801C104.632 33.5586 104.664 33.487 104.722 33.3652C104.779 33.2435 104.879 33.1003 105.022 32.9355C105.173 32.7637 105.373 32.5811 105.624 32.3877C105.882 32.1943 106.211 32.0153 106.612 31.8506C107.021 31.6859 107.511 31.5498 108.084 31.4424C108.657 31.335 109.337 31.2812 110.125 31.2812C110.898 31.2812 111.568 31.3314 112.134 31.4316C112.707 31.5247 113.194 31.668 113.595 31.8613C114.003 32.0475 114.332 32.2839 114.583 32.5703C114.841 32.8496 115.045 33.1719 115.195 33.5371C115.317 33.3438 115.507 33.1182 115.765 32.8604C116.022 32.6025 116.381 32.3555 116.839 32.1191C117.304 31.8828 117.884 31.6859 118.579 31.5283C119.274 31.3636 120.122 31.2812 121.125 31.2812C121.949 31.2812 122.654 31.3385 123.241 31.4531C123.836 31.5605 124.337 31.7253 124.745 31.9473C125.153 32.1621 125.479 32.4307 125.723 32.7529C125.973 33.0752 126.163 33.4512 126.292 33.8809C126.428 34.3034 126.518 34.7796 126.561 35.3096C126.604 35.8324 126.625 36.4017 126.625 37.0176V44H124.562V37.0176C124.562 36.2728 124.512 35.6462 124.412 35.1377C124.319 34.6221 124.122 34.2067 123.821 33.8916C123.528 33.5765 123.109 33.3509 122.564 33.2148C122.027 33.0716 121.318 33 120.438 33C119.471 33 118.676 33.0824 118.053 33.2471C117.43 33.4046 116.939 33.6302 116.581 33.9238C116.223 34.2103 115.972 34.5576 115.829 34.9658C115.693 35.374 115.625 35.8288 115.625 36.3301V44ZM136.938 31.2812C138.312 31.2812 139.48 31.3851 140.439 31.5928C141.399 31.8005 142.18 32.1549 142.781 32.6562C143.383 33.1576 143.82 33.8307 144.092 34.6758C144.364 35.5137 144.5 36.5664 144.5 37.834C144.5 39.0801 144.364 40.1149 144.092 40.9385C143.82 41.762 143.383 42.4173 142.781 42.9043C142.18 43.3913 141.399 43.735 140.439 43.9355C139.48 44.1361 138.312 44.2363 136.938 44.2363C135.956 44.2363 135.136 44.1826 134.478 44.0752C133.819 43.9678 133.278 43.8353 132.855 43.6777C132.44 43.513 132.121 43.3376 131.899 43.1514C131.685 42.9652 131.531 42.7897 131.438 42.625V48.125H129.375V31.625H131.438V32.7744C131.531 32.6312 131.685 32.4736 131.899 32.3018C132.121 32.1227 132.44 31.958 132.855 31.8076C133.278 31.6572 133.819 31.5319 134.478 31.4316C135.136 31.3314 135.956 31.2812 136.938 31.2812ZM136.938 33C136.25 33 135.638 33.0179 135.101 33.0537C134.563 33.0895 134.091 33.1647 133.683 33.2793C133.274 33.3867 132.927 33.5479 132.641 33.7627C132.361 33.9704 132.132 34.2533 131.953 34.6113C131.774 34.9622 131.642 35.3991 131.556 35.9219C131.477 36.4447 131.438 37.0713 131.438 37.8018C131.438 38.5394 131.477 39.1732 131.556 39.7031C131.642 40.2331 131.774 40.6771 131.953 41.0352C132.132 41.3861 132.361 41.6689 132.641 41.8838C132.927 42.0915 133.274 42.2526 133.683 42.3672C134.091 42.4746 134.563 42.5462 135.101 42.582C135.638 42.6107 136.25 42.625 136.938 42.625C137.74 42.625 138.431 42.5999 139.011 42.5498C139.598 42.4997 140.096 42.4102 140.504 42.2812C140.912 42.1523 141.242 41.9733 141.492 41.7441C141.75 41.515 141.947 41.2249 142.083 40.874C142.226 40.516 142.319 40.0898 142.362 39.5957C142.412 39.0944 142.438 38.5072 142.438 37.834C142.438 37.1608 142.412 36.5736 142.362 36.0723C142.319 35.571 142.226 35.1413 142.083 34.7832C141.947 34.4251 141.75 34.1315 141.492 33.9023C141.242 33.6732 140.912 33.4906 140.504 33.3545C140.096 33.2184 139.598 33.1253 139.011 33.0752C138.431 33.0251 137.74 33 136.938 33ZM159.228 42.3027C159.206 42.3887 159.045 42.6035 158.744 42.9473C158.529 43.2051 158.243 43.4342 157.885 43.6348C157.527 43.8281 157.047 43.9785 156.445 44.0859C155.851 44.2005 155.067 44.2578 154.093 44.2578C152.797 44.2578 151.69 44.1898 150.773 44.0537C149.857 43.9248 149.108 43.7243 148.528 43.4521C147.948 43.1729 147.522 42.8184 147.25 42.3887C146.985 41.959 146.853 41.4469 146.853 40.8525C146.853 40.2295 146.924 39.7031 147.067 39.2734C147.218 38.8366 147.433 38.4714 147.712 38.1777C147.998 37.8841 148.342 37.6549 148.743 37.4902C149.144 37.3255 149.599 37.2002 150.107 37.1143C150.623 37.0283 151.185 36.9746 151.794 36.9531C152.403 36.9316 153.051 36.9209 153.738 36.9209C154.719 36.9209 155.539 36.9639 156.198 37.0498C156.857 37.1286 157.394 37.2324 157.81 37.3613C158.232 37.4831 158.551 37.6156 158.766 37.7588C158.98 37.902 159.134 38.0345 159.228 38.1562C159.228 37.3542 159.192 36.6702 159.12 36.1045C159.056 35.5387 158.945 35.0661 158.787 34.6865C158.637 34.307 158.44 34.0062 158.196 33.7842C157.953 33.555 157.652 33.3831 157.294 33.2686C156.943 33.154 156.531 33.0824 156.059 33.0537C155.586 33.0179 155.045 33 154.437 33C153.491 33 152.707 33.0251 152.084 33.0752C151.461 33.1182 150.967 33.2077 150.602 33.3438C150.236 33.4798 149.979 33.6696 149.828 33.9131C149.678 34.1494 149.603 34.4609 149.603 34.8477H147.54C147.54 34.196 147.655 33.6445 147.884 33.1934C148.12 32.7422 148.507 32.377 149.044 32.0977C149.588 31.8112 150.301 31.6035 151.182 31.4746C152.062 31.3457 153.147 31.2812 154.437 31.2812C155.697 31.2812 156.764 31.3851 157.638 31.5928C158.511 31.8005 159.217 32.1657 159.754 32.6885C160.298 33.2113 160.688 33.9167 160.925 34.8047C161.168 35.6855 161.29 36.8027 161.29 38.1562V44H159.228V42.3027ZM154.437 42.625C155.346 42.625 156.105 42.582 156.714 42.4961C157.33 42.4102 157.824 42.2812 158.196 42.1094C158.569 41.9375 158.834 41.7227 158.991 41.4648C159.149 41.207 159.228 40.9062 159.228 40.5625C159.228 40.2188 159.134 39.9287 158.948 39.6924C158.769 39.4489 158.465 39.252 158.035 39.1016C157.613 38.9512 157.05 38.8438 156.349 38.7793C155.647 38.7077 154.78 38.6719 153.749 38.6719C152.718 38.6719 151.883 38.6898 151.246 38.7256C150.616 38.7614 150.129 38.8438 149.785 38.9727C149.441 39.1016 149.209 39.2913 149.087 39.542C148.972 39.7926 148.915 40.1328 148.915 40.5625C148.915 40.9922 148.976 41.3431 149.098 41.6152C149.227 41.8802 149.484 42.0879 149.871 42.2383C150.258 42.3887 150.813 42.4925 151.536 42.5498C152.267 42.5999 153.233 42.625 154.437 42.625ZM176.426 44V37.125C176.426 36.3587 176.368 35.7142 176.254 35.1914C176.139 34.6615 175.91 34.2354 175.566 33.9131C175.223 33.5908 174.736 33.3581 174.105 33.2148C173.475 33.0716 172.645 33 171.613 33C170.496 33 169.579 33.0824 168.863 33.2471C168.154 33.4118 167.596 33.6445 167.188 33.9453C166.779 34.2461 166.496 34.6077 166.339 35.0303C166.188 35.4528 166.113 35.9219 166.113 36.4375V44H164.051V31.625H166.113V33.6875C166.264 33.3366 166.479 33.0358 166.758 32.7852C167.037 32.5273 167.352 32.3089 167.703 32.1299C168.054 31.9508 168.434 31.8076 168.842 31.7002C169.25 31.5856 169.658 31.4997 170.066 31.4424C170.475 31.3779 170.868 31.335 171.248 31.3135C171.635 31.292 171.986 31.2812 172.301 31.2812C173.217 31.2812 174.005 31.3385 174.664 31.4531C175.33 31.5677 175.892 31.736 176.351 31.958C176.816 32.18 177.188 32.4557 177.468 32.7852C177.747 33.1146 177.962 33.4977 178.112 33.9346C178.27 34.3643 178.374 34.8477 178.424 35.3848C178.474 35.9147 178.499 36.4948 178.499 37.125L178.488 44H176.426ZM186.416 44L179.885 31.625H182.291L187.791 42.625L192.947 31.625H195.354L189.166 44L188.822 44.6875C188.65 45.0312 188.479 45.3535 188.307 45.6543C188.142 45.9622 187.952 46.2415 187.737 46.4922C187.522 46.75 187.268 46.9792 186.975 47.1797C186.681 47.3802 186.319 47.5485 185.89 47.6846C185.467 47.8278 184.962 47.9352 184.375 48.0068C183.788 48.0856 183.093 48.125 182.291 48.125V46.4062C182.979 46.4062 183.559 46.3776 184.031 46.3203C184.504 46.2702 184.898 46.1914 185.213 46.084C185.535 45.9837 185.793 45.862 185.986 45.7188C186.18 45.5755 186.341 45.4144 186.47 45.2354C186.599 45.0563 186.706 44.863 186.792 44.6553C186.885 44.4476 186.989 44.2292 187.104 44H186.416Z" fill="#D9D9D9"/>
</svg>
